0
SECTION
2
HEADER
9
$ANGBASE
50
0.0
9
$ANGDIR
70
0
0
ENDSEC
0
SECTION
2
TABLES
0
TABLE
2
LTYPE
70
1
0
LTYPE
2
CONTINUOUS
70
0
3
Solid line
72
65
73
0
40
0.0
0
ENDTAB
0
TABLE
2
LAYER
70
24
0
LAYER
2
BLACK
70
0
62
1
6
CONTINUOUS
0
LAYER
2
BLUE
70
0
62
2
6
CONTINUOUS
0
LAYER
2
GREEN
70
0
62
3
6
CONTINUOUS
0
LAYER
2
CYAN
70
0
62
4
6
CONTINUOUS
0
LAYER
2
RED
70
0
62
5
6
CONTINUOUS
0
LAYER
2
MAGENTA
70
0
62
6
6
CONTINUOUS
0
LAYER
2
BROWN
70
0
62
7
6
CONTINUOUS
0
LAYER
2
GRAY
70
0
62
8
6
CONTINUOUS
0
LAYER
2
DARKGRAY
70
0
62
9
6
CONTINUOUS
0
LAYER
2
LIGHTBLUE
70
0
62
10
6
CONTINUOUS
0
LAYER
2
LIGHTGREEN
70
0
62
11
6
CONTINUOUS
0
LAYER
2
LIGHTCYAN
70
0
62
12
6
CONTINUOUS
0
LAYER
2
LIGHTRED
70
0
62
13
6
CONTINUOUS
0
LAYER
2
LIGHTMAGENTA
70
0
62
14
6
CONTINUOUS
0
LAYER
2
YELLOW
70
0
62
15
6
CONTINUOUS
0
LAYER
2
WHITE
70
0
62
16
6
CONTINUOUS
0
LAYER
2
DARKDARKGRAY
70
0
62
17
6
CONTINUOUS
0
LAYER
2
DARKBLUE
70
0
62
18
6
CONTINUOUS
0
LAYER
2
DARKGREEN
70
0
62
19
6
CONTINUOUS
0
LAYER
2
DARKCYAN
70
0
62
20
6
CONTINUOUS
0
LAYER
2
DARKRED
70
0
62
21
6
CONTINUOUS
0
LAYER
2
DARKMAGENTA
70
0
62
22
6
CONTINUOUS
0
LAYER
2
DARKBROWN
70
0
62
23
6
CONTINUOUS
0
LAYER
2
LIGHTYELLOW
70
0
62
24
6
CONTINUOUS
0
ENDTAB
0
ENDSEC
0
SECTION
2
ENTITIES
0
LINE
8
BLACK
10
25984.0
20
14485.0
11
26378.0
21
14485.0
0
LINE
8
BLACK
10
25984.0
20
14635.0
11
26378.0
21
14635.0
0
ARC
8
BLACK
10
26378.0
20
14560.0
40
75.0
50
270.0
51
450.0
0
ARC
8
BLACK
10
25984.0
20
14560.0
40
75.0
50
90.0
51
270.0
0
LINE
8
BLACK
10
26059.0
20
14560.0
11
26059.0
21
72040.0
0
LINE
8
BLACK
10
25909.0
20
14560.0
11
25909.0
21
72040.0
0
ARC
8
BLACK
10
25984.0
20
72040.0
40
75.0
50
360.0
51
540.0
0
ARC
8
BLACK
10
25984.0
20
14560.0
40
75.0
50
180.0
51
360.0
0
LINE
8
BLACK
10
25984.0
20
71965.0
11
27164.0
21
71965.0
0
LINE
8
BLACK
10
25984.0
20
72115.0
11
27164.0
21
72115.0
0
ARC
8
BLACK
10
27164.0
20
72040.0
40
75.0
50
270.0
51
450.0
0
ARC
8
BLACK
10
25984.0
20
72040.0
40
75.0
50
90.0
51
270.0
0
LINE
8
BLACK
10
27165.0
20
71965.0
11
94093.0
21
71965.0
0
LINE
8
BLACK
10
27165.0
20
72115.0
11
94093.0
21
72115.0
0
ARC
8
BLACK
10
94093.0
20
72040.0
40
75.0
50
270.0
51
450.0
0
ARC
8
BLACK
10
27165.0
20
72040.0
40
75.0
50
90.0
51
270.0
0
LINE
8
BLACK
10
94169.0
20
14560.0
11
94169.0
21
72040.0
0
LINE
8
BLACK
10
94019.0
20
14560.0
11
94019.0
21
72040.0
0
ARC
8
BLACK
10
94094.0
20
72040.0
40
75.0
50
360.0
51
540.0
0
ARC
8
BLACK
10
94094.0
20
14560.0
40
75.0
50
180.0
51
360.0
0
LINE
8
BLACK
10
26378.0
20
14485.0
11
94094.0
21
14485.0
0
LINE
8
BLACK
10
26378.0
20
14635.0
11
94094.0
21
14635.0
0
ARC
8
BLACK
10
94094.0
20
14560.0
40
75.0
50
270.0
51
450.0
0
ARC
8
BLACK
10
26378.0
20
14560.0
40
75.0
50
90.0
51
270.0
0
CIRCLE
8
BLACK
10
35827.0
20
61016.0
40
375
0
CIRCLE
8
BLACK
10
33465.0
20
58064.0
40
375
0
CIRCLE
8
BLACK
10
33465.0
20
59835.0
40
375
0
LINE
8
BLACK
10
29790.0
20
61341.0
11
29790.0
21
60691.0
0
LINE
8
BLACK
10
29790.0
20
60691.0
11
30240.0
21
60691.0
0
LINE
8
BLACK
10
30240.0
20
60691.0
11
30240.0
21
61341.0
0
LINE
8
BLACK
10
30240.0
20
61341.0
11
29790.0
21
61341.0
0
LINE
8
BLACK
10
30390.0
20
61341.0
11
30390.0
21
60691.0
0
LINE
8
BLACK
10
30390.0
20
60691.0
11
30840.0
21
60691.0
0
LINE
8
BLACK
10
30840.0
20
60691.0
11
30840.0
21
61341.0
0
LINE
8
BLACK
10
30840.0
20
61341.0
11
30390.0
21
61341.0
0
LINE
8
BLACK
10
29790.0
20
59373.0
11
29790.0
21
58723.0
0
LINE
8
BLACK
10
29790.0
20
58723.0
11
30240.0
21
58723.0
0
LINE
8
BLACK
10
30240.0
20
58723.0
11
30240.0
21
59373.0
0
LINE
8
BLACK
10
30240.0
20
59373.0
11
29790.0
21
59373.0
0
LINE
8
BLACK
10
30390.0
20
59373.0
11
30390.0
21
58723.0
0
LINE
8
BLACK
10
30390.0
20
58723.0
11
30840.0
21
58723.0
0
LINE
8
BLACK
10
30840.0
20
58723.0
11
30840.0
21
59373.0
0
LINE
8
BLACK
10
30840.0
20
59373.0
11
30390.0
21
59373.0
0
LINE
8
BLACK
10
33721.0
20
55307.0
11
33721.0
21
56057.0
0
LINE
8
BLACK
10
33721.0
20
56057.0
11
33171.0
21
56057.0
0
LINE
8
BLACK
10
33171.0
20
56057.0
11
33171.0
21
55307.0
0
LINE
8
BLACK
10
33171.0
20
55307.0
11
33721.0
21
55307.0
0
LINE
8
BLACK
10
32971.0
20
55307.0
11
32971.0
21
56057.0
0
LINE
8
BLACK
10
32971.0
20
56057.0
11
32421.0
21
56057.0
0
LINE
8
BLACK
10
32421.0
20
56057.0
11
32421.0
21
55307.0
0
LINE
8
BLACK
10
32421.0
20
55307.0
11
32971.0
21
55307.0
0
LINE
8
BLACK
10
33721.0
20
56134.0
11
33721.0
21
56884.0
0
LINE
8
BLACK
10
33721.0
20
56884.0
11
33171.0
21
56884.0
0
LINE
8
BLACK
10
33171.0
20
56884.0
11
33171.0
21
56134.0
0
LINE
8
BLACK
10
33171.0
20
56134.0
11
33721.0
21
56134.0
0
LINE
8
BLACK
10
32971.0
20
56134.0
11
32971.0
21
56884.0
0
LINE
8
BLACK
10
32971.0
20
56884.0
11
32421.0
21
56884.0
0
LINE
8
BLACK
10
32421.0
20
56884.0
11
32421.0
21
56134.0
0
LINE
8
BLACK
10
32421.0
20
56134.0
11
32971.0
21
56134.0
0
LINE
8
BLACK
10
29665.0
20
60407.0
11
29665.0
21
59657.0
0
LINE
8
BLACK
10
29665.0
20
59657.0
11
30215.0
21
59657.0
0
LINE
8
BLACK
10
30215.0
20
59657.0
11
30215.0
21
60407.0
0
LINE
8
BLACK
10
30215.0
20
60407.0
11
29665.0
21
60407.0
0
LINE
8
BLACK
10
30415.0
20
60407.0
11
30415.0
21
59657.0
0
LINE
8
BLACK
10
30415.0
20
59657.0
11
30965.0
21
59657.0
0
LINE
8
BLACK
10
30965.0
20
59657.0
11
30965.0
21
60407.0
0
LINE
8
BLACK
10
30965.0
20
60407.0
11
30415.0
21
60407.0
0
LINE
8
BLACK
10
71869.0
20
24540.0
11
72619.0
21
24540.0
0
LINE
8
BLACK
10
72619.0
20
24540.0
11
72619.0
21
25090.0
0
LINE
8
BLACK
10
72619.0
20
25090.0
11
71869.0
21
25090.0
0
LINE
8
BLACK
10
71869.0
20
25090.0
11
71869.0
21
24540.0
0
LINE
8
BLACK
10
71869.0
20
25290.0
11
72619.0
21
25290.0
0
LINE
8
BLACK
10
72619.0
20
25290.0
11
72619.0
21
25840.0
0
LINE
8
BLACK
10
72619.0
20
25840.0
11
71869.0
21
25840.0
0
LINE
8
BLACK
10
71869.0
20
25840.0
11
71869.0
21
25290.0
0
LINE
8
BLACK
10
73247.0
20
24540.0
11
73997.0
21
24540.0
0
LINE
8
BLACK
10
73997.0
20
24540.0
11
73997.0
21
25090.0
0
LINE
8
BLACK
10
73997.0
20
25090.0
11
73247.0
21
25090.0
0
LINE
8
BLACK
10
73247.0
20
25090.0
11
73247.0
21
24540.0
0
LINE
8
BLACK
10
73247.0
20
25290.0
11
73997.0
21
25290.0
0
LINE
8
BLACK
10
73997.0
20
25290.0
11
73997.0
21
25840.0
0
LINE
8
BLACK
10
73997.0
20
25840.0
11
73247.0
21
25840.0
0
LINE
8
BLACK
10
73247.0
20
25840.0
11
73247.0
21
25290.0
0
LINE
8
BLACK
10
29889.0
20
55886.0
11
29889.0
21
54886.0
0
LINE
8
BLACK
10
29889.0
20
54886.0
11
31529.0
21
54886.0
0
LINE
8
BLACK
10
31529.0
20
54886.0
11
31529.0
21
55886.0
0
LINE
8
BLACK
10
31529.0
20
55886.0
11
29889.0
21
55886.0
0
LINE
8
BLACK
10
30409.0
20
58486.0
11
30409.0
21
57486.0
0
LINE
8
BLACK
10
30409.0
20
57486.0
11
31009.0
21
57486.0
0
LINE
8
BLACK
10
31009.0
20
57486.0
11
31009.0
21
58486.0
0
LINE
8
BLACK
10
31009.0
20
58486.0
11
30409.0
21
58486.0
0
LINE
8
BLACK
10
31309.0
20
58486.0
11
31309.0
21
57486.0
0
LINE
8
BLACK
10
31309.0
20
57486.0
11
31909.0
21
57486.0
0
LINE
8
BLACK
10
31909.0
20
57486.0
11
31909.0
21
58486.0
0
LINE
8
BLACK
10
31909.0
20
58486.0
11
31309.0
21
58486.0
0
LINE
8
BLACK
10
29509.0
20
58486.0
11
29509.0
21
57486.0
0
LINE
8
BLACK
10
29509.0
20
57486.0
11
30109.0
21
57486.0
0
LINE
8
BLACK
10
30109.0
20
57486.0
11
30109.0
21
58486.0
0
LINE
8
BLACK
10
30109.0
20
58486.0
11
29509.0
21
58486.0
0
LINE
8
BLACK
10
68649.0
20
25459.0
11
67649.0
21
25459.0
0
LINE
8
BLACK
10
67649.0
20
25459.0
11
67649.0
21
23819.0
0
LINE
8
BLACK
10
67649.0
20
23819.0
11
68649.0
21
23819.0
0
LINE
8
BLACK
10
68649.0
20
23819.0
11
68649.0
21
25459.0
0
LINE
8
BLACK
10
71249.0
20
24939.0
11
70249.0
21
24939.0
0
LINE
8
BLACK
10
70249.0
20
24939.0
11
70249.0
21
24339.0
0
LINE
8
BLACK
10
70249.0
20
24339.0
11
71249.0
21
24339.0
0
LINE
8
BLACK
10
71249.0
20
24339.0
11
71249.0
21
24939.0
0
LINE
8
BLACK
10
71249.0
20
24039.0
11
70249.0
21
24039.0
0
LINE
8
BLACK
10
70249.0
20
24039.0
11
70249.0
21
23439.0
0
LINE
8
BLACK
10
70249.0
20
23439.0
11
71249.0
21
23439.0
0
LINE
8
BLACK
10
71249.0
20
23439.0
11
71249.0
21
24039.0
0
LINE
8
BLACK
10
71249.0
20
25839.0
11
70249.0
21
25839.0
0
LINE
8
BLACK
10
70249.0
20
25839.0
11
70249.0
21
25239.0
0
LINE
8
BLACK
10
70249.0
20
25239.0
11
71249.0
21
25239.0
0
LINE
8
BLACK
10
71249.0
20
25239.0
11
71249.0
21
25839.0
0
CIRCLE
8
BLACK
10
56693.0
20
43300.0
40
375
0
CIRCLE
8
BLACK
10
55512.0
20
43300.0
40
375
0
CIRCLE
8
BLACK
10
49213.0
20
43300.0
40
375
0
CIRCLE
8
BLACK
10
50000.0
20
43300.0
40
375
0
CIRCLE
8
BLACK
10
50787.0
20
43300.0
40
375
0
CIRCLE
8
BLACK
10
51575.0
20
43300.0
40
375
0
CIRCLE
8
BLACK
10
52362.0
20
43300.0
40
375
0
CIRCLE
8
BLACK
10
53150.0
20
43300.0
40
375
0
CIRCLE
8
BLACK
10
55512.0
20
57079.0
40
375
0
CIRCLE
8
BLACK
10
53937.0
20
57079.0
40
375
0
CIRCLE
8
BLACK
10
52362.0
20
57079.0
40
375
0
CIRCLE
8
BLACK
10
50787.0
20
57079.0
40
375
0
CIRCLE
8
BLACK
10
54724.0
20
56292.0
40
375
0
CIRCLE
8
BLACK
10
53150.0
20
56292.0
40
375
0
CIRCLE
8
BLACK
10
51575.0
20
56292.0
40
375
0
CIRCLE
8
BLACK
10
50000.0
20
56292.0
40
375
0
CIRCLE
8
BLACK
10
42913.0
20
43300.0
40
375
0
CIRCLE
8
BLACK
10
43701.0
20
43300.0
40
375
0
CIRCLE
8
BLACK
10
44488.0
20
43300.0
40
375
0
CIRCLE
8
BLACK
10
45276.0
20
43300.0
40
375
0
CIRCLE
8
BLACK
10
46063.0
20
43300.0
40
375
0
CIRCLE
8
BLACK
10
46850.0
20
43300.0
40
375
0
CIRCLE
8
BLACK
10
47638.0
20
43300.0
40
375
0
CIRCLE
8
BLACK
10
48425.0
20
43300.0
40
375
0
CIRCLE
8
BLACK
10
40157.0
20
57670.0
40
375
0
CIRCLE
8
BLACK
10
40157.0
20
56883.0
40
375
0
CIRCLE
8
BLACK
10
40157.0
20
56095.0
40
375
0
CIRCLE
8
BLACK
10
40157.0
20
55308.0
40
375
0
CIRCLE
8
BLACK
10
40157.0
20
54521.0
40
375
0
CIRCLE
8
BLACK
10
40157.0
20
53733.0
40
375
0
CIRCLE
8
BLACK
10
40157.0
20
52946.0
40
375
0
CIRCLE
8
BLACK
10
40157.0
20
52158.0
40
375
0
LINE
8
BLACK
10
75484.0
20
17447.0
11
76484.0
21
17447.0
0
LINE
8
BLACK
10
76484.0
20
17447.0
11
76484.0
21
18247.0
0
LINE
8
BLACK
10
76484.0
20
18247.0
11
75484.0
21
18247.0
0
LINE
8
BLACK
10
75484.0
20
18247.0
11
75484.0
21
17447.0
0
LINE
8
BLACK
10
75484.0
20
18747.0
11
76484.0
21
18747.0
0
LINE
8
BLACK
10
76484.0
20
18747.0
11
76484.0
21
19547.0
0
LINE
8
BLACK
10
76484.0
20
19547.0
11
75484.0
21
19547.0
0
LINE
8
BLACK
10
75484.0
20
19547.0
11
75484.0
21
18747.0
0
LINE
8
BLACK
10
68791.0
20
17447.0
11
69791.0
21
17447.0
0
LINE
8
BLACK
10
69791.0
20
17447.0
11
69791.0
21
18247.0
0
LINE
8
BLACK
10
69791.0
20
18247.0
11
68791.0
21
18247.0
0
LINE
8
BLACK
10
68791.0
20
18247.0
11
68791.0
21
17447.0
0
LINE
8
BLACK
10
68791.0
20
18747.0
11
69791.0
21
18747.0
0
LINE
8
BLACK
10
69791.0
20
18747.0
11
69791.0
21
19547.0
0
LINE
8
BLACK
10
69791.0
20
19547.0
11
68791.0
21
19547.0
0
LINE
8
BLACK
10
68791.0
20
19547.0
11
68791.0
21
18747.0
0
LINE
8
BLACK
10
62098.0
20
17447.0
11
63098.0
21
17447.0
0
LINE
8
BLACK
10
63098.0
20
17447.0
11
63098.0
21
18247.0
0
LINE
8
BLACK
10
63098.0
20
18247.0
11
62098.0
21
18247.0
0
LINE
8
BLACK
10
62098.0
20
18247.0
11
62098.0
21
17447.0
0
LINE
8
BLACK
10
62098.0
20
18747.0
11
63098.0
21
18747.0
0
LINE
8
BLACK
10
63098.0
20
18747.0
11
63098.0
21
19547.0
0
LINE
8
BLACK
10
63098.0
20
19547.0
11
62098.0
21
19547.0
0
LINE
8
BLACK
10
62098.0
20
19547.0
11
62098.0
21
18747.0
0
LINE
8
BLACK
10
55405.0
20
17447.0
11
56405.0
21
17447.0
0
LINE
8
BLACK
10
56405.0
20
17447.0
11
56405.0
21
18247.0
0
LINE
8
BLACK
10
56405.0
20
18247.0
11
55405.0
21
18247.0
0
LINE
8
BLACK
10
55405.0
20
18247.0
11
55405.0
21
17447.0
0
LINE
8
BLACK
10
55405.0
20
18747.0
11
56405.0
21
18747.0
0
LINE
8
BLACK
10
56405.0
20
18747.0
11
56405.0
21
19547.0
0
LINE
8
BLACK
10
56405.0
20
19547.0
11
55405.0
21
19547.0
0
LINE
8
BLACK
10
55405.0
20
19547.0
11
55405.0
21
18747.0
0
LINE
8
BLACK
10
48713.0
20
17447.0
11
49713.0
21
17447.0
0
LINE
8
BLACK
10
49713.0
20
17447.0
11
49713.0
21
18247.0
0
LINE
8
BLACK
10
49713.0
20
18247.0
11
48713.0
21
18247.0
0
LINE
8
BLACK
10
48713.0
20
18247.0
11
48713.0
21
17447.0
0
LINE
8
BLACK
10
48713.0
20
18747.0
11
49713.0
21
18747.0
0
LINE
8
BLACK
10
49713.0
20
18747.0
11
49713.0
21
19547.0
0
LINE
8
BLACK
10
49713.0
20
19547.0
11
48713.0
21
19547.0
0
LINE
8
BLACK
10
48713.0
20
19547.0
11
48713.0
21
18747.0
0
LINE
8
BLACK
10
42020.0
20
17447.0
11
43020.0
21
17447.0
0
LINE
8
BLACK
10
43020.0
20
17447.0
11
43020.0
21
18247.0
0
LINE
8
BLACK
10
43020.0
20
18247.0
11
42020.0
21
18247.0
0
LINE
8
BLACK
10
42020.0
20
18247.0
11
42020.0
21
17447.0
0
LINE
8
BLACK
10
42020.0
20
18747.0
11
43020.0
21
18747.0
0
LINE
8
BLACK
10
43020.0
20
18747.0
11
43020.0
21
19547.0
0
LINE
8
BLACK
10
43020.0
20
19547.0
11
42020.0
21
19547.0
0
LINE
8
BLACK
10
42020.0
20
19547.0
11
42020.0
21
18747.0
0
LINE
8
BLACK
10
35327.0
20
17447.0
11
36327.0
21
17447.0
0
LINE
8
BLACK
10
36327.0
20
17447.0
11
36327.0
21
18247.0
0
LINE
8
BLACK
10
36327.0
20
18247.0
11
35327.0
21
18247.0
0
LINE
8
BLACK
10
35327.0
20
18247.0
11
35327.0
21
17447.0
0
LINE
8
BLACK
10
35327.0
20
18747.0
11
36327.0
21
18747.0
0
LINE
8
BLACK
10
36327.0
20
18747.0
11
36327.0
21
19547.0
0
LINE
8
BLACK
10
36327.0
20
19547.0
11
35327.0
21
19547.0
0
LINE
8
BLACK
10
35327.0
20
19547.0
11
35327.0
21
18747.0
0
LINE
8
BLACK
10
28634.0
20
17447.0
11
29634.0
21
17447.0
0
LINE
8
BLACK
10
29634.0
20
17447.0
11
29634.0
21
18247.0
0
LINE
8
BLACK
10
29634.0
20
18247.0
11
28634.0
21
18247.0
0
LINE
8
BLACK
10
28634.0
20
18247.0
11
28634.0
21
17447.0
0
LINE
8
BLACK
10
28634.0
20
18747.0
11
29634.0
21
18747.0
0
LINE
8
BLACK
10
29634.0
20
18747.0
11
29634.0
21
19547.0
0
LINE
8
BLACK
10
29634.0
20
19547.0
11
28634.0
21
19547.0
0
LINE
8
BLACK
10
28634.0
20
19547.0
11
28634.0
21
18747.0
0
LINE
8
BLACK
10
33761.0
20
69558.0
11
31593.0
21
69558.0
0
LINE
8
BLACK
10
31593.0
20
69558.0
11
31593.0
21
68098.0
0
LINE
8
BLACK
10
31593.0
20
68098.0
11
33761.0
21
68098.0
0
LINE
8
BLACK
10
33761.0
20
68098.0
11
33761.0
21
69558.0
0
LINE
8
BLACK
10
33761.0
20
67117.0
11
31593.0
21
67117.0
0
LINE
8
BLACK
10
31593.0
20
67117.0
11
31593.0
21
65657.0
0
LINE
8
BLACK
10
31593.0
20
65657.0
11
33761.0
21
65657.0
0
LINE
8
BLACK
10
33761.0
20
65657.0
11
33761.0
21
67117.0
0
LINE
8
BLACK
10
31557.0
20
68730.0
11
30097.0
21
68730.0
0
LINE
8
BLACK
10
30097.0
20
68730.0
11
30097.0
21
66562.0
0
LINE
8
BLACK
10
30097.0
20
66562.0
11
31557.0
21
66562.0
0
LINE
8
BLACK
10
31557.0
20
66562.0
11
31557.0
21
68730.0
0
LINE
8
BLACK
10
80153.0
20
64555.0
11
81061.0
21
64555.0
0
LINE
8
BLACK
10
81061.0
20
64555.0
11
81061.0
21
65463.0
0
LINE
8
BLACK
10
81061.0
20
65463.0
11
80153.0
21
65463.0
0
LINE
8
BLACK
10
80153.0
20
65463.0
11
80153.0
21
64555.0
0
CIRCLE
8
BLACK
10
81607.0
20
65009.0
40
454
0
CIRCLE
8
BLACK
10
85607.0
20
68009.0
40
454
0
CIRCLE
8
BLACK
10
81607.0
20
68009.0
40
454
0
CIRCLE
8
BLACK
10
80607.0
20
68009.0
40
454
0
LINE
8
BLACK
10
80153.0
20
60126.0
11
81061.0
21
60126.0
0
LINE
8
BLACK
10
81061.0
20
60126.0
11
81061.0
21
61034.0
0
LINE
8
BLACK
10
81061.0
20
61034.0
11
80153.0
21
61034.0
0
LINE
8
BLACK
10
80153.0
20
61034.0
11
80153.0
21
60126.0
0
CIRCLE
8
BLACK
10
81607.0
20
60580.0
40
454
0
CIRCLE
8
BLACK
10
85607.0
20
63580.0
40
454
0
CIRCLE
8
BLACK
10
81607.0
20
63580.0
40
454
0
CIRCLE
8
BLACK
10
80607.0
20
63580.0
40
454
0
LINE
8
BLACK
10
80153.0
20
55697.0
11
81061.0
21
55697.0
0
LINE
8
BLACK
10
81061.0
20
55697.0
11
81061.0
21
56605.0
0
LINE
8
BLACK
10
81061.0
20
56605.0
11
80153.0
21
56605.0
0
LINE
8
BLACK
10
80153.0
20
56605.0
11
80153.0
21
55697.0
0
CIRCLE
8
BLACK
10
81607.0
20
56151.0
40
454
0
CIRCLE
8
BLACK
10
85607.0
20
59151.0
40
454
0
CIRCLE
8
BLACK
10
81607.0
20
59151.0
40
454
0
CIRCLE
8
BLACK
10
80607.0
20
59151.0
40
454
0
LINE
8
BLACK
10
80153.0
20
51268.0
11
81061.0
21
51268.0
0
LINE
8
BLACK
10
81061.0
20
51268.0
11
81061.0
21
52176.0
0
LINE
8
BLACK
10
81061.0
20
52176.0
11
80153.0
21
52176.0
0
LINE
8
BLACK
10
80153.0
20
52176.0
11
80153.0
21
51268.0
0
CIRCLE
8
BLACK
10
81607.0
20
51722.0
40
454
0
CIRCLE
8
BLACK
10
85607.0
20
54722.0
40
454
0
CIRCLE
8
BLACK
10
81607.0
20
54722.0
40
454
0
CIRCLE
8
BLACK
10
80607.0
20
54722.0
40
454
0
LINE
8
BLACK
10
80153.0
20
46838.0
11
81061.0
21
46838.0
0
LINE
8
BLACK
10
81061.0
20
46838.0
11
81061.0
21
47746.0
0
LINE
8
BLACK
10
81061.0
20
47746.0
11
80153.0
21
47746.0
0
LINE
8
BLACK
10
80153.0
20
47746.0
11
80153.0
21
46838.0
0
CIRCLE
8
BLACK
10
81607.0
20
47292.0
40
454
0
CIRCLE
8
BLACK
10
85607.0
20
50292.0
40
454
0
CIRCLE
8
BLACK
10
81607.0
20
50292.0
40
454
0
CIRCLE
8
BLACK
10
80607.0
20
50292.0
40
454
0
LINE
8
BLACK
10
80153.0
20
42409.0
11
81061.0
21
42409.0
0
LINE
8
BLACK
10
81061.0
20
42409.0
11
81061.0
21
43317.0
0
LINE
8
BLACK
10
81061.0
20
43317.0
11
80153.0
21
43317.0
0
LINE
8
BLACK
10
80153.0
20
43317.0
11
80153.0
21
42409.0
0
CIRCLE
8
BLACK
10
81607.0
20
42863.0
40
454
0
CIRCLE
8
BLACK
10
85607.0
20
45863.0
40
454
0
CIRCLE
8
BLACK
10
81607.0
20
45863.0
40
454
0
CIRCLE
8
BLACK
10
80607.0
20
45863.0
40
454
0
LINE
8
BLACK
10
80153.0
20
37980.0
11
81061.0
21
37980.0
0
LINE
8
BLACK
10
81061.0
20
37980.0
11
81061.0
21
38888.0
0
LINE
8
BLACK
10
81061.0
20
38888.0
11
80153.0
21
38888.0
0
LINE
8
BLACK
10
80153.0
20
38888.0
11
80153.0
21
37980.0
0
CIRCLE
8
BLACK
10
81607.0
20
38434.0
40
454
0
CIRCLE
8
BLACK
10
85607.0
20
41434.0
40
454
0
CIRCLE
8
BLACK
10
81607.0
20
41434.0
40
454
0
CIRCLE
8
BLACK
10
80607.0
20
41434.0
40
454
0
LINE
8
BLACK
10
80153.0
20
33551.0
11
81061.0
21
33551.0
0
LINE
8
BLACK
10
81061.0
20
33551.0
11
81061.0
21
34459.0
0
LINE
8
BLACK
10
81061.0
20
34459.0
11
80153.0
21
34459.0
0
LINE
8
BLACK
10
80153.0
20
34459.0
11
80153.0
21
33551.0
0
CIRCLE
8
BLACK
10
81607.0
20
34005.0
40
454
0
CIRCLE
8
BLACK
10
85607.0
20
37005.0
40
454
0
CIRCLE
8
BLACK
10
81607.0
20
37005.0
40
454
0
CIRCLE
8
BLACK
10
80607.0
20
37005.0
40
454
0
LINE
8
BLACK
10
81137.0
20
28924.0
11
82045.0
21
28924.0
0
LINE
8
BLACK
10
82045.0
20
28924.0
11
82045.0
21
29832.0
0
LINE
8
BLACK
10
82045.0
20
29832.0
11
81137.0
21
29832.0
0
LINE
8
BLACK
10
81137.0
20
29832.0
11
81137.0
21
28924.0
0
CIRCLE
8
BLACK
10
82591.0
20
29378.0
40
454
0
CIRCLE
8
BLACK
10
86591.0
20
32378.0
40
454
0
CIRCLE
8
BLACK
10
82591.0
20
32378.0
40
454
0
CIRCLE
8
BLACK
10
81591.0
20
32378.0
40
454
0
LINE
8
BLACK
10
87633.0
20
28924.0
11
88541.0
21
28924.0
0
LINE
8
BLACK
10
88541.0
20
28924.0
11
88541.0
21
29832.0
0
LINE
8
BLACK
10
88541.0
20
29832.0
11
87633.0
21
29832.0
0
LINE
8
BLACK
10
87633.0
20
29832.0
11
87633.0
21
28924.0
0
CIRCLE
8
BLACK
10
89087.0
20
29378.0
40
454
0
CIRCLE
8
BLACK
10
93087.0
20
32378.0
40
454
0
CIRCLE
8
BLACK
10
89087.0
20
32378.0
40
454
0
CIRCLE
8
BLACK
10
88087.0
20
32378.0
40
454
0
LINE
8
BLACK
10
81137.0
20
24397.0
11
82045.0
21
24397.0
0
LINE
8
BLACK
10
82045.0
20
24397.0
11
82045.0
21
25305.0
0
LINE
8
BLACK
10
82045.0
20
25305.0
11
81137.0
21
25305.0
0
LINE
8
BLACK
10
81137.0
20
25305.0
11
81137.0
21
24397.0
0
CIRCLE
8
BLACK
10
82591.0
20
24851.0
40
454
0
CIRCLE
8
BLACK
10
86591.0
20
27851.0
40
454
0
CIRCLE
8
BLACK
10
82591.0
20
27851.0
40
454
0
CIRCLE
8
BLACK
10
81591.0
20
27851.0
40
454
0
LINE
8
BLACK
10
87633.0
20
24397.0
11
88541.0
21
24397.0
0
LINE
8
BLACK
10
88541.0
20
24397.0
11
88541.0
21
25305.0
0
LINE
8
BLACK
10
88541.0
20
25305.0
11
87633.0
21
25305.0
0
LINE
8
BLACK
10
87633.0
20
25305.0
11
87633.0
21
24397.0
0
CIRCLE
8
BLACK
10
89087.0
20
24851.0
40
454
0
CIRCLE
8
BLACK
10
93087.0
20
27851.0
40
454
0
CIRCLE
8
BLACK
10
89087.0
20
27851.0
40
454
0
CIRCLE
8
BLACK
10
88087.0
20
27851.0
40
454
0
LINE
8
BLACK
10
81137.0
20
19869.0
11
82045.0
21
19869.0
0
LINE
8
BLACK
10
82045.0
20
19869.0
11
82045.0
21
20777.0
0
LINE
8
BLACK
10
82045.0
20
20777.0
11
81137.0
21
20777.0
0
LINE
8
BLACK
10
81137.0
20
20777.0
11
81137.0
21
19869.0
0
CIRCLE
8
BLACK
10
82591.0
20
20323.0
40
454
0
CIRCLE
8
BLACK
10
86591.0
20
23323.0
40
454
0
CIRCLE
8
BLACK
10
82591.0
20
23323.0
40
454
0
CIRCLE
8
BLACK
10
81591.0
20
23323.0
40
454
0
LINE
8
BLACK
10
87633.0
20
19869.0
11
88541.0
21
19869.0
0
LINE
8
BLACK
10
88541.0
20
19869.0
11
88541.0
21
20777.0
0
LINE
8
BLACK
10
88541.0
20
20777.0
11
87633.0
21
20777.0
0
LINE
8
BLACK
10
87633.0
20
20777.0
11
87633.0
21
19869.0
0
CIRCLE
8
BLACK
10
89087.0
20
20323.0
40
454
0
CIRCLE
8
BLACK
10
93087.0
20
23323.0
40
454
0
CIRCLE
8
BLACK
10
89087.0
20
23323.0
40
454
0
CIRCLE
8
BLACK
10
88087.0
20
23323.0
40
454
0
LINE
8
BLACK
10
81137.0
20
15342.0
11
82045.0
21
15342.0
0
LINE
8
BLACK
10
82045.0
20
15342.0
11
82045.0
21
16250.0
0
LINE
8
BLACK
10
82045.0
20
16250.0
11
81137.0
21
16250.0
0
LINE
8
BLACK
10
81137.0
20
16250.0
11
81137.0
21
15342.0
0
CIRCLE
8
BLACK
10
82591.0
20
15796.0
40
454
0
CIRCLE
8
BLACK
10
86591.0
20
18796.0
40
454
0
CIRCLE
8
BLACK
10
82591.0
20
18796.0
40
454
0
CIRCLE
8
BLACK
10
81591.0
20
18796.0
40
454
0
LINE
8
BLACK
10
87633.0
20
15342.0
11
88541.0
21
15342.0
0
LINE
8
BLACK
10
88541.0
20
15342.0
11
88541.0
21
16250.0
0
LINE
8
BLACK
10
88541.0
20
16250.0
11
87633.0
21
16250.0
0
LINE
8
BLACK
10
87633.0
20
16250.0
11
87633.0
21
15342.0
0
CIRCLE
8
BLACK
10
89087.0
20
15796.0
40
454
0
CIRCLE
8
BLACK
10
93087.0
20
18796.0
40
454
0
CIRCLE
8
BLACK
10
89087.0
20
18796.0
40
454
0
CIRCLE
8
BLACK
10
88087.0
20
18796.0
40
454
0
LINE
8
BLACK
10
87692.0
20
59127.0
11
88364.0
21
59127.0
0
LINE
8
BLACK
10
88364.0
20
59127.0
11
88364.0
21
59799.0
0
LINE
8
BLACK
10
88364.0
20
59799.0
11
87692.0
21
59799.0
0
LINE
8
BLACK
10
87692.0
20
59799.0
11
87692.0
21
59127.0
0
CIRCLE
8
BLACK
10
87028.0
20
59963.0
40
336
0
CIRCLE
8
BLACK
10
88028.0
20
60463.0
40
336
0
CIRCLE
8
BLACK
10
87028.0
20
60963.0
40
336
0
CIRCLE
8
BLACK
10
88028.0
20
61463.0
40
336
0
CIRCLE
8
BLACK
10
87028.0
20
61963.0
40
336
0
CIRCLE
8
BLACK
10
88028.0
20
62463.0
40
336
0
CIRCLE
8
BLACK
10
87028.0
20
62963.0
40
336
0
LINE
8
BLACK
10
87692.0
20
51253.0
11
88364.0
21
51253.0
0
LINE
8
BLACK
10
88364.0
20
51253.0
11
88364.0
21
51925.0
0
LINE
8
BLACK
10
88364.0
20
51925.0
11
87692.0
21
51925.0
0
LINE
8
BLACK
10
87692.0
20
51925.0
11
87692.0
21
51253.0
0
CIRCLE
8
BLACK
10
87028.0
20
52089.0
40
336
0
CIRCLE
8
BLACK
10
88028.0
20
52589.0
40
336
0
CIRCLE
8
BLACK
10
87028.0
20
53089.0
40
336
0
CIRCLE
8
BLACK
10
88028.0
20
53589.0
40
336
0
CIRCLE
8
BLACK
10
87028.0
20
54089.0
40
336
0
CIRCLE
8
BLACK
10
88028.0
20
54589.0
40
336
0
CIRCLE
8
BLACK
10
87028.0
20
55089.0
40
336
0
LINE
8
BLACK
10
87692.0
20
43379.0
11
88364.0
21
43379.0
0
LINE
8
BLACK
10
88364.0
20
43379.0
11
88364.0
21
44051.0
0
LINE
8
BLACK
10
88364.0
20
44051.0
11
87692.0
21
44051.0
0
LINE
8
BLACK
10
87692.0
20
44051.0
11
87692.0
21
43379.0
0
CIRCLE
8
BLACK
10
87028.0
20
44215.0
40
336
0
CIRCLE
8
BLACK
10
88028.0
20
44715.0
40
336
0
CIRCLE
8
BLACK
10
87028.0
20
45215.0
40
336
0
CIRCLE
8
BLACK
10
88028.0
20
45715.0
40
336
0
CIRCLE
8
BLACK
10
87028.0
20
46215.0
40
336
0
CIRCLE
8
BLACK
10
88028.0
20
46715.0
40
336
0
CIRCLE
8
BLACK
10
87028.0
20
47215.0
40
336
0
LINE
8
BLACK
10
87692.0
20
35505.0
11
88364.0
21
35505.0
0
LINE
8
BLACK
10
88364.0
20
35505.0
11
88364.0
21
36177.0
0
LINE
8
BLACK
10
88364.0
20
36177.0
11
87692.0
21
36177.0
0
LINE
8
BLACK
10
87692.0
20
36177.0
11
87692.0
21
35505.0
0
CIRCLE
8
BLACK
10
87028.0
20
36341.0
40
336
0
CIRCLE
8
BLACK
10
88028.0
20
36841.0
40
336
0
CIRCLE
8
BLACK
10
87028.0
20
37341.0
40
336
0
CIRCLE
8
BLACK
10
88028.0
20
37841.0
40
336
0
CIRCLE
8
BLACK
10
87028.0
20
38341.0
40
336
0
CIRCLE
8
BLACK
10
88028.0
20
38841.0
40
336
0
CIRCLE
8
BLACK
10
87028.0
20
39341.0
40
336
0
LINE
8
BLACK
10
74489.0
20
20568.0
11
74489.0
21
19896.0
0
LINE
8
BLACK
10
74489.0
20
19896.0
11
75161.0
21
19896.0
0
LINE
8
BLACK
10
75161.0
20
19896.0
11
75161.0
21
20568.0
0
LINE
8
BLACK
10
75161.0
20
20568.0
11
74489.0
21
20568.0
0
CIRCLE
8
BLACK
10
75325.0
20
21232.0
40
336
0
CIRCLE
8
BLACK
10
75825.0
20
20232.0
40
336
0
CIRCLE
8
BLACK
10
76325.0
20
21232.0
40
336
0
CIRCLE
8
BLACK
10
76825.0
20
20232.0
40
336
0
CIRCLE
8
BLACK
10
77325.0
20
21232.0
40
336
0
CIRCLE
8
BLACK
10
77825.0
20
20232.0
40
336
0
CIRCLE
8
BLACK
10
78325.0
20
21232.0
40
336
0
LINE
8
BLACK
10
67796.0
20
20568.0
11
67796.0
21
19896.0
0
LINE
8
BLACK
10
67796.0
20
19896.0
11
68468.0
21
19896.0
0
LINE
8
BLACK
10
68468.0
20
19896.0
11
68468.0
21
20568.0
0
LINE
8
BLACK
10
68468.0
20
20568.0
11
67796.0
21
20568.0
0
CIRCLE
8
BLACK
10
68632.0
20
21232.0
40
336
0
CIRCLE
8
BLACK
10
69132.0
20
20232.0
40
336
0
CIRCLE
8
BLACK
10
69632.0
20
21232.0
40
336
0
CIRCLE
8
BLACK
10
70132.0
20
20232.0
40
336
0
CIRCLE
8
BLACK
10
70632.0
20
21232.0
40
336
0
CIRCLE
8
BLACK
10
71132.0
20
20232.0
40
336
0
CIRCLE
8
BLACK
10
71632.0
20
21232.0
40
336
0
LINE
8
BLACK
10
61103.0
20
20568.0
11
61103.0
21
19896.0
0
LINE
8
BLACK
10
61103.0
20
19896.0
11
61775.0
21
19896.0
0
LINE
8
BLACK
10
61775.0
20
19896.0
11
61775.0
21
20568.0
0
LINE
8
BLACK
10
61775.0
20
20568.0
11
61103.0
21
20568.0
0
CIRCLE
8
BLACK
10
61939.0
20
21232.0
40
336
0
CIRCLE
8
BLACK
10
62439.0
20
20232.0
40
336
0
CIRCLE
8
BLACK
10
62939.0
20
21232.0
40
336
0
CIRCLE
8
BLACK
10
63439.0
20
20232.0
40
336
0
CIRCLE
8
BLACK
10
63939.0
20
21232.0
40
336
0
CIRCLE
8
BLACK
10
64439.0
20
20232.0
40
336
0
CIRCLE
8
BLACK
10
64939.0
20
21232.0
40
336
0
LINE
8
BLACK
10
54410.0
20
20568.0
11
54410.0
21
19896.0
0
LINE
8
BLACK
10
54410.0
20
19896.0
11
55082.0
21
19896.0
0
LINE
8
BLACK
10
55082.0
20
19896.0
11
55082.0
21
20568.0
0
LINE
8
BLACK
10
55082.0
20
20568.0
11
54410.0
21
20568.0
0
CIRCLE
8
BLACK
10
55246.0
20
21232.0
40
336
0
CIRCLE
8
BLACK
10
55746.0
20
20232.0
40
336
0
CIRCLE
8
BLACK
10
56246.0
20
21232.0
40
336
0
CIRCLE
8
BLACK
10
56746.0
20
20232.0
40
336
0
CIRCLE
8
BLACK
10
57246.0
20
21232.0
40
336
0
CIRCLE
8
BLACK
10
57746.0
20
20232.0
40
336
0
CIRCLE
8
BLACK
10
58246.0
20
21232.0
40
336
0
LINE
8
BLACK
10
27638.0
20
20568.0
11
27638.0
21
19896.0
0
LINE
8
BLACK
10
27638.0
20
19896.0
11
28310.0
21
19896.0
0
LINE
8
BLACK
10
28310.0
20
19896.0
11
28310.0
21
20568.0
0
LINE
8
BLACK
10
28310.0
20
20568.0
11
27638.0
21
20568.0
0
CIRCLE
8
BLACK
10
28474.0
20
21232.0
40
336
0
CIRCLE
8
BLACK
10
28974.0
20
20232.0
40
336
0
CIRCLE
8
BLACK
10
29474.0
20
21232.0
40
336
0
CIRCLE
8
BLACK
10
29974.0
20
20232.0
40
336
0
CIRCLE
8
BLACK
10
30474.0
20
21232.0
40
336
0
CIRCLE
8
BLACK
10
30974.0
20
20232.0
40
336
0
CIRCLE
8
BLACK
10
31474.0
20
21232.0
40
336
0
LINE
8
BLACK
10
34331.0
20
20568.0
11
34331.0
21
19896.0
0
LINE
8
BLACK
10
34331.0
20
19896.0
11
35003.0
21
19896.0
0
LINE
8
BLACK
10
35003.0
20
19896.0
11
35003.0
21
20568.0
0
LINE
8
BLACK
10
35003.0
20
20568.0
11
34331.0
21
20568.0
0
CIRCLE
8
BLACK
10
35167.0
20
21232.0
40
336
0
CIRCLE
8
BLACK
10
35667.0
20
20232.0
40
336
0
CIRCLE
8
BLACK
10
36167.0
20
21232.0
40
336
0
CIRCLE
8
BLACK
10
36667.0
20
20232.0
40
336
0
CIRCLE
8
BLACK
10
37167.0
20
21232.0
40
336
0
CIRCLE
8
BLACK
10
37667.0
20
20232.0
40
336
0
CIRCLE
8
BLACK
10
38167.0
20
21232.0
40
336
0
LINE
8
BLACK
10
41024.0
20
20568.0
11
41024.0
21
19896.0
0
LINE
8
BLACK
10
41024.0
20
19896.0
11
41696.0
21
19896.0
0
LINE
8
BLACK
10
41696.0
20
19896.0
11
41696.0
21
20568.0
0
LINE
8
BLACK
10
41696.0
20
20568.0
11
41024.0
21
20568.0
0
CIRCLE
8
BLACK
10
41860.0
20
21232.0
40
336
0
CIRCLE
8
BLACK
10
42360.0
20
20232.0
40
336
0
CIRCLE
8
BLACK
10
42860.0
20
21232.0
40
336
0
CIRCLE
8
BLACK
10
43360.0
20
20232.0
40
336
0
CIRCLE
8
BLACK
10
43860.0
20
21232.0
40
336
0
CIRCLE
8
BLACK
10
44360.0
20
20232.0
40
336
0
CIRCLE
8
BLACK
10
44860.0
20
21232.0
40
336
0
LINE
8
BLACK
10
47717.0
20
20568.0
11
47717.0
21
19896.0
0
LINE
8
BLACK
10
47717.0
20
19896.0
11
48389.0
21
19896.0
0
LINE
8
BLACK
10
48389.0
20
19896.0
11
48389.0
21
20568.0
0
LINE
8
BLACK
10
48389.0
20
20568.0
11
47717.0
21
20568.0
0
CIRCLE
8
BLACK
10
48553.0
20
21232.0
40
336
0
CIRCLE
8
BLACK
10
49053.0
20
20232.0
40
336
0
CIRCLE
8
BLACK
10
49553.0
20
21232.0
40
336
0
CIRCLE
8
BLACK
10
50053.0
20
20232.0
40
336
0
CIRCLE
8
BLACK
10
50553.0
20
21232.0
40
336
0
CIRCLE
8
BLACK
10
51053.0
20
20232.0
40
336
0
CIRCLE
8
BLACK
10
51553.0
20
21232.0
40
336
0
CIRCLE
8
BLACK
10
40992.0
20
49891.0
40
336
0
CIRCLE
8
BLACK
10
56307.0
20
49891.0
40
336
0
CIRCLE
8
BLACK
10
59795.0
20
26264.0
40
493
0
CIRCLE
8
BLACK
10
58220.0
20
26264.0
40
493
0
CIRCLE
8
BLACK
10
56645.0
20
26264.0
40
493
0
CIRCLE
8
BLACK
10
55070.0
20
26264.0
40
493
0
CIRCLE
8
BLACK
10
53496.0
20
26264.0
40
493
0
CIRCLE
8
BLACK
10
51921.0
20
26264.0
40
493
0
CIRCLE
8
BLACK
10
51921.0
20
36501.0
40
493
0
CIRCLE
8
BLACK
10
53496.0
20
36501.0
40
493
0
CIRCLE
8
BLACK
10
55070.0
20
36501.0
40
493
0
CIRCLE
8
BLACK
10
56645.0
20
36501.0
40
493
0
CIRCLE
8
BLACK
10
58220.0
20
36501.0
40
493
0
CIRCLE
8
BLACK
10
59795.0
20
36501.0
40
493
0
CIRCLE
8
BLACK
10
80433.0
20
22237.0
40
257
0
CIRCLE
8
BLACK
10
44724.0
20
60229.0
40
257
0
CIRCLE
8
BLACK
10
48898.0
20
60702.0
40
257
0
CIRCLE
8
BLACK
10
61378.0
20
65052.0
40
257
0
CIRCLE
8
BLACK
10
56201.0
20
63457.0
40
257
0
CIRCLE
8
BLACK
10
65472.0
20
65072.0
40
257
0
CIRCLE
8
BLACK
10
37953.0
20
55642.0
40
257
0
CIRCLE
8
BLACK
10
57008.0
20
58733.0
40
257
0
CIRCLE
8
BLACK
10
65846.0
20
61784.0
40
257
0
CIRCLE
8
BLACK
10
65059.0
20
68595.0
40
257
0
CIRCLE
8
BLACK
10
32539.0
20
61450.0
40
257
0
CIRCLE
8
BLACK
10
51614.0
20
70170.0
40
257
0
CIRCLE
8
BLACK
10
51142.0
20
47611.0
40
257
0
CIRCLE
8
BLACK
10
41634.0
20
47020.0
40
257
0
CIRCLE
8
BLACK
10
54212.0
20
43654.0
40
257
0
CIRCLE
8
BLACK
10
51527.0
20
22414.0
40
257
0
CIRCLE
8
BLACK
10
53779.0
20
43654.0
40
257
0
CIRCLE
8
BLACK
10
55527.0
20
22442.0
40
257
0
CIRCLE
8
BLACK
10
56358.0
20
22446.0
40
257
0
CIRCLE
8
BLACK
10
50020.0
20
67001.0
40
257
0
CIRCLE
8
BLACK
10
49764.0
20
62670.0
40
257
0
CIRCLE
8
BLACK
10
39606.0
20
31253.0
40
257
0
CIRCLE
8
BLACK
10
91319.0
20
41568.0
40
257
0
CIRCLE
8
BLACK
10
78189.0
20
39599.0
40
257
0
CIRCLE
8
BLACK
10
68228.0
20
63851.0
40
257
0
CIRCLE
8
BLACK
10
69646.0
20
67276.0
40
257
0
CIRCLE
8
BLACK
10
60197.0
20
63615.0
40
257
0
CIRCLE
8
BLACK
10
47146.0
20
61391.0
40
257
0
CIRCLE
8
BLACK
10
59961.0
20
66686.0
40
257
0
CIRCLE
8
BLACK
10
54527.0
20
47001.0
40
257
0
CIRCLE
8
BLACK
10
46842.0
20
58347.0
40
257
0
CIRCLE
8
BLACK
10
47673.0
20
59497.0
40
257
0
CIRCLE
8
BLACK
10
44291.0
20
50387.0
40
257
0
CIRCLE
8
BLACK
10
44291.0
20
46843.0
40
257
0
CIRCLE
8
BLACK
10
77323.0
20
27119.0
40
257
0
CIRCLE
8
BLACK
10
78149.0
20
32473.0
40
257
0
CIRCLE
8
BLACK
10
78110.0
20
44520.0
40
257
0
CIRCLE
8
BLACK
10
78346.0
20
62946.0
40
257
0
CIRCLE
8
BLACK
10
77756.0
20
50702.0
40
257
0
CIRCLE
8
BLACK
10
78937.0
20
24009.0
40
257
0
CIRCLE
8
BLACK
10
59744.0
20
71489.0
40
257
0
CIRCLE
8
BLACK
10
58425.0
20
70603.0
40
257
0
CIRCLE
8
BLACK
10
55157.0
20
69855.0
40
257
0
CIRCLE
8
BLACK
10
55610.0
20
71410.0
40
257
0
CIRCLE
8
BLACK
10
71240.0
20
68772.0
40
257
0
CIRCLE
8
BLACK
10
61398.0
20
61489.0
40
257
0
CIRCLE
8
BLACK
10
64862.0
20
70741.0
40
257
0
CIRCLE
8
BLACK
10
67283.0
20
70977.0
40
257
0
CIRCLE
8
BLACK
10
71378.0
20
67453.0
40
257
0
CIRCLE
8
BLACK
10
54783.0
20
61312.0
40
257
0
CIRCLE
8
BLACK
10
71220.0
20
70111.0
40
257
0
CIRCLE
8
BLACK
10
64134.0
20
61312.0
40
257
0
CIRCLE
8
BLACK
10
71437.0
20
66351.0
40
257
0
CIRCLE
8
BLACK
10
53307.0
20
61115.0
40
257
0
ENDSEC
0
EOF
