0
SECTION
2
HEADER
9
$ANGBASE
50
0.0
9
$ANGDIR
70
0
0
ENDSEC
0
SECTION
2
TABLES
0
TABLE
2
LTYPE
70
1
0
LTYPE
2
CONTINUOUS
70
0
3
Solid line
72
65
73
0
40
0.0
0
ENDTAB
0
TABLE
2
LAYER
70
24
0
LAYER
2
BLACK
70
0
62
1
6
CONTINUOUS
0
LAYER
2
BLUE
70
0
62
2
6
CONTINUOUS
0
LAYER
2
GREEN
70
0
62
3
6
CONTINUOUS
0
LAYER
2
CYAN
70
0
62
4
6
CONTINUOUS
0
LAYER
2
RED
70
0
62
5
6
CONTINUOUS
0
LAYER
2
MAGENTA
70
0
62
6
6
CONTINUOUS
0
LAYER
2
BROWN
70
0
62
7
6
CONTINUOUS
0
LAYER
2
GRAY
70
0
62
8
6
CONTINUOUS
0
LAYER
2
DARKGRAY
70
0
62
9
6
CONTINUOUS
0
LAYER
2
LIGHTBLUE
70
0
62
10
6
CONTINUOUS
0
LAYER
2
LIGHTGREEN
70
0
62
11
6
CONTINUOUS
0
LAYER
2
LIGHTCYAN
70
0
62
12
6
CONTINUOUS
0
LAYER
2
LIGHTRED
70
0
62
13
6
CONTINUOUS
0
LAYER
2
LIGHTMAGENTA
70
0
62
14
6
CONTINUOUS
0
LAYER
2
YELLOW
70
0
62
15
6
CONTINUOUS
0
LAYER
2
WHITE
70
0
62
16
6
CONTINUOUS
0
LAYER
2
DARKDARKGRAY
70
0
62
17
6
CONTINUOUS
0
LAYER
2
DARKBLUE
70
0
62
18
6
CONTINUOUS
0
LAYER
2
DARKGREEN
70
0
62
19
6
CONTINUOUS
0
LAYER
2
DARKCYAN
70
0
62
20
6
CONTINUOUS
0
LAYER
2
DARKRED
70
0
62
21
6
CONTINUOUS
0
LAYER
2
DARKMAGENTA
70
0
62
22
6
CONTINUOUS
0
LAYER
2
DARKBROWN
70
0
62
23
6
CONTINUOUS
0
LAYER
2
LIGHTYELLOW
70
0
62
24
6
CONTINUOUS
0
ENDTAB
0
ENDSEC
0
SECTION
2
ENTITIES
0
LINE
8
BLACK
10
25984.0
20
14485.0
11
26378.0
21
14485.0
0
LINE
8
BLACK
10
25984.0
20
14635.0
11
26378.0
21
14635.0
0
ARC
8
BLACK
10
26378.0
20
14560.0
40
75.0
50
270.0
51
450.0
0
ARC
8
BLACK
10
25984.0
20
14560.0
40
75.0
50
90.0
51
270.0
0
LINE
8
BLACK
10
26059.0
20
14560.0
11
26059.0
21
72040.0
0
LINE
8
BLACK
10
25909.0
20
14560.0
11
25909.0
21
72040.0
0
ARC
8
BLACK
10
25984.0
20
72040.0
40
75.0
50
360.0
51
540.0
0
ARC
8
BLACK
10
25984.0
20
14560.0
40
75.0
50
180.0
51
360.0
0
LINE
8
BLACK
10
25984.0
20
71965.0
11
27164.0
21
71965.0
0
LINE
8
BLACK
10
25984.0
20
72115.0
11
27164.0
21
72115.0
0
ARC
8
BLACK
10
27164.0
20
72040.0
40
75.0
50
270.0
51
450.0
0
ARC
8
BLACK
10
25984.0
20
72040.0
40
75.0
50
90.0
51
270.0
0
LINE
8
BLACK
10
27165.0
20
71965.0
11
94093.0
21
71965.0
0
LINE
8
BLACK
10
27165.0
20
72115.0
11
94093.0
21
72115.0
0
ARC
8
BLACK
10
94093.0
20
72040.0
40
75.0
50
270.0
51
450.0
0
ARC
8
BLACK
10
27165.0
20
72040.0
40
75.0
50
90.0
51
270.0
0
LINE
8
BLACK
10
94169.0
20
14560.0
11
94169.0
21
72040.0
0
LINE
8
BLACK
10
94019.0
20
14560.0
11
94019.0
21
72040.0
0
ARC
8
BLACK
10
94094.0
20
72040.0
40
75.0
50
360.0
51
540.0
0
ARC
8
BLACK
10
94094.0
20
14560.0
40
75.0
50
180.0
51
360.0
0
LINE
8
BLACK
10
26378.0
20
14485.0
11
94094.0
21
14485.0
0
LINE
8
BLACK
10
26378.0
20
14635.0
11
94094.0
21
14635.0
0
ARC
8
BLACK
10
94094.0
20
14560.0
40
75.0
50
270.0
51
450.0
0
ARC
8
BLACK
10
26378.0
20
14560.0
40
75.0
50
90.0
51
270.0
0
CIRCLE
8
BLACK
10
35827.0
20
61016.0
40
375
0
CIRCLE
8
BLACK
10
33465.0
20
58064.0
40
375
0
CIRCLE
8
BLACK
10
33465.0
20
59835.0
40
375
0
LINE
8
BLACK
10
30184.0
20
64294.0
11
30184.0
21
63644.0
0
LINE
8
BLACK
10
30184.0
20
63644.0
11
30634.0
21
63644.0
0
LINE
8
BLACK
10
30634.0
20
63644.0
11
30634.0
21
64294.0
0
LINE
8
BLACK
10
30634.0
20
64294.0
11
30184.0
21
64294.0
0
LINE
8
BLACK
10
30784.0
20
64294.0
11
30784.0
21
63644.0
0
LINE
8
BLACK
10
30784.0
20
63644.0
11
31234.0
21
63644.0
0
LINE
8
BLACK
10
31234.0
20
63644.0
11
31234.0
21
64294.0
0
LINE
8
BLACK
10
31234.0
20
64294.0
11
30784.0
21
64294.0
0
LINE
8
BLACK
10
30184.0
20
65082.0
11
30184.0
21
64432.0
0
LINE
8
BLACK
10
30184.0
20
64432.0
11
30634.0
21
64432.0
0
LINE
8
BLACK
10
30634.0
20
64432.0
11
30634.0
21
65082.0
0
LINE
8
BLACK
10
30634.0
20
65082.0
11
30184.0
21
65082.0
0
LINE
8
BLACK
10
30784.0
20
65082.0
11
30784.0
21
64432.0
0
LINE
8
BLACK
10
30784.0
20
64432.0
11
31234.0
21
64432.0
0
LINE
8
BLACK
10
31234.0
20
64432.0
11
31234.0
21
65082.0
0
LINE
8
BLACK
10
31234.0
20
65082.0
11
30784.0
21
65082.0
0
LINE
8
BLACK
10
46475.0
20
58596.0
11
47225.0
21
58596.0
0
LINE
8
BLACK
10
47225.0
20
58596.0
11
47225.0
21
59146.0
0
LINE
8
BLACK
10
47225.0
20
59146.0
11
46475.0
21
59146.0
0
LINE
8
BLACK
10
46475.0
20
59146.0
11
46475.0
21
58596.0
0
LINE
8
BLACK
10
46475.0
20
59346.0
11
47225.0
21
59346.0
0
LINE
8
BLACK
10
47225.0
20
59346.0
11
47225.0
21
59896.0
0
LINE
8
BLACK
10
47225.0
20
59896.0
11
46475.0
21
59896.0
0
LINE
8
BLACK
10
46475.0
20
59896.0
11
46475.0
21
59346.0
0
LINE
8
BLACK
10
46438.0
20
59895.0
11
45688.0
21
59895.0
0
LINE
8
BLACK
10
45688.0
20
59895.0
11
45688.0
21
59345.0
0
LINE
8
BLACK
10
45688.0
20
59345.0
11
46438.0
21
59345.0
0
LINE
8
BLACK
10
46438.0
20
59345.0
11
46438.0
21
59895.0
0
LINE
8
BLACK
10
46438.0
20
59145.0
11
45688.0
21
59145.0
0
LINE
8
BLACK
10
45688.0
20
59145.0
11
45688.0
21
58595.0
0
LINE
8
BLACK
10
45688.0
20
58595.0
11
46438.0
21
58595.0
0
LINE
8
BLACK
10
46438.0
20
58595.0
11
46438.0
21
59145.0
0
LINE
8
BLACK
10
44901.0
20
56823.0
11
45651.0
21
56823.0
0
LINE
8
BLACK
10
45651.0
20
56823.0
11
45651.0
21
57373.0
0
LINE
8
BLACK
10
45651.0
20
57373.0
11
44901.0
21
57373.0
0
LINE
8
BLACK
10
44901.0
20
57373.0
11
44901.0
21
56823.0
0
LINE
8
BLACK
10
44901.0
20
57573.0
11
45651.0
21
57573.0
0
LINE
8
BLACK
10
45651.0
20
57573.0
11
45651.0
21
58123.0
0
LINE
8
BLACK
10
45651.0
20
58123.0
11
44901.0
21
58123.0
0
LINE
8
BLACK
10
44901.0
20
58123.0
11
44901.0
21
57573.0
0
LINE
8
BLACK
10
44863.0
20
58123.0
11
44113.0
21
58123.0
0
LINE
8
BLACK
10
44113.0
20
58123.0
11
44113.0
21
57573.0
0
LINE
8
BLACK
10
44113.0
20
57573.0
11
44863.0
21
57573.0
0
LINE
8
BLACK
10
44863.0
20
57573.0
11
44863.0
21
58123.0
0
LINE
8
BLACK
10
44863.0
20
57373.0
11
44113.0
21
57373.0
0
LINE
8
BLACK
10
44113.0
20
57373.0
11
44113.0
21
56823.0
0
LINE
8
BLACK
10
44113.0
20
56823.0
11
44863.0
21
56823.0
0
LINE
8
BLACK
10
44863.0
20
56823.0
11
44863.0
21
57373.0
0
LINE
8
BLACK
10
77150.0
20
50795.0
11
77150.0
21
51545.0
0
LINE
8
BLACK
10
77150.0
20
51545.0
11
76600.0
21
51545.0
0
LINE
8
BLACK
10
76600.0
20
51545.0
11
76600.0
21
50795.0
0
LINE
8
BLACK
10
76600.0
20
50795.0
11
77150.0
21
50795.0
0
LINE
8
BLACK
10
76400.0
20
50795.0
11
76400.0
21
51545.0
0
LINE
8
BLACK
10
76400.0
20
51545.0
11
75850.0
21
51545.0
0
LINE
8
BLACK
10
75850.0
20
51545.0
11
75850.0
21
50795.0
0
LINE
8
BLACK
10
75850.0
20
50795.0
11
76400.0
21
50795.0
0
LINE
8
BLACK
10
39114.0
20
67297.0
11
39114.0
21
66547.0
0
LINE
8
BLACK
10
39114.0
20
66547.0
11
39664.0
21
66547.0
0
LINE
8
BLACK
10
39664.0
20
66547.0
11
39664.0
21
67297.0
0
LINE
8
BLACK
10
39664.0
20
67297.0
11
39114.0
21
67297.0
0
LINE
8
BLACK
10
39864.0
20
67297.0
11
39864.0
21
66547.0
0
LINE
8
BLACK
10
39864.0
20
66547.0
11
40414.0
21
66547.0
0
LINE
8
BLACK
10
40414.0
20
66547.0
11
40414.0
21
67297.0
0
LINE
8
BLACK
10
40414.0
20
67297.0
11
39864.0
21
67297.0
0
LINE
8
BLACK
10
38845.0
20
58942.0
11
38845.0
21
59942.0
0
LINE
8
BLACK
10
38845.0
20
59942.0
11
38045.0
21
59942.0
0
LINE
8
BLACK
10
38045.0
20
59942.0
11
38045.0
21
58942.0
0
LINE
8
BLACK
10
38045.0
20
58942.0
11
38845.0
21
58942.0
0
LINE
8
BLACK
10
37545.0
20
58942.0
11
37545.0
21
59942.0
0
LINE
8
BLACK
10
37545.0
20
59942.0
11
36745.0
21
59942.0
0
LINE
8
BLACK
10
36745.0
20
59942.0
11
36745.0
21
58942.0
0
LINE
8
BLACK
10
36745.0
20
58942.0
11
37545.0
21
58942.0
0
LINE
8
BLACK
10
34580.0
20
59942.0
11
34580.0
21
58942.0
0
LINE
8
BLACK
10
34580.0
20
58942.0
11
35380.0
21
58942.0
0
LINE
8
BLACK
10
35380.0
20
58942.0
11
35380.0
21
59942.0
0
LINE
8
BLACK
10
35380.0
20
59942.0
11
34580.0
21
59942.0
0
LINE
8
BLACK
10
35880.0
20
59942.0
11
35880.0
21
58942.0
0
LINE
8
BLACK
10
35880.0
20
58942.0
11
36680.0
21
58942.0
0
LINE
8
BLACK
10
36680.0
20
58942.0
11
36680.0
21
59942.0
0
LINE
8
BLACK
10
36680.0
20
59942.0
11
35880.0
21
59942.0
0
LINE
8
BLACK
10
77550.0
20
47670.0
11
77550.0
21
48670.0
0
LINE
8
BLACK
10
77550.0
20
48670.0
11
76750.0
21
48670.0
0
LINE
8
BLACK
10
76750.0
20
48670.0
11
76750.0
21
47670.0
0
LINE
8
BLACK
10
76750.0
20
47670.0
11
77550.0
21
47670.0
0
LINE
8
BLACK
10
76250.0
20
47670.0
11
76250.0
21
48670.0
0
LINE
8
BLACK
10
76250.0
20
48670.0
11
75450.0
21
48670.0
0
LINE
8
BLACK
10
75450.0
20
48670.0
11
75450.0
21
47670.0
0
LINE
8
BLACK
10
75450.0
20
47670.0
11
76250.0
21
47670.0
0
LINE
8
BLACK
10
38714.0
20
68603.0
11
38714.0
21
67603.0
0
LINE
8
BLACK
10
38714.0
20
67603.0
11
39514.0
21
67603.0
0
LINE
8
BLACK
10
39514.0
20
67603.0
11
39514.0
21
68603.0
0
LINE
8
BLACK
10
39514.0
20
68603.0
11
38714.0
21
68603.0
0
LINE
8
BLACK
10
40014.0
20
68603.0
11
40014.0
21
67603.0
0
LINE
8
BLACK
10
40014.0
20
67603.0
11
40814.0
21
67603.0
0
LINE
8
BLACK
10
40814.0
20
67603.0
11
40814.0
21
68603.0
0
LINE
8
BLACK
10
40814.0
20
68603.0
11
40014.0
21
68603.0
0
LINE
8
BLACK
10
76025.0
20
61370.0
11
75375.0
21
61370.0
0
LINE
8
BLACK
10
75375.0
20
61370.0
11
75375.0
21
60970.0
0
LINE
8
BLACK
10
75375.0
20
60970.0
11
76025.0
21
60970.0
0
LINE
8
BLACK
10
76025.0
20
60970.0
11
76025.0
21
61370.0
0
LINE
8
BLACK
10
76025.0
20
60870.0
11
75375.0
21
60870.0
0
LINE
8
BLACK
10
75375.0
20
60870.0
11
75375.0
21
60470.0
0
LINE
8
BLACK
10
75375.0
20
60470.0
11
76025.0
21
60470.0
0
LINE
8
BLACK
10
76025.0
20
60470.0
11
76025.0
21
60870.0
0
LINE
8
BLACK
10
76025.0
20
60370.0
11
75375.0
21
60370.0
0
LINE
8
BLACK
10
75375.0
20
60370.0
11
75375.0
21
59970.0
0
LINE
8
BLACK
10
75375.0
20
59970.0
11
76025.0
21
59970.0
0
LINE
8
BLACK
10
76025.0
20
59970.0
11
76025.0
21
60370.0
0
LINE
8
BLACK
10
76025.0
20
59870.0
11
75375.0
21
59870.0
0
LINE
8
BLACK
10
75375.0
20
59870.0
11
75375.0
21
59470.0
0
LINE
8
BLACK
10
75375.0
20
59470.0
11
76025.0
21
59470.0
0
LINE
8
BLACK
10
76025.0
20
59470.0
11
76025.0
21
59870.0
0
LINE
8
BLACK
10
76025.0
20
59370.0
11
75375.0
21
59370.0
0
LINE
8
BLACK
10
75375.0
20
59370.0
11
75375.0
21
58970.0
0
LINE
8
BLACK
10
75375.0
20
58970.0
11
76025.0
21
58970.0
0
LINE
8
BLACK
10
76025.0
20
58970.0
11
76025.0
21
59370.0
0
LINE
8
BLACK
10
76025.0
20
58870.0
11
75375.0
21
58870.0
0
LINE
8
BLACK
10
75375.0
20
58870.0
11
75375.0
21
58470.0
0
LINE
8
BLACK
10
75375.0
20
58470.0
11
76025.0
21
58470.0
0
LINE
8
BLACK
10
76025.0
20
58470.0
11
76025.0
21
58870.0
0
LINE
8
BLACK
10
76025.0
20
58370.0
11
75375.0
21
58370.0
0
LINE
8
BLACK
10
75375.0
20
58370.0
11
75375.0
21
57970.0
0
LINE
8
BLACK
10
75375.0
20
57970.0
11
76025.0
21
57970.0
0
LINE
8
BLACK
10
76025.0
20
57970.0
11
76025.0
21
58370.0
0
LINE
8
BLACK
10
78525.0
20
58370.0
11
77875.0
21
58370.0
0
LINE
8
BLACK
10
77875.0
20
58370.0
11
77875.0
21
57970.0
0
LINE
8
BLACK
10
77875.0
20
57970.0
11
78525.0
21
57970.0
0
LINE
8
BLACK
10
78525.0
20
57970.0
11
78525.0
21
58370.0
0
LINE
8
BLACK
10
78525.0
20
58870.0
11
77875.0
21
58870.0
0
LINE
8
BLACK
10
77875.0
20
58870.0
11
77875.0
21
58470.0
0
LINE
8
BLACK
10
77875.0
20
58470.0
11
78525.0
21
58470.0
0
LINE
8
BLACK
10
78525.0
20
58470.0
11
78525.0
21
58870.0
0
LINE
8
BLACK
10
78525.0
20
59870.0
11
77875.0
21
59870.0
0
LINE
8
BLACK
10
77875.0
20
59870.0
11
77875.0
21
59470.0
0
LINE
8
BLACK
10
77875.0
20
59470.0
11
78525.0
21
59470.0
0
LINE
8
BLACK
10
78525.0
20
59470.0
11
78525.0
21
59870.0
0
LINE
8
BLACK
10
78525.0
20
60370.0
11
77875.0
21
60370.0
0
LINE
8
BLACK
10
77875.0
20
60370.0
11
77875.0
21
59970.0
0
LINE
8
BLACK
10
77875.0
20
59970.0
11
78525.0
21
59970.0
0
LINE
8
BLACK
10
78525.0
20
59970.0
11
78525.0
21
60370.0
0
LINE
8
BLACK
10
78525.0
20
60870.0
11
77875.0
21
60870.0
0
LINE
8
BLACK
10
77875.0
20
60870.0
11
77875.0
21
60470.0
0
LINE
8
BLACK
10
77875.0
20
60470.0
11
78525.0
21
60470.0
0
LINE
8
BLACK
10
78525.0
20
60470.0
11
78525.0
21
60870.0
0
LINE
8
BLACK
10
78525.0
20
61370.0
11
77875.0
21
61370.0
0
LINE
8
BLACK
10
77875.0
20
61370.0
11
77875.0
21
60970.0
0
LINE
8
BLACK
10
77875.0
20
60970.0
11
78525.0
21
60970.0
0
LINE
8
BLACK
10
78525.0
20
60970.0
11
78525.0
21
61370.0
0
LINE
8
BLACK
10
78525.0
20
59370.0
11
77875.0
21
59370.0
0
LINE
8
BLACK
10
77875.0
20
59370.0
11
77875.0
21
58970.0
0
LINE
8
BLACK
10
77875.0
20
58970.0
11
78525.0
21
58970.0
0
LINE
8
BLACK
10
78525.0
20
58970.0
11
78525.0
21
59370.0
0
LINE
8
BLACK
10
76025.0
20
43370.0
11
75375.0
21
43370.0
0
LINE
8
BLACK
10
75375.0
20
43370.0
11
75375.0
21
42970.0
0
LINE
8
BLACK
10
75375.0
20
42970.0
11
76025.0
21
42970.0
0
LINE
8
BLACK
10
76025.0
20
42970.0
11
76025.0
21
43370.0
0
LINE
8
BLACK
10
76025.0
20
42870.0
11
75375.0
21
42870.0
0
LINE
8
BLACK
10
75375.0
20
42870.0
11
75375.0
21
42470.0
0
LINE
8
BLACK
10
75375.0
20
42470.0
11
76025.0
21
42470.0
0
LINE
8
BLACK
10
76025.0
20
42470.0
11
76025.0
21
42870.0
0
LINE
8
BLACK
10
76025.0
20
42370.0
11
75375.0
21
42370.0
0
LINE
8
BLACK
10
75375.0
20
42370.0
11
75375.0
21
41970.0
0
LINE
8
BLACK
10
75375.0
20
41970.0
11
76025.0
21
41970.0
0
LINE
8
BLACK
10
76025.0
20
41970.0
11
76025.0
21
42370.0
0
LINE
8
BLACK
10
76025.0
20
41870.0
11
75375.0
21
41870.0
0
LINE
8
BLACK
10
75375.0
20
41870.0
11
75375.0
21
41470.0
0
LINE
8
BLACK
10
75375.0
20
41470.0
11
76025.0
21
41470.0
0
LINE
8
BLACK
10
76025.0
20
41470.0
11
76025.0
21
41870.0
0
LINE
8
BLACK
10
76025.0
20
41370.0
11
75375.0
21
41370.0
0
LINE
8
BLACK
10
75375.0
20
41370.0
11
75375.0
21
40970.0
0
LINE
8
BLACK
10
75375.0
20
40970.0
11
76025.0
21
40970.0
0
LINE
8
BLACK
10
76025.0
20
40970.0
11
76025.0
21
41370.0
0
LINE
8
BLACK
10
76025.0
20
40870.0
11
75375.0
21
40870.0
0
LINE
8
BLACK
10
75375.0
20
40870.0
11
75375.0
21
40470.0
0
LINE
8
BLACK
10
75375.0
20
40470.0
11
76025.0
21
40470.0
0
LINE
8
BLACK
10
76025.0
20
40470.0
11
76025.0
21
40870.0
0
LINE
8
BLACK
10
76025.0
20
40370.0
11
75375.0
21
40370.0
0
LINE
8
BLACK
10
75375.0
20
40370.0
11
75375.0
21
39970.0
0
LINE
8
BLACK
10
75375.0
20
39970.0
11
76025.0
21
39970.0
0
LINE
8
BLACK
10
76025.0
20
39970.0
11
76025.0
21
40370.0
0
LINE
8
BLACK
10
78525.0
20
40370.0
11
77875.0
21
40370.0
0
LINE
8
BLACK
10
77875.0
20
40370.0
11
77875.0
21
39970.0
0
LINE
8
BLACK
10
77875.0
20
39970.0
11
78525.0
21
39970.0
0
LINE
8
BLACK
10
78525.0
20
39970.0
11
78525.0
21
40370.0
0
LINE
8
BLACK
10
78525.0
20
40870.0
11
77875.0
21
40870.0
0
LINE
8
BLACK
10
77875.0
20
40870.0
11
77875.0
21
40470.0
0
LINE
8
BLACK
10
77875.0
20
40470.0
11
78525.0
21
40470.0
0
LINE
8
BLACK
10
78525.0
20
40470.0
11
78525.0
21
40870.0
0
LINE
8
BLACK
10
78525.0
20
41870.0
11
77875.0
21
41870.0
0
LINE
8
BLACK
10
77875.0
20
41870.0
11
77875.0
21
41470.0
0
LINE
8
BLACK
10
77875.0
20
41470.0
11
78525.0
21
41470.0
0
LINE
8
BLACK
10
78525.0
20
41470.0
11
78525.0
21
41870.0
0
LINE
8
BLACK
10
78525.0
20
42370.0
11
77875.0
21
42370.0
0
LINE
8
BLACK
10
77875.0
20
42370.0
11
77875.0
21
41970.0
0
LINE
8
BLACK
10
77875.0
20
41970.0
11
78525.0
21
41970.0
0
LINE
8
BLACK
10
78525.0
20
41970.0
11
78525.0
21
42370.0
0
LINE
8
BLACK
10
78525.0
20
42870.0
11
77875.0
21
42870.0
0
LINE
8
BLACK
10
77875.0
20
42870.0
11
77875.0
21
42470.0
0
LINE
8
BLACK
10
77875.0
20
42470.0
11
78525.0
21
42470.0
0
LINE
8
BLACK
10
78525.0
20
42470.0
11
78525.0
21
42870.0
0
LINE
8
BLACK
10
78525.0
20
43370.0
11
77875.0
21
43370.0
0
LINE
8
BLACK
10
77875.0
20
43370.0
11
77875.0
21
42970.0
0
LINE
8
BLACK
10
77875.0
20
42970.0
11
78525.0
21
42970.0
0
LINE
8
BLACK
10
78525.0
20
42970.0
11
78525.0
21
43370.0
0
LINE
8
BLACK
10
78525.0
20
41370.0
11
77875.0
21
41370.0
0
LINE
8
BLACK
10
77875.0
20
41370.0
11
77875.0
21
40970.0
0
LINE
8
BLACK
10
77875.0
20
40970.0
11
78525.0
21
40970.0
0
LINE
8
BLACK
10
78525.0
20
40970.0
11
78525.0
21
41370.0
0
LINE
8
BLACK
10
56424.0
20
66322.0
11
56424.0
21
66972.0
0
LINE
8
BLACK
10
56424.0
20
66972.0
11
56024.0
21
66972.0
0
LINE
8
BLACK
10
56024.0
20
66972.0
11
56024.0
21
66322.0
0
LINE
8
BLACK
10
56024.0
20
66322.0
11
56424.0
21
66322.0
0
LINE
8
BLACK
10
55924.0
20
66322.0
11
55924.0
21
66972.0
0
LINE
8
BLACK
10
55924.0
20
66972.0
11
55524.0
21
66972.0
0
LINE
8
BLACK
10
55524.0
20
66972.0
11
55524.0
21
66322.0
0
LINE
8
BLACK
10
55524.0
20
66322.0
11
55924.0
21
66322.0
0
LINE
8
BLACK
10
55424.0
20
66322.0
11
55424.0
21
66972.0
0
LINE
8
BLACK
10
55424.0
20
66972.0
11
55024.0
21
66972.0
0
LINE
8
BLACK
10
55024.0
20
66972.0
11
55024.0
21
66322.0
0
LINE
8
BLACK
10
55024.0
20
66322.0
11
55424.0
21
66322.0
0
LINE
8
BLACK
10
54924.0
20
66322.0
11
54924.0
21
66972.0
0
LINE
8
BLACK
10
54924.0
20
66972.0
11
54524.0
21
66972.0
0
LINE
8
BLACK
10
54524.0
20
66972.0
11
54524.0
21
66322.0
0
LINE
8
BLACK
10
54524.0
20
66322.0
11
54924.0
21
66322.0
0
LINE
8
BLACK
10
54424.0
20
66322.0
11
54424.0
21
66972.0
0
LINE
8
BLACK
10
54424.0
20
66972.0
11
54024.0
21
66972.0
0
LINE
8
BLACK
10
54024.0
20
66972.0
11
54024.0
21
66322.0
0
LINE
8
BLACK
10
54024.0
20
66322.0
11
54424.0
21
66322.0
0
LINE
8
BLACK
10
53924.0
20
66322.0
11
53924.0
21
66972.0
0
LINE
8
BLACK
10
53924.0
20
66972.0
11
53524.0
21
66972.0
0
LINE
8
BLACK
10
53524.0
20
66972.0
11
53524.0
21
66322.0
0
LINE
8
BLACK
10
53524.0
20
66322.0
11
53924.0
21
66322.0
0
LINE
8
BLACK
10
53424.0
20
66322.0
11
53424.0
21
66972.0
0
LINE
8
BLACK
10
53424.0
20
66972.0
11
53024.0
21
66972.0
0
LINE
8
BLACK
10
53024.0
20
66972.0
11
53024.0
21
66322.0
0
LINE
8
BLACK
10
53024.0
20
66322.0
11
53424.0
21
66322.0
0
LINE
8
BLACK
10
53424.0
20
63822.0
11
53424.0
21
64472.0
0
LINE
8
BLACK
10
53424.0
20
64472.0
11
53024.0
21
64472.0
0
LINE
8
BLACK
10
53024.0
20
64472.0
11
53024.0
21
63822.0
0
LINE
8
BLACK
10
53024.0
20
63822.0
11
53424.0
21
63822.0
0
LINE
8
BLACK
10
53924.0
20
63822.0
11
53924.0
21
64472.0
0
LINE
8
BLACK
10
53924.0
20
64472.0
11
53524.0
21
64472.0
0
LINE
8
BLACK
10
53524.0
20
64472.0
11
53524.0
21
63822.0
0
LINE
8
BLACK
10
53524.0
20
63822.0
11
53924.0
21
63822.0
0
LINE
8
BLACK
10
54924.0
20
63822.0
11
54924.0
21
64472.0
0
LINE
8
BLACK
10
54924.0
20
64472.0
11
54524.0
21
64472.0
0
LINE
8
BLACK
10
54524.0
20
64472.0
11
54524.0
21
63822.0
0
LINE
8
BLACK
10
54524.0
20
63822.0
11
54924.0
21
63822.0
0
LINE
8
BLACK
10
55424.0
20
63822.0
11
55424.0
21
64472.0
0
LINE
8
BLACK
10
55424.0
20
64472.0
11
55024.0
21
64472.0
0
LINE
8
BLACK
10
55024.0
20
64472.0
11
55024.0
21
63822.0
0
LINE
8
BLACK
10
55024.0
20
63822.0
11
55424.0
21
63822.0
0
LINE
8
BLACK
10
55924.0
20
63822.0
11
55924.0
21
64472.0
0
LINE
8
BLACK
10
55924.0
20
64472.0
11
55524.0
21
64472.0
0
LINE
8
BLACK
10
55524.0
20
64472.0
11
55524.0
21
63822.0
0
LINE
8
BLACK
10
55524.0
20
63822.0
11
55924.0
21
63822.0
0
LINE
8
BLACK
10
56424.0
20
63822.0
11
56424.0
21
64472.0
0
LINE
8
BLACK
10
56424.0
20
64472.0
11
56024.0
21
64472.0
0
LINE
8
BLACK
10
56024.0
20
64472.0
11
56024.0
21
63822.0
0
LINE
8
BLACK
10
56024.0
20
63822.0
11
56424.0
21
63822.0
0
LINE
8
BLACK
10
54424.0
20
63822.0
11
54424.0
21
64472.0
0
LINE
8
BLACK
10
54424.0
20
64472.0
11
54024.0
21
64472.0
0
LINE
8
BLACK
10
54024.0
20
64472.0
11
54024.0
21
63822.0
0
LINE
8
BLACK
10
54024.0
20
63822.0
11
54424.0
21
63822.0
0
LINE
8
BLACK
10
65873.0
20
66322.0
11
65873.0
21
66972.0
0
LINE
8
BLACK
10
65873.0
20
66972.0
11
65473.0
21
66972.0
0
LINE
8
BLACK
10
65473.0
20
66972.0
11
65473.0
21
66322.0
0
LINE
8
BLACK
10
65473.0
20
66322.0
11
65873.0
21
66322.0
0
LINE
8
BLACK
10
65373.0
20
66322.0
11
65373.0
21
66972.0
0
LINE
8
BLACK
10
65373.0
20
66972.0
11
64973.0
21
66972.0
0
LINE
8
BLACK
10
64973.0
20
66972.0
11
64973.0
21
66322.0
0
LINE
8
BLACK
10
64973.0
20
66322.0
11
65373.0
21
66322.0
0
LINE
8
BLACK
10
64873.0
20
66322.0
11
64873.0
21
66972.0
0
LINE
8
BLACK
10
64873.0
20
66972.0
11
64473.0
21
66972.0
0
LINE
8
BLACK
10
64473.0
20
66972.0
11
64473.0
21
66322.0
0
LINE
8
BLACK
10
64473.0
20
66322.0
11
64873.0
21
66322.0
0
LINE
8
BLACK
10
64373.0
20
66322.0
11
64373.0
21
66972.0
0
LINE
8
BLACK
10
64373.0
20
66972.0
11
63973.0
21
66972.0
0
LINE
8
BLACK
10
63973.0
20
66972.0
11
63973.0
21
66322.0
0
LINE
8
BLACK
10
63973.0
20
66322.0
11
64373.0
21
66322.0
0
LINE
8
BLACK
10
63873.0
20
66322.0
11
63873.0
21
66972.0
0
LINE
8
BLACK
10
63873.0
20
66972.0
11
63473.0
21
66972.0
0
LINE
8
BLACK
10
63473.0
20
66972.0
11
63473.0
21
66322.0
0
LINE
8
BLACK
10
63473.0
20
66322.0
11
63873.0
21
66322.0
0
LINE
8
BLACK
10
63373.0
20
66322.0
11
63373.0
21
66972.0
0
LINE
8
BLACK
10
63373.0
20
66972.0
11
62973.0
21
66972.0
0
LINE
8
BLACK
10
62973.0
20
66972.0
11
62973.0
21
66322.0
0
LINE
8
BLACK
10
62973.0
20
66322.0
11
63373.0
21
66322.0
0
LINE
8
BLACK
10
62873.0
20
66322.0
11
62873.0
21
66972.0
0
LINE
8
BLACK
10
62873.0
20
66972.0
11
62473.0
21
66972.0
0
LINE
8
BLACK
10
62473.0
20
66972.0
11
62473.0
21
66322.0
0
LINE
8
BLACK
10
62473.0
20
66322.0
11
62873.0
21
66322.0
0
LINE
8
BLACK
10
62873.0
20
63822.0
11
62873.0
21
64472.0
0
LINE
8
BLACK
10
62873.0
20
64472.0
11
62473.0
21
64472.0
0
LINE
8
BLACK
10
62473.0
20
64472.0
11
62473.0
21
63822.0
0
LINE
8
BLACK
10
62473.0
20
63822.0
11
62873.0
21
63822.0
0
LINE
8
BLACK
10
63373.0
20
63822.0
11
63373.0
21
64472.0
0
LINE
8
BLACK
10
63373.0
20
64472.0
11
62973.0
21
64472.0
0
LINE
8
BLACK
10
62973.0
20
64472.0
11
62973.0
21
63822.0
0
LINE
8
BLACK
10
62973.0
20
63822.0
11
63373.0
21
63822.0
0
LINE
8
BLACK
10
64373.0
20
63822.0
11
64373.0
21
64472.0
0
LINE
8
BLACK
10
64373.0
20
64472.0
11
63973.0
21
64472.0
0
LINE
8
BLACK
10
63973.0
20
64472.0
11
63973.0
21
63822.0
0
LINE
8
BLACK
10
63973.0
20
63822.0
11
64373.0
21
63822.0
0
LINE
8
BLACK
10
64873.0
20
63822.0
11
64873.0
21
64472.0
0
LINE
8
BLACK
10
64873.0
20
64472.0
11
64473.0
21
64472.0
0
LINE
8
BLACK
10
64473.0
20
64472.0
11
64473.0
21
63822.0
0
LINE
8
BLACK
10
64473.0
20
63822.0
11
64873.0
21
63822.0
0
LINE
8
BLACK
10
65373.0
20
63822.0
11
65373.0
21
64472.0
0
LINE
8
BLACK
10
65373.0
20
64472.0
11
64973.0
21
64472.0
0
LINE
8
BLACK
10
64973.0
20
64472.0
11
64973.0
21
63822.0
0
LINE
8
BLACK
10
64973.0
20
63822.0
11
65373.0
21
63822.0
0
LINE
8
BLACK
10
65873.0
20
63822.0
11
65873.0
21
64472.0
0
LINE
8
BLACK
10
65873.0
20
64472.0
11
65473.0
21
64472.0
0
LINE
8
BLACK
10
65473.0
20
64472.0
11
65473.0
21
63822.0
0
LINE
8
BLACK
10
65473.0
20
63822.0
11
65873.0
21
63822.0
0
LINE
8
BLACK
10
63873.0
20
63822.0
11
63873.0
21
64472.0
0
LINE
8
BLACK
10
63873.0
20
64472.0
11
63473.0
21
64472.0
0
LINE
8
BLACK
10
63473.0
20
64472.0
11
63473.0
21
63822.0
0
LINE
8
BLACK
10
63473.0
20
63822.0
11
63873.0
21
63822.0
0
LINE
8
BLACK
10
76025.0
20
26370.0
11
75375.0
21
26370.0
0
LINE
8
BLACK
10
75375.0
20
26370.0
11
75375.0
21
25970.0
0
LINE
8
BLACK
10
75375.0
20
25970.0
11
76025.0
21
25970.0
0
LINE
8
BLACK
10
76025.0
20
25970.0
11
76025.0
21
26370.0
0
LINE
8
BLACK
10
76025.0
20
25870.0
11
75375.0
21
25870.0
0
LINE
8
BLACK
10
75375.0
20
25870.0
11
75375.0
21
25470.0
0
LINE
8
BLACK
10
75375.0
20
25470.0
11
76025.0
21
25470.0
0
LINE
8
BLACK
10
76025.0
20
25470.0
11
76025.0
21
25870.0
0
LINE
8
BLACK
10
76025.0
20
25370.0
11
75375.0
21
25370.0
0
LINE
8
BLACK
10
75375.0
20
25370.0
11
75375.0
21
24970.0
0
LINE
8
BLACK
10
75375.0
20
24970.0
11
76025.0
21
24970.0
0
LINE
8
BLACK
10
76025.0
20
24970.0
11
76025.0
21
25370.0
0
LINE
8
BLACK
10
76025.0
20
24870.0
11
75375.0
21
24870.0
0
LINE
8
BLACK
10
75375.0
20
24870.0
11
75375.0
21
24470.0
0
LINE
8
BLACK
10
75375.0
20
24470.0
11
76025.0
21
24470.0
0
LINE
8
BLACK
10
76025.0
20
24470.0
11
76025.0
21
24870.0
0
LINE
8
BLACK
10
76025.0
20
24370.0
11
75375.0
21
24370.0
0
LINE
8
BLACK
10
75375.0
20
24370.0
11
75375.0
21
23970.0
0
LINE
8
BLACK
10
75375.0
20
23970.0
11
76025.0
21
23970.0
0
LINE
8
BLACK
10
76025.0
20
23970.0
11
76025.0
21
24370.0
0
LINE
8
BLACK
10
76025.0
20
23870.0
11
75375.0
21
23870.0
0
LINE
8
BLACK
10
75375.0
20
23870.0
11
75375.0
21
23470.0
0
LINE
8
BLACK
10
75375.0
20
23470.0
11
76025.0
21
23470.0
0
LINE
8
BLACK
10
76025.0
20
23470.0
11
76025.0
21
23870.0
0
LINE
8
BLACK
10
76025.0
20
23370.0
11
75375.0
21
23370.0
0
LINE
8
BLACK
10
75375.0
20
23370.0
11
75375.0
21
22970.0
0
LINE
8
BLACK
10
75375.0
20
22970.0
11
76025.0
21
22970.0
0
LINE
8
BLACK
10
76025.0
20
22970.0
11
76025.0
21
23370.0
0
LINE
8
BLACK
10
78525.0
20
23370.0
11
77875.0
21
23370.0
0
LINE
8
BLACK
10
77875.0
20
23370.0
11
77875.0
21
22970.0
0
LINE
8
BLACK
10
77875.0
20
22970.0
11
78525.0
21
22970.0
0
LINE
8
BLACK
10
78525.0
20
22970.0
11
78525.0
21
23370.0
0
LINE
8
BLACK
10
78525.0
20
23870.0
11
77875.0
21
23870.0
0
LINE
8
BLACK
10
77875.0
20
23870.0
11
77875.0
21
23470.0
0
LINE
8
BLACK
10
77875.0
20
23470.0
11
78525.0
21
23470.0
0
LINE
8
BLACK
10
78525.0
20
23470.0
11
78525.0
21
23870.0
0
LINE
8
BLACK
10
78525.0
20
24870.0
11
77875.0
21
24870.0
0
LINE
8
BLACK
10
77875.0
20
24870.0
11
77875.0
21
24470.0
0
LINE
8
BLACK
10
77875.0
20
24470.0
11
78525.0
21
24470.0
0
LINE
8
BLACK
10
78525.0
20
24470.0
11
78525.0
21
24870.0
0
LINE
8
BLACK
10
78525.0
20
25370.0
11
77875.0
21
25370.0
0
LINE
8
BLACK
10
77875.0
20
25370.0
11
77875.0
21
24970.0
0
LINE
8
BLACK
10
77875.0
20
24970.0
11
78525.0
21
24970.0
0
LINE
8
BLACK
10
78525.0
20
24970.0
11
78525.0
21
25370.0
0
LINE
8
BLACK
10
78525.0
20
25870.0
11
77875.0
21
25870.0
0
LINE
8
BLACK
10
77875.0
20
25870.0
11
77875.0
21
25470.0
0
LINE
8
BLACK
10
77875.0
20
25470.0
11
78525.0
21
25470.0
0
LINE
8
BLACK
10
78525.0
20
25470.0
11
78525.0
21
25870.0
0
LINE
8
BLACK
10
78525.0
20
26370.0
11
77875.0
21
26370.0
0
LINE
8
BLACK
10
77875.0
20
26370.0
11
77875.0
21
25970.0
0
LINE
8
BLACK
10
77875.0
20
25970.0
11
78525.0
21
25970.0
0
LINE
8
BLACK
10
78525.0
20
25970.0
11
78525.0
21
26370.0
0
LINE
8
BLACK
10
78525.0
20
24370.0
11
77875.0
21
24370.0
0
LINE
8
BLACK
10
77875.0
20
24370.0
11
77875.0
21
23970.0
0
LINE
8
BLACK
10
77875.0
20
23970.0
11
78525.0
21
23970.0
0
LINE
8
BLACK
10
78525.0
20
23970.0
11
78525.0
21
24370.0
0
LINE
8
BLACK
10
76025.0
20
31370.0
11
75375.0
21
31370.0
0
LINE
8
BLACK
10
75375.0
20
31370.0
11
75375.0
21
30970.0
0
LINE
8
BLACK
10
75375.0
20
30970.0
11
76025.0
21
30970.0
0
LINE
8
BLACK
10
76025.0
20
30970.0
11
76025.0
21
31370.0
0
LINE
8
BLACK
10
76025.0
20
30870.0
11
75375.0
21
30870.0
0
LINE
8
BLACK
10
75375.0
20
30870.0
11
75375.0
21
30470.0
0
LINE
8
BLACK
10
75375.0
20
30470.0
11
76025.0
21
30470.0
0
LINE
8
BLACK
10
76025.0
20
30470.0
11
76025.0
21
30870.0
0
LINE
8
BLACK
10
76025.0
20
30370.0
11
75375.0
21
30370.0
0
LINE
8
BLACK
10
75375.0
20
30370.0
11
75375.0
21
29970.0
0
LINE
8
BLACK
10
75375.0
20
29970.0
11
76025.0
21
29970.0
0
LINE
8
BLACK
10
76025.0
20
29970.0
11
76025.0
21
30370.0
0
LINE
8
BLACK
10
76025.0
20
29870.0
11
75375.0
21
29870.0
0
LINE
8
BLACK
10
75375.0
20
29870.0
11
75375.0
21
29470.0
0
LINE
8
BLACK
10
75375.0
20
29470.0
11
76025.0
21
29470.0
0
LINE
8
BLACK
10
76025.0
20
29470.0
11
76025.0
21
29870.0
0
LINE
8
BLACK
10
76025.0
20
29370.0
11
75375.0
21
29370.0
0
LINE
8
BLACK
10
75375.0
20
29370.0
11
75375.0
21
28970.0
0
LINE
8
BLACK
10
75375.0
20
28970.0
11
76025.0
21
28970.0
0
LINE
8
BLACK
10
76025.0
20
28970.0
11
76025.0
21
29370.0
0
LINE
8
BLACK
10
76025.0
20
28870.0
11
75375.0
21
28870.0
0
LINE
8
BLACK
10
75375.0
20
28870.0
11
75375.0
21
28470.0
0
LINE
8
BLACK
10
75375.0
20
28470.0
11
76025.0
21
28470.0
0
LINE
8
BLACK
10
76025.0
20
28470.0
11
76025.0
21
28870.0
0
LINE
8
BLACK
10
76025.0
20
28370.0
11
75375.0
21
28370.0
0
LINE
8
BLACK
10
75375.0
20
28370.0
11
75375.0
21
27970.0
0
LINE
8
BLACK
10
75375.0
20
27970.0
11
76025.0
21
27970.0
0
LINE
8
BLACK
10
76025.0
20
27970.0
11
76025.0
21
28370.0
0
LINE
8
BLACK
10
78525.0
20
28370.0
11
77875.0
21
28370.0
0
LINE
8
BLACK
10
77875.0
20
28370.0
11
77875.0
21
27970.0
0
LINE
8
BLACK
10
77875.0
20
27970.0
11
78525.0
21
27970.0
0
LINE
8
BLACK
10
78525.0
20
27970.0
11
78525.0
21
28370.0
0
LINE
8
BLACK
10
78525.0
20
28870.0
11
77875.0
21
28870.0
0
LINE
8
BLACK
10
77875.0
20
28870.0
11
77875.0
21
28470.0
0
LINE
8
BLACK
10
77875.0
20
28470.0
11
78525.0
21
28470.0
0
LINE
8
BLACK
10
78525.0
20
28470.0
11
78525.0
21
28870.0
0
LINE
8
BLACK
10
78525.0
20
29870.0
11
77875.0
21
29870.0
0
LINE
8
BLACK
10
77875.0
20
29870.0
11
77875.0
21
29470.0
0
LINE
8
BLACK
10
77875.0
20
29470.0
11
78525.0
21
29470.0
0
LINE
8
BLACK
10
78525.0
20
29470.0
11
78525.0
21
29870.0
0
LINE
8
BLACK
10
78525.0
20
30370.0
11
77875.0
21
30370.0
0
LINE
8
BLACK
10
77875.0
20
30370.0
11
77875.0
21
29970.0
0
LINE
8
BLACK
10
77875.0
20
29970.0
11
78525.0
21
29970.0
0
LINE
8
BLACK
10
78525.0
20
29970.0
11
78525.0
21
30370.0
0
LINE
8
BLACK
10
78525.0
20
30870.0
11
77875.0
21
30870.0
0
LINE
8
BLACK
10
77875.0
20
30870.0
11
77875.0
21
30470.0
0
LINE
8
BLACK
10
77875.0
20
30470.0
11
78525.0
21
30470.0
0
LINE
8
BLACK
10
78525.0
20
30470.0
11
78525.0
21
30870.0
0
LINE
8
BLACK
10
78525.0
20
31370.0
11
77875.0
21
31370.0
0
LINE
8
BLACK
10
77875.0
20
31370.0
11
77875.0
21
30970.0
0
LINE
8
BLACK
10
77875.0
20
30970.0
11
78525.0
21
30970.0
0
LINE
8
BLACK
10
78525.0
20
30970.0
11
78525.0
21
31370.0
0
LINE
8
BLACK
10
78525.0
20
29370.0
11
77875.0
21
29370.0
0
LINE
8
BLACK
10
77875.0
20
29370.0
11
77875.0
21
28970.0
0
LINE
8
BLACK
10
77875.0
20
28970.0
11
78525.0
21
28970.0
0
LINE
8
BLACK
10
78525.0
20
28970.0
11
78525.0
21
29370.0
0
LINE
8
BLACK
10
41714.0
20
26568.0
11
41714.0
21
27218.0
0
LINE
8
BLACK
10
41714.0
20
27218.0
11
41314.0
21
27218.0
0
LINE
8
BLACK
10
41314.0
20
27218.0
11
41314.0
21
26568.0
0
LINE
8
BLACK
10
41314.0
20
26568.0
11
41714.0
21
26568.0
0
LINE
8
BLACK
10
40714.0
20
26568.0
11
40714.0
21
27218.0
0
LINE
8
BLACK
10
40714.0
20
27218.0
11
40314.0
21
27218.0
0
LINE
8
BLACK
10
40314.0
20
27218.0
11
40314.0
21
26568.0
0
LINE
8
BLACK
10
40314.0
20
26568.0
11
40714.0
21
26568.0
0
LINE
8
BLACK
10
40214.0
20
26568.0
11
40214.0
21
27218.0
0
LINE
8
BLACK
10
40214.0
20
27218.0
11
39814.0
21
27218.0
0
LINE
8
BLACK
10
39814.0
20
27218.0
11
39814.0
21
26568.0
0
LINE
8
BLACK
10
39814.0
20
26568.0
11
40214.0
21
26568.0
0
LINE
8
BLACK
10
39714.0
20
26568.0
11
39714.0
21
27218.0
0
LINE
8
BLACK
10
39714.0
20
27218.0
11
39314.0
21
27218.0
0
LINE
8
BLACK
10
39314.0
20
27218.0
11
39314.0
21
26568.0
0
LINE
8
BLACK
10
39314.0
20
26568.0
11
39714.0
21
26568.0
0
LINE
8
BLACK
10
39214.0
20
26568.0
11
39214.0
21
27218.0
0
LINE
8
BLACK
10
39214.0
20
27218.0
11
38814.0
21
27218.0
0
LINE
8
BLACK
10
38814.0
20
27218.0
11
38814.0
21
26568.0
0
LINE
8
BLACK
10
38814.0
20
26568.0
11
39214.0
21
26568.0
0
LINE
8
BLACK
10
38714.0
20
26568.0
11
38714.0
21
27218.0
0
LINE
8
BLACK
10
38714.0
20
27218.0
11
38314.0
21
27218.0
0
LINE
8
BLACK
10
38314.0
20
27218.0
11
38314.0
21
26568.0
0
LINE
8
BLACK
10
38314.0
20
26568.0
11
38714.0
21
26568.0
0
LINE
8
BLACK
10
38214.0
20
26568.0
11
38214.0
21
27218.0
0
LINE
8
BLACK
10
38214.0
20
27218.0
11
37814.0
21
27218.0
0
LINE
8
BLACK
10
37814.0
20
27218.0
11
37814.0
21
26568.0
0
LINE
8
BLACK
10
37814.0
20
26568.0
11
38214.0
21
26568.0
0
LINE
8
BLACK
10
38214.0
20
29068.0
11
38214.0
21
29718.0
0
LINE
8
BLACK
10
38214.0
20
29718.0
11
37814.0
21
29718.0
0
LINE
8
BLACK
10
37814.0
20
29718.0
11
37814.0
21
29068.0
0
LINE
8
BLACK
10
37814.0
20
29068.0
11
38214.0
21
29068.0
0
LINE
8
BLACK
10
38714.0
20
29068.0
11
38714.0
21
29718.0
0
LINE
8
BLACK
10
38714.0
20
29718.0
11
38314.0
21
29718.0
0
LINE
8
BLACK
10
38314.0
20
29718.0
11
38314.0
21
29068.0
0
LINE
8
BLACK
10
38314.0
20
29068.0
11
38714.0
21
29068.0
0
LINE
8
BLACK
10
39214.0
20
29068.0
11
39214.0
21
29718.0
0
LINE
8
BLACK
10
39214.0
20
29718.0
11
38814.0
21
29718.0
0
LINE
8
BLACK
10
38814.0
20
29718.0
11
38814.0
21
29068.0
0
LINE
8
BLACK
10
38814.0
20
29068.0
11
39214.0
21
29068.0
0
LINE
8
BLACK
10
39714.0
20
29068.0
11
39714.0
21
29718.0
0
LINE
8
BLACK
10
39714.0
20
29718.0
11
39314.0
21
29718.0
0
LINE
8
BLACK
10
39314.0
20
29718.0
11
39314.0
21
29068.0
0
LINE
8
BLACK
10
39314.0
20
29068.0
11
39714.0
21
29068.0
0
LINE
8
BLACK
10
40214.0
20
29068.0
11
40214.0
21
29718.0
0
LINE
8
BLACK
10
40214.0
20
29718.0
11
39814.0
21
29718.0
0
LINE
8
BLACK
10
39814.0
20
29718.0
11
39814.0
21
29068.0
0
LINE
8
BLACK
10
39814.0
20
29068.0
11
40214.0
21
29068.0
0
LINE
8
BLACK
10
40714.0
20
29068.0
11
40714.0
21
29718.0
0
LINE
8
BLACK
10
40714.0
20
29718.0
11
40314.0
21
29718.0
0
LINE
8
BLACK
10
40314.0
20
29718.0
11
40314.0
21
29068.0
0
LINE
8
BLACK
10
40314.0
20
29068.0
11
40714.0
21
29068.0
0
LINE
8
BLACK
10
41214.0
20
29068.0
11
41214.0
21
29718.0
0
LINE
8
BLACK
10
41214.0
20
29718.0
11
40814.0
21
29718.0
0
LINE
8
BLACK
10
40814.0
20
29718.0
11
40814.0
21
29068.0
0
LINE
8
BLACK
10
40814.0
20
29068.0
11
41214.0
21
29068.0
0
LINE
8
BLACK
10
41714.0
20
29068.0
11
41714.0
21
29718.0
0
LINE
8
BLACK
10
41714.0
20
29718.0
11
41314.0
21
29718.0
0
LINE
8
BLACK
10
41314.0
20
29718.0
11
41314.0
21
29068.0
0
LINE
8
BLACK
10
41314.0
20
29068.0
11
41714.0
21
29068.0
0
LINE
8
BLACK
10
41214.0
20
26568.0
11
41214.0
21
27218.0
0
LINE
8
BLACK
10
41214.0
20
27218.0
11
40814.0
21
27218.0
0
LINE
8
BLACK
10
40814.0
20
27218.0
11
40814.0
21
26568.0
0
LINE
8
BLACK
10
40814.0
20
26568.0
11
41214.0
21
26568.0
0
LINE
8
BLACK
10
31529.0
20
59610.0
11
31529.0
21
60610.0
0
LINE
8
BLACK
10
31529.0
20
60610.0
11
29889.0
21
60610.0
0
LINE
8
BLACK
10
29889.0
20
60610.0
11
29889.0
21
59610.0
0
LINE
8
BLACK
10
29889.0
20
59610.0
11
31529.0
21
59610.0
0
LINE
8
BLACK
10
31009.0
20
62210.0
11
31009.0
21
63210.0
0
LINE
8
BLACK
10
31009.0
20
63210.0
11
30409.0
21
63210.0
0
LINE
8
BLACK
10
30409.0
20
63210.0
11
30409.0
21
62210.0
0
LINE
8
BLACK
10
30409.0
20
62210.0
11
31009.0
21
62210.0
0
LINE
8
BLACK
10
30109.0
20
62210.0
11
30109.0
21
63210.0
0
LINE
8
BLACK
10
30109.0
20
63210.0
11
29509.0
21
63210.0
0
LINE
8
BLACK
10
29509.0
20
63210.0
11
29509.0
21
62210.0
0
LINE
8
BLACK
10
29509.0
20
62210.0
11
30109.0
21
62210.0
0
LINE
8
BLACK
10
31909.0
20
62210.0
11
31909.0
21
63210.0
0
LINE
8
BLACK
10
31909.0
20
63210.0
11
31309.0
21
63210.0
0
LINE
8
BLACK
10
31309.0
20
63210.0
11
31309.0
21
62210.0
0
LINE
8
BLACK
10
31309.0
20
62210.0
11
31909.0
21
62210.0
0
LINE
8
BLACK
10
56063.0
20
69177.0
11
56063.0
21
68617.0
0
LINE
8
BLACK
10
56063.0
20
68617.0
11
56623.0
21
68617.0
0
LINE
8
BLACK
10
56623.0
20
68617.0
11
56623.0
21
69177.0
0
LINE
8
BLACK
10
56623.0
20
69177.0
11
56063.0
21
69177.0
0
LINE
8
BLACK
10
56763.0
20
69177.0
11
56763.0
21
68617.0
0
LINE
8
BLACK
10
56763.0
20
68617.0
11
57323.0
21
68617.0
0
LINE
8
BLACK
10
57323.0
20
68617.0
11
57323.0
21
69177.0
0
LINE
8
BLACK
10
57323.0
20
69177.0
11
56763.0
21
69177.0
0
LINE
8
BLACK
10
56413.0
20
68377.0
11
56413.0
21
67817.0
0
LINE
8
BLACK
10
56413.0
20
67817.0
11
56973.0
21
67817.0
0
LINE
8
BLACK
10
56973.0
20
67817.0
11
56973.0
21
68377.0
0
LINE
8
BLACK
10
56973.0
20
68377.0
11
56413.0
21
68377.0
0
LINE
8
BLACK
10
65591.0
20
61517.0
11
65591.0
21
62077.0
0
LINE
8
BLACK
10
65591.0
20
62077.0
11
65031.0
21
62077.0
0
LINE
8
BLACK
10
65031.0
20
62077.0
11
65031.0
21
61517.0
0
LINE
8
BLACK
10
65031.0
20
61517.0
11
65591.0
21
61517.0
0
LINE
8
BLACK
10
64891.0
20
61517.0
11
64891.0
21
62077.0
0
LINE
8
BLACK
10
64891.0
20
62077.0
11
64331.0
21
62077.0
0
LINE
8
BLACK
10
64331.0
20
62077.0
11
64331.0
21
61517.0
0
LINE
8
BLACK
10
64331.0
20
61517.0
11
64891.0
21
61517.0
0
LINE
8
BLACK
10
65241.0
20
62317.0
11
65241.0
21
62877.0
0
LINE
8
BLACK
10
65241.0
20
62877.0
11
64681.0
21
62877.0
0
LINE
8
BLACK
10
64681.0
20
62877.0
11
64681.0
21
62317.0
0
LINE
8
BLACK
10
64681.0
20
62317.0
11
65241.0
21
62317.0
0
LINE
8
BLACK
10
63228.0
20
61517.0
11
63228.0
21
62077.0
0
LINE
8
BLACK
10
63228.0
20
62077.0
11
62668.0
21
62077.0
0
LINE
8
BLACK
10
62668.0
20
62077.0
11
62668.0
21
61517.0
0
LINE
8
BLACK
10
62668.0
20
61517.0
11
63228.0
21
61517.0
0
LINE
8
BLACK
10
62528.0
20
61517.0
11
62528.0
21
62077.0
0
LINE
8
BLACK
10
62528.0
20
62077.0
11
61968.0
21
62077.0
0
LINE
8
BLACK
10
61968.0
20
62077.0
11
61968.0
21
61517.0
0
LINE
8
BLACK
10
61968.0
20
61517.0
11
62528.0
21
61517.0
0
LINE
8
BLACK
10
62878.0
20
62317.0
11
62878.0
21
62877.0
0
LINE
8
BLACK
10
62878.0
20
62877.0
11
62318.0
21
62877.0
0
LINE
8
BLACK
10
62318.0
20
62877.0
11
62318.0
21
62317.0
0
LINE
8
BLACK
10
62318.0
20
62317.0
11
62878.0
21
62317.0
0
LINE
8
BLACK
10
63149.0
20
68783.0
11
63149.0
21
68223.0
0
LINE
8
BLACK
10
63149.0
20
68223.0
11
63709.0
21
68223.0
0
LINE
8
BLACK
10
63709.0
20
68223.0
11
63709.0
21
68783.0
0
LINE
8
BLACK
10
63709.0
20
68783.0
11
63149.0
21
68783.0
0
LINE
8
BLACK
10
63849.0
20
68783.0
11
63849.0
21
68223.0
0
LINE
8
BLACK
10
63849.0
20
68223.0
11
64409.0
21
68223.0
0
LINE
8
BLACK
10
64409.0
20
68223.0
11
64409.0
21
68783.0
0
LINE
8
BLACK
10
64409.0
20
68783.0
11
63849.0
21
68783.0
0
LINE
8
BLACK
10
63499.0
20
67983.0
11
63499.0
21
67423.0
0
LINE
8
BLACK
10
63499.0
20
67423.0
11
64059.0
21
67423.0
0
LINE
8
BLACK
10
64059.0
20
67423.0
11
64059.0
21
67983.0
0
LINE
8
BLACK
10
64059.0
20
67983.0
11
63499.0
21
67983.0
0
LINE
8
BLACK
10
65512.0
20
68783.0
11
65512.0
21
68223.0
0
LINE
8
BLACK
10
65512.0
20
68223.0
11
66072.0
21
68223.0
0
LINE
8
BLACK
10
66072.0
20
68223.0
11
66072.0
21
68783.0
0
LINE
8
BLACK
10
66072.0
20
68783.0
11
65512.0
21
68783.0
0
LINE
8
BLACK
10
66212.0
20
68783.0
11
66212.0
21
68223.0
0
LINE
8
BLACK
10
66212.0
20
68223.0
11
66772.0
21
68223.0
0
LINE
8
BLACK
10
66772.0
20
68223.0
11
66772.0
21
68783.0
0
LINE
8
BLACK
10
66772.0
20
68783.0
11
66212.0
21
68783.0
0
LINE
8
BLACK
10
65862.0
20
67983.0
11
65862.0
21
67423.0
0
LINE
8
BLACK
10
65862.0
20
67423.0
11
66422.0
21
67423.0
0
LINE
8
BLACK
10
66422.0
20
67423.0
11
66422.0
21
67983.0
0
LINE
8
BLACK
10
66422.0
20
67983.0
11
65862.0
21
67983.0
0
LINE
8
BLACK
10
29814.0
20
66174.0
11
29254.0
21
66174.0
0
LINE
8
BLACK
10
29254.0
20
66174.0
11
29254.0
21
65614.0
0
LINE
8
BLACK
10
29254.0
20
65614.0
11
29814.0
21
65614.0
0
LINE
8
BLACK
10
29814.0
20
65614.0
11
29814.0
21
66174.0
0
LINE
8
BLACK
10
29814.0
20
65474.0
11
29254.0
21
65474.0
0
LINE
8
BLACK
10
29254.0
20
65474.0
11
29254.0
21
64914.0
0
LINE
8
BLACK
10
29254.0
20
64914.0
11
29814.0
21
64914.0
0
LINE
8
BLACK
10
29814.0
20
64914.0
11
29814.0
21
65474.0
0
LINE
8
BLACK
10
29014.0
20
65824.0
11
28454.0
21
65824.0
0
LINE
8
BLACK
10
28454.0
20
65824.0
11
28454.0
21
65264.0
0
LINE
8
BLACK
10
28454.0
20
65264.0
11
29014.0
21
65264.0
0
LINE
8
BLACK
10
29014.0
20
65264.0
11
29014.0
21
65824.0
0
LINE
8
BLACK
10
36998.0
20
56523.0
11
38198.0
21
56523.0
0
LINE
8
BLACK
10
38198.0
20
56523.0
11
38198.0
21
57223.0
0
LINE
8
BLACK
10
38198.0
20
57223.0
11
36998.0
21
57223.0
0
LINE
8
BLACK
10
36998.0
20
57223.0
11
36998.0
21
56523.0
0
LINE
8
BLACK
10
36998.0
20
57723.0
11
38198.0
21
57723.0
0
LINE
8
BLACK
10
38198.0
20
57723.0
11
38198.0
21
58423.0
0
LINE
8
BLACK
10
38198.0
20
58423.0
11
36998.0
21
58423.0
0
LINE
8
BLACK
10
36998.0
20
58423.0
11
36998.0
21
57723.0
0
LINE
8
BLACK
10
35424.0
20
56523.0
11
36624.0
21
56523.0
0
LINE
8
BLACK
10
36624.0
20
56523.0
11
36624.0
21
57223.0
0
LINE
8
BLACK
10
36624.0
20
57223.0
11
35424.0
21
57223.0
0
LINE
8
BLACK
10
35424.0
20
57223.0
11
35424.0
21
56523.0
0
LINE
8
BLACK
10
35424.0
20
57723.0
11
36624.0
21
57723.0
0
LINE
8
BLACK
10
36624.0
20
57723.0
11
36624.0
21
58423.0
0
LINE
8
BLACK
10
36624.0
20
58423.0
11
35424.0
21
58423.0
0
LINE
8
BLACK
10
35424.0
20
58423.0
11
35424.0
21
57723.0
0
CIRCLE
8
BLACK
10
56693.0
20
43300.0
40
375
0
CIRCLE
8
BLACK
10
55512.0
20
43300.0
40
375
0
CIRCLE
8
BLACK
10
49213.0
20
43300.0
40
375
0
CIRCLE
8
BLACK
10
50000.0
20
43300.0
40
375
0
CIRCLE
8
BLACK
10
50787.0
20
43300.0
40
375
0
CIRCLE
8
BLACK
10
51575.0
20
43300.0
40
375
0
CIRCLE
8
BLACK
10
52362.0
20
43300.0
40
375
0
CIRCLE
8
BLACK
10
53150.0
20
43300.0
40
375
0
CIRCLE
8
BLACK
10
55512.0
20
57079.0
40
375
0
CIRCLE
8
BLACK
10
53937.0
20
57079.0
40
375
0
CIRCLE
8
BLACK
10
52362.0
20
57079.0
40
375
0
CIRCLE
8
BLACK
10
50787.0
20
57079.0
40
375
0
CIRCLE
8
BLACK
10
54724.0
20
56292.0
40
375
0
CIRCLE
8
BLACK
10
53150.0
20
56292.0
40
375
0
CIRCLE
8
BLACK
10
51575.0
20
56292.0
40
375
0
CIRCLE
8
BLACK
10
50000.0
20
56292.0
40
375
0
CIRCLE
8
BLACK
10
42913.0
20
43300.0
40
375
0
CIRCLE
8
BLACK
10
43701.0
20
43300.0
40
375
0
CIRCLE
8
BLACK
10
44488.0
20
43300.0
40
375
0
CIRCLE
8
BLACK
10
45276.0
20
43300.0
40
375
0
CIRCLE
8
BLACK
10
46063.0
20
43300.0
40
375
0
CIRCLE
8
BLACK
10
46850.0
20
43300.0
40
375
0
CIRCLE
8
BLACK
10
47638.0
20
43300.0
40
375
0
CIRCLE
8
BLACK
10
48425.0
20
43300.0
40
375
0
CIRCLE
8
BLACK
10
40157.0
20
57670.0
40
375
0
CIRCLE
8
BLACK
10
40157.0
20
56883.0
40
375
0
CIRCLE
8
BLACK
10
40157.0
20
56095.0
40
375
0
CIRCLE
8
BLACK
10
40157.0
20
55308.0
40
375
0
CIRCLE
8
BLACK
10
40157.0
20
54521.0
40
375
0
CIRCLE
8
BLACK
10
40157.0
20
53733.0
40
375
0
CIRCLE
8
BLACK
10
40157.0
20
52946.0
40
375
0
CIRCLE
8
BLACK
10
40157.0
20
52158.0
40
375
0
LINE
8
BLACK
10
57611.0
20
63447.0
11
57611.0
21
64097.0
0
LINE
8
BLACK
10
57611.0
20
64097.0
11
57161.0
21
64097.0
0
LINE
8
BLACK
10
57161.0
20
64097.0
11
57161.0
21
63447.0
0
LINE
8
BLACK
10
57161.0
20
63447.0
11
57611.0
21
63447.0
0
LINE
8
BLACK
10
57011.0
20
63447.0
11
57011.0
21
64097.0
0
LINE
8
BLACK
10
57011.0
20
64097.0
11
56561.0
21
64097.0
0
LINE
8
BLACK
10
56561.0
20
64097.0
11
56561.0
21
63447.0
0
LINE
8
BLACK
10
56561.0
20
63447.0
11
57011.0
21
63447.0
0
LINE
8
BLACK
10
67060.0
20
63447.0
11
67060.0
21
64097.0
0
LINE
8
BLACK
10
67060.0
20
64097.0
11
66610.0
21
64097.0
0
LINE
8
BLACK
10
66610.0
20
64097.0
11
66610.0
21
63447.0
0
LINE
8
BLACK
10
66610.0
20
63447.0
11
67060.0
21
63447.0
0
LINE
8
BLACK
10
66460.0
20
63447.0
11
66460.0
21
64097.0
0
LINE
8
BLACK
10
66460.0
20
64097.0
11
66010.0
21
64097.0
0
LINE
8
BLACK
10
66010.0
20
64097.0
11
66010.0
21
63447.0
0
LINE
8
BLACK
10
66010.0
20
63447.0
11
66460.0
21
63447.0
0
LINE
8
BLACK
10
41801.0
20
26043.0
11
42451.0
21
26043.0
0
LINE
8
BLACK
10
42451.0
20
26043.0
11
42451.0
21
26493.0
0
LINE
8
BLACK
10
42451.0
20
26493.0
11
41801.0
21
26493.0
0
LINE
8
BLACK
10
41801.0
20
26493.0
11
41801.0
21
26043.0
0
LINE
8
BLACK
10
41801.0
20
26643.0
11
42451.0
21
26643.0
0
LINE
8
BLACK
10
42451.0
20
26643.0
11
42451.0
21
27093.0
0
LINE
8
BLACK
10
42451.0
20
27093.0
11
41801.0
21
27093.0
0
LINE
8
BLACK
10
41801.0
20
27093.0
11
41801.0
21
26643.0
0
LINE
8
BLACK
10
46475.0
20
56823.0
11
47225.0
21
56823.0
0
LINE
8
BLACK
10
47225.0
20
56823.0
11
47225.0
21
57373.0
0
LINE
8
BLACK
10
47225.0
20
57373.0
11
46475.0
21
57373.0
0
LINE
8
BLACK
10
46475.0
20
57373.0
11
46475.0
21
56823.0
0
LINE
8
BLACK
10
46475.0
20
57573.0
11
47225.0
21
57573.0
0
LINE
8
BLACK
10
47225.0
20
57573.0
11
47225.0
21
58123.0
0
LINE
8
BLACK
10
47225.0
20
58123.0
11
46475.0
21
58123.0
0
LINE
8
BLACK
10
46475.0
20
58123.0
11
46475.0
21
57573.0
0
LINE
8
BLACK
10
46438.0
20
58123.0
11
45688.0
21
58123.0
0
LINE
8
BLACK
10
45688.0
20
58123.0
11
45688.0
21
57573.0
0
LINE
8
BLACK
10
45688.0
20
57573.0
11
46438.0
21
57573.0
0
LINE
8
BLACK
10
46438.0
20
57573.0
11
46438.0
21
58123.0
0
LINE
8
BLACK
10
46438.0
20
57373.0
11
45688.0
21
57373.0
0
LINE
8
BLACK
10
45688.0
20
57373.0
11
45688.0
21
56823.0
0
LINE
8
BLACK
10
45688.0
20
56823.0
11
46438.0
21
56823.0
0
LINE
8
BLACK
10
46438.0
20
56823.0
11
46438.0
21
57373.0
0
LINE
8
BLACK
10
44901.0
20
58595.0
11
45651.0
21
58595.0
0
LINE
8
BLACK
10
45651.0
20
58595.0
11
45651.0
21
59145.0
0
LINE
8
BLACK
10
45651.0
20
59145.0
11
44901.0
21
59145.0
0
LINE
8
BLACK
10
44901.0
20
59145.0
11
44901.0
21
58595.0
0
LINE
8
BLACK
10
44901.0
20
59345.0
11
45651.0
21
59345.0
0
LINE
8
BLACK
10
45651.0
20
59345.0
11
45651.0
21
59895.0
0
LINE
8
BLACK
10
45651.0
20
59895.0
11
44901.0
21
59895.0
0
LINE
8
BLACK
10
44901.0
20
59895.0
11
44901.0
21
59345.0
0
LINE
8
BLACK
10
44863.0
20
59895.0
11
44113.0
21
59895.0
0
LINE
8
BLACK
10
44113.0
20
59895.0
11
44113.0
21
59345.0
0
LINE
8
BLACK
10
44113.0
20
59345.0
11
44863.0
21
59345.0
0
LINE
8
BLACK
10
44863.0
20
59345.0
11
44863.0
21
59895.0
0
LINE
8
BLACK
10
44863.0
20
59145.0
11
44113.0
21
59145.0
0
LINE
8
BLACK
10
44113.0
20
59145.0
11
44113.0
21
58595.0
0
LINE
8
BLACK
10
44113.0
20
58595.0
11
44863.0
21
58595.0
0
LINE
8
BLACK
10
44863.0
20
58595.0
11
44863.0
21
59145.0
0
LINE
8
BLACK
10
55597.0
20
44020.0
11
56347.0
21
44020.0
0
LINE
8
BLACK
10
56347.0
20
44020.0
11
56347.0
21
44570.0
0
LINE
8
BLACK
10
56347.0
20
44570.0
11
55597.0
21
44570.0
0
LINE
8
BLACK
10
55597.0
20
44570.0
11
55597.0
21
44020.0
0
LINE
8
BLACK
10
55597.0
20
44770.0
11
56347.0
21
44770.0
0
LINE
8
BLACK
10
56347.0
20
44770.0
11
56347.0
21
45320.0
0
LINE
8
BLACK
10
56347.0
20
45320.0
11
55597.0
21
45320.0
0
LINE
8
BLACK
10
55597.0
20
45320.0
11
55597.0
21
44770.0
0
LINE
8
BLACK
10
54810.0
20
44020.0
11
55560.0
21
44020.0
0
LINE
8
BLACK
10
55560.0
20
44020.0
11
55560.0
21
44570.0
0
LINE
8
BLACK
10
55560.0
20
44570.0
11
54810.0
21
44570.0
0
LINE
8
BLACK
10
54810.0
20
44570.0
11
54810.0
21
44020.0
0
LINE
8
BLACK
10
54810.0
20
44770.0
11
55560.0
21
44770.0
0
LINE
8
BLACK
10
55560.0
20
44770.0
11
55560.0
21
45320.0
0
LINE
8
BLACK
10
55560.0
20
45320.0
11
54810.0
21
45320.0
0
LINE
8
BLACK
10
54810.0
20
45320.0
11
54810.0
21
44770.0
0
LINE
8
BLACK
10
52645.0
20
44020.0
11
53395.0
21
44020.0
0
LINE
8
BLACK
10
53395.0
20
44020.0
11
53395.0
21
44570.0
0
LINE
8
BLACK
10
53395.0
20
44570.0
11
52645.0
21
44570.0
0
LINE
8
BLACK
10
52645.0
20
44570.0
11
52645.0
21
44020.0
0
LINE
8
BLACK
10
52645.0
20
44770.0
11
53395.0
21
44770.0
0
LINE
8
BLACK
10
53395.0
20
44770.0
11
53395.0
21
45320.0
0
LINE
8
BLACK
10
53395.0
20
45320.0
11
52645.0
21
45320.0
0
LINE
8
BLACK
10
52645.0
20
45320.0
11
52645.0
21
44770.0
0
LINE
8
BLACK
10
51857.0
20
44020.0
11
52607.0
21
44020.0
0
LINE
8
BLACK
10
52607.0
20
44020.0
11
52607.0
21
44570.0
0
LINE
8
BLACK
10
52607.0
20
44570.0
11
51857.0
21
44570.0
0
LINE
8
BLACK
10
51857.0
20
44570.0
11
51857.0
21
44020.0
0
LINE
8
BLACK
10
51857.0
20
44770.0
11
52607.0
21
44770.0
0
LINE
8
BLACK
10
52607.0
20
44770.0
11
52607.0
21
45320.0
0
LINE
8
BLACK
10
52607.0
20
45320.0
11
51857.0
21
45320.0
0
LINE
8
BLACK
10
51857.0
20
45320.0
11
51857.0
21
44770.0
0
LINE
8
BLACK
10
51070.0
20
44020.0
11
51820.0
21
44020.0
0
LINE
8
BLACK
10
51820.0
20
44020.0
11
51820.0
21
44570.0
0
LINE
8
BLACK
10
51820.0
20
44570.0
11
51070.0
21
44570.0
0
LINE
8
BLACK
10
51070.0
20
44570.0
11
51070.0
21
44020.0
0
LINE
8
BLACK
10
51070.0
20
44770.0
11
51820.0
21
44770.0
0
LINE
8
BLACK
10
51820.0
20
44770.0
11
51820.0
21
45320.0
0
LINE
8
BLACK
10
51820.0
20
45320.0
11
51070.0
21
45320.0
0
LINE
8
BLACK
10
51070.0
20
45320.0
11
51070.0
21
44770.0
0
LINE
8
BLACK
10
50282.0
20
44020.0
11
51032.0
21
44020.0
0
LINE
8
BLACK
10
51032.0
20
44020.0
11
51032.0
21
44570.0
0
LINE
8
BLACK
10
51032.0
20
44570.0
11
50282.0
21
44570.0
0
LINE
8
BLACK
10
50282.0
20
44570.0
11
50282.0
21
44020.0
0
LINE
8
BLACK
10
50282.0
20
44770.0
11
51032.0
21
44770.0
0
LINE
8
BLACK
10
51032.0
20
44770.0
11
51032.0
21
45320.0
0
LINE
8
BLACK
10
51032.0
20
45320.0
11
50282.0
21
45320.0
0
LINE
8
BLACK
10
50282.0
20
45320.0
11
50282.0
21
44770.0
0
LINE
8
BLACK
10
49495.0
20
44020.0
11
50245.0
21
44020.0
0
LINE
8
BLACK
10
50245.0
20
44020.0
11
50245.0
21
44570.0
0
LINE
8
BLACK
10
50245.0
20
44570.0
11
49495.0
21
44570.0
0
LINE
8
BLACK
10
49495.0
20
44570.0
11
49495.0
21
44020.0
0
LINE
8
BLACK
10
49495.0
20
44770.0
11
50245.0
21
44770.0
0
LINE
8
BLACK
10
50245.0
20
44770.0
11
50245.0
21
45320.0
0
LINE
8
BLACK
10
50245.0
20
45320.0
11
49495.0
21
45320.0
0
LINE
8
BLACK
10
49495.0
20
45320.0
11
49495.0
21
44770.0
0
LINE
8
BLACK
10
48708.0
20
44020.0
11
49458.0
21
44020.0
0
LINE
8
BLACK
10
49458.0
20
44020.0
11
49458.0
21
44570.0
0
LINE
8
BLACK
10
49458.0
20
44570.0
11
48708.0
21
44570.0
0
LINE
8
BLACK
10
48708.0
20
44570.0
11
48708.0
21
44020.0
0
LINE
8
BLACK
10
48708.0
20
44770.0
11
49458.0
21
44770.0
0
LINE
8
BLACK
10
49458.0
20
44770.0
11
49458.0
21
45320.0
0
LINE
8
BLACK
10
49458.0
20
45320.0
11
48708.0
21
45320.0
0
LINE
8
BLACK
10
48708.0
20
45320.0
11
48708.0
21
44770.0
0
LINE
8
BLACK
10
47920.0
20
44020.0
11
48670.0
21
44020.0
0
LINE
8
BLACK
10
48670.0
20
44020.0
11
48670.0
21
44570.0
0
LINE
8
BLACK
10
48670.0
20
44570.0
11
47920.0
21
44570.0
0
LINE
8
BLACK
10
47920.0
20
44570.0
11
47920.0
21
44020.0
0
LINE
8
BLACK
10
47920.0
20
44770.0
11
48670.0
21
44770.0
0
LINE
8
BLACK
10
48670.0
20
44770.0
11
48670.0
21
45320.0
0
LINE
8
BLACK
10
48670.0
20
45320.0
11
47920.0
21
45320.0
0
LINE
8
BLACK
10
47920.0
20
45320.0
11
47920.0
21
44770.0
0
LINE
8
BLACK
10
47133.0
20
44020.0
11
47883.0
21
44020.0
0
LINE
8
BLACK
10
47883.0
20
44020.0
11
47883.0
21
44570.0
0
LINE
8
BLACK
10
47883.0
20
44570.0
11
47133.0
21
44570.0
0
LINE
8
BLACK
10
47133.0
20
44570.0
11
47133.0
21
44020.0
0
LINE
8
BLACK
10
47133.0
20
44770.0
11
47883.0
21
44770.0
0
LINE
8
BLACK
10
47883.0
20
44770.0
11
47883.0
21
45320.0
0
LINE
8
BLACK
10
47883.0
20
45320.0
11
47133.0
21
45320.0
0
LINE
8
BLACK
10
47133.0
20
45320.0
11
47133.0
21
44770.0
0
LINE
8
BLACK
10
46345.0
20
44020.0
11
47095.0
21
44020.0
0
LINE
8
BLACK
10
47095.0
20
44020.0
11
47095.0
21
44570.0
0
LINE
8
BLACK
10
47095.0
20
44570.0
11
46345.0
21
44570.0
0
LINE
8
BLACK
10
46345.0
20
44570.0
11
46345.0
21
44020.0
0
LINE
8
BLACK
10
46345.0
20
44770.0
11
47095.0
21
44770.0
0
LINE
8
BLACK
10
47095.0
20
44770.0
11
47095.0
21
45320.0
0
LINE
8
BLACK
10
47095.0
20
45320.0
11
46345.0
21
45320.0
0
LINE
8
BLACK
10
46345.0
20
45320.0
11
46345.0
21
44770.0
0
LINE
8
BLACK
10
45558.0
20
44020.0
11
46308.0
21
44020.0
0
LINE
8
BLACK
10
46308.0
20
44020.0
11
46308.0
21
44570.0
0
LINE
8
BLACK
10
46308.0
20
44570.0
11
45558.0
21
44570.0
0
LINE
8
BLACK
10
45558.0
20
44570.0
11
45558.0
21
44020.0
0
LINE
8
BLACK
10
45558.0
20
44770.0
11
46308.0
21
44770.0
0
LINE
8
BLACK
10
46308.0
20
44770.0
11
46308.0
21
45320.0
0
LINE
8
BLACK
10
46308.0
20
45320.0
11
45558.0
21
45320.0
0
LINE
8
BLACK
10
45558.0
20
45320.0
11
45558.0
21
44770.0
0
LINE
8
BLACK
10
44771.0
20
44020.0
11
45521.0
21
44020.0
0
LINE
8
BLACK
10
45521.0
20
44020.0
11
45521.0
21
44570.0
0
LINE
8
BLACK
10
45521.0
20
44570.0
11
44771.0
21
44570.0
0
LINE
8
BLACK
10
44771.0
20
44570.0
11
44771.0
21
44020.0
0
LINE
8
BLACK
10
44771.0
20
44770.0
11
45521.0
21
44770.0
0
LINE
8
BLACK
10
45521.0
20
44770.0
11
45521.0
21
45320.0
0
LINE
8
BLACK
10
45521.0
20
45320.0
11
44771.0
21
45320.0
0
LINE
8
BLACK
10
44771.0
20
45320.0
11
44771.0
21
44770.0
0
LINE
8
BLACK
10
43129.0
20
44028.0
11
43879.0
21
44028.0
0
LINE
8
BLACK
10
43879.0
20
44028.0
11
43879.0
21
44578.0
0
LINE
8
BLACK
10
43879.0
20
44578.0
11
43129.0
21
44578.0
0
LINE
8
BLACK
10
43129.0
20
44578.0
11
43129.0
21
44028.0
0
LINE
8
BLACK
10
43129.0
20
44778.0
11
43879.0
21
44778.0
0
LINE
8
BLACK
10
43879.0
20
44778.0
11
43879.0
21
45328.0
0
LINE
8
BLACK
10
43879.0
20
45328.0
11
43129.0
21
45328.0
0
LINE
8
BLACK
10
43129.0
20
45328.0
11
43129.0
21
44778.0
0
LINE
8
BLACK
10
44666.0
20
45328.0
11
43916.0
21
45328.0
0
LINE
8
BLACK
10
43916.0
20
45328.0
11
43916.0
21
44778.0
0
LINE
8
BLACK
10
43916.0
20
44778.0
11
44666.0
21
44778.0
0
LINE
8
BLACK
10
44666.0
20
44778.0
11
44666.0
21
45328.0
0
LINE
8
BLACK
10
44666.0
20
44578.0
11
43916.0
21
44578.0
0
LINE
8
BLACK
10
43916.0
20
44578.0
11
43916.0
21
44028.0
0
LINE
8
BLACK
10
43916.0
20
44028.0
11
44666.0
21
44028.0
0
LINE
8
BLACK
10
44666.0
20
44028.0
11
44666.0
21
44578.0
0
LINE
8
BLACK
10
55137.0
20
54067.0
11
55887.0
21
54067.0
0
LINE
8
BLACK
10
55887.0
20
54067.0
11
55887.0
21
54617.0
0
LINE
8
BLACK
10
55887.0
20
54617.0
11
55137.0
21
54617.0
0
LINE
8
BLACK
10
55137.0
20
54617.0
11
55137.0
21
54067.0
0
LINE
8
BLACK
10
55137.0
20
54817.0
11
55887.0
21
54817.0
0
LINE
8
BLACK
10
55887.0
20
54817.0
11
55887.0
21
55367.0
0
LINE
8
BLACK
10
55887.0
20
55367.0
11
55137.0
21
55367.0
0
LINE
8
BLACK
10
55137.0
20
55367.0
11
55137.0
21
54817.0
0
LINE
8
BLACK
10
54349.0
20
54067.0
11
55099.0
21
54067.0
0
LINE
8
BLACK
10
55099.0
20
54067.0
11
55099.0
21
54617.0
0
LINE
8
BLACK
10
55099.0
20
54617.0
11
54349.0
21
54617.0
0
LINE
8
BLACK
10
54349.0
20
54617.0
11
54349.0
21
54067.0
0
LINE
8
BLACK
10
54349.0
20
54817.0
11
55099.0
21
54817.0
0
LINE
8
BLACK
10
55099.0
20
54817.0
11
55099.0
21
55367.0
0
LINE
8
BLACK
10
55099.0
20
55367.0
11
54349.0
21
55367.0
0
LINE
8
BLACK
10
54349.0
20
55367.0
11
54349.0
21
54817.0
0
LINE
8
BLACK
10
53562.0
20
54067.0
11
54312.0
21
54067.0
0
LINE
8
BLACK
10
54312.0
20
54067.0
11
54312.0
21
54617.0
0
LINE
8
BLACK
10
54312.0
20
54617.0
11
53562.0
21
54617.0
0
LINE
8
BLACK
10
53562.0
20
54617.0
11
53562.0
21
54067.0
0
LINE
8
BLACK
10
53562.0
20
54817.0
11
54312.0
21
54817.0
0
LINE
8
BLACK
10
54312.0
20
54817.0
11
54312.0
21
55367.0
0
LINE
8
BLACK
10
54312.0
20
55367.0
11
53562.0
21
55367.0
0
LINE
8
BLACK
10
53562.0
20
55367.0
11
53562.0
21
54817.0
0
LINE
8
BLACK
10
52775.0
20
54067.0
11
53525.0
21
54067.0
0
LINE
8
BLACK
10
53525.0
20
54067.0
11
53525.0
21
54617.0
0
LINE
8
BLACK
10
53525.0
20
54617.0
11
52775.0
21
54617.0
0
LINE
8
BLACK
10
52775.0
20
54617.0
11
52775.0
21
54067.0
0
LINE
8
BLACK
10
52775.0
20
54817.0
11
53525.0
21
54817.0
0
LINE
8
BLACK
10
53525.0
20
54817.0
11
53525.0
21
55367.0
0
LINE
8
BLACK
10
53525.0
20
55367.0
11
52775.0
21
55367.0
0
LINE
8
BLACK
10
52775.0
20
55367.0
11
52775.0
21
54817.0
0
LINE
8
BLACK
10
51987.0
20
54067.0
11
52737.0
21
54067.0
0
LINE
8
BLACK
10
52737.0
20
54067.0
11
52737.0
21
54617.0
0
LINE
8
BLACK
10
52737.0
20
54617.0
11
51987.0
21
54617.0
0
LINE
8
BLACK
10
51987.0
20
54617.0
11
51987.0
21
54067.0
0
LINE
8
BLACK
10
51987.0
20
54817.0
11
52737.0
21
54817.0
0
LINE
8
BLACK
10
52737.0
20
54817.0
11
52737.0
21
55367.0
0
LINE
8
BLACK
10
52737.0
20
55367.0
11
51987.0
21
55367.0
0
LINE
8
BLACK
10
51987.0
20
55367.0
11
51987.0
21
54817.0
0
LINE
8
BLACK
10
51200.0
20
54067.0
11
51950.0
21
54067.0
0
LINE
8
BLACK
10
51950.0
20
54067.0
11
51950.0
21
54617.0
0
LINE
8
BLACK
10
51950.0
20
54617.0
11
51200.0
21
54617.0
0
LINE
8
BLACK
10
51200.0
20
54617.0
11
51200.0
21
54067.0
0
LINE
8
BLACK
10
51200.0
20
54817.0
11
51950.0
21
54817.0
0
LINE
8
BLACK
10
51950.0
20
54817.0
11
51950.0
21
55367.0
0
LINE
8
BLACK
10
51950.0
20
55367.0
11
51200.0
21
55367.0
0
LINE
8
BLACK
10
51200.0
20
55367.0
11
51200.0
21
54817.0
0
LINE
8
BLACK
10
49822.0
20
54067.0
11
50572.0
21
54067.0
0
LINE
8
BLACK
10
50572.0
20
54067.0
11
50572.0
21
54617.0
0
LINE
8
BLACK
10
50572.0
20
54617.0
11
49822.0
21
54617.0
0
LINE
8
BLACK
10
49822.0
20
54617.0
11
49822.0
21
54067.0
0
LINE
8
BLACK
10
49822.0
20
54817.0
11
50572.0
21
54817.0
0
LINE
8
BLACK
10
50572.0
20
54817.0
11
50572.0
21
55367.0
0
LINE
8
BLACK
10
50572.0
20
55367.0
11
49822.0
21
55367.0
0
LINE
8
BLACK
10
49822.0
20
55367.0
11
49822.0
21
54817.0
0
LINE
8
BLACK
10
49034.0
20
54067.0
11
49784.0
21
54067.0
0
LINE
8
BLACK
10
49784.0
20
54067.0
11
49784.0
21
54617.0
0
LINE
8
BLACK
10
49784.0
20
54617.0
11
49034.0
21
54617.0
0
LINE
8
BLACK
10
49034.0
20
54617.0
11
49034.0
21
54067.0
0
LINE
8
BLACK
10
49034.0
20
54817.0
11
49784.0
21
54817.0
0
LINE
8
BLACK
10
49784.0
20
54817.0
11
49784.0
21
55367.0
0
LINE
8
BLACK
10
49784.0
20
55367.0
11
49034.0
21
55367.0
0
LINE
8
BLACK
10
49034.0
20
55367.0
11
49034.0
21
54817.0
0
LINE
8
BLACK
10
52231.0
20
67209.0
11
52231.0
21
68209.0
0
LINE
8
BLACK
10
52231.0
20
68209.0
11
51431.0
21
68209.0
0
LINE
8
BLACK
10
51431.0
20
68209.0
11
51431.0
21
67209.0
0
LINE
8
BLACK
10
51431.0
20
67209.0
11
52231.0
21
67209.0
0
LINE
8
BLACK
10
50931.0
20
67209.0
11
50931.0
21
68209.0
0
LINE
8
BLACK
10
50931.0
20
68209.0
11
50131.0
21
68209.0
0
LINE
8
BLACK
10
50131.0
20
68209.0
11
50131.0
21
67209.0
0
LINE
8
BLACK
10
50131.0
20
67209.0
11
50931.0
21
67209.0
0
LINE
8
BLACK
10
57611.0
20
68209.0
11
57611.0
21
67209.0
0
LINE
8
BLACK
10
57611.0
20
67209.0
11
58411.0
21
67209.0
0
LINE
8
BLACK
10
58411.0
20
67209.0
11
58411.0
21
68209.0
0
LINE
8
BLACK
10
58411.0
20
68209.0
11
57611.0
21
68209.0
0
LINE
8
BLACK
10
58911.0
20
68209.0
11
58911.0
21
67209.0
0
LINE
8
BLACK
10
58911.0
20
67209.0
11
59711.0
21
67209.0
0
LINE
8
BLACK
10
59711.0
20
67209.0
11
59711.0
21
68209.0
0
LINE
8
BLACK
10
59711.0
20
68209.0
11
58911.0
21
68209.0
0
LINE
8
BLACK
10
57349.0
20
59729.0
11
57349.0
21
60729.0
0
LINE
8
BLACK
10
57349.0
20
60729.0
11
56549.0
21
60729.0
0
LINE
8
BLACK
10
56549.0
20
60729.0
11
56549.0
21
59729.0
0
LINE
8
BLACK
10
56549.0
20
59729.0
11
57349.0
21
59729.0
0
LINE
8
BLACK
10
56049.0
20
59729.0
11
56049.0
21
60729.0
0
LINE
8
BLACK
10
56049.0
20
60729.0
11
55249.0
21
60729.0
0
LINE
8
BLACK
10
55249.0
20
60729.0
11
55249.0
21
59729.0
0
LINE
8
BLACK
10
55249.0
20
59729.0
11
56049.0
21
59729.0
0
LINE
8
BLACK
10
54200.0
20
59729.0
11
54200.0
21
60729.0
0
LINE
8
BLACK
10
54200.0
20
60729.0
11
53400.0
21
60729.0
0
LINE
8
BLACK
10
53400.0
20
60729.0
11
53400.0
21
59729.0
0
LINE
8
BLACK
10
53400.0
20
59729.0
11
54200.0
21
59729.0
0
LINE
8
BLACK
10
52900.0
20
59729.0
11
52900.0
21
60729.0
0
LINE
8
BLACK
10
52900.0
20
60729.0
11
52100.0
21
60729.0
0
LINE
8
BLACK
10
52100.0
20
60729.0
11
52100.0
21
59729.0
0
LINE
8
BLACK
10
52100.0
20
59729.0
11
52900.0
21
59729.0
0
LINE
8
BLACK
10
52493.0
20
70572.0
11
52493.0
21
69572.0
0
LINE
8
BLACK
10
52493.0
20
69572.0
11
53293.0
21
69572.0
0
LINE
8
BLACK
10
53293.0
20
69572.0
11
53293.0
21
70572.0
0
LINE
8
BLACK
10
53293.0
20
70572.0
11
52493.0
21
70572.0
0
LINE
8
BLACK
10
53793.0
20
70572.0
11
53793.0
21
69572.0
0
LINE
8
BLACK
10
53793.0
20
69572.0
11
54593.0
21
69572.0
0
LINE
8
BLACK
10
54593.0
20
69572.0
11
54593.0
21
70572.0
0
LINE
8
BLACK
10
54593.0
20
70572.0
11
53793.0
21
70572.0
0
LINE
8
BLACK
10
55643.0
20
70572.0
11
55643.0
21
69572.0
0
LINE
8
BLACK
10
55643.0
20
69572.0
11
56443.0
21
69572.0
0
LINE
8
BLACK
10
56443.0
20
69572.0
11
56443.0
21
70572.0
0
LINE
8
BLACK
10
56443.0
20
70572.0
11
55643.0
21
70572.0
0
LINE
8
BLACK
10
56943.0
20
70572.0
11
56943.0
21
69572.0
0
LINE
8
BLACK
10
56943.0
20
69572.0
11
57743.0
21
69572.0
0
LINE
8
BLACK
10
57743.0
20
69572.0
11
57743.0
21
70572.0
0
LINE
8
BLACK
10
57743.0
20
70572.0
11
56943.0
21
70572.0
0
LINE
8
BLACK
10
66273.0
20
63091.0
11
66273.0
21
62091.0
0
LINE
8
BLACK
10
66273.0
20
62091.0
11
67073.0
21
62091.0
0
LINE
8
BLACK
10
67073.0
20
62091.0
11
67073.0
21
63091.0
0
LINE
8
BLACK
10
67073.0
20
63091.0
11
66273.0
21
63091.0
0
LINE
8
BLACK
10
67573.0
20
63091.0
11
67573.0
21
62091.0
0
LINE
8
BLACK
10
67573.0
20
62091.0
11
68373.0
21
62091.0
0
LINE
8
BLACK
10
68373.0
20
62091.0
11
68373.0
21
63091.0
0
LINE
8
BLACK
10
68373.0
20
63091.0
11
67573.0
21
63091.0
0
LINE
8
BLACK
10
61680.0
20
62091.0
11
61680.0
21
63091.0
0
LINE
8
BLACK
10
61680.0
20
63091.0
11
60880.0
21
63091.0
0
LINE
8
BLACK
10
60880.0
20
63091.0
11
60880.0
21
62091.0
0
LINE
8
BLACK
10
60880.0
20
62091.0
11
61680.0
21
62091.0
0
LINE
8
BLACK
10
60380.0
20
62091.0
11
60380.0
21
63091.0
0
LINE
8
BLACK
10
60380.0
20
63091.0
11
59580.0
21
63091.0
0
LINE
8
BLACK
10
59580.0
20
63091.0
11
59580.0
21
62091.0
0
LINE
8
BLACK
10
59580.0
20
62091.0
11
60380.0
21
62091.0
0
LINE
8
BLACK
10
62861.0
20
67209.0
11
62861.0
21
68209.0
0
LINE
8
BLACK
10
62861.0
20
68209.0
11
62061.0
21
68209.0
0
LINE
8
BLACK
10
62061.0
20
68209.0
11
62061.0
21
67209.0
0
LINE
8
BLACK
10
62061.0
20
67209.0
11
62861.0
21
67209.0
0
LINE
8
BLACK
10
61561.0
20
67209.0
11
61561.0
21
68209.0
0
LINE
8
BLACK
10
61561.0
20
68209.0
11
60761.0
21
68209.0
0
LINE
8
BLACK
10
60761.0
20
68209.0
11
60761.0
21
67209.0
0
LINE
8
BLACK
10
60761.0
20
67209.0
11
61561.0
21
67209.0
0
LINE
8
BLACK
10
67060.0
20
68209.0
11
67060.0
21
67209.0
0
LINE
8
BLACK
10
67060.0
20
67209.0
11
67860.0
21
67209.0
0
LINE
8
BLACK
10
67860.0
20
67209.0
11
67860.0
21
68209.0
0
LINE
8
BLACK
10
67860.0
20
68209.0
11
67060.0
21
68209.0
0
LINE
8
BLACK
10
68360.0
20
68209.0
11
68360.0
21
67209.0
0
LINE
8
BLACK
10
68360.0
20
67209.0
11
69160.0
21
67209.0
0
LINE
8
BLACK
10
69160.0
20
67209.0
11
69160.0
21
68209.0
0
LINE
8
BLACK
10
69160.0
20
68209.0
11
68360.0
21
68209.0
0
LINE
8
BLACK
10
66404.0
20
59729.0
11
66404.0
21
60729.0
0
LINE
8
BLACK
10
66404.0
20
60729.0
11
65604.0
21
60729.0
0
LINE
8
BLACK
10
65604.0
20
60729.0
11
65604.0
21
59729.0
0
LINE
8
BLACK
10
65604.0
20
59729.0
11
66404.0
21
59729.0
0
LINE
8
BLACK
10
65104.0
20
59729.0
11
65104.0
21
60729.0
0
LINE
8
BLACK
10
65104.0
20
60729.0
11
64304.0
21
60729.0
0
LINE
8
BLACK
10
64304.0
20
60729.0
11
64304.0
21
59729.0
0
LINE
8
BLACK
10
64304.0
20
59729.0
11
65104.0
21
59729.0
0
LINE
8
BLACK
10
63255.0
20
59729.0
11
63255.0
21
60729.0
0
LINE
8
BLACK
10
63255.0
20
60729.0
11
62455.0
21
60729.0
0
LINE
8
BLACK
10
62455.0
20
60729.0
11
62455.0
21
59729.0
0
LINE
8
BLACK
10
62455.0
20
59729.0
11
63255.0
21
59729.0
0
LINE
8
BLACK
10
61955.0
20
59729.0
11
61955.0
21
60729.0
0
LINE
8
BLACK
10
61955.0
20
60729.0
11
61155.0
21
60729.0
0
LINE
8
BLACK
10
61155.0
20
60729.0
11
61155.0
21
59729.0
0
LINE
8
BLACK
10
61155.0
20
59729.0
11
61955.0
21
59729.0
0
LINE
8
BLACK
10
89870.0
20
70334.0
11
88870.0
21
70334.0
0
LINE
8
BLACK
10
88870.0
20
70334.0
11
88870.0
21
69534.0
0
LINE
8
BLACK
10
88870.0
20
69534.0
11
89870.0
21
69534.0
0
LINE
8
BLACK
10
89870.0
20
69534.0
11
89870.0
21
70334.0
0
LINE
8
BLACK
10
89870.0
20
69034.0
11
88870.0
21
69034.0
0
LINE
8
BLACK
10
88870.0
20
69034.0
11
88870.0
21
68234.0
0
LINE
8
BLACK
10
88870.0
20
68234.0
11
89870.0
21
68234.0
0
LINE
8
BLACK
10
89870.0
20
68234.0
11
89870.0
21
69034.0
0
LINE
8
BLACK
10
92232.0
20
69153.0
11
91232.0
21
69153.0
0
LINE
8
BLACK
10
91232.0
20
69153.0
11
91232.0
21
68353.0
0
LINE
8
BLACK
10
91232.0
20
68353.0
11
92232.0
21
68353.0
0
LINE
8
BLACK
10
92232.0
20
68353.0
11
92232.0
21
69153.0
0
LINE
8
BLACK
10
92232.0
20
67853.0
11
91232.0
21
67853.0
0
LINE
8
BLACK
10
91232.0
20
67853.0
11
91232.0
21
67053.0
0
LINE
8
BLACK
10
91232.0
20
67053.0
11
92232.0
21
67053.0
0
LINE
8
BLACK
10
92232.0
20
67053.0
11
92232.0
21
67853.0
0
LINE
8
BLACK
10
56535.0
20
61517.0
11
56535.0
21
62077.0
0
LINE
8
BLACK
10
56535.0
20
62077.0
11
55975.0
21
62077.0
0
LINE
8
BLACK
10
55975.0
20
62077.0
11
55975.0
21
61517.0
0
LINE
8
BLACK
10
55975.0
20
61517.0
11
56535.0
21
61517.0
0
LINE
8
BLACK
10
55835.0
20
61517.0
11
55835.0
21
62077.0
0
LINE
8
BLACK
10
55835.0
20
62077.0
11
55275.0
21
62077.0
0
LINE
8
BLACK
10
55275.0
20
62077.0
11
55275.0
21
61517.0
0
LINE
8
BLACK
10
55275.0
20
61517.0
11
55835.0
21
61517.0
0
LINE
8
BLACK
10
56185.0
20
62317.0
11
56185.0
21
62877.0
0
LINE
8
BLACK
10
56185.0
20
62877.0
11
55625.0
21
62877.0
0
LINE
8
BLACK
10
55625.0
20
62877.0
11
55625.0
21
62317.0
0
LINE
8
BLACK
10
55625.0
20
62317.0
11
56185.0
21
62317.0
0
LINE
8
BLACK
10
54172.0
20
61517.0
11
54172.0
21
62077.0
0
LINE
8
BLACK
10
54172.0
20
62077.0
11
53612.0
21
62077.0
0
LINE
8
BLACK
10
53612.0
20
62077.0
11
53612.0
21
61517.0
0
LINE
8
BLACK
10
53612.0
20
61517.0
11
54172.0
21
61517.0
0
LINE
8
BLACK
10
53472.0
20
61517.0
11
53472.0
21
62077.0
0
LINE
8
BLACK
10
53472.0
20
62077.0
11
52912.0
21
62077.0
0
LINE
8
BLACK
10
52912.0
20
62077.0
11
52912.0
21
61517.0
0
LINE
8
BLACK
10
52912.0
20
61517.0
11
53472.0
21
61517.0
0
LINE
8
BLACK
10
53822.0
20
62317.0
11
53822.0
21
62877.0
0
LINE
8
BLACK
10
53822.0
20
62877.0
11
53262.0
21
62877.0
0
LINE
8
BLACK
10
53262.0
20
62877.0
11
53262.0
21
62317.0
0
LINE
8
BLACK
10
53262.0
20
62317.0
11
53822.0
21
62317.0
0
LINE
8
BLACK
10
52913.0
20
69177.0
11
52913.0
21
68617.0
0
LINE
8
BLACK
10
52913.0
20
68617.0
11
53473.0
21
68617.0
0
LINE
8
BLACK
10
53473.0
20
68617.0
11
53473.0
21
69177.0
0
LINE
8
BLACK
10
53473.0
20
69177.0
11
52913.0
21
69177.0
0
LINE
8
BLACK
10
53613.0
20
69177.0
11
53613.0
21
68617.0
0
LINE
8
BLACK
10
53613.0
20
68617.0
11
54173.0
21
68617.0
0
LINE
8
BLACK
10
54173.0
20
68617.0
11
54173.0
21
69177.0
0
LINE
8
BLACK
10
54173.0
20
69177.0
11
53613.0
21
69177.0
0
LINE
8
BLACK
10
53263.0
20
68377.0
11
53263.0
21
67817.0
0
LINE
8
BLACK
10
53263.0
20
67817.0
11
53823.0
21
67817.0
0
LINE
8
BLACK
10
53823.0
20
67817.0
11
53823.0
21
68377.0
0
LINE
8
BLACK
10
53823.0
20
68377.0
11
53263.0
21
68377.0
0
LINE
8
BLACK
10
39388.0
20
36942.0
11
40138.0
21
36942.0
0
LINE
8
BLACK
10
40138.0
20
36942.0
11
40138.0
21
37492.0
0
LINE
8
BLACK
10
40138.0
20
37492.0
11
39388.0
21
37492.0
0
LINE
8
BLACK
10
39388.0
20
37492.0
11
39388.0
21
36942.0
0
LINE
8
BLACK
10
39388.0
20
37692.0
11
40138.0
21
37692.0
0
LINE
8
BLACK
10
40138.0
20
37692.0
11
40138.0
21
38242.0
0
LINE
8
BLACK
10
40138.0
20
38242.0
11
39388.0
21
38242.0
0
LINE
8
BLACK
10
39388.0
20
38242.0
11
39388.0
21
37692.0
0
LINE
8
BLACK
10
40373.0
20
36942.0
11
41123.0
21
36942.0
0
LINE
8
BLACK
10
41123.0
20
36942.0
11
41123.0
21
37492.0
0
LINE
8
BLACK
10
41123.0
20
37492.0
11
40373.0
21
37492.0
0
LINE
8
BLACK
10
40373.0
20
37492.0
11
40373.0
21
36942.0
0
LINE
8
BLACK
10
40373.0
20
37692.0
11
41123.0
21
37692.0
0
LINE
8
BLACK
10
41123.0
20
37692.0
11
41123.0
21
38242.0
0
LINE
8
BLACK
10
41123.0
20
38242.0
11
40373.0
21
38242.0
0
LINE
8
BLACK
10
40373.0
20
38242.0
11
40373.0
21
37692.0
0
LINE
8
BLACK
10
38404.0
20
36942.0
11
39154.0
21
36942.0
0
LINE
8
BLACK
10
39154.0
20
36942.0
11
39154.0
21
37492.0
0
LINE
8
BLACK
10
39154.0
20
37492.0
11
38404.0
21
37492.0
0
LINE
8
BLACK
10
38404.0
20
37492.0
11
38404.0
21
36942.0
0
LINE
8
BLACK
10
38404.0
20
37692.0
11
39154.0
21
37692.0
0
LINE
8
BLACK
10
39154.0
20
37692.0
11
39154.0
21
38242.0
0
LINE
8
BLACK
10
39154.0
20
38242.0
11
38404.0
21
38242.0
0
LINE
8
BLACK
10
38404.0
20
38242.0
11
38404.0
21
37692.0
0
LINE
8
BLACK
10
56824.0
20
63091.0
11
56824.0
21
62091.0
0
LINE
8
BLACK
10
56824.0
20
62091.0
11
57624.0
21
62091.0
0
LINE
8
BLACK
10
57624.0
20
62091.0
11
57624.0
21
63091.0
0
LINE
8
BLACK
10
57624.0
20
63091.0
11
56824.0
21
63091.0
0
LINE
8
BLACK
10
58124.0
20
63091.0
11
58124.0
21
62091.0
0
LINE
8
BLACK
10
58124.0
20
62091.0
11
58924.0
21
62091.0
0
LINE
8
BLACK
10
58924.0
20
62091.0
11
58924.0
21
63091.0
0
LINE
8
BLACK
10
58924.0
20
63091.0
11
58124.0
21
63091.0
0
LINE
8
BLACK
10
52231.0
20
62091.0
11
52231.0
21
63091.0
0
LINE
8
BLACK
10
52231.0
20
63091.0
11
51431.0
21
63091.0
0
LINE
8
BLACK
10
51431.0
20
63091.0
11
51431.0
21
62091.0
0
LINE
8
BLACK
10
51431.0
20
62091.0
11
52231.0
21
62091.0
0
LINE
8
BLACK
10
50931.0
20
62091.0
11
50931.0
21
63091.0
0
LINE
8
BLACK
10
50931.0
20
63091.0
11
50131.0
21
63091.0
0
LINE
8
BLACK
10
50131.0
20
63091.0
11
50131.0
21
62091.0
0
LINE
8
BLACK
10
50131.0
20
62091.0
11
50931.0
21
62091.0
0
LINE
8
BLACK
10
72572.0
20
68209.0
11
72572.0
21
67209.0
0
LINE
8
BLACK
10
72572.0
20
67209.0
11
73372.0
21
67209.0
0
LINE
8
BLACK
10
73372.0
20
67209.0
11
73372.0
21
68209.0
0
LINE
8
BLACK
10
73372.0
20
68209.0
11
72572.0
21
68209.0
0
LINE
8
BLACK
10
73872.0
20
68209.0
11
73872.0
21
67209.0
0
LINE
8
BLACK
10
73872.0
20
67209.0
11
74672.0
21
67209.0
0
LINE
8
BLACK
10
74672.0
20
67209.0
11
74672.0
21
68209.0
0
LINE
8
BLACK
10
74672.0
20
68209.0
11
73872.0
21
68209.0
0
LINE
8
BLACK
10
72572.0
20
70572.0
11
72572.0
21
69572.0
0
LINE
8
BLACK
10
72572.0
20
69572.0
11
73372.0
21
69572.0
0
LINE
8
BLACK
10
73372.0
20
69572.0
11
73372.0
21
70572.0
0
LINE
8
BLACK
10
73372.0
20
70572.0
11
72572.0
21
70572.0
0
LINE
8
BLACK
10
73872.0
20
70572.0
11
73872.0
21
69572.0
0
LINE
8
BLACK
10
73872.0
20
69572.0
11
74672.0
21
69572.0
0
LINE
8
BLACK
10
74672.0
20
69572.0
11
74672.0
21
70572.0
0
LINE
8
BLACK
10
74672.0
20
70572.0
11
73872.0
21
70572.0
0
LINE
8
BLACK
10
91051.0
20
69940.0
11
90051.0
21
69940.0
0
LINE
8
BLACK
10
90051.0
20
69940.0
11
90051.0
21
69140.0
0
LINE
8
BLACK
10
90051.0
20
69140.0
11
91051.0
21
69140.0
0
LINE
8
BLACK
10
91051.0
20
69140.0
11
91051.0
21
69940.0
0
LINE
8
BLACK
10
91051.0
20
68640.0
11
90051.0
21
68640.0
0
LINE
8
BLACK
10
90051.0
20
68640.0
11
90051.0
21
67840.0
0
LINE
8
BLACK
10
90051.0
20
67840.0
11
91051.0
21
67840.0
0
LINE
8
BLACK
10
91051.0
20
67840.0
11
91051.0
21
68640.0
0
LINE
8
BLACK
10
93413.0
20
68759.0
11
92413.0
21
68759.0
0
LINE
8
BLACK
10
92413.0
20
68759.0
11
92413.0
21
67959.0
0
LINE
8
BLACK
10
92413.0
20
67959.0
11
93413.0
21
67959.0
0
LINE
8
BLACK
10
93413.0
20
67959.0
11
93413.0
21
68759.0
0
LINE
8
BLACK
10
93413.0
20
67459.0
11
92413.0
21
67459.0
0
LINE
8
BLACK
10
92413.0
20
67459.0
11
92413.0
21
66659.0
0
LINE
8
BLACK
10
92413.0
20
66659.0
11
93413.0
21
66659.0
0
LINE
8
BLACK
10
93413.0
20
66659.0
11
93413.0
21
67459.0
0
LINE
8
BLACK
10
62729.0
20
70178.0
11
62729.0
21
69178.0
0
LINE
8
BLACK
10
62729.0
20
69178.0
11
63529.0
21
69178.0
0
LINE
8
BLACK
10
63529.0
20
69178.0
11
63529.0
21
70178.0
0
LINE
8
BLACK
10
63529.0
20
70178.0
11
62729.0
21
70178.0
0
LINE
8
BLACK
10
64029.0
20
70178.0
11
64029.0
21
69178.0
0
LINE
8
BLACK
10
64029.0
20
69178.0
11
64829.0
21
69178.0
0
LINE
8
BLACK
10
64829.0
20
69178.0
11
64829.0
21
70178.0
0
LINE
8
BLACK
10
64829.0
20
70178.0
11
64029.0
21
70178.0
0
LINE
8
BLACK
10
65092.0
20
70178.0
11
65092.0
21
69178.0
0
LINE
8
BLACK
10
65092.0
20
69178.0
11
65892.0
21
69178.0
0
LINE
8
BLACK
10
65892.0
20
69178.0
11
65892.0
21
70178.0
0
LINE
8
BLACK
10
65892.0
20
70178.0
11
65092.0
21
70178.0
0
LINE
8
BLACK
10
66392.0
20
70178.0
11
66392.0
21
69178.0
0
LINE
8
BLACK
10
66392.0
20
69178.0
11
67192.0
21
69178.0
0
LINE
8
BLACK
10
67192.0
20
69178.0
11
67192.0
21
70178.0
0
LINE
8
BLACK
10
67192.0
20
70178.0
11
66392.0
21
70178.0
0
LINE
8
BLACK
10
72572.0
20
67028.0
11
72572.0
21
66028.0
0
LINE
8
BLACK
10
72572.0
20
66028.0
11
73372.0
21
66028.0
0
LINE
8
BLACK
10
73372.0
20
66028.0
11
73372.0
21
67028.0
0
LINE
8
BLACK
10
73372.0
20
67028.0
11
72572.0
21
67028.0
0
LINE
8
BLACK
10
73872.0
20
67028.0
11
73872.0
21
66028.0
0
LINE
8
BLACK
10
73872.0
20
66028.0
11
74672.0
21
66028.0
0
LINE
8
BLACK
10
74672.0
20
66028.0
11
74672.0
21
67028.0
0
LINE
8
BLACK
10
74672.0
20
67028.0
11
73872.0
21
67028.0
0
LINE
8
BLACK
10
72572.0
20
69390.0
11
72572.0
21
68390.0
0
LINE
8
BLACK
10
72572.0
20
68390.0
11
73372.0
21
68390.0
0
LINE
8
BLACK
10
73372.0
20
68390.0
11
73372.0
21
69390.0
0
LINE
8
BLACK
10
73372.0
20
69390.0
11
72572.0
21
69390.0
0
LINE
8
BLACK
10
73872.0
20
69390.0
11
73872.0
21
68390.0
0
LINE
8
BLACK
10
73872.0
20
68390.0
11
74672.0
21
68390.0
0
LINE
8
BLACK
10
74672.0
20
68390.0
11
74672.0
21
69390.0
0
LINE
8
BLACK
10
74672.0
20
69390.0
11
73872.0
21
69390.0
0
LINE
8
BLACK
10
77550.0
20
49170.0
11
77550.0
21
50170.0
0
LINE
8
BLACK
10
77550.0
20
50170.0
11
76750.0
21
50170.0
0
LINE
8
BLACK
10
76750.0
20
50170.0
11
76750.0
21
49170.0
0
LINE
8
BLACK
10
76750.0
20
49170.0
11
77550.0
21
49170.0
0
LINE
8
BLACK
10
76250.0
20
49170.0
11
76250.0
21
50170.0
0
LINE
8
BLACK
10
76250.0
20
50170.0
11
75450.0
21
50170.0
0
LINE
8
BLACK
10
75450.0
20
50170.0
11
75450.0
21
49170.0
0
LINE
8
BLACK
10
75450.0
20
49170.0
11
76250.0
21
49170.0
0
LINE
8
BLACK
10
38714.0
20
70178.0
11
38714.0
21
69178.0
0
LINE
8
BLACK
10
38714.0
20
69178.0
11
39514.0
21
69178.0
0
LINE
8
BLACK
10
39514.0
20
69178.0
11
39514.0
21
70178.0
0
LINE
8
BLACK
10
39514.0
20
70178.0
11
38714.0
21
70178.0
0
LINE
8
BLACK
10
40014.0
20
70178.0
11
40014.0
21
69178.0
0
LINE
8
BLACK
10
40014.0
20
69178.0
11
40814.0
21
69178.0
0
LINE
8
BLACK
10
40814.0
20
69178.0
11
40814.0
21
70178.0
0
LINE
8
BLACK
10
40814.0
20
70178.0
11
40014.0
21
70178.0
0
LINE
8
BLACK
10
42341.0
20
44028.0
11
43091.0
21
44028.0
0
LINE
8
BLACK
10
43091.0
20
44028.0
11
43091.0
21
44578.0
0
LINE
8
BLACK
10
43091.0
20
44578.0
11
42341.0
21
44578.0
0
LINE
8
BLACK
10
42341.0
20
44578.0
11
42341.0
21
44028.0
0
LINE
8
BLACK
10
42341.0
20
44778.0
11
43091.0
21
44778.0
0
LINE
8
BLACK
10
43091.0
20
44778.0
11
43091.0
21
45328.0
0
LINE
8
BLACK
10
43091.0
20
45328.0
11
42341.0
21
45328.0
0
LINE
8
BLACK
10
42341.0
20
45328.0
11
42341.0
21
44778.0
0
LINE
8
BLACK
10
33761.0
20
69558.0
11
31593.0
21
69558.0
0
LINE
8
BLACK
10
31593.0
20
69558.0
11
31593.0
21
68098.0
0
LINE
8
BLACK
10
31593.0
20
68098.0
11
33761.0
21
68098.0
0
LINE
8
BLACK
10
33761.0
20
68098.0
11
33761.0
21
69558.0
0
LINE
8
BLACK
10
33761.0
20
67117.0
11
31593.0
21
67117.0
0
LINE
8
BLACK
10
31593.0
20
67117.0
11
31593.0
21
65657.0
0
LINE
8
BLACK
10
31593.0
20
65657.0
11
33761.0
21
65657.0
0
LINE
8
BLACK
10
33761.0
20
65657.0
11
33761.0
21
67117.0
0
LINE
8
BLACK
10
31557.0
20
68730.0
11
30097.0
21
68730.0
0
LINE
8
BLACK
10
30097.0
20
68730.0
11
30097.0
21
66562.0
0
LINE
8
BLACK
10
30097.0
20
66562.0
11
31557.0
21
66562.0
0
LINE
8
BLACK
10
31557.0
20
66562.0
11
31557.0
21
68730.0
0
LINE
8
BLACK
10
80153.0
20
64555.0
11
81061.0
21
64555.0
0
LINE
8
BLACK
10
81061.0
20
64555.0
11
81061.0
21
65463.0
0
LINE
8
BLACK
10
81061.0
20
65463.0
11
80153.0
21
65463.0
0
LINE
8
BLACK
10
80153.0
20
65463.0
11
80153.0
21
64555.0
0
CIRCLE
8
BLACK
10
81607.0
20
65009.0
40
454
0
CIRCLE
8
BLACK
10
85607.0
20
68009.0
40
454
0
CIRCLE
8
BLACK
10
81607.0
20
68009.0
40
454
0
CIRCLE
8
BLACK
10
80607.0
20
68009.0
40
454
0
LINE
8
BLACK
10
80153.0
20
60126.0
11
81061.0
21
60126.0
0
LINE
8
BLACK
10
81061.0
20
60126.0
11
81061.0
21
61034.0
0
LINE
8
BLACK
10
81061.0
20
61034.0
11
80153.0
21
61034.0
0
LINE
8
BLACK
10
80153.0
20
61034.0
11
80153.0
21
60126.0
0
CIRCLE
8
BLACK
10
81607.0
20
60580.0
40
454
0
CIRCLE
8
BLACK
10
85607.0
20
63580.0
40
454
0
CIRCLE
8
BLACK
10
81607.0
20
63580.0
40
454
0
CIRCLE
8
BLACK
10
80607.0
20
63580.0
40
454
0
LINE
8
BLACK
10
80153.0
20
55697.0
11
81061.0
21
55697.0
0
LINE
8
BLACK
10
81061.0
20
55697.0
11
81061.0
21
56605.0
0
LINE
8
BLACK
10
81061.0
20
56605.0
11
80153.0
21
56605.0
0
LINE
8
BLACK
10
80153.0
20
56605.0
11
80153.0
21
55697.0
0
CIRCLE
8
BLACK
10
81607.0
20
56151.0
40
454
0
CIRCLE
8
BLACK
10
85607.0
20
59151.0
40
454
0
CIRCLE
8
BLACK
10
81607.0
20
59151.0
40
454
0
CIRCLE
8
BLACK
10
80607.0
20
59151.0
40
454
0
LINE
8
BLACK
10
80153.0
20
51268.0
11
81061.0
21
51268.0
0
LINE
8
BLACK
10
81061.0
20
51268.0
11
81061.0
21
52176.0
0
LINE
8
BLACK
10
81061.0
20
52176.0
11
80153.0
21
52176.0
0
LINE
8
BLACK
10
80153.0
20
52176.0
11
80153.0
21
51268.0
0
CIRCLE
8
BLACK
10
81607.0
20
51722.0
40
454
0
CIRCLE
8
BLACK
10
85607.0
20
54722.0
40
454
0
CIRCLE
8
BLACK
10
81607.0
20
54722.0
40
454
0
CIRCLE
8
BLACK
10
80607.0
20
54722.0
40
454
0
LINE
8
BLACK
10
80153.0
20
46838.0
11
81061.0
21
46838.0
0
LINE
8
BLACK
10
81061.0
20
46838.0
11
81061.0
21
47746.0
0
LINE
8
BLACK
10
81061.0
20
47746.0
11
80153.0
21
47746.0
0
LINE
8
BLACK
10
80153.0
20
47746.0
11
80153.0
21
46838.0
0
CIRCLE
8
BLACK
10
81607.0
20
47292.0
40
454
0
CIRCLE
8
BLACK
10
85607.0
20
50292.0
40
454
0
CIRCLE
8
BLACK
10
81607.0
20
50292.0
40
454
0
CIRCLE
8
BLACK
10
80607.0
20
50292.0
40
454
0
LINE
8
BLACK
10
80153.0
20
42409.0
11
81061.0
21
42409.0
0
LINE
8
BLACK
10
81061.0
20
42409.0
11
81061.0
21
43317.0
0
LINE
8
BLACK
10
81061.0
20
43317.0
11
80153.0
21
43317.0
0
LINE
8
BLACK
10
80153.0
20
43317.0
11
80153.0
21
42409.0
0
CIRCLE
8
BLACK
10
81607.0
20
42863.0
40
454
0
CIRCLE
8
BLACK
10
85607.0
20
45863.0
40
454
0
CIRCLE
8
BLACK
10
81607.0
20
45863.0
40
454
0
CIRCLE
8
BLACK
10
80607.0
20
45863.0
40
454
0
LINE
8
BLACK
10
80153.0
20
37980.0
11
81061.0
21
37980.0
0
LINE
8
BLACK
10
81061.0
20
37980.0
11
81061.0
21
38888.0
0
LINE
8
BLACK
10
81061.0
20
38888.0
11
80153.0
21
38888.0
0
LINE
8
BLACK
10
80153.0
20
38888.0
11
80153.0
21
37980.0
0
CIRCLE
8
BLACK
10
81607.0
20
38434.0
40
454
0
CIRCLE
8
BLACK
10
85607.0
20
41434.0
40
454
0
CIRCLE
8
BLACK
10
81607.0
20
41434.0
40
454
0
CIRCLE
8
BLACK
10
80607.0
20
41434.0
40
454
0
LINE
8
BLACK
10
80153.0
20
33551.0
11
81061.0
21
33551.0
0
LINE
8
BLACK
10
81061.0
20
33551.0
11
81061.0
21
34459.0
0
LINE
8
BLACK
10
81061.0
20
34459.0
11
80153.0
21
34459.0
0
LINE
8
BLACK
10
80153.0
20
34459.0
11
80153.0
21
33551.0
0
CIRCLE
8
BLACK
10
81607.0
20
34005.0
40
454
0
CIRCLE
8
BLACK
10
85607.0
20
37005.0
40
454
0
CIRCLE
8
BLACK
10
81607.0
20
37005.0
40
454
0
CIRCLE
8
BLACK
10
80607.0
20
37005.0
40
454
0
LINE
8
BLACK
10
81137.0
20
28924.0
11
82045.0
21
28924.0
0
LINE
8
BLACK
10
82045.0
20
28924.0
11
82045.0
21
29832.0
0
LINE
8
BLACK
10
82045.0
20
29832.0
11
81137.0
21
29832.0
0
LINE
8
BLACK
10
81137.0
20
29832.0
11
81137.0
21
28924.0
0
CIRCLE
8
BLACK
10
82591.0
20
29378.0
40
454
0
CIRCLE
8
BLACK
10
86591.0
20
32378.0
40
454
0
CIRCLE
8
BLACK
10
82591.0
20
32378.0
40
454
0
CIRCLE
8
BLACK
10
81591.0
20
32378.0
40
454
0
LINE
8
BLACK
10
87633.0
20
28924.0
11
88541.0
21
28924.0
0
LINE
8
BLACK
10
88541.0
20
28924.0
11
88541.0
21
29832.0
0
LINE
8
BLACK
10
88541.0
20
29832.0
11
87633.0
21
29832.0
0
LINE
8
BLACK
10
87633.0
20
29832.0
11
87633.0
21
28924.0
0
CIRCLE
8
BLACK
10
89087.0
20
29378.0
40
454
0
CIRCLE
8
BLACK
10
93087.0
20
32378.0
40
454
0
CIRCLE
8
BLACK
10
89087.0
20
32378.0
40
454
0
CIRCLE
8
BLACK
10
88087.0
20
32378.0
40
454
0
LINE
8
BLACK
10
81137.0
20
24397.0
11
82045.0
21
24397.0
0
LINE
8
BLACK
10
82045.0
20
24397.0
11
82045.0
21
25305.0
0
LINE
8
BLACK
10
82045.0
20
25305.0
11
81137.0
21
25305.0
0
LINE
8
BLACK
10
81137.0
20
25305.0
11
81137.0
21
24397.0
0
CIRCLE
8
BLACK
10
82591.0
20
24851.0
40
454
0
CIRCLE
8
BLACK
10
86591.0
20
27851.0
40
454
0
CIRCLE
8
BLACK
10
82591.0
20
27851.0
40
454
0
CIRCLE
8
BLACK
10
81591.0
20
27851.0
40
454
0
LINE
8
BLACK
10
87633.0
20
24397.0
11
88541.0
21
24397.0
0
LINE
8
BLACK
10
88541.0
20
24397.0
11
88541.0
21
25305.0
0
LINE
8
BLACK
10
88541.0
20
25305.0
11
87633.0
21
25305.0
0
LINE
8
BLACK
10
87633.0
20
25305.0
11
87633.0
21
24397.0
0
CIRCLE
8
BLACK
10
89087.0
20
24851.0
40
454
0
CIRCLE
8
BLACK
10
93087.0
20
27851.0
40
454
0
CIRCLE
8
BLACK
10
89087.0
20
27851.0
40
454
0
CIRCLE
8
BLACK
10
88087.0
20
27851.0
40
454
0
LINE
8
BLACK
10
81137.0
20
19869.0
11
82045.0
21
19869.0
0
LINE
8
BLACK
10
82045.0
20
19869.0
11
82045.0
21
20777.0
0
LINE
8
BLACK
10
82045.0
20
20777.0
11
81137.0
21
20777.0
0
LINE
8
BLACK
10
81137.0
20
20777.0
11
81137.0
21
19869.0
0
CIRCLE
8
BLACK
10
82591.0
20
20323.0
40
454
0
CIRCLE
8
BLACK
10
86591.0
20
23323.0
40
454
0
CIRCLE
8
BLACK
10
82591.0
20
23323.0
40
454
0
CIRCLE
8
BLACK
10
81591.0
20
23323.0
40
454
0
LINE
8
BLACK
10
87633.0
20
19869.0
11
88541.0
21
19869.0
0
LINE
8
BLACK
10
88541.0
20
19869.0
11
88541.0
21
20777.0
0
LINE
8
BLACK
10
88541.0
20
20777.0
11
87633.0
21
20777.0
0
LINE
8
BLACK
10
87633.0
20
20777.0
11
87633.0
21
19869.0
0
CIRCLE
8
BLACK
10
89087.0
20
20323.0
40
454
0
CIRCLE
8
BLACK
10
93087.0
20
23323.0
40
454
0
CIRCLE
8
BLACK
10
89087.0
20
23323.0
40
454
0
CIRCLE
8
BLACK
10
88087.0
20
23323.0
40
454
0
LINE
8
BLACK
10
81137.0
20
15342.0
11
82045.0
21
15342.0
0
LINE
8
BLACK
10
82045.0
20
15342.0
11
82045.0
21
16250.0
0
LINE
8
BLACK
10
82045.0
20
16250.0
11
81137.0
21
16250.0
0
LINE
8
BLACK
10
81137.0
20
16250.0
11
81137.0
21
15342.0
0
CIRCLE
8
BLACK
10
82591.0
20
15796.0
40
454
0
CIRCLE
8
BLACK
10
86591.0
20
18796.0
40
454
0
CIRCLE
8
BLACK
10
82591.0
20
18796.0
40
454
0
CIRCLE
8
BLACK
10
81591.0
20
18796.0
40
454
0
LINE
8
BLACK
10
87633.0
20
15342.0
11
88541.0
21
15342.0
0
LINE
8
BLACK
10
88541.0
20
15342.0
11
88541.0
21
16250.0
0
LINE
8
BLACK
10
88541.0
20
16250.0
11
87633.0
21
16250.0
0
LINE
8
BLACK
10
87633.0
20
16250.0
11
87633.0
21
15342.0
0
CIRCLE
8
BLACK
10
89087.0
20
15796.0
40
454
0
CIRCLE
8
BLACK
10
93087.0
20
18796.0
40
454
0
CIRCLE
8
BLACK
10
89087.0
20
18796.0
40
454
0
CIRCLE
8
BLACK
10
88087.0
20
18796.0
40
454
0
LINE
8
BLACK
10
87692.0
20
59127.0
11
88364.0
21
59127.0
0
LINE
8
BLACK
10
88364.0
20
59127.0
11
88364.0
21
59799.0
0
LINE
8
BLACK
10
88364.0
20
59799.0
11
87692.0
21
59799.0
0
LINE
8
BLACK
10
87692.0
20
59799.0
11
87692.0
21
59127.0
0
CIRCLE
8
BLACK
10
87028.0
20
59963.0
40
336
0
CIRCLE
8
BLACK
10
88028.0
20
60463.0
40
336
0
CIRCLE
8
BLACK
10
87028.0
20
60963.0
40
336
0
CIRCLE
8
BLACK
10
88028.0
20
61463.0
40
336
0
CIRCLE
8
BLACK
10
87028.0
20
61963.0
40
336
0
CIRCLE
8
BLACK
10
88028.0
20
62463.0
40
336
0
CIRCLE
8
BLACK
10
87028.0
20
62963.0
40
336
0
LINE
8
BLACK
10
87692.0
20
51253.0
11
88364.0
21
51253.0
0
LINE
8
BLACK
10
88364.0
20
51253.0
11
88364.0
21
51925.0
0
LINE
8
BLACK
10
88364.0
20
51925.0
11
87692.0
21
51925.0
0
LINE
8
BLACK
10
87692.0
20
51925.0
11
87692.0
21
51253.0
0
CIRCLE
8
BLACK
10
87028.0
20
52089.0
40
336
0
CIRCLE
8
BLACK
10
88028.0
20
52589.0
40
336
0
CIRCLE
8
BLACK
10
87028.0
20
53089.0
40
336
0
CIRCLE
8
BLACK
10
88028.0
20
53589.0
40
336
0
CIRCLE
8
BLACK
10
87028.0
20
54089.0
40
336
0
CIRCLE
8
BLACK
10
88028.0
20
54589.0
40
336
0
CIRCLE
8
BLACK
10
87028.0
20
55089.0
40
336
0
LINE
8
BLACK
10
87692.0
20
43379.0
11
88364.0
21
43379.0
0
LINE
8
BLACK
10
88364.0
20
43379.0
11
88364.0
21
44051.0
0
LINE
8
BLACK
10
88364.0
20
44051.0
11
87692.0
21
44051.0
0
LINE
8
BLACK
10
87692.0
20
44051.0
11
87692.0
21
43379.0
0
CIRCLE
8
BLACK
10
87028.0
20
44215.0
40
336
0
CIRCLE
8
BLACK
10
88028.0
20
44715.0
40
336
0
CIRCLE
8
BLACK
10
87028.0
20
45215.0
40
336
0
CIRCLE
8
BLACK
10
88028.0
20
45715.0
40
336
0
CIRCLE
8
BLACK
10
87028.0
20
46215.0
40
336
0
CIRCLE
8
BLACK
10
88028.0
20
46715.0
40
336
0
CIRCLE
8
BLACK
10
87028.0
20
47215.0
40
336
0
LINE
8
BLACK
10
87692.0
20
35505.0
11
88364.0
21
35505.0
0
LINE
8
BLACK
10
88364.0
20
35505.0
11
88364.0
21
36177.0
0
LINE
8
BLACK
10
88364.0
20
36177.0
11
87692.0
21
36177.0
0
LINE
8
BLACK
10
87692.0
20
36177.0
11
87692.0
21
35505.0
0
CIRCLE
8
BLACK
10
87028.0
20
36341.0
40
336
0
CIRCLE
8
BLACK
10
88028.0
20
36841.0
40
336
0
CIRCLE
8
BLACK
10
87028.0
20
37341.0
40
336
0
CIRCLE
8
BLACK
10
88028.0
20
37841.0
40
336
0
CIRCLE
8
BLACK
10
87028.0
20
38341.0
40
336
0
CIRCLE
8
BLACK
10
88028.0
20
38841.0
40
336
0
CIRCLE
8
BLACK
10
87028.0
20
39341.0
40
336
0
LINE
8
BLACK
10
74489.0
20
20568.0
11
74489.0
21
19896.0
0
LINE
8
BLACK
10
74489.0
20
19896.0
11
75161.0
21
19896.0
0
LINE
8
BLACK
10
75161.0
20
19896.0
11
75161.0
21
20568.0
0
LINE
8
BLACK
10
75161.0
20
20568.0
11
74489.0
21
20568.0
0
CIRCLE
8
BLACK
10
75325.0
20
21232.0
40
336
0
CIRCLE
8
BLACK
10
75825.0
20
20232.0
40
336
0
CIRCLE
8
BLACK
10
76325.0
20
21232.0
40
336
0
CIRCLE
8
BLACK
10
76825.0
20
20232.0
40
336
0
CIRCLE
8
BLACK
10
77325.0
20
21232.0
40
336
0
CIRCLE
8
BLACK
10
77825.0
20
20232.0
40
336
0
CIRCLE
8
BLACK
10
78325.0
20
21232.0
40
336
0
LINE
8
BLACK
10
67796.0
20
20568.0
11
67796.0
21
19896.0
0
LINE
8
BLACK
10
67796.0
20
19896.0
11
68468.0
21
19896.0
0
LINE
8
BLACK
10
68468.0
20
19896.0
11
68468.0
21
20568.0
0
LINE
8
BLACK
10
68468.0
20
20568.0
11
67796.0
21
20568.0
0
CIRCLE
8
BLACK
10
68632.0
20
21232.0
40
336
0
CIRCLE
8
BLACK
10
69132.0
20
20232.0
40
336
0
CIRCLE
8
BLACK
10
69632.0
20
21232.0
40
336
0
CIRCLE
8
BLACK
10
70132.0
20
20232.0
40
336
0
CIRCLE
8
BLACK
10
70632.0
20
21232.0
40
336
0
CIRCLE
8
BLACK
10
71132.0
20
20232.0
40
336
0
CIRCLE
8
BLACK
10
71632.0
20
21232.0
40
336
0
LINE
8
BLACK
10
61103.0
20
20568.0
11
61103.0
21
19896.0
0
LINE
8
BLACK
10
61103.0
20
19896.0
11
61775.0
21
19896.0
0
LINE
8
BLACK
10
61775.0
20
19896.0
11
61775.0
21
20568.0
0
LINE
8
BLACK
10
61775.0
20
20568.0
11
61103.0
21
20568.0
0
CIRCLE
8
BLACK
10
61939.0
20
21232.0
40
336
0
CIRCLE
8
BLACK
10
62439.0
20
20232.0
40
336
0
CIRCLE
8
BLACK
10
62939.0
20
21232.0
40
336
0
CIRCLE
8
BLACK
10
63439.0
20
20232.0
40
336
0
CIRCLE
8
BLACK
10
63939.0
20
21232.0
40
336
0
CIRCLE
8
BLACK
10
64439.0
20
20232.0
40
336
0
CIRCLE
8
BLACK
10
64939.0
20
21232.0
40
336
0
LINE
8
BLACK
10
54410.0
20
20568.0
11
54410.0
21
19896.0
0
LINE
8
BLACK
10
54410.0
20
19896.0
11
55082.0
21
19896.0
0
LINE
8
BLACK
10
55082.0
20
19896.0
11
55082.0
21
20568.0
0
LINE
8
BLACK
10
55082.0
20
20568.0
11
54410.0
21
20568.0
0
CIRCLE
8
BLACK
10
55246.0
20
21232.0
40
336
0
CIRCLE
8
BLACK
10
55746.0
20
20232.0
40
336
0
CIRCLE
8
BLACK
10
56246.0
20
21232.0
40
336
0
CIRCLE
8
BLACK
10
56746.0
20
20232.0
40
336
0
CIRCLE
8
BLACK
10
57246.0
20
21232.0
40
336
0
CIRCLE
8
BLACK
10
57746.0
20
20232.0
40
336
0
CIRCLE
8
BLACK
10
58246.0
20
21232.0
40
336
0
LINE
8
BLACK
10
27638.0
20
20568.0
11
27638.0
21
19896.0
0
LINE
8
BLACK
10
27638.0
20
19896.0
11
28310.0
21
19896.0
0
LINE
8
BLACK
10
28310.0
20
19896.0
11
28310.0
21
20568.0
0
LINE
8
BLACK
10
28310.0
20
20568.0
11
27638.0
21
20568.0
0
CIRCLE
8
BLACK
10
28474.0
20
21232.0
40
336
0
CIRCLE
8
BLACK
10
28974.0
20
20232.0
40
336
0
CIRCLE
8
BLACK
10
29474.0
20
21232.0
40
336
0
CIRCLE
8
BLACK
10
29974.0
20
20232.0
40
336
0
CIRCLE
8
BLACK
10
30474.0
20
21232.0
40
336
0
CIRCLE
8
BLACK
10
30974.0
20
20232.0
40
336
0
CIRCLE
8
BLACK
10
31474.0
20
21232.0
40
336
0
LINE
8
BLACK
10
34331.0
20
20568.0
11
34331.0
21
19896.0
0
LINE
8
BLACK
10
34331.0
20
19896.0
11
35003.0
21
19896.0
0
LINE
8
BLACK
10
35003.0
20
19896.0
11
35003.0
21
20568.0
0
LINE
8
BLACK
10
35003.0
20
20568.0
11
34331.0
21
20568.0
0
CIRCLE
8
BLACK
10
35167.0
20
21232.0
40
336
0
CIRCLE
8
BLACK
10
35667.0
20
20232.0
40
336
0
CIRCLE
8
BLACK
10
36167.0
20
21232.0
40
336
0
CIRCLE
8
BLACK
10
36667.0
20
20232.0
40
336
0
CIRCLE
8
BLACK
10
37167.0
20
21232.0
40
336
0
CIRCLE
8
BLACK
10
37667.0
20
20232.0
40
336
0
CIRCLE
8
BLACK
10
38167.0
20
21232.0
40
336
0
LINE
8
BLACK
10
41024.0
20
20568.0
11
41024.0
21
19896.0
0
LINE
8
BLACK
10
41024.0
20
19896.0
11
41696.0
21
19896.0
0
LINE
8
BLACK
10
41696.0
20
19896.0
11
41696.0
21
20568.0
0
LINE
8
BLACK
10
41696.0
20
20568.0
11
41024.0
21
20568.0
0
CIRCLE
8
BLACK
10
41860.0
20
21232.0
40
336
0
CIRCLE
8
BLACK
10
42360.0
20
20232.0
40
336
0
CIRCLE
8
BLACK
10
42860.0
20
21232.0
40
336
0
CIRCLE
8
BLACK
10
43360.0
20
20232.0
40
336
0
CIRCLE
8
BLACK
10
43860.0
20
21232.0
40
336
0
CIRCLE
8
BLACK
10
44360.0
20
20232.0
40
336
0
CIRCLE
8
BLACK
10
44860.0
20
21232.0
40
336
0
LINE
8
BLACK
10
47717.0
20
20568.0
11
47717.0
21
19896.0
0
LINE
8
BLACK
10
47717.0
20
19896.0
11
48389.0
21
19896.0
0
LINE
8
BLACK
10
48389.0
20
19896.0
11
48389.0
21
20568.0
0
LINE
8
BLACK
10
48389.0
20
20568.0
11
47717.0
21
20568.0
0
CIRCLE
8
BLACK
10
48553.0
20
21232.0
40
336
0
CIRCLE
8
BLACK
10
49053.0
20
20232.0
40
336
0
CIRCLE
8
BLACK
10
49553.0
20
21232.0
40
336
0
CIRCLE
8
BLACK
10
50053.0
20
20232.0
40
336
0
CIRCLE
8
BLACK
10
50553.0
20
21232.0
40
336
0
CIRCLE
8
BLACK
10
51053.0
20
20232.0
40
336
0
CIRCLE
8
BLACK
10
51553.0
20
21232.0
40
336
0
LINE
8
BLACK
10
41503.0
20
51507.0
11
41503.0
21
50677.0
0
LINE
8
BLACK
10
41503.0
20
50677.0
11
41819.0
21
50677.0
0
LINE
8
BLACK
10
41819.0
20
50677.0
11
41819.0
21
51507.0
0
LINE
8
BLACK
10
41819.0
20
51507.0
11
41503.0
21
51507.0
0
LINE
8
BLACK
10
41503.0
20
49105.0
11
41503.0
21
48275.0
0
LINE
8
BLACK
10
41503.0
20
48275.0
11
41819.0
21
48275.0
0
LINE
8
BLACK
10
41819.0
20
48275.0
11
41819.0
21
49105.0
0
LINE
8
BLACK
10
41819.0
20
49105.0
11
41503.0
21
49105.0
0
LINE
8
BLACK
10
41700.0
20
51507.0
11
41700.0
21
50677.0
0
LINE
8
BLACK
10
41700.0
20
50677.0
11
42016.0
21
50677.0
0
LINE
8
BLACK
10
42016.0
20
50677.0
11
42016.0
21
51507.0
0
LINE
8
BLACK
10
42016.0
20
51507.0
11
41700.0
21
51507.0
0
LINE
8
BLACK
10
41700.0
20
49105.0
11
41700.0
21
48275.0
0
LINE
8
BLACK
10
41700.0
20
48275.0
11
42016.0
21
48275.0
0
LINE
8
BLACK
10
42016.0
20
48275.0
11
42016.0
21
49105.0
0
LINE
8
BLACK
10
42016.0
20
49105.0
11
41700.0
21
49105.0
0
LINE
8
BLACK
10
41897.0
20
51507.0
11
41897.0
21
50677.0
0
LINE
8
BLACK
10
41897.0
20
50677.0
11
42213.0
21
50677.0
0
LINE
8
BLACK
10
42213.0
20
50677.0
11
42213.0
21
51507.0
0
LINE
8
BLACK
10
42213.0
20
51507.0
11
41897.0
21
51507.0
0
LINE
8
BLACK
10
41897.0
20
49105.0
11
41897.0
21
48275.0
0
LINE
8
BLACK
10
41897.0
20
48275.0
11
42213.0
21
48275.0
0
LINE
8
BLACK
10
42213.0
20
48275.0
11
42213.0
21
49105.0
0
LINE
8
BLACK
10
42213.0
20
49105.0
11
41897.0
21
49105.0
0
LINE
8
BLACK
10
42094.0
20
51507.0
11
42094.0
21
50677.0
0
LINE
8
BLACK
10
42094.0
20
50677.0
11
42410.0
21
50677.0
0
LINE
8
BLACK
10
42410.0
20
50677.0
11
42410.0
21
51507.0
0
LINE
8
BLACK
10
42410.0
20
51507.0
11
42094.0
21
51507.0
0
LINE
8
BLACK
10
42094.0
20
49105.0
11
42094.0
21
48275.0
0
LINE
8
BLACK
10
42094.0
20
48275.0
11
42410.0
21
48275.0
0
LINE
8
BLACK
10
42410.0
20
48275.0
11
42410.0
21
49105.0
0
LINE
8
BLACK
10
42410.0
20
49105.0
11
42094.0
21
49105.0
0
LINE
8
BLACK
10
42290.0
20
51507.0
11
42290.0
21
50677.0
0
LINE
8
BLACK
10
42290.0
20
50677.0
11
42606.0
21
50677.0
0
LINE
8
BLACK
10
42606.0
20
50677.0
11
42606.0
21
51507.0
0
LINE
8
BLACK
10
42606.0
20
51507.0
11
42290.0
21
51507.0
0
LINE
8
BLACK
10
42290.0
20
49105.0
11
42290.0
21
48275.0
0
LINE
8
BLACK
10
42290.0
20
48275.0
11
42606.0
21
48275.0
0
LINE
8
BLACK
10
42606.0
20
48275.0
11
42606.0
21
49105.0
0
LINE
8
BLACK
10
42606.0
20
49105.0
11
42290.0
21
49105.0
0
LINE
8
BLACK
10
42506.0
20
51507.0
11
42506.0
21
50677.0
0
LINE
8
BLACK
10
42506.0
20
50677.0
11
42982.0
21
50677.0
0
LINE
8
BLACK
10
42982.0
20
50677.0
11
42982.0
21
51507.0
0
LINE
8
BLACK
10
42982.0
20
51507.0
11
42506.0
21
51507.0
0
LINE
8
BLACK
10
42506.0
20
49105.0
11
42506.0
21
48275.0
0
LINE
8
BLACK
10
42506.0
20
48275.0
11
42982.0
21
48275.0
0
LINE
8
BLACK
10
42982.0
20
48275.0
11
42982.0
21
49105.0
0
LINE
8
BLACK
10
42982.0
20
49105.0
11
42506.0
21
49105.0
0
LINE
8
BLACK
10
42881.0
20
51507.0
11
42881.0
21
50677.0
0
LINE
8
BLACK
10
42881.0
20
50677.0
11
43197.0
21
50677.0
0
LINE
8
BLACK
10
43197.0
20
50677.0
11
43197.0
21
51507.0
0
LINE
8
BLACK
10
43197.0
20
51507.0
11
42881.0
21
51507.0
0
LINE
8
BLACK
10
42881.0
20
49105.0
11
42881.0
21
48275.0
0
LINE
8
BLACK
10
42881.0
20
48275.0
11
43197.0
21
48275.0
0
LINE
8
BLACK
10
43197.0
20
48275.0
11
43197.0
21
49105.0
0
LINE
8
BLACK
10
43197.0
20
49105.0
11
42881.0
21
49105.0
0
LINE
8
BLACK
10
43078.0
20
51507.0
11
43078.0
21
50677.0
0
LINE
8
BLACK
10
43078.0
20
50677.0
11
43394.0
21
50677.0
0
LINE
8
BLACK
10
43394.0
20
50677.0
11
43394.0
21
51507.0
0
LINE
8
BLACK
10
43394.0
20
51507.0
11
43078.0
21
51507.0
0
LINE
8
BLACK
10
43078.0
20
49105.0
11
43078.0
21
48275.0
0
LINE
8
BLACK
10
43078.0
20
48275.0
11
43394.0
21
48275.0
0
LINE
8
BLACK
10
43394.0
20
48275.0
11
43394.0
21
49105.0
0
LINE
8
BLACK
10
43394.0
20
49105.0
11
43078.0
21
49105.0
0
LINE
8
BLACK
10
43275.0
20
51507.0
11
43275.0
21
50677.0
0
LINE
8
BLACK
10
43275.0
20
50677.0
11
43591.0
21
50677.0
0
LINE
8
BLACK
10
43591.0
20
50677.0
11
43591.0
21
51507.0
0
LINE
8
BLACK
10
43591.0
20
51507.0
11
43275.0
21
51507.0
0
LINE
8
BLACK
10
43275.0
20
49105.0
11
43275.0
21
48275.0
0
LINE
8
BLACK
10
43275.0
20
48275.0
11
43591.0
21
48275.0
0
LINE
8
BLACK
10
43591.0
20
48275.0
11
43591.0
21
49105.0
0
LINE
8
BLACK
10
43591.0
20
49105.0
11
43275.0
21
49105.0
0
LINE
8
BLACK
10
43472.0
20
51507.0
11
43472.0
21
50677.0
0
LINE
8
BLACK
10
43472.0
20
50677.0
11
43788.0
21
50677.0
0
LINE
8
BLACK
10
43788.0
20
50677.0
11
43788.0
21
51507.0
0
LINE
8
BLACK
10
43788.0
20
51507.0
11
43472.0
21
51507.0
0
LINE
8
BLACK
10
43472.0
20
49105.0
11
43472.0
21
48275.0
0
LINE
8
BLACK
10
43472.0
20
48275.0
11
43788.0
21
48275.0
0
LINE
8
BLACK
10
43788.0
20
48275.0
11
43788.0
21
49105.0
0
LINE
8
BLACK
10
43788.0
20
49105.0
11
43472.0
21
49105.0
0
LINE
8
BLACK
10
43668.0
20
51507.0
11
43668.0
21
50677.0
0
LINE
8
BLACK
10
43668.0
20
50677.0
11
43984.0
21
50677.0
0
LINE
8
BLACK
10
43984.0
20
50677.0
11
43984.0
21
51507.0
0
LINE
8
BLACK
10
43984.0
20
51507.0
11
43668.0
21
51507.0
0
LINE
8
BLACK
10
43668.0
20
49105.0
11
43668.0
21
48275.0
0
LINE
8
BLACK
10
43668.0
20
48275.0
11
43984.0
21
48275.0
0
LINE
8
BLACK
10
43984.0
20
48275.0
11
43984.0
21
49105.0
0
LINE
8
BLACK
10
43984.0
20
49105.0
11
43668.0
21
49105.0
0
LINE
8
BLACK
10
43865.0
20
51507.0
11
43865.0
21
50677.0
0
LINE
8
BLACK
10
43865.0
20
50677.0
11
44181.0
21
50677.0
0
LINE
8
BLACK
10
44181.0
20
50677.0
11
44181.0
21
51507.0
0
LINE
8
BLACK
10
44181.0
20
51507.0
11
43865.0
21
51507.0
0
LINE
8
BLACK
10
43865.0
20
49105.0
11
43865.0
21
48275.0
0
LINE
8
BLACK
10
43865.0
20
48275.0
11
44181.0
21
48275.0
0
LINE
8
BLACK
10
44181.0
20
48275.0
11
44181.0
21
49105.0
0
LINE
8
BLACK
10
44181.0
20
49105.0
11
43865.0
21
49105.0
0
LINE
8
BLACK
10
44062.0
20
51507.0
11
44062.0
21
50677.0
0
LINE
8
BLACK
10
44062.0
20
50677.0
11
44378.0
21
50677.0
0
LINE
8
BLACK
10
44378.0
20
50677.0
11
44378.0
21
51507.0
0
LINE
8
BLACK
10
44378.0
20
51507.0
11
44062.0
21
51507.0
0
LINE
8
BLACK
10
44062.0
20
49105.0
11
44062.0
21
48275.0
0
LINE
8
BLACK
10
44062.0
20
48275.0
11
44378.0
21
48275.0
0
LINE
8
BLACK
10
44378.0
20
48275.0
11
44378.0
21
49105.0
0
LINE
8
BLACK
10
44378.0
20
49105.0
11
44062.0
21
49105.0
0
LINE
8
BLACK
10
44259.0
20
51507.0
11
44259.0
21
50677.0
0
LINE
8
BLACK
10
44259.0
20
50677.0
11
44575.0
21
50677.0
0
LINE
8
BLACK
10
44575.0
20
50677.0
11
44575.0
21
51507.0
0
LINE
8
BLACK
10
44575.0
20
51507.0
11
44259.0
21
51507.0
0
LINE
8
BLACK
10
44259.0
20
49105.0
11
44259.0
21
48275.0
0
LINE
8
BLACK
10
44259.0
20
48275.0
11
44575.0
21
48275.0
0
LINE
8
BLACK
10
44575.0
20
48275.0
11
44575.0
21
49105.0
0
LINE
8
BLACK
10
44575.0
20
49105.0
11
44259.0
21
49105.0
0
LINE
8
BLACK
10
44456.0
20
51507.0
11
44456.0
21
50677.0
0
LINE
8
BLACK
10
44456.0
20
50677.0
11
44772.0
21
50677.0
0
LINE
8
BLACK
10
44772.0
20
50677.0
11
44772.0
21
51507.0
0
LINE
8
BLACK
10
44772.0
20
51507.0
11
44456.0
21
51507.0
0
LINE
8
BLACK
10
44456.0
20
49105.0
11
44456.0
21
48275.0
0
LINE
8
BLACK
10
44456.0
20
48275.0
11
44772.0
21
48275.0
0
LINE
8
BLACK
10
44772.0
20
48275.0
11
44772.0
21
49105.0
0
LINE
8
BLACK
10
44772.0
20
49105.0
11
44456.0
21
49105.0
0
LINE
8
BLACK
10
44653.0
20
51507.0
11
44653.0
21
50677.0
0
LINE
8
BLACK
10
44653.0
20
50677.0
11
44969.0
21
50677.0
0
LINE
8
BLACK
10
44969.0
20
50677.0
11
44969.0
21
51507.0
0
LINE
8
BLACK
10
44969.0
20
51507.0
11
44653.0
21
51507.0
0
LINE
8
BLACK
10
44653.0
20
49105.0
11
44653.0
21
48275.0
0
LINE
8
BLACK
10
44653.0
20
48275.0
11
44969.0
21
48275.0
0
LINE
8
BLACK
10
44969.0
20
48275.0
11
44969.0
21
49105.0
0
LINE
8
BLACK
10
44969.0
20
49105.0
11
44653.0
21
49105.0
0
LINE
8
BLACK
10
44868.0
20
51507.0
11
44868.0
21
50677.0
0
LINE
8
BLACK
10
44868.0
20
50677.0
11
45344.0
21
50677.0
0
LINE
8
BLACK
10
45344.0
20
50677.0
11
45344.0
21
51507.0
0
LINE
8
BLACK
10
45344.0
20
51507.0
11
44868.0
21
51507.0
0
LINE
8
BLACK
10
44868.0
20
49105.0
11
44868.0
21
48275.0
0
LINE
8
BLACK
10
44868.0
20
48275.0
11
45344.0
21
48275.0
0
LINE
8
BLACK
10
45344.0
20
48275.0
11
45344.0
21
49105.0
0
LINE
8
BLACK
10
45344.0
20
49105.0
11
44868.0
21
49105.0
0
LINE
8
BLACK
10
45243.0
20
51507.0
11
45243.0
21
50677.0
0
LINE
8
BLACK
10
45243.0
20
50677.0
11
45559.0
21
50677.0
0
LINE
8
BLACK
10
45559.0
20
50677.0
11
45559.0
21
51507.0
0
LINE
8
BLACK
10
45559.0
20
51507.0
11
45243.0
21
51507.0
0
LINE
8
BLACK
10
45243.0
20
49105.0
11
45243.0
21
48275.0
0
LINE
8
BLACK
10
45243.0
20
48275.0
11
45559.0
21
48275.0
0
LINE
8
BLACK
10
45559.0
20
48275.0
11
45559.0
21
49105.0
0
LINE
8
BLACK
10
45559.0
20
49105.0
11
45243.0
21
49105.0
0
LINE
8
BLACK
10
45440.0
20
51507.0
11
45440.0
21
50677.0
0
LINE
8
BLACK
10
45440.0
20
50677.0
11
45756.0
21
50677.0
0
LINE
8
BLACK
10
45756.0
20
50677.0
11
45756.0
21
51507.0
0
LINE
8
BLACK
10
45756.0
20
51507.0
11
45440.0
21
51507.0
0
LINE
8
BLACK
10
45440.0
20
49105.0
11
45440.0
21
48275.0
0
LINE
8
BLACK
10
45440.0
20
48275.0
11
45756.0
21
48275.0
0
LINE
8
BLACK
10
45756.0
20
48275.0
11
45756.0
21
49105.0
0
LINE
8
BLACK
10
45756.0
20
49105.0
11
45440.0
21
49105.0
0
LINE
8
BLACK
10
45637.0
20
51507.0
11
45637.0
21
50677.0
0
LINE
8
BLACK
10
45637.0
20
50677.0
11
45953.0
21
50677.0
0
LINE
8
BLACK
10
45953.0
20
50677.0
11
45953.0
21
51507.0
0
LINE
8
BLACK
10
45953.0
20
51507.0
11
45637.0
21
51507.0
0
LINE
8
BLACK
10
45637.0
20
49105.0
11
45637.0
21
48275.0
0
LINE
8
BLACK
10
45637.0
20
48275.0
11
45953.0
21
48275.0
0
LINE
8
BLACK
10
45953.0
20
48275.0
11
45953.0
21
49105.0
0
LINE
8
BLACK
10
45953.0
20
49105.0
11
45637.0
21
49105.0
0
LINE
8
BLACK
10
45834.0
20
51507.0
11
45834.0
21
50677.0
0
LINE
8
BLACK
10
45834.0
20
50677.0
11
46150.0
21
50677.0
0
LINE
8
BLACK
10
46150.0
20
50677.0
11
46150.0
21
51507.0
0
LINE
8
BLACK
10
46150.0
20
51507.0
11
45834.0
21
51507.0
0
LINE
8
BLACK
10
45834.0
20
49105.0
11
45834.0
21
48275.0
0
LINE
8
BLACK
10
45834.0
20
48275.0
11
46150.0
21
48275.0
0
LINE
8
BLACK
10
46150.0
20
48275.0
11
46150.0
21
49105.0
0
LINE
8
BLACK
10
46150.0
20
49105.0
11
45834.0
21
49105.0
0
LINE
8
BLACK
10
46031.0
20
51507.0
11
46031.0
21
50677.0
0
LINE
8
BLACK
10
46031.0
20
50677.0
11
46347.0
21
50677.0
0
LINE
8
BLACK
10
46347.0
20
50677.0
11
46347.0
21
51507.0
0
LINE
8
BLACK
10
46347.0
20
51507.0
11
46031.0
21
51507.0
0
LINE
8
BLACK
10
46031.0
20
49105.0
11
46031.0
21
48275.0
0
LINE
8
BLACK
10
46031.0
20
48275.0
11
46347.0
21
48275.0
0
LINE
8
BLACK
10
46347.0
20
48275.0
11
46347.0
21
49105.0
0
LINE
8
BLACK
10
46347.0
20
49105.0
11
46031.0
21
49105.0
0
LINE
8
BLACK
10
46227.0
20
51507.0
11
46227.0
21
50677.0
0
LINE
8
BLACK
10
46227.0
20
50677.0
11
46543.0
21
50677.0
0
LINE
8
BLACK
10
46543.0
20
50677.0
11
46543.0
21
51507.0
0
LINE
8
BLACK
10
46543.0
20
51507.0
11
46227.0
21
51507.0
0
LINE
8
BLACK
10
46227.0
20
49105.0
11
46227.0
21
48275.0
0
LINE
8
BLACK
10
46227.0
20
48275.0
11
46543.0
21
48275.0
0
LINE
8
BLACK
10
46543.0
20
48275.0
11
46543.0
21
49105.0
0
LINE
8
BLACK
10
46543.0
20
49105.0
11
46227.0
21
49105.0
0
LINE
8
BLACK
10
46424.0
20
51507.0
11
46424.0
21
50677.0
0
LINE
8
BLACK
10
46424.0
20
50677.0
11
46740.0
21
50677.0
0
LINE
8
BLACK
10
46740.0
20
50677.0
11
46740.0
21
51507.0
0
LINE
8
BLACK
10
46740.0
20
51507.0
11
46424.0
21
51507.0
0
LINE
8
BLACK
10
46424.0
20
49105.0
11
46424.0
21
48275.0
0
LINE
8
BLACK
10
46424.0
20
48275.0
11
46740.0
21
48275.0
0
LINE
8
BLACK
10
46740.0
20
48275.0
11
46740.0
21
49105.0
0
LINE
8
BLACK
10
46740.0
20
49105.0
11
46424.0
21
49105.0
0
LINE
8
BLACK
10
46621.0
20
51507.0
11
46621.0
21
50677.0
0
LINE
8
BLACK
10
46621.0
20
50677.0
11
46937.0
21
50677.0
0
LINE
8
BLACK
10
46937.0
20
50677.0
11
46937.0
21
51507.0
0
LINE
8
BLACK
10
46937.0
20
51507.0
11
46621.0
21
51507.0
0
LINE
8
BLACK
10
46621.0
20
49105.0
11
46621.0
21
48275.0
0
LINE
8
BLACK
10
46621.0
20
48275.0
11
46937.0
21
48275.0
0
LINE
8
BLACK
10
46937.0
20
48275.0
11
46937.0
21
49105.0
0
LINE
8
BLACK
10
46937.0
20
49105.0
11
46621.0
21
49105.0
0
LINE
8
BLACK
10
50361.0
20
49105.0
11
50361.0
21
48275.0
0
LINE
8
BLACK
10
50361.0
20
48275.0
11
50677.0
21
48275.0
0
LINE
8
BLACK
10
50677.0
20
48275.0
11
50677.0
21
49105.0
0
LINE
8
BLACK
10
50677.0
20
49105.0
11
50361.0
21
49105.0
0
LINE
8
BLACK
10
50558.0
20
51507.0
11
50558.0
21
50677.0
0
LINE
8
BLACK
10
50558.0
20
50677.0
11
50874.0
21
50677.0
0
LINE
8
BLACK
10
50874.0
20
50677.0
11
50874.0
21
51507.0
0
LINE
8
BLACK
10
50874.0
20
51507.0
11
50558.0
21
51507.0
0
LINE
8
BLACK
10
50558.0
20
49105.0
11
50558.0
21
48275.0
0
LINE
8
BLACK
10
50558.0
20
48275.0
11
50874.0
21
48275.0
0
LINE
8
BLACK
10
50874.0
20
48275.0
11
50874.0
21
49105.0
0
LINE
8
BLACK
10
50874.0
20
49105.0
11
50558.0
21
49105.0
0
LINE
8
BLACK
10
50755.0
20
51507.0
11
50755.0
21
50677.0
0
LINE
8
BLACK
10
50755.0
20
50677.0
11
51071.0
21
50677.0
0
LINE
8
BLACK
10
51071.0
20
50677.0
11
51071.0
21
51507.0
0
LINE
8
BLACK
10
51071.0
20
51507.0
11
50755.0
21
51507.0
0
LINE
8
BLACK
10
50755.0
20
49105.0
11
50755.0
21
48275.0
0
LINE
8
BLACK
10
50755.0
20
48275.0
11
51071.0
21
48275.0
0
LINE
8
BLACK
10
51071.0
20
48275.0
11
51071.0
21
49105.0
0
LINE
8
BLACK
10
51071.0
20
49105.0
11
50755.0
21
49105.0
0
LINE
8
BLACK
10
50952.0
20
51507.0
11
50952.0
21
50677.0
0
LINE
8
BLACK
10
50952.0
20
50677.0
11
51268.0
21
50677.0
0
LINE
8
BLACK
10
51268.0
20
50677.0
11
51268.0
21
51507.0
0
LINE
8
BLACK
10
51268.0
20
51507.0
11
50952.0
21
51507.0
0
LINE
8
BLACK
10
50952.0
20
49105.0
11
50952.0
21
48275.0
0
LINE
8
BLACK
10
50952.0
20
48275.0
11
51268.0
21
48275.0
0
LINE
8
BLACK
10
51268.0
20
48275.0
11
51268.0
21
49105.0
0
LINE
8
BLACK
10
51268.0
20
49105.0
11
50952.0
21
49105.0
0
LINE
8
BLACK
10
51149.0
20
51507.0
11
51149.0
21
50677.0
0
LINE
8
BLACK
10
51149.0
20
50677.0
11
51465.0
21
50677.0
0
LINE
8
BLACK
10
51465.0
20
50677.0
11
51465.0
21
51507.0
0
LINE
8
BLACK
10
51465.0
20
51507.0
11
51149.0
21
51507.0
0
LINE
8
BLACK
10
51149.0
20
49105.0
11
51149.0
21
48275.0
0
LINE
8
BLACK
10
51149.0
20
48275.0
11
51465.0
21
48275.0
0
LINE
8
BLACK
10
51465.0
20
48275.0
11
51465.0
21
49105.0
0
LINE
8
BLACK
10
51465.0
20
49105.0
11
51149.0
21
49105.0
0
LINE
8
BLACK
10
51346.0
20
51507.0
11
51346.0
21
50677.0
0
LINE
8
BLACK
10
51346.0
20
50677.0
11
51662.0
21
50677.0
0
LINE
8
BLACK
10
51662.0
20
50677.0
11
51662.0
21
51507.0
0
LINE
8
BLACK
10
51662.0
20
51507.0
11
51346.0
21
51507.0
0
LINE
8
BLACK
10
51346.0
20
49105.0
11
51346.0
21
48275.0
0
LINE
8
BLACK
10
51346.0
20
48275.0
11
51662.0
21
48275.0
0
LINE
8
BLACK
10
51662.0
20
48275.0
11
51662.0
21
49105.0
0
LINE
8
BLACK
10
51662.0
20
49105.0
11
51346.0
21
49105.0
0
LINE
8
BLACK
10
51542.0
20
51507.0
11
51542.0
21
50677.0
0
LINE
8
BLACK
10
51542.0
20
50677.0
11
51858.0
21
50677.0
0
LINE
8
BLACK
10
51858.0
20
50677.0
11
51858.0
21
51507.0
0
LINE
8
BLACK
10
51858.0
20
51507.0
11
51542.0
21
51507.0
0
LINE
8
BLACK
10
51542.0
20
49105.0
11
51542.0
21
48275.0
0
LINE
8
BLACK
10
51542.0
20
48275.0
11
51858.0
21
48275.0
0
LINE
8
BLACK
10
51858.0
20
48275.0
11
51858.0
21
49105.0
0
LINE
8
BLACK
10
51858.0
20
49105.0
11
51542.0
21
49105.0
0
LINE
8
BLACK
10
51739.0
20
51507.0
11
51739.0
21
50677.0
0
LINE
8
BLACK
10
51739.0
20
50677.0
11
52055.0
21
50677.0
0
LINE
8
BLACK
10
52055.0
20
50677.0
11
52055.0
21
51507.0
0
LINE
8
BLACK
10
52055.0
20
51507.0
11
51739.0
21
51507.0
0
LINE
8
BLACK
10
51739.0
20
49105.0
11
51739.0
21
48275.0
0
LINE
8
BLACK
10
51739.0
20
48275.0
11
52055.0
21
48275.0
0
LINE
8
BLACK
10
52055.0
20
48275.0
11
52055.0
21
49105.0
0
LINE
8
BLACK
10
52055.0
20
49105.0
11
51739.0
21
49105.0
0
LINE
8
BLACK
10
51954.0
20
51507.0
11
51954.0
21
50677.0
0
LINE
8
BLACK
10
51954.0
20
50677.0
11
52430.0
21
50677.0
0
LINE
8
BLACK
10
52430.0
20
50677.0
11
52430.0
21
51507.0
0
LINE
8
BLACK
10
52430.0
20
51507.0
11
51954.0
21
51507.0
0
LINE
8
BLACK
10
51954.0
20
49105.0
11
51954.0
21
48275.0
0
LINE
8
BLACK
10
51954.0
20
48275.0
11
52430.0
21
48275.0
0
LINE
8
BLACK
10
52430.0
20
48275.0
11
52430.0
21
49105.0
0
LINE
8
BLACK
10
52430.0
20
49105.0
11
51954.0
21
49105.0
0
LINE
8
BLACK
10
52330.0
20
51507.0
11
52330.0
21
50677.0
0
LINE
8
BLACK
10
52330.0
20
50677.0
11
52646.0
21
50677.0
0
LINE
8
BLACK
10
52646.0
20
50677.0
11
52646.0
21
51507.0
0
LINE
8
BLACK
10
52646.0
20
51507.0
11
52330.0
21
51507.0
0
LINE
8
BLACK
10
52330.0
20
49105.0
11
52330.0
21
48275.0
0
LINE
8
BLACK
10
52330.0
20
48275.0
11
52646.0
21
48275.0
0
LINE
8
BLACK
10
52646.0
20
48275.0
11
52646.0
21
49105.0
0
LINE
8
BLACK
10
52646.0
20
49105.0
11
52330.0
21
49105.0
0
LINE
8
BLACK
10
52527.0
20
51507.0
11
52527.0
21
50677.0
0
LINE
8
BLACK
10
52527.0
20
50677.0
11
52843.0
21
50677.0
0
LINE
8
BLACK
10
52843.0
20
50677.0
11
52843.0
21
51507.0
0
LINE
8
BLACK
10
52843.0
20
51507.0
11
52527.0
21
51507.0
0
LINE
8
BLACK
10
52527.0
20
49105.0
11
52527.0
21
48275.0
0
LINE
8
BLACK
10
52527.0
20
48275.0
11
52843.0
21
48275.0
0
LINE
8
BLACK
10
52843.0
20
48275.0
11
52843.0
21
49105.0
0
LINE
8
BLACK
10
52843.0
20
49105.0
11
52527.0
21
49105.0
0
LINE
8
BLACK
10
52723.0
20
51507.0
11
52723.0
21
50677.0
0
LINE
8
BLACK
10
52723.0
20
50677.0
11
53039.0
21
50677.0
0
LINE
8
BLACK
10
53039.0
20
50677.0
11
53039.0
21
51507.0
0
LINE
8
BLACK
10
53039.0
20
51507.0
11
52723.0
21
51507.0
0
LINE
8
BLACK
10
52723.0
20
49105.0
11
52723.0
21
48275.0
0
LINE
8
BLACK
10
52723.0
20
48275.0
11
53039.0
21
48275.0
0
LINE
8
BLACK
10
53039.0
20
48275.0
11
53039.0
21
49105.0
0
LINE
8
BLACK
10
53039.0
20
49105.0
11
52723.0
21
49105.0
0
LINE
8
BLACK
10
52920.0
20
51507.0
11
52920.0
21
50677.0
0
LINE
8
BLACK
10
52920.0
20
50677.0
11
53236.0
21
50677.0
0
LINE
8
BLACK
10
53236.0
20
50677.0
11
53236.0
21
51507.0
0
LINE
8
BLACK
10
53236.0
20
51507.0
11
52920.0
21
51507.0
0
LINE
8
BLACK
10
52920.0
20
49105.0
11
52920.0
21
48275.0
0
LINE
8
BLACK
10
52920.0
20
48275.0
11
53236.0
21
48275.0
0
LINE
8
BLACK
10
53236.0
20
48275.0
11
53236.0
21
49105.0
0
LINE
8
BLACK
10
53236.0
20
49105.0
11
52920.0
21
49105.0
0
LINE
8
BLACK
10
53117.0
20
51507.0
11
53117.0
21
50677.0
0
LINE
8
BLACK
10
53117.0
20
50677.0
11
53433.0
21
50677.0
0
LINE
8
BLACK
10
53433.0
20
50677.0
11
53433.0
21
51507.0
0
LINE
8
BLACK
10
53433.0
20
51507.0
11
53117.0
21
51507.0
0
LINE
8
BLACK
10
53117.0
20
49105.0
11
53117.0
21
48275.0
0
LINE
8
BLACK
10
53117.0
20
48275.0
11
53433.0
21
48275.0
0
LINE
8
BLACK
10
53433.0
20
48275.0
11
53433.0
21
49105.0
0
LINE
8
BLACK
10
53433.0
20
49105.0
11
53117.0
21
49105.0
0
LINE
8
BLACK
10
53314.0
20
51507.0
11
53314.0
21
50677.0
0
LINE
8
BLACK
10
53314.0
20
50677.0
11
53630.0
21
50677.0
0
LINE
8
BLACK
10
53630.0
20
50677.0
11
53630.0
21
51507.0
0
LINE
8
BLACK
10
53630.0
20
51507.0
11
53314.0
21
51507.0
0
LINE
8
BLACK
10
53314.0
20
49105.0
11
53314.0
21
48275.0
0
LINE
8
BLACK
10
53314.0
20
48275.0
11
53630.0
21
48275.0
0
LINE
8
BLACK
10
53630.0
20
48275.0
11
53630.0
21
49105.0
0
LINE
8
BLACK
10
53630.0
20
49105.0
11
53314.0
21
49105.0
0
LINE
8
BLACK
10
53511.0
20
51507.0
11
53511.0
21
50677.0
0
LINE
8
BLACK
10
53511.0
20
50677.0
11
53827.0
21
50677.0
0
LINE
8
BLACK
10
53827.0
20
50677.0
11
53827.0
21
51507.0
0
LINE
8
BLACK
10
53827.0
20
51507.0
11
53511.0
21
51507.0
0
LINE
8
BLACK
10
53511.0
20
49105.0
11
53511.0
21
48275.0
0
LINE
8
BLACK
10
53511.0
20
48275.0
11
53827.0
21
48275.0
0
LINE
8
BLACK
10
53827.0
20
48275.0
11
53827.0
21
49105.0
0
LINE
8
BLACK
10
53827.0
20
49105.0
11
53511.0
21
49105.0
0
LINE
8
BLACK
10
53708.0
20
51507.0
11
53708.0
21
50677.0
0
LINE
8
BLACK
10
53708.0
20
50677.0
11
54024.0
21
50677.0
0
LINE
8
BLACK
10
54024.0
20
50677.0
11
54024.0
21
51507.0
0
LINE
8
BLACK
10
54024.0
20
51507.0
11
53708.0
21
51507.0
0
LINE
8
BLACK
10
53708.0
20
49105.0
11
53708.0
21
48275.0
0
LINE
8
BLACK
10
53708.0
20
48275.0
11
54024.0
21
48275.0
0
LINE
8
BLACK
10
54024.0
20
48275.0
11
54024.0
21
49105.0
0
LINE
8
BLACK
10
54024.0
20
49105.0
11
53708.0
21
49105.0
0
LINE
8
BLACK
10
53905.0
20
51507.0
11
53905.0
21
50677.0
0
LINE
8
BLACK
10
53905.0
20
50677.0
11
54221.0
21
50677.0
0
LINE
8
BLACK
10
54221.0
20
50677.0
11
54221.0
21
51507.0
0
LINE
8
BLACK
10
54221.0
20
51507.0
11
53905.0
21
51507.0
0
LINE
8
BLACK
10
53905.0
20
49105.0
11
53905.0
21
48275.0
0
LINE
8
BLACK
10
53905.0
20
48275.0
11
54221.0
21
48275.0
0
LINE
8
BLACK
10
54221.0
20
48275.0
11
54221.0
21
49105.0
0
LINE
8
BLACK
10
54221.0
20
49105.0
11
53905.0
21
49105.0
0
LINE
8
BLACK
10
54101.0
20
51507.0
11
54101.0
21
50677.0
0
LINE
8
BLACK
10
54101.0
20
50677.0
11
54417.0
21
50677.0
0
LINE
8
BLACK
10
54417.0
20
50677.0
11
54417.0
21
51507.0
0
LINE
8
BLACK
10
54417.0
20
51507.0
11
54101.0
21
51507.0
0
LINE
8
BLACK
10
54101.0
20
49105.0
11
54101.0
21
48275.0
0
LINE
8
BLACK
10
54101.0
20
48275.0
11
54417.0
21
48275.0
0
LINE
8
BLACK
10
54417.0
20
48275.0
11
54417.0
21
49105.0
0
LINE
8
BLACK
10
54417.0
20
49105.0
11
54101.0
21
49105.0
0
LINE
8
BLACK
10
54317.0
20
51507.0
11
54317.0
21
50677.0
0
LINE
8
BLACK
10
54317.0
20
50677.0
11
54793.0
21
50677.0
0
LINE
8
BLACK
10
54793.0
20
50677.0
11
54793.0
21
51507.0
0
LINE
8
BLACK
10
54793.0
20
51507.0
11
54317.0
21
51507.0
0
LINE
8
BLACK
10
54317.0
20
49105.0
11
54317.0
21
48275.0
0
LINE
8
BLACK
10
54317.0
20
48275.0
11
54793.0
21
48275.0
0
LINE
8
BLACK
10
54793.0
20
48275.0
11
54793.0
21
49105.0
0
LINE
8
BLACK
10
54793.0
20
49105.0
11
54317.0
21
49105.0
0
LINE
8
BLACK
10
54692.0
20
51507.0
11
54692.0
21
50677.0
0
LINE
8
BLACK
10
54692.0
20
50677.0
11
55008.0
21
50677.0
0
LINE
8
BLACK
10
55008.0
20
50677.0
11
55008.0
21
51507.0
0
LINE
8
BLACK
10
55008.0
20
51507.0
11
54692.0
21
51507.0
0
LINE
8
BLACK
10
54692.0
20
49105.0
11
54692.0
21
48275.0
0
LINE
8
BLACK
10
54692.0
20
48275.0
11
55008.0
21
48275.0
0
LINE
8
BLACK
10
55008.0
20
48275.0
11
55008.0
21
49105.0
0
LINE
8
BLACK
10
55008.0
20
49105.0
11
54692.0
21
49105.0
0
LINE
8
BLACK
10
54889.0
20
51507.0
11
54889.0
21
50677.0
0
LINE
8
BLACK
10
54889.0
20
50677.0
11
55205.0
21
50677.0
0
LINE
8
BLACK
10
55205.0
20
50677.0
11
55205.0
21
51507.0
0
LINE
8
BLACK
10
55205.0
20
51507.0
11
54889.0
21
51507.0
0
LINE
8
BLACK
10
54889.0
20
49105.0
11
54889.0
21
48275.0
0
LINE
8
BLACK
10
54889.0
20
48275.0
11
55205.0
21
48275.0
0
LINE
8
BLACK
10
55205.0
20
48275.0
11
55205.0
21
49105.0
0
LINE
8
BLACK
10
55205.0
20
49105.0
11
54889.0
21
49105.0
0
LINE
8
BLACK
10
55086.0
20
51507.0
11
55086.0
21
50677.0
0
LINE
8
BLACK
10
55086.0
20
50677.0
11
55402.0
21
50677.0
0
LINE
8
BLACK
10
55402.0
20
50677.0
11
55402.0
21
51507.0
0
LINE
8
BLACK
10
55402.0
20
51507.0
11
55086.0
21
51507.0
0
LINE
8
BLACK
10
55086.0
20
49105.0
11
55086.0
21
48275.0
0
LINE
8
BLACK
10
55086.0
20
48275.0
11
55402.0
21
48275.0
0
LINE
8
BLACK
10
55402.0
20
48275.0
11
55402.0
21
49105.0
0
LINE
8
BLACK
10
55402.0
20
49105.0
11
55086.0
21
49105.0
0
LINE
8
BLACK
10
55283.0
20
51507.0
11
55283.0
21
50677.0
0
LINE
8
BLACK
10
55283.0
20
50677.0
11
55599.0
21
50677.0
0
LINE
8
BLACK
10
55599.0
20
50677.0
11
55599.0
21
51507.0
0
LINE
8
BLACK
10
55599.0
20
51507.0
11
55283.0
21
51507.0
0
LINE
8
BLACK
10
55283.0
20
49105.0
11
55283.0
21
48275.0
0
LINE
8
BLACK
10
55283.0
20
48275.0
11
55599.0
21
48275.0
0
LINE
8
BLACK
10
55599.0
20
48275.0
11
55599.0
21
49105.0
0
LINE
8
BLACK
10
55599.0
20
49105.0
11
55283.0
21
49105.0
0
LINE
8
BLACK
10
55479.0
20
51507.0
11
55479.0
21
50677.0
0
LINE
8
BLACK
10
55479.0
20
50677.0
11
55795.0
21
50677.0
0
LINE
8
BLACK
10
55795.0
20
50677.0
11
55795.0
21
51507.0
0
LINE
8
BLACK
10
55795.0
20
51507.0
11
55479.0
21
51507.0
0
LINE
8
BLACK
10
55479.0
20
49105.0
11
55479.0
21
48275.0
0
LINE
8
BLACK
10
55479.0
20
48275.0
11
55795.0
21
48275.0
0
LINE
8
BLACK
10
55795.0
20
48275.0
11
55795.0
21
49105.0
0
LINE
8
BLACK
10
55795.0
20
49105.0
11
55479.0
21
49105.0
0
LINE
8
BLACK
10
46818.0
20
51507.0
11
46818.0
21
50677.0
0
LINE
8
BLACK
10
46818.0
20
50677.0
11
47134.0
21
50677.0
0
LINE
8
BLACK
10
47134.0
20
50677.0
11
47134.0
21
51507.0
0
LINE
8
BLACK
10
47134.0
20
51507.0
11
46818.0
21
51507.0
0
LINE
8
BLACK
10
46818.0
20
49105.0
11
46818.0
21
48275.0
0
LINE
8
BLACK
10
46818.0
20
48275.0
11
47134.0
21
48275.0
0
LINE
8
BLACK
10
47134.0
20
48275.0
11
47134.0
21
49105.0
0
LINE
8
BLACK
10
47134.0
20
49105.0
11
46818.0
21
49105.0
0
LINE
8
BLACK
10
47015.0
20
51507.0
11
47015.0
21
50677.0
0
LINE
8
BLACK
10
47015.0
20
50677.0
11
47331.0
21
50677.0
0
LINE
8
BLACK
10
47331.0
20
50677.0
11
47331.0
21
51507.0
0
LINE
8
BLACK
10
47331.0
20
51507.0
11
47015.0
21
51507.0
0
LINE
8
BLACK
10
47015.0
20
49105.0
11
47015.0
21
48275.0
0
LINE
8
BLACK
10
47015.0
20
48275.0
11
47331.0
21
48275.0
0
LINE
8
BLACK
10
47331.0
20
48275.0
11
47331.0
21
49105.0
0
LINE
8
BLACK
10
47331.0
20
49105.0
11
47015.0
21
49105.0
0
LINE
8
BLACK
10
47230.0
20
51507.0
11
47230.0
21
50677.0
0
LINE
8
BLACK
10
47230.0
20
50677.0
11
47706.0
21
50677.0
0
LINE
8
BLACK
10
47706.0
20
50677.0
11
47706.0
21
51507.0
0
LINE
8
BLACK
10
47706.0
20
51507.0
11
47230.0
21
51507.0
0
LINE
8
BLACK
10
47230.0
20
49105.0
11
47230.0
21
48275.0
0
LINE
8
BLACK
10
47230.0
20
48275.0
11
47706.0
21
48275.0
0
LINE
8
BLACK
10
47706.0
20
48275.0
11
47706.0
21
49105.0
0
LINE
8
BLACK
10
47706.0
20
49105.0
11
47230.0
21
49105.0
0
LINE
8
BLACK
10
47605.0
20
51507.0
11
47605.0
21
50677.0
0
LINE
8
BLACK
10
47605.0
20
50677.0
11
47921.0
21
50677.0
0
LINE
8
BLACK
10
47921.0
20
50677.0
11
47921.0
21
51507.0
0
LINE
8
BLACK
10
47921.0
20
51507.0
11
47605.0
21
51507.0
0
LINE
8
BLACK
10
47605.0
20
49105.0
11
47605.0
21
48275.0
0
LINE
8
BLACK
10
47605.0
20
48275.0
11
47921.0
21
48275.0
0
LINE
8
BLACK
10
47921.0
20
48275.0
11
47921.0
21
49105.0
0
LINE
8
BLACK
10
47921.0
20
49105.0
11
47605.0
21
49105.0
0
LINE
8
BLACK
10
47802.0
20
51507.0
11
47802.0
21
50677.0
0
LINE
8
BLACK
10
47802.0
20
50677.0
11
48118.0
21
50677.0
0
LINE
8
BLACK
10
48118.0
20
50677.0
11
48118.0
21
51507.0
0
LINE
8
BLACK
10
48118.0
20
51507.0
11
47802.0
21
51507.0
0
LINE
8
BLACK
10
47802.0
20
49105.0
11
47802.0
21
48275.0
0
LINE
8
BLACK
10
47802.0
20
48275.0
11
48118.0
21
48275.0
0
LINE
8
BLACK
10
48118.0
20
48275.0
11
48118.0
21
49105.0
0
LINE
8
BLACK
10
48118.0
20
49105.0
11
47802.0
21
49105.0
0
LINE
8
BLACK
10
47999.0
20
51507.0
11
47999.0
21
50677.0
0
LINE
8
BLACK
10
47999.0
20
50677.0
11
48315.0
21
50677.0
0
LINE
8
BLACK
10
48315.0
20
50677.0
11
48315.0
21
51507.0
0
LINE
8
BLACK
10
48315.0
20
51507.0
11
47999.0
21
51507.0
0
LINE
8
BLACK
10
47999.0
20
49105.0
11
47999.0
21
48275.0
0
LINE
8
BLACK
10
47999.0
20
48275.0
11
48315.0
21
48275.0
0
LINE
8
BLACK
10
48315.0
20
48275.0
11
48315.0
21
49105.0
0
LINE
8
BLACK
10
48315.0
20
49105.0
11
47999.0
21
49105.0
0
LINE
8
BLACK
10
48196.0
20
51507.0
11
48196.0
21
50677.0
0
LINE
8
BLACK
10
48196.0
20
50677.0
11
48512.0
21
50677.0
0
LINE
8
BLACK
10
48512.0
20
50677.0
11
48512.0
21
51507.0
0
LINE
8
BLACK
10
48512.0
20
51507.0
11
48196.0
21
51507.0
0
LINE
8
BLACK
10
48196.0
20
49105.0
11
48196.0
21
48275.0
0
LINE
8
BLACK
10
48196.0
20
48275.0
11
48512.0
21
48275.0
0
LINE
8
BLACK
10
48512.0
20
48275.0
11
48512.0
21
49105.0
0
LINE
8
BLACK
10
48512.0
20
49105.0
11
48196.0
21
49105.0
0
LINE
8
BLACK
10
48393.0
20
51507.0
11
48393.0
21
50677.0
0
LINE
8
BLACK
10
48393.0
20
50677.0
11
48709.0
21
50677.0
0
LINE
8
BLACK
10
48709.0
20
50677.0
11
48709.0
21
51507.0
0
LINE
8
BLACK
10
48709.0
20
51507.0
11
48393.0
21
51507.0
0
LINE
8
BLACK
10
48393.0
20
49105.0
11
48393.0
21
48275.0
0
LINE
8
BLACK
10
48393.0
20
48275.0
11
48709.0
21
48275.0
0
LINE
8
BLACK
10
48709.0
20
48275.0
11
48709.0
21
49105.0
0
LINE
8
BLACK
10
48709.0
20
49105.0
11
48393.0
21
49105.0
0
LINE
8
BLACK
10
48590.0
20
51507.0
11
48590.0
21
50677.0
0
LINE
8
BLACK
10
48590.0
20
50677.0
11
48906.0
21
50677.0
0
LINE
8
BLACK
10
48906.0
20
50677.0
11
48906.0
21
51507.0
0
LINE
8
BLACK
10
48906.0
20
51507.0
11
48590.0
21
51507.0
0
LINE
8
BLACK
10
48590.0
20
49105.0
11
48590.0
21
48275.0
0
LINE
8
BLACK
10
48590.0
20
48275.0
11
48906.0
21
48275.0
0
LINE
8
BLACK
10
48906.0
20
48275.0
11
48906.0
21
49105.0
0
LINE
8
BLACK
10
48906.0
20
49105.0
11
48590.0
21
49105.0
0
LINE
8
BLACK
10
48786.0
20
49105.0
11
48786.0
21
48275.0
0
LINE
8
BLACK
10
48786.0
20
48275.0
11
49102.0
21
48275.0
0
LINE
8
BLACK
10
49102.0
20
48275.0
11
49102.0
21
49105.0
0
LINE
8
BLACK
10
49102.0
20
49105.0
11
48786.0
21
49105.0
0
LINE
8
BLACK
10
48983.0
20
51507.0
11
48983.0
21
50677.0
0
LINE
8
BLACK
10
48983.0
20
50677.0
11
49299.0
21
50677.0
0
LINE
8
BLACK
10
49299.0
20
50677.0
11
49299.0
21
51507.0
0
LINE
8
BLACK
10
49299.0
20
51507.0
11
48983.0
21
51507.0
0
LINE
8
BLACK
10
48983.0
20
49105.0
11
48983.0
21
48275.0
0
LINE
8
BLACK
10
48983.0
20
48275.0
11
49299.0
21
48275.0
0
LINE
8
BLACK
10
49299.0
20
48275.0
11
49299.0
21
49105.0
0
LINE
8
BLACK
10
49299.0
20
49105.0
11
48983.0
21
49105.0
0
LINE
8
BLACK
10
49180.0
20
51507.0
11
49180.0
21
50677.0
0
LINE
8
BLACK
10
49180.0
20
50677.0
11
49496.0
21
50677.0
0
LINE
8
BLACK
10
49496.0
20
50677.0
11
49496.0
21
51507.0
0
LINE
8
BLACK
10
49496.0
20
51507.0
11
49180.0
21
51507.0
0
LINE
8
BLACK
10
49180.0
20
49105.0
11
49180.0
21
48275.0
0
LINE
8
BLACK
10
49180.0
20
48275.0
11
49496.0
21
48275.0
0
LINE
8
BLACK
10
49496.0
20
48275.0
11
49496.0
21
49105.0
0
LINE
8
BLACK
10
49496.0
20
49105.0
11
49180.0
21
49105.0
0
LINE
8
BLACK
10
49377.0
20
51507.0
11
49377.0
21
50677.0
0
LINE
8
BLACK
10
49377.0
20
50677.0
11
49693.0
21
50677.0
0
LINE
8
BLACK
10
49693.0
20
50677.0
11
49693.0
21
51507.0
0
LINE
8
BLACK
10
49693.0
20
51507.0
11
49377.0
21
51507.0
0
LINE
8
BLACK
10
49377.0
20
49105.0
11
49377.0
21
48275.0
0
LINE
8
BLACK
10
49377.0
20
48275.0
11
49693.0
21
48275.0
0
LINE
8
BLACK
10
49693.0
20
48275.0
11
49693.0
21
49105.0
0
LINE
8
BLACK
10
49693.0
20
49105.0
11
49377.0
21
49105.0
0
LINE
8
BLACK
10
49592.0
20
51507.0
11
49592.0
21
50677.0
0
LINE
8
BLACK
10
49592.0
20
50677.0
11
50068.0
21
50677.0
0
LINE
8
BLACK
10
50068.0
20
50677.0
11
50068.0
21
51507.0
0
LINE
8
BLACK
10
50068.0
20
51507.0
11
49592.0
21
51507.0
0
LINE
8
BLACK
10
49592.0
20
49105.0
11
49592.0
21
48275.0
0
LINE
8
BLACK
10
49592.0
20
48275.0
11
50068.0
21
48275.0
0
LINE
8
BLACK
10
50068.0
20
48275.0
11
50068.0
21
49105.0
0
LINE
8
BLACK
10
50068.0
20
49105.0
11
49592.0
21
49105.0
0
LINE
8
BLACK
10
49968.0
20
51507.0
11
49968.0
21
50677.0
0
LINE
8
BLACK
10
49968.0
20
50677.0
11
50284.0
21
50677.0
0
LINE
8
BLACK
10
50284.0
20
50677.0
11
50284.0
21
51507.0
0
LINE
8
BLACK
10
50284.0
20
51507.0
11
49968.0
21
51507.0
0
LINE
8
BLACK
10
49968.0
20
49105.0
11
49968.0
21
48275.0
0
LINE
8
BLACK
10
49968.0
20
48275.0
11
50284.0
21
48275.0
0
LINE
8
BLACK
10
50284.0
20
48275.0
11
50284.0
21
49105.0
0
LINE
8
BLACK
10
50284.0
20
49105.0
11
49968.0
21
49105.0
0
LINE
8
BLACK
10
50164.0
20
51507.0
11
50164.0
21
50677.0
0
LINE
8
BLACK
10
50164.0
20
50677.0
11
50480.0
21
50677.0
0
LINE
8
BLACK
10
50480.0
20
50677.0
11
50480.0
21
51507.0
0
LINE
8
BLACK
10
50480.0
20
51507.0
11
50164.0
21
51507.0
0
LINE
8
BLACK
10
50164.0
20
49105.0
11
50164.0
21
48275.0
0
LINE
8
BLACK
10
50164.0
20
48275.0
11
50480.0
21
48275.0
0
LINE
8
BLACK
10
50480.0
20
48275.0
11
50480.0
21
49105.0
0
LINE
8
BLACK
10
50480.0
20
49105.0
11
50164.0
21
49105.0
0
LINE
8
BLACK
10
50361.0
20
51507.0
11
50361.0
21
50677.0
0
LINE
8
BLACK
10
50361.0
20
50677.0
11
50677.0
21
50677.0
0
LINE
8
BLACK
10
50677.0
20
50677.0
11
50677.0
21
51507.0
0
LINE
8
BLACK
10
50677.0
20
51507.0
11
50361.0
21
51507.0
0
LINE
8
BLACK
10
48786.0
20
51507.0
11
48786.0
21
50677.0
0
LINE
8
BLACK
10
48786.0
20
50677.0
11
49102.0
21
50677.0
0
LINE
8
BLACK
10
49102.0
20
50677.0
11
49102.0
21
51507.0
0
LINE
8
BLACK
10
49102.0
20
51507.0
11
48786.0
21
51507.0
0
CIRCLE
8
BLACK
10
40992.0
20
49891.0
40
336
0
CIRCLE
8
BLACK
10
56307.0
20
49891.0
40
336
0
LINE
8
BLACK
10
56482.0
20
50660.0
11
56482.0
21
49122.0
0
LINE
8
BLACK
10
56482.0
20
49122.0
11
57312.0
21
49122.0
0
LINE
8
BLACK
10
57312.0
20
49122.0
11
57312.0
21
50660.0
0
LINE
8
BLACK
10
57312.0
20
50660.0
11
56482.0
21
50660.0
0
LINE
8
BLACK
10
39986.0
20
50660.0
11
39986.0
21
49122.0
0
LINE
8
BLACK
10
39986.0
20
49122.0
11
40816.0
21
49122.0
0
LINE
8
BLACK
10
40816.0
20
49122.0
11
40816.0
21
50660.0
0
LINE
8
BLACK
10
40816.0
20
50660.0
11
39986.0
21
50660.0
0
CIRCLE
8
BLACK
10
59795.0
20
26264.0
40
493
0
CIRCLE
8
BLACK
10
58220.0
20
26264.0
40
493
0
CIRCLE
8
BLACK
10
56645.0
20
26264.0
40
493
0
CIRCLE
8
BLACK
10
55070.0
20
26264.0
40
493
0
CIRCLE
8
BLACK
10
53496.0
20
26264.0
40
493
0
CIRCLE
8
BLACK
10
51921.0
20
26264.0
40
493
0
CIRCLE
8
BLACK
10
51921.0
20
36501.0
40
493
0
CIRCLE
8
BLACK
10
53496.0
20
36501.0
40
493
0
CIRCLE
8
BLACK
10
55070.0
20
36501.0
40
493
0
CIRCLE
8
BLACK
10
56645.0
20
36501.0
40
493
0
CIRCLE
8
BLACK
10
58220.0
20
36501.0
40
493
0
CIRCLE
8
BLACK
10
59795.0
20
36501.0
40
493
0
CIRCLE
8
BLACK
10
80433.0
20
22237.0
40
257
0
CIRCLE
8
BLACK
10
44724.0
20
60229.0
40
257
0
CIRCLE
8
BLACK
10
48898.0
20
60702.0
40
257
0
CIRCLE
8
BLACK
10
61378.0
20
65052.0
40
257
0
CIRCLE
8
BLACK
10
56201.0
20
63457.0
40
257
0
CIRCLE
8
BLACK
10
65472.0
20
65072.0
40
257
0
CIRCLE
8
BLACK
10
37953.0
20
55642.0
40
257
0
CIRCLE
8
BLACK
10
57008.0
20
58733.0
40
257
0
CIRCLE
8
BLACK
10
65846.0
20
61784.0
40
257
0
CIRCLE
8
BLACK
10
65059.0
20
68595.0
40
257
0
CIRCLE
8
BLACK
10
32539.0
20
61450.0
40
257
0
CIRCLE
8
BLACK
10
51614.0
20
70170.0
40
257
0
CIRCLE
8
BLACK
10
51142.0
20
47611.0
40
257
0
CIRCLE
8
BLACK
10
41634.0
20
47020.0
40
257
0
CIRCLE
8
BLACK
10
54212.0
20
43654.0
40
257
0
CIRCLE
8
BLACK
10
51527.0
20
22414.0
40
257
0
CIRCLE
8
BLACK
10
53779.0
20
43654.0
40
257
0
CIRCLE
8
BLACK
10
55527.0
20
22442.0
40
257
0
CIRCLE
8
BLACK
10
56358.0
20
22446.0
40
257
0
CIRCLE
8
BLACK
10
50020.0
20
67001.0
40
257
0
CIRCLE
8
BLACK
10
49764.0
20
62670.0
40
257
0
CIRCLE
8
BLACK
10
39606.0
20
31253.0
40
257
0
CIRCLE
8
BLACK
10
91319.0
20
41568.0
40
257
0
CIRCLE
8
BLACK
10
78189.0
20
39599.0
40
257
0
CIRCLE
8
BLACK
10
68228.0
20
63851.0
40
257
0
CIRCLE
8
BLACK
10
69646.0
20
67276.0
40
257
0
CIRCLE
8
BLACK
10
60197.0
20
63615.0
40
257
0
CIRCLE
8
BLACK
10
47146.0
20
61391.0
40
257
0
CIRCLE
8
BLACK
10
59961.0
20
66686.0
40
257
0
CIRCLE
8
BLACK
10
54527.0
20
47001.0
40
257
0
CIRCLE
8
BLACK
10
46842.0
20
58347.0
40
257
0
CIRCLE
8
BLACK
10
47673.0
20
59497.0
40
257
0
CIRCLE
8
BLACK
10
44291.0
20
50387.0
40
257
0
CIRCLE
8
BLACK
10
44291.0
20
46843.0
40
257
0
CIRCLE
8
BLACK
10
77323.0
20
27119.0
40
257
0
CIRCLE
8
BLACK
10
78149.0
20
32473.0
40
257
0
CIRCLE
8
BLACK
10
78110.0
20
44520.0
40
257
0
CIRCLE
8
BLACK
10
78346.0
20
62946.0
40
257
0
CIRCLE
8
BLACK
10
77756.0
20
50702.0
40
257
0
CIRCLE
8
BLACK
10
78937.0
20
24009.0
40
257
0
CIRCLE
8
BLACK
10
59744.0
20
71489.0
40
257
0
CIRCLE
8
BLACK
10
58425.0
20
70603.0
40
257
0
CIRCLE
8
BLACK
10
55157.0
20
69855.0
40
257
0
CIRCLE
8
BLACK
10
55610.0
20
71410.0
40
257
0
CIRCLE
8
BLACK
10
71240.0
20
68772.0
40
257
0
CIRCLE
8
BLACK
10
61398.0
20
61489.0
40
257
0
CIRCLE
8
BLACK
10
64862.0
20
70741.0
40
257
0
CIRCLE
8
BLACK
10
67283.0
20
70977.0
40
257
0
CIRCLE
8
BLACK
10
71378.0
20
67453.0
40
257
0
CIRCLE
8
BLACK
10
54783.0
20
61312.0
40
257
0
CIRCLE
8
BLACK
10
71220.0
20
70111.0
40
257
0
CIRCLE
8
BLACK
10
64134.0
20
61312.0
40
257
0
CIRCLE
8
BLACK
10
71437.0
20
66351.0
40
257
0
CIRCLE
8
BLACK
10
53307.0
20
61115.0
40
257
0
ENDSEC
0
EOF
