G04 (created by PCBNEW-RS274X (2010-00-09 BZR 23xx)-stable) date lun. 23 mai 2011 13:31:12 ICT*
G01*
G70*
G90*
%MOIN*%
G04 Gerber Fmt 3.4, Leading zero omitted, Abs format*
%FSLAX34Y34*%
G04 APERTURE LIST*
%ADD10C,0.006000*%
%ADD11C,0.012000*%
%ADD12C,0.015000*%
%ADD13C,0.003900*%
%ADD14C,0.007900*%
%ADD15C,0.005000*%
%ADD16C,0.008000*%
%ADD17C,0.004500*%
%ADD18C,0.007500*%
G04 APERTURE END LIST*
G54D10*
G54D11*
X16485Y-54112D02*
X16600Y-54112D01*
X16657Y-54074D01*
X16685Y-54036D01*
X16743Y-53921D01*
X16771Y-53769D01*
X16771Y-53464D01*
X16743Y-53388D01*
X16714Y-53350D01*
X16657Y-53312D01*
X16543Y-53312D01*
X16485Y-53350D01*
X16457Y-53388D01*
X16428Y-53464D01*
X16428Y-53655D01*
X16457Y-53731D01*
X16485Y-53769D01*
X16543Y-53807D01*
X16657Y-53807D01*
X16714Y-53769D01*
X16743Y-53731D01*
X16771Y-53655D01*
X17342Y-54112D02*
X16999Y-54112D01*
X17171Y-54112D02*
X17171Y-53312D01*
X17114Y-53426D01*
X17056Y-53502D01*
X16999Y-53540D01*
X18056Y-54112D02*
X18056Y-53578D01*
X18056Y-53655D02*
X18084Y-53617D01*
X18142Y-53578D01*
X18227Y-53578D01*
X18284Y-53617D01*
X18313Y-53693D01*
X18313Y-54112D01*
X18313Y-53693D02*
X18342Y-53617D01*
X18399Y-53578D01*
X18484Y-53578D01*
X18542Y-53617D01*
X18570Y-53693D01*
X18570Y-54112D01*
X18856Y-54112D02*
X18856Y-53578D01*
X18856Y-53655D02*
X18884Y-53617D01*
X18942Y-53578D01*
X19027Y-53578D01*
X19084Y-53617D01*
X19113Y-53693D01*
X19113Y-54112D01*
X19113Y-53693D02*
X19142Y-53617D01*
X19199Y-53578D01*
X19284Y-53578D01*
X19342Y-53617D01*
X19370Y-53693D01*
X19370Y-54112D01*
X00000Y-53148D02*
X35827Y-53148D01*
X00000Y-52362D02*
X00000Y-54428D01*
X35827Y-52362D02*
X35827Y-54428D01*
X35827Y-53148D02*
X35384Y-53378D01*
X35827Y-53148D02*
X35384Y-52918D01*
X00000Y-53148D02*
X00443Y-53378D01*
X00000Y-53148D02*
X00443Y-52918D01*
X-01890Y-27412D02*
X-01890Y-27755D01*
X-01890Y-27583D02*
X-02690Y-27583D01*
X-02576Y-27640D01*
X-02500Y-27698D01*
X-02462Y-27755D01*
X-02690Y-27212D02*
X-02690Y-26841D01*
X-02385Y-27041D01*
X-02385Y-26955D01*
X-02347Y-26898D01*
X-02309Y-26869D01*
X-02233Y-26841D01*
X-02043Y-26841D01*
X-01966Y-26869D01*
X-01928Y-26898D01*
X-01890Y-26955D01*
X-01890Y-27127D01*
X-01928Y-27184D01*
X-01966Y-27212D01*
X-02614Y-26613D02*
X-02652Y-26584D01*
X-02690Y-26527D01*
X-02690Y-26384D01*
X-02652Y-26327D01*
X-02614Y-26298D01*
X-02538Y-26270D01*
X-02462Y-26270D01*
X-02347Y-26298D01*
X-01890Y-26641D01*
X-01890Y-26270D01*
X-01890Y-25556D02*
X-02424Y-25556D01*
X-02347Y-25556D02*
X-02385Y-25528D01*
X-02424Y-25470D01*
X-02424Y-25385D01*
X-02385Y-25328D01*
X-02309Y-25299D01*
X-01890Y-25299D01*
X-02309Y-25299D02*
X-02385Y-25270D01*
X-02424Y-25213D01*
X-02424Y-25128D01*
X-02385Y-25070D01*
X-02309Y-25042D01*
X-01890Y-25042D01*
X-01890Y-24756D02*
X-02424Y-24756D01*
X-02347Y-24756D02*
X-02385Y-24728D01*
X-02424Y-24670D01*
X-02424Y-24585D01*
X-02385Y-24528D01*
X-02309Y-24499D01*
X-01890Y-24499D01*
X-02309Y-24499D02*
X-02385Y-24470D01*
X-02424Y-24413D01*
X-02424Y-24328D01*
X-02385Y-24270D01*
X-02309Y-24242D01*
X-01890Y-24242D01*
X-01574Y-51968D02*
X-01574Y00000D01*
X-00393Y-51968D02*
X-02854Y-51968D01*
X-00393Y00000D02*
X-02854Y00000D01*
X-01574Y00000D02*
X-01344Y-00443D01*
X-01574Y00000D02*
X-01804Y-00443D01*
X-01574Y-51968D02*
X-01344Y-51525D01*
X-01574Y-51968D02*
X-01804Y-51525D01*
G54D12*
X00000Y00000D02*
X35827Y00000D01*
X00000Y-51968D02*
X00000Y00000D01*
X35827Y-51968D02*
X00000Y-51968D01*
X35827Y00000D02*
X35827Y-51968D01*
G54D13*
X03327Y-12834D02*
X03327Y-15708D01*
X00296Y-12834D02*
X03327Y-12834D01*
X00296Y-15708D02*
X00296Y-12834D01*
X01870Y-12834D02*
X01870Y-15708D01*
X03129Y-25689D02*
X03168Y-25702D01*
X03234Y-25702D01*
X03260Y-25689D01*
X03273Y-25675D01*
X03286Y-25649D01*
X03286Y-25623D01*
X03273Y-25597D01*
X03260Y-25583D01*
X03234Y-25570D01*
X03181Y-25557D01*
X03155Y-25544D01*
X03142Y-25531D01*
X03129Y-25505D01*
X03129Y-25478D01*
X03142Y-25452D01*
X03155Y-25439D01*
X03181Y-25426D01*
X03247Y-25426D01*
X03286Y-25439D01*
X03510Y-25689D02*
X03484Y-25702D01*
X03431Y-25702D01*
X03405Y-25689D01*
X03392Y-25662D01*
X03392Y-25557D01*
X03405Y-25531D01*
X03431Y-25518D01*
X03484Y-25518D01*
X03510Y-25531D01*
X03523Y-25557D01*
X03523Y-25583D01*
X03392Y-25610D01*
X03681Y-25702D02*
X03655Y-25689D01*
X03642Y-25662D01*
X03642Y-25426D01*
X03984Y-25623D02*
X04115Y-25623D01*
X03957Y-25702D02*
X04049Y-25426D01*
X04141Y-25702D01*
X04352Y-25702D02*
X04352Y-25426D01*
X04352Y-25689D02*
X04326Y-25702D01*
X04273Y-25702D01*
X04247Y-25689D01*
X04234Y-25675D01*
X04221Y-25649D01*
X04221Y-25570D01*
X04234Y-25544D01*
X04247Y-25531D01*
X04273Y-25518D01*
X04326Y-25518D01*
X04352Y-25531D01*
X04602Y-25702D02*
X04602Y-25426D01*
X04602Y-25689D02*
X04576Y-25702D01*
X04523Y-25702D01*
X04497Y-25689D01*
X04484Y-25675D01*
X04471Y-25649D01*
X04471Y-25570D01*
X04484Y-25544D01*
X04497Y-25531D01*
X04523Y-25518D01*
X04576Y-25518D01*
X04602Y-25531D01*
X04734Y-25675D02*
X04747Y-25689D01*
X04734Y-25702D01*
X04721Y-25689D01*
X04734Y-25675D01*
X04734Y-25702D01*
X20670Y-15157D02*
X13386Y-15157D01*
X20670Y-17716D02*
X20670Y-15157D01*
X12402Y-17716D02*
X20670Y-17716D01*
X12402Y-16535D02*
X12402Y-17716D01*
X08503Y-13786D02*
X08713Y-13786D01*
X08608Y-13891D02*
X08608Y-13680D01*
X08818Y-13615D02*
X08989Y-13615D01*
X08897Y-13720D01*
X08937Y-13720D01*
X08963Y-13733D01*
X08976Y-13746D01*
X08989Y-13772D01*
X08989Y-13838D01*
X08976Y-13864D01*
X08963Y-13878D01*
X08937Y-13891D01*
X08858Y-13891D01*
X08832Y-13878D01*
X08818Y-13864D01*
X09108Y-13864D02*
X09121Y-13878D01*
X09108Y-13891D01*
X09095Y-13878D01*
X09108Y-13864D01*
X09108Y-13891D01*
X09212Y-13615D02*
X09383Y-13615D01*
X09291Y-13720D01*
X09331Y-13720D01*
X09357Y-13733D01*
X09370Y-13746D01*
X09383Y-13772D01*
X09383Y-13838D01*
X09370Y-13864D01*
X09357Y-13878D01*
X09331Y-13891D01*
X09252Y-13891D01*
X09226Y-13878D01*
X09212Y-13864D01*
X09462Y-13615D02*
X09554Y-13891D01*
X09646Y-13615D01*
X09449Y-14173D02*
X09252Y-14173D01*
X09252Y-13976D02*
X09449Y-14173D01*
X09055Y-14173D02*
X09252Y-13976D01*
X09252Y-14173D02*
X09055Y-14173D01*
X09252Y-14370D02*
X09252Y-14173D01*
X09843Y-14370D02*
X09252Y-14370D01*
X13977Y-14567D02*
X13781Y-14763D01*
X13584Y-14763D02*
X13780Y-14567D01*
X13387Y-14763D02*
X13583Y-14567D01*
X13386Y-14567D02*
X13583Y-14567D01*
X13190Y-14763D02*
X13386Y-14567D01*
X13977Y-14567D02*
X13189Y-14567D01*
X13583Y-14370D02*
X13583Y-14567D01*
X12992Y-14370D02*
X13583Y-14370D01*
X10246Y-16300D02*
X10246Y-15906D01*
X10377Y-16188D01*
X10508Y-15906D01*
X10508Y-16300D01*
X10677Y-16188D02*
X10865Y-16188D01*
X10640Y-16300D02*
X10771Y-15906D01*
X10902Y-16300D01*
X11259Y-16263D02*
X11240Y-16282D01*
X11184Y-16300D01*
X11146Y-16300D01*
X11090Y-16282D01*
X11053Y-16244D01*
X11034Y-16207D01*
X11015Y-16132D01*
X11015Y-16075D01*
X11034Y-16000D01*
X11053Y-15963D01*
X11090Y-15925D01*
X11146Y-15906D01*
X11184Y-15906D01*
X11240Y-15925D01*
X11259Y-15944D01*
X11709Y-16188D02*
X11897Y-16188D01*
X11672Y-16300D02*
X11803Y-15906D01*
X11934Y-16300D01*
X12235Y-16300D02*
X12235Y-15906D01*
X12235Y-16282D02*
X12197Y-16300D01*
X12122Y-16300D01*
X12085Y-16282D01*
X12066Y-16263D01*
X12047Y-16225D01*
X12047Y-16113D01*
X12066Y-16075D01*
X12085Y-16057D01*
X12122Y-16038D01*
X12197Y-16038D01*
X12235Y-16057D01*
X12591Y-16300D02*
X12591Y-15906D01*
X12591Y-16282D02*
X12553Y-16300D01*
X12478Y-16300D01*
X12441Y-16282D01*
X12422Y-16263D01*
X12403Y-16225D01*
X12403Y-16113D01*
X12422Y-16075D01*
X12441Y-16057D01*
X12478Y-16038D01*
X12553Y-16038D01*
X12591Y-16057D01*
X09843Y-16338D02*
X09843Y-12598D01*
X12992Y-16338D02*
X09843Y-16338D01*
X12992Y-12598D02*
X12992Y-16338D01*
X09843Y-12598D02*
X12992Y-12598D01*
G54D14*
X09739Y-29883D02*
X09608Y-29696D01*
X09514Y-29883D02*
X09514Y-29489D01*
X09664Y-29489D01*
X09701Y-29508D01*
X09720Y-29527D01*
X09739Y-29565D01*
X09739Y-29621D01*
X09720Y-29658D01*
X09701Y-29677D01*
X09664Y-29696D01*
X09514Y-29696D01*
X09908Y-29883D02*
X09908Y-29489D01*
X10002Y-29489D01*
X10058Y-29508D01*
X10095Y-29546D01*
X10114Y-29583D01*
X10133Y-29658D01*
X10133Y-29715D01*
X10114Y-29790D01*
X10095Y-29827D01*
X10058Y-29865D01*
X10002Y-29883D01*
X09908Y-29883D01*
X10377Y-29489D02*
X10414Y-29489D01*
X10452Y-29508D01*
X10471Y-29527D01*
X10489Y-29565D01*
X10508Y-29640D01*
X10508Y-29733D01*
X10489Y-29808D01*
X10471Y-29846D01*
X10452Y-29865D01*
X10414Y-29883D01*
X10377Y-29883D01*
X10339Y-29865D01*
X10321Y-29846D01*
X10302Y-29808D01*
X10283Y-29733D01*
X10283Y-29640D01*
X10302Y-29565D01*
X10321Y-29527D01*
X10339Y-29508D01*
X10377Y-29489D01*
X10677Y-29733D02*
X10977Y-29733D01*
X11127Y-29489D02*
X11390Y-29489D01*
X11221Y-29883D01*
G54D13*
X06496Y-30118D02*
X06496Y-29330D01*
X14370Y-30118D02*
X06496Y-30118D01*
X14370Y-29330D02*
X14370Y-30118D01*
G54D11*
X15391Y-16072D02*
X15191Y-15691D01*
X15048Y-16072D02*
X15048Y-15272D01*
X15276Y-15272D01*
X15334Y-15310D01*
X15362Y-15348D01*
X15391Y-15424D01*
X15391Y-15538D01*
X15362Y-15615D01*
X15334Y-15653D01*
X15276Y-15691D01*
X15048Y-15691D01*
X15848Y-15653D02*
X15934Y-15691D01*
X15962Y-15729D01*
X15991Y-15805D01*
X15991Y-15919D01*
X15962Y-15996D01*
X15934Y-16034D01*
X15876Y-16072D01*
X15648Y-16072D01*
X15648Y-15272D01*
X15848Y-15272D01*
X15905Y-15310D01*
X15934Y-15348D01*
X15962Y-15424D01*
X15962Y-15500D01*
X15934Y-15577D01*
X15905Y-15615D01*
X15848Y-15653D01*
X15648Y-15653D01*
X16334Y-15615D02*
X16276Y-15577D01*
X16248Y-15538D01*
X16219Y-15462D01*
X16219Y-15424D01*
X16248Y-15348D01*
X16276Y-15310D01*
X16334Y-15272D01*
X16448Y-15272D01*
X16505Y-15310D01*
X16534Y-15348D01*
X16562Y-15424D01*
X16562Y-15462D01*
X16534Y-15538D01*
X16505Y-15577D01*
X16448Y-15615D01*
X16334Y-15615D01*
X16276Y-15653D01*
X16248Y-15691D01*
X16219Y-15767D01*
X16219Y-15919D01*
X16248Y-15996D01*
X16276Y-16034D01*
X16334Y-16072D01*
X16448Y-16072D01*
X16505Y-16034D01*
X16534Y-15996D01*
X16562Y-15919D01*
X16562Y-15767D01*
X16534Y-15691D01*
X16505Y-15653D01*
X16448Y-15615D01*
X16819Y-15767D02*
X17276Y-15767D01*
X17876Y-16072D02*
X17533Y-16072D01*
X17705Y-16072D02*
X17705Y-15272D01*
X17648Y-15386D01*
X17590Y-15462D01*
X17533Y-15500D01*
X18419Y-15272D02*
X18133Y-15272D01*
X18104Y-15653D01*
X18133Y-15615D01*
X18190Y-15577D01*
X18333Y-15577D01*
X18390Y-15615D01*
X18419Y-15653D01*
X18447Y-15729D01*
X18447Y-15919D01*
X18419Y-15996D01*
X18390Y-16034D01*
X18333Y-16072D01*
X18190Y-16072D01*
X18133Y-16034D01*
X18104Y-15996D01*
G54D14*
X17577Y-29865D02*
X17633Y-29883D01*
X17727Y-29883D01*
X17765Y-29865D01*
X17783Y-29846D01*
X17802Y-29808D01*
X17802Y-29771D01*
X17783Y-29733D01*
X17765Y-29715D01*
X17727Y-29696D01*
X17652Y-29677D01*
X17615Y-29658D01*
X17596Y-29640D01*
X17577Y-29602D01*
X17577Y-29565D01*
X17596Y-29527D01*
X17615Y-29508D01*
X17652Y-29489D01*
X17746Y-29489D01*
X17802Y-29508D01*
X17915Y-29621D02*
X18065Y-29621D01*
X17971Y-29489D02*
X17971Y-29827D01*
X17990Y-29865D01*
X18027Y-29883D01*
X18065Y-29883D01*
X18196Y-29883D02*
X18196Y-29621D01*
X18196Y-29696D02*
X18215Y-29658D01*
X18233Y-29640D01*
X18271Y-29621D01*
X18308Y-29621D01*
X18609Y-29883D02*
X18609Y-29677D01*
X18590Y-29640D01*
X18552Y-29621D01*
X18477Y-29621D01*
X18440Y-29640D01*
X18609Y-29865D02*
X18571Y-29883D01*
X18477Y-29883D01*
X18440Y-29865D01*
X18421Y-29827D01*
X18421Y-29790D01*
X18440Y-29752D01*
X18477Y-29733D01*
X18571Y-29733D01*
X18609Y-29715D01*
X18796Y-29621D02*
X18796Y-30015D01*
X18796Y-29640D02*
X18833Y-29621D01*
X18908Y-29621D01*
X18946Y-29640D01*
X18965Y-29658D01*
X18983Y-29696D01*
X18983Y-29808D01*
X18965Y-29846D01*
X18946Y-29865D01*
X18908Y-29883D01*
X18833Y-29883D01*
X18796Y-29865D01*
X19508Y-29883D02*
X19471Y-29865D01*
X19452Y-29846D01*
X19433Y-29808D01*
X19433Y-29696D01*
X19452Y-29658D01*
X19471Y-29640D01*
X19508Y-29621D01*
X19564Y-29621D01*
X19602Y-29640D01*
X19621Y-29658D01*
X19639Y-29696D01*
X19639Y-29808D01*
X19621Y-29846D01*
X19602Y-29865D01*
X19564Y-29883D01*
X19508Y-29883D01*
X19977Y-29621D02*
X19977Y-29883D01*
X19808Y-29621D02*
X19808Y-29827D01*
X19827Y-29865D01*
X19864Y-29883D01*
X19920Y-29883D01*
X19958Y-29865D01*
X19977Y-29846D01*
X20108Y-29621D02*
X20258Y-29621D01*
X20164Y-29489D02*
X20164Y-29827D01*
X20183Y-29865D01*
X20220Y-29883D01*
X20258Y-29883D01*
G54D13*
X19292Y-30118D02*
X19292Y-30905D01*
X23426Y-30118D02*
X23426Y-29330D01*
X15552Y-30118D02*
X23426Y-30118D01*
X15552Y-29330D02*
X15552Y-30118D01*
G54D14*
X30568Y-38723D02*
X30624Y-38741D01*
X30718Y-38741D01*
X30756Y-38723D01*
X30774Y-38704D01*
X30793Y-38666D01*
X30793Y-38629D01*
X30774Y-38591D01*
X30756Y-38573D01*
X30718Y-38554D01*
X30643Y-38535D01*
X30606Y-38516D01*
X30587Y-38498D01*
X30568Y-38460D01*
X30568Y-38423D01*
X30587Y-38385D01*
X30606Y-38366D01*
X30643Y-38347D01*
X30737Y-38347D01*
X30793Y-38366D01*
X30906Y-38479D02*
X31056Y-38479D01*
X30962Y-38347D02*
X30962Y-38685D01*
X30981Y-38723D01*
X31018Y-38741D01*
X31056Y-38741D01*
X31187Y-38741D02*
X31187Y-38479D01*
X31187Y-38554D02*
X31206Y-38516D01*
X31224Y-38498D01*
X31262Y-38479D01*
X31299Y-38479D01*
X31600Y-38741D02*
X31600Y-38535D01*
X31581Y-38498D01*
X31543Y-38479D01*
X31468Y-38479D01*
X31431Y-38498D01*
X31600Y-38723D02*
X31562Y-38741D01*
X31468Y-38741D01*
X31431Y-38723D01*
X31412Y-38685D01*
X31412Y-38648D01*
X31431Y-38610D01*
X31468Y-38591D01*
X31562Y-38591D01*
X31600Y-38573D01*
X31787Y-38479D02*
X31787Y-38873D01*
X31787Y-38498D02*
X31824Y-38479D01*
X31899Y-38479D01*
X31937Y-38498D01*
X31956Y-38516D01*
X31974Y-38554D01*
X31974Y-38666D01*
X31956Y-38704D01*
X31937Y-38723D01*
X31899Y-38741D01*
X31824Y-38741D01*
X31787Y-38723D01*
X32443Y-38741D02*
X32443Y-38479D01*
X32443Y-38347D02*
X32424Y-38366D01*
X32443Y-38385D01*
X32462Y-38366D01*
X32443Y-38347D01*
X32443Y-38385D01*
X32631Y-38479D02*
X32631Y-38741D01*
X32631Y-38516D02*
X32650Y-38498D01*
X32687Y-38479D01*
X32743Y-38479D01*
X32781Y-38498D01*
X32800Y-38535D01*
X32800Y-38741D01*
G54D13*
X30315Y-39370D02*
X30315Y-37204D01*
G54D11*
X29661Y-30270D02*
X29604Y-30232D01*
X29518Y-30232D01*
X29433Y-30270D01*
X29375Y-30346D01*
X29347Y-30422D01*
X29318Y-30575D01*
X29318Y-30689D01*
X29347Y-30841D01*
X29375Y-30918D01*
X29433Y-30994D01*
X29518Y-31032D01*
X29575Y-31032D01*
X29661Y-30994D01*
X29690Y-30956D01*
X29690Y-30689D01*
X29575Y-30689D01*
X29947Y-31032D02*
X29947Y-30232D01*
X30290Y-31032D01*
X30290Y-30232D01*
X30576Y-31032D02*
X30576Y-30232D01*
X30719Y-30232D01*
X30804Y-30270D01*
X30862Y-30346D01*
X30890Y-30422D01*
X30919Y-30575D01*
X30919Y-30689D01*
X30890Y-30841D01*
X30862Y-30918D01*
X30804Y-30994D01*
X30719Y-31032D01*
X30576Y-31032D01*
G54D13*
X29158Y-30708D02*
X29142Y-30865D01*
X29096Y-31017D01*
X29022Y-31156D01*
X28922Y-31279D01*
X28800Y-31380D01*
X28661Y-31455D01*
X28510Y-31502D01*
X28352Y-31518D01*
X28196Y-31504D01*
X28044Y-31459D01*
X27903Y-31386D01*
X27780Y-31287D01*
X27678Y-31166D01*
X27602Y-31027D01*
X27554Y-30876D01*
X27537Y-30719D01*
X27550Y-30562D01*
X27593Y-30410D01*
X27666Y-30269D01*
X27764Y-30145D01*
X27885Y-30043D01*
X28023Y-29965D01*
X28173Y-29916D01*
X28331Y-29898D01*
X28487Y-29910D01*
X28640Y-29952D01*
X28781Y-30024D01*
X28906Y-30121D01*
X29009Y-30241D01*
X29087Y-30379D01*
X29137Y-30529D01*
X29157Y-30686D01*
X29158Y-30708D01*
G54D11*
X34932Y-14142D02*
X34970Y-14056D01*
X34970Y-13913D01*
X34932Y-13856D01*
X34894Y-13827D01*
X34817Y-13799D01*
X34741Y-13799D01*
X34665Y-13827D01*
X34627Y-13856D01*
X34589Y-13913D01*
X34551Y-14027D01*
X34513Y-14085D01*
X34475Y-14113D01*
X34398Y-14142D01*
X34322Y-14142D01*
X34246Y-14113D01*
X34208Y-14085D01*
X34170Y-14027D01*
X34170Y-13885D01*
X34208Y-13799D01*
X34970Y-13285D02*
X34551Y-13285D01*
X34475Y-13314D01*
X34436Y-13371D01*
X34436Y-13485D01*
X34475Y-13542D01*
X34932Y-13285D02*
X34970Y-13342D01*
X34970Y-13485D01*
X34932Y-13542D01*
X34856Y-13571D01*
X34779Y-13571D01*
X34703Y-13542D01*
X34665Y-13485D01*
X34665Y-13342D01*
X34627Y-13285D01*
X34436Y-13085D02*
X34436Y-12856D01*
X34170Y-12999D02*
X34856Y-12999D01*
X34932Y-12971D01*
X34970Y-12913D01*
X34970Y-12856D01*
X34894Y-12656D02*
X34932Y-12628D01*
X34970Y-12656D01*
X34932Y-12685D01*
X34894Y-12656D01*
X34970Y-12656D01*
X34576Y-21630D02*
X34576Y-21916D01*
X33776Y-21916D01*
X34576Y-21430D02*
X34042Y-21430D01*
X33776Y-21430D02*
X33814Y-21459D01*
X33852Y-21430D01*
X33814Y-21402D01*
X33776Y-21430D01*
X33852Y-21430D01*
X34042Y-20887D02*
X34690Y-20887D01*
X34766Y-20916D01*
X34804Y-20944D01*
X34842Y-21001D01*
X34842Y-21087D01*
X34804Y-21144D01*
X34538Y-20887D02*
X34576Y-20944D01*
X34576Y-21058D01*
X34538Y-21116D01*
X34500Y-21144D01*
X34423Y-21173D01*
X34195Y-21173D01*
X34119Y-21144D01*
X34081Y-21116D01*
X34042Y-21058D01*
X34042Y-20944D01*
X34081Y-20887D01*
X34500Y-20601D02*
X34538Y-20573D01*
X34576Y-20601D01*
X34538Y-20630D01*
X34500Y-20601D01*
X34576Y-20601D01*
X31125Y-51308D02*
X30839Y-51308D01*
X30839Y-50508D01*
X31325Y-51308D02*
X31325Y-50774D01*
X31325Y-50508D02*
X31296Y-50546D01*
X31325Y-50584D01*
X31353Y-50546D01*
X31325Y-50508D01*
X31325Y-50584D01*
X31868Y-50774D02*
X31868Y-51422D01*
X31839Y-51498D01*
X31811Y-51536D01*
X31754Y-51574D01*
X31668Y-51574D01*
X31611Y-51536D01*
X31868Y-51270D02*
X31811Y-51308D01*
X31697Y-51308D01*
X31639Y-51270D01*
X31611Y-51232D01*
X31582Y-51155D01*
X31582Y-50927D01*
X31611Y-50851D01*
X31639Y-50813D01*
X31697Y-50774D01*
X31811Y-50774D01*
X31868Y-50813D01*
X32154Y-51232D02*
X32182Y-51270D01*
X32154Y-51308D01*
X32125Y-51270D01*
X32154Y-51232D01*
X32154Y-51308D01*
X23850Y-51270D02*
X23936Y-51308D01*
X24079Y-51308D01*
X24136Y-51270D01*
X24165Y-51232D01*
X24193Y-51155D01*
X24193Y-51079D01*
X24165Y-51003D01*
X24136Y-50965D01*
X24079Y-50927D01*
X23965Y-50889D01*
X23907Y-50851D01*
X23879Y-50813D01*
X23850Y-50736D01*
X23850Y-50660D01*
X23879Y-50584D01*
X23907Y-50546D01*
X23965Y-50508D01*
X24107Y-50508D01*
X24193Y-50546D01*
X24707Y-51308D02*
X24707Y-50889D01*
X24678Y-50813D01*
X24621Y-50774D01*
X24507Y-50774D01*
X24450Y-50813D01*
X24707Y-51270D02*
X24650Y-51308D01*
X24507Y-51308D01*
X24450Y-51270D01*
X24421Y-51194D01*
X24421Y-51117D01*
X24450Y-51041D01*
X24507Y-51003D01*
X24650Y-51003D01*
X24707Y-50965D01*
X24907Y-50774D02*
X25136Y-50774D01*
X24993Y-50508D02*
X24993Y-51194D01*
X25021Y-51270D01*
X25079Y-51308D01*
X25136Y-51308D01*
X25336Y-51232D02*
X25364Y-51270D01*
X25336Y-51308D01*
X25307Y-51270D01*
X25336Y-51232D01*
X25336Y-51308D01*
X03323Y-49143D02*
X03037Y-49143D01*
X03037Y-48343D01*
X03523Y-49143D02*
X03523Y-48609D01*
X03523Y-48343D02*
X03494Y-48381D01*
X03523Y-48419D01*
X03551Y-48381D01*
X03523Y-48343D01*
X03523Y-48419D01*
X04066Y-48609D02*
X04066Y-49257D01*
X04037Y-49333D01*
X04009Y-49371D01*
X03952Y-49409D01*
X03866Y-49409D01*
X03809Y-49371D01*
X04066Y-49105D02*
X04009Y-49143D01*
X03895Y-49143D01*
X03837Y-49105D01*
X03809Y-49067D01*
X03780Y-48990D01*
X03780Y-48762D01*
X03809Y-48686D01*
X03837Y-48648D01*
X03895Y-48609D01*
X04009Y-48609D01*
X04066Y-48648D01*
X04352Y-48609D02*
X04352Y-49143D01*
X04352Y-48686D02*
X04380Y-48648D01*
X04438Y-48609D01*
X04523Y-48609D01*
X04580Y-48648D01*
X04609Y-48724D01*
X04609Y-49143D01*
X05152Y-49143D02*
X05152Y-48724D01*
X05123Y-48648D01*
X05066Y-48609D01*
X04952Y-48609D01*
X04895Y-48648D01*
X05152Y-49105D02*
X05095Y-49143D01*
X04952Y-49143D01*
X04895Y-49105D01*
X04866Y-49029D01*
X04866Y-48952D01*
X04895Y-48876D01*
X04952Y-48838D01*
X05095Y-48838D01*
X05152Y-48800D01*
X05695Y-49143D02*
X05695Y-48343D01*
X05695Y-49105D02*
X05638Y-49143D01*
X05524Y-49143D01*
X05466Y-49105D01*
X05438Y-49067D01*
X05409Y-48990D01*
X05409Y-48762D01*
X05438Y-48686D01*
X05466Y-48648D01*
X05524Y-48609D01*
X05638Y-48609D01*
X05695Y-48648D01*
X06209Y-49105D02*
X06152Y-49143D01*
X06038Y-49143D01*
X05981Y-49105D01*
X05952Y-49029D01*
X05952Y-48724D01*
X05981Y-48648D01*
X06038Y-48609D01*
X06152Y-48609D01*
X06209Y-48648D01*
X06238Y-48724D01*
X06238Y-48800D01*
X05952Y-48876D01*
X01252Y-50383D02*
X01252Y-49583D01*
X01480Y-49583D01*
X01538Y-49621D01*
X01566Y-49659D01*
X01595Y-49735D01*
X01595Y-49849D01*
X01566Y-49926D01*
X01538Y-49964D01*
X01480Y-50002D01*
X01252Y-50002D01*
X02195Y-50383D02*
X01995Y-50002D01*
X01852Y-50383D02*
X01852Y-49583D01*
X02080Y-49583D01*
X02138Y-49621D01*
X02166Y-49659D01*
X02195Y-49735D01*
X02195Y-49849D01*
X02166Y-49926D01*
X02138Y-49964D01*
X02080Y-50002D01*
X01852Y-50002D01*
X02566Y-49583D02*
X02680Y-49583D01*
X02738Y-49621D01*
X02795Y-49697D01*
X02823Y-49849D01*
X02823Y-50116D01*
X02795Y-50269D01*
X02738Y-50345D01*
X02680Y-50383D01*
X02566Y-50383D01*
X02509Y-50345D01*
X02452Y-50269D01*
X02423Y-50116D01*
X02423Y-49849D01*
X02452Y-49697D01*
X02509Y-49621D01*
X02566Y-49583D01*
X02995Y-49583D02*
X03338Y-49583D01*
X03167Y-50383D02*
X03167Y-49583D01*
X03652Y-49583D02*
X03766Y-49583D01*
X03824Y-49621D01*
X03881Y-49697D01*
X03909Y-49849D01*
X03909Y-50116D01*
X03881Y-50269D01*
X03824Y-50345D01*
X03766Y-50383D01*
X03652Y-50383D01*
X03595Y-50345D01*
X03538Y-50269D01*
X03509Y-50116D01*
X03509Y-49849D01*
X03538Y-49697D01*
X03595Y-49621D01*
X03652Y-49583D01*
X04567Y-49583D02*
X04967Y-50383D01*
X04967Y-49583D02*
X04567Y-50383D01*
X05309Y-49583D02*
X05366Y-49583D01*
X05423Y-49621D01*
X05452Y-49659D01*
X05481Y-49735D01*
X05509Y-49888D01*
X05509Y-50078D01*
X05481Y-50230D01*
X05452Y-50307D01*
X05423Y-50345D01*
X05366Y-50383D01*
X05309Y-50383D01*
X05252Y-50345D01*
X05223Y-50307D01*
X05195Y-50230D01*
X05166Y-50078D01*
X05166Y-49888D01*
X05195Y-49735D01*
X05223Y-49659D01*
X05252Y-49621D01*
X05309Y-49583D01*
X05880Y-49583D02*
X05937Y-49583D01*
X05994Y-49621D01*
X06023Y-49659D01*
X06052Y-49735D01*
X06080Y-49888D01*
X06080Y-50078D01*
X06052Y-50230D01*
X06023Y-50307D01*
X05994Y-50345D01*
X05937Y-50383D01*
X05880Y-50383D01*
X05823Y-50345D01*
X05794Y-50307D01*
X05766Y-50230D01*
X05737Y-50078D01*
X05737Y-49888D01*
X05766Y-49735D01*
X05794Y-49659D01*
X05823Y-49621D01*
X05880Y-49583D01*
X06651Y-50383D02*
X06308Y-50383D01*
X06480Y-50383D02*
X06480Y-49583D01*
X06423Y-49697D01*
X06365Y-49773D01*
X06308Y-49811D01*
G54D13*
X02445Y-15867D02*
X02258Y-15867D01*
X02239Y-16055D01*
X02258Y-16036D01*
X02295Y-16018D01*
X02389Y-16018D01*
X02427Y-16036D01*
X02445Y-16055D01*
X02464Y-16093D01*
X02464Y-16186D01*
X02445Y-16224D01*
X02427Y-16243D01*
X02389Y-16261D01*
X02295Y-16261D01*
X02258Y-16243D01*
X02239Y-16224D01*
X02577Y-15867D02*
X02708Y-16261D01*
X02839Y-15867D01*
X00552Y-15843D02*
X00796Y-15843D01*
X00665Y-15994D01*
X00721Y-15994D01*
X00759Y-16012D01*
X00777Y-16031D01*
X00796Y-16069D01*
X00796Y-16162D01*
X00777Y-16200D01*
X00759Y-16219D01*
X00721Y-16237D01*
X00609Y-16237D01*
X00571Y-16219D01*
X00552Y-16200D01*
X00965Y-16200D02*
X00984Y-16219D01*
X00965Y-16237D01*
X00946Y-16219D01*
X00965Y-16200D01*
X00965Y-16237D01*
X01115Y-15843D02*
X01359Y-15843D01*
X01228Y-15994D01*
X01284Y-15994D01*
X01322Y-16012D01*
X01340Y-16031D01*
X01359Y-16069D01*
X01359Y-16162D01*
X01340Y-16200D01*
X01322Y-16219D01*
X01284Y-16237D01*
X01172Y-16237D01*
X01134Y-16219D01*
X01115Y-16200D01*
X01472Y-15843D02*
X01603Y-16237D01*
X01734Y-15843D01*
G54D12*
X05078Y-00156D02*
X05078Y-22361D01*
X39833Y-53740D02*
X39809Y-53982D01*
X39738Y-54216D01*
X39624Y-54431D01*
X39469Y-54620D01*
X39281Y-54776D01*
X39067Y-54892D01*
X38834Y-54964D01*
X38591Y-54989D01*
X38349Y-54967D01*
X38115Y-54898D01*
X37899Y-54785D01*
X37709Y-54633D01*
X37552Y-54446D01*
X37435Y-54232D01*
X37361Y-53999D01*
X37334Y-53757D01*
X37354Y-53515D01*
X37421Y-53280D01*
X37533Y-53063D01*
X37684Y-52872D01*
X37870Y-52714D01*
X38083Y-52595D01*
X38315Y-52520D01*
X38557Y-52491D01*
X38800Y-52509D01*
X39035Y-52575D01*
X39252Y-52685D01*
X39445Y-52835D01*
X39604Y-53020D01*
X39724Y-53232D01*
X39801Y-53464D01*
X39832Y-53706D01*
X39833Y-53740D01*
X36083Y-53740D02*
X41083Y-53740D01*
X38583Y-51240D02*
X38583Y-56240D01*
X38455Y01181D02*
X38431Y00939D01*
X38360Y00705D01*
X38246Y00490D01*
X38091Y00301D01*
X37903Y00145D01*
X37689Y00029D01*
X37456Y-00043D01*
X37213Y-00068D01*
X36971Y-00046D01*
X36737Y00023D01*
X36521Y00136D01*
X36331Y00288D01*
X36174Y00475D01*
X36057Y00689D01*
X35983Y00922D01*
X35956Y01164D01*
X35976Y01406D01*
X36043Y01641D01*
X36155Y01858D01*
X36306Y02049D01*
X36492Y02207D01*
X36705Y02326D01*
X36937Y02401D01*
X37179Y02430D01*
X37422Y02412D01*
X37657Y02346D01*
X37874Y02236D01*
X38067Y02086D01*
X38226Y01901D01*
X38346Y01689D01*
X38423Y01457D01*
X38454Y01215D01*
X38455Y01181D01*
X34705Y01181D02*
X39705Y01181D01*
X37205Y03681D02*
X37205Y-01319D01*
X-01309Y-54724D02*
X-01333Y-54966D01*
X-01404Y-55200D01*
X-01518Y-55415D01*
X-01673Y-55604D01*
X-01861Y-55760D01*
X-02075Y-55876D01*
X-02308Y-55948D01*
X-02551Y-55973D01*
X-02793Y-55951D01*
X-03027Y-55882D01*
X-03243Y-55769D01*
X-03433Y-55617D01*
X-03590Y-55430D01*
X-03707Y-55216D01*
X-03781Y-54983D01*
X-03808Y-54741D01*
X-03788Y-54499D01*
X-03721Y-54264D01*
X-03609Y-54047D01*
X-03458Y-53856D01*
X-03272Y-53698D01*
X-03059Y-53579D01*
X-02827Y-53504D01*
X-02585Y-53475D01*
X-02342Y-53493D01*
X-02107Y-53559D01*
X-01890Y-53669D01*
X-01697Y-53819D01*
X-01538Y-54004D01*
X-01418Y-54216D01*
X-01341Y-54448D01*
X-01310Y-54690D01*
X-01309Y-54724D01*
X-05059Y-54724D02*
X-00059Y-54724D01*
X-02559Y-52224D02*
X-02559Y-57224D01*
G54D13*
X22835Y-00156D02*
X05079Y-00156D01*
X03327Y-15708D02*
X00335Y-15708D01*
X01870Y-15708D02*
X00296Y-15708D01*
G54D12*
X22834Y-21967D02*
X22834Y-00156D01*
X34049Y-16748D02*
X34049Y-14648D01*
X34049Y-14648D02*
X35049Y-14648D01*
X35049Y-14648D02*
X35049Y-16748D01*
X34049Y-14648D02*
X35049Y-14648D01*
X35049Y-16748D02*
X34049Y-16748D01*
X34049Y-20094D02*
X34049Y-17994D01*
X34049Y-17994D02*
X35049Y-17994D01*
X35049Y-17994D02*
X35049Y-20094D01*
X34049Y-17994D02*
X35049Y-17994D01*
X35049Y-20094D02*
X34049Y-20094D01*
X23461Y-51476D02*
X20461Y-51476D01*
X20461Y-51476D02*
X20461Y-50476D01*
X20461Y-50476D02*
X23461Y-50476D01*
X23461Y-50476D02*
X23461Y-51476D01*
X30461Y-51476D02*
X27461Y-51476D01*
X27461Y-51476D02*
X27461Y-50476D01*
X27461Y-50476D02*
X30461Y-50476D01*
X30461Y-50476D02*
X30461Y-51476D01*
G54D15*
X19318Y-37654D02*
X19318Y-36754D01*
X19318Y-36754D02*
X19818Y-36754D01*
X19818Y-36754D02*
X19818Y-37654D01*
X19818Y-37654D02*
X19318Y-37654D01*
X12498Y-44737D02*
X11598Y-44737D01*
X11598Y-44737D02*
X11598Y-44237D01*
X11598Y-44237D02*
X12498Y-44237D01*
X12498Y-44237D02*
X12498Y-44737D01*
X25940Y-17364D02*
X25940Y-18264D01*
X25940Y-18264D02*
X25440Y-18264D01*
X25440Y-18264D02*
X25440Y-17364D01*
X25440Y-17364D02*
X25940Y-17364D01*
X11559Y-35892D02*
X12459Y-35892D01*
X12459Y-35892D02*
X12459Y-36392D01*
X12459Y-36392D02*
X11559Y-36392D01*
X11559Y-36392D02*
X11559Y-35892D01*
X30165Y-15983D02*
X30164Y-15992D01*
X30161Y-16002D01*
X30156Y-16010D01*
X30150Y-16018D01*
X30142Y-16024D01*
X30134Y-16029D01*
X30125Y-16031D01*
X30115Y-16032D01*
X30106Y-16032D01*
X30097Y-16029D01*
X30088Y-16024D01*
X30081Y-16018D01*
X30074Y-16011D01*
X30070Y-16002D01*
X30067Y-15993D01*
X30066Y-15983D01*
X30066Y-15974D01*
X30069Y-15965D01*
X30073Y-15956D01*
X30080Y-15949D01*
X30087Y-15942D01*
X30095Y-15938D01*
X30105Y-15935D01*
X30114Y-15934D01*
X30123Y-15934D01*
X30133Y-15937D01*
X30141Y-15941D01*
X30149Y-15947D01*
X30155Y-15955D01*
X30160Y-15963D01*
X30163Y-15972D01*
X30164Y-15982D01*
X30165Y-15983D01*
X30115Y-16433D02*
X30115Y-16033D01*
X30115Y-16033D02*
X30715Y-16033D01*
X30715Y-16033D02*
X30715Y-16433D01*
X30715Y-16833D02*
X30715Y-17233D01*
X30715Y-17233D02*
X30115Y-17233D01*
X30115Y-17233D02*
X30115Y-16833D01*
X31390Y-16933D02*
X31389Y-16942D01*
X31386Y-16952D01*
X31381Y-16960D01*
X31375Y-16968D01*
X31367Y-16974D01*
X31359Y-16979D01*
X31350Y-16981D01*
X31340Y-16982D01*
X31331Y-16982D01*
X31322Y-16979D01*
X31313Y-16974D01*
X31306Y-16968D01*
X31299Y-16961D01*
X31295Y-16952D01*
X31292Y-16943D01*
X31291Y-16933D01*
X31291Y-16924D01*
X31294Y-16915D01*
X31298Y-16906D01*
X31305Y-16899D01*
X31312Y-16892D01*
X31320Y-16888D01*
X31330Y-16885D01*
X31339Y-16884D01*
X31348Y-16884D01*
X31358Y-16887D01*
X31366Y-16891D01*
X31374Y-16897D01*
X31380Y-16905D01*
X31385Y-16913D01*
X31388Y-16922D01*
X31389Y-16932D01*
X31390Y-16933D01*
X31790Y-16933D02*
X31390Y-16933D01*
X31390Y-16933D02*
X31390Y-16333D01*
X31390Y-16333D02*
X31790Y-16333D01*
X32190Y-16333D02*
X32590Y-16333D01*
X32590Y-16333D02*
X32590Y-16933D01*
X32590Y-16933D02*
X32190Y-16933D01*
X32133Y-14802D02*
X32132Y-14811D01*
X32129Y-14821D01*
X32124Y-14829D01*
X32118Y-14837D01*
X32110Y-14843D01*
X32102Y-14848D01*
X32093Y-14850D01*
X32083Y-14851D01*
X32074Y-14851D01*
X32065Y-14848D01*
X32056Y-14843D01*
X32049Y-14837D01*
X32042Y-14830D01*
X32038Y-14821D01*
X32035Y-14812D01*
X32034Y-14802D01*
X32034Y-14793D01*
X32037Y-14784D01*
X32041Y-14775D01*
X32048Y-14768D01*
X32055Y-14761D01*
X32063Y-14757D01*
X32073Y-14754D01*
X32082Y-14753D01*
X32091Y-14753D01*
X32101Y-14756D01*
X32109Y-14760D01*
X32117Y-14766D01*
X32123Y-14774D01*
X32128Y-14782D01*
X32131Y-14791D01*
X32132Y-14801D01*
X32133Y-14802D01*
X32083Y-15252D02*
X32083Y-14852D01*
X32083Y-14852D02*
X32683Y-14852D01*
X32683Y-14852D02*
X32683Y-15252D01*
X32683Y-15652D02*
X32683Y-16052D01*
X32683Y-16052D02*
X32083Y-16052D01*
X32083Y-16052D02*
X32083Y-15652D01*
X30165Y-19133D02*
X30164Y-19142D01*
X30161Y-19152D01*
X30156Y-19160D01*
X30150Y-19168D01*
X30142Y-19174D01*
X30134Y-19179D01*
X30125Y-19181D01*
X30115Y-19182D01*
X30106Y-19182D01*
X30097Y-19179D01*
X30088Y-19174D01*
X30081Y-19168D01*
X30074Y-19161D01*
X30070Y-19152D01*
X30067Y-19143D01*
X30066Y-19133D01*
X30066Y-19124D01*
X30069Y-19115D01*
X30073Y-19106D01*
X30080Y-19099D01*
X30087Y-19092D01*
X30095Y-19088D01*
X30105Y-19085D01*
X30114Y-19084D01*
X30123Y-19084D01*
X30133Y-19087D01*
X30141Y-19091D01*
X30149Y-19097D01*
X30155Y-19105D01*
X30160Y-19113D01*
X30163Y-19122D01*
X30164Y-19132D01*
X30165Y-19133D01*
X30115Y-19583D02*
X30115Y-19183D01*
X30115Y-19183D02*
X30715Y-19183D01*
X30715Y-19183D02*
X30715Y-19583D01*
X30715Y-19983D02*
X30715Y-20383D01*
X30715Y-20383D02*
X30115Y-20383D01*
X30115Y-20383D02*
X30115Y-19983D01*
X31390Y-20083D02*
X31389Y-20092D01*
X31386Y-20102D01*
X31381Y-20110D01*
X31375Y-20118D01*
X31367Y-20124D01*
X31359Y-20129D01*
X31350Y-20131D01*
X31340Y-20132D01*
X31331Y-20132D01*
X31322Y-20129D01*
X31313Y-20124D01*
X31306Y-20118D01*
X31299Y-20111D01*
X31295Y-20102D01*
X31292Y-20093D01*
X31291Y-20083D01*
X31291Y-20074D01*
X31294Y-20065D01*
X31298Y-20056D01*
X31305Y-20049D01*
X31312Y-20042D01*
X31320Y-20038D01*
X31330Y-20035D01*
X31339Y-20034D01*
X31348Y-20034D01*
X31358Y-20037D01*
X31366Y-20041D01*
X31374Y-20047D01*
X31380Y-20055D01*
X31385Y-20063D01*
X31388Y-20072D01*
X31389Y-20082D01*
X31390Y-20083D01*
X31790Y-20083D02*
X31390Y-20083D01*
X31390Y-20083D02*
X31390Y-19483D01*
X31390Y-19483D02*
X31790Y-19483D01*
X32190Y-19483D02*
X32590Y-19483D01*
X32590Y-19483D02*
X32590Y-20083D01*
X32590Y-20083D02*
X32190Y-20083D01*
X32133Y-17952D02*
X32132Y-17961D01*
X32129Y-17971D01*
X32124Y-17979D01*
X32118Y-17987D01*
X32110Y-17993D01*
X32102Y-17998D01*
X32093Y-18000D01*
X32083Y-18001D01*
X32074Y-18001D01*
X32065Y-17998D01*
X32056Y-17993D01*
X32049Y-17987D01*
X32042Y-17980D01*
X32038Y-17971D01*
X32035Y-17962D01*
X32034Y-17952D01*
X32034Y-17943D01*
X32037Y-17934D01*
X32041Y-17925D01*
X32048Y-17918D01*
X32055Y-17911D01*
X32063Y-17907D01*
X32073Y-17904D01*
X32082Y-17903D01*
X32091Y-17903D01*
X32101Y-17906D01*
X32109Y-17910D01*
X32117Y-17916D01*
X32123Y-17924D01*
X32128Y-17932D01*
X32131Y-17941D01*
X32132Y-17951D01*
X32133Y-17952D01*
X32083Y-18402D02*
X32083Y-18002D01*
X32083Y-18002D02*
X32683Y-18002D01*
X32683Y-18002D02*
X32683Y-18402D01*
X32683Y-18802D02*
X32683Y-19202D01*
X32683Y-19202D02*
X32083Y-19202D01*
X32083Y-19202D02*
X32083Y-18802D01*
X02361Y-12276D02*
X02360Y-12285D01*
X02357Y-12295D01*
X02352Y-12303D01*
X02346Y-12311D01*
X02338Y-12317D01*
X02330Y-12322D01*
X02321Y-12324D01*
X02311Y-12325D01*
X02302Y-12325D01*
X02293Y-12322D01*
X02284Y-12317D01*
X02277Y-12311D01*
X02270Y-12304D01*
X02266Y-12295D01*
X02263Y-12286D01*
X02262Y-12276D01*
X02262Y-12267D01*
X02265Y-12258D01*
X02269Y-12249D01*
X02276Y-12242D01*
X02283Y-12235D01*
X02291Y-12231D01*
X02301Y-12228D01*
X02310Y-12227D01*
X02319Y-12227D01*
X02329Y-12230D01*
X02337Y-12234D01*
X02345Y-12240D01*
X02351Y-12248D01*
X02356Y-12256D01*
X02359Y-12265D01*
X02360Y-12275D01*
X02361Y-12276D01*
X02761Y-12276D02*
X02361Y-12276D01*
X02361Y-12276D02*
X02361Y-11676D01*
X02361Y-11676D02*
X02761Y-11676D01*
X03161Y-11676D02*
X03561Y-11676D01*
X03561Y-11676D02*
X03561Y-12276D01*
X03561Y-12276D02*
X03161Y-12276D01*
X00361Y-12276D02*
X00360Y-12285D01*
X00357Y-12295D01*
X00352Y-12303D01*
X00346Y-12311D01*
X00338Y-12317D01*
X00330Y-12322D01*
X00321Y-12324D01*
X00311Y-12325D01*
X00302Y-12325D01*
X00293Y-12322D01*
X00284Y-12317D01*
X00277Y-12311D01*
X00270Y-12304D01*
X00266Y-12295D01*
X00263Y-12286D01*
X00262Y-12276D01*
X00262Y-12267D01*
X00265Y-12258D01*
X00269Y-12249D01*
X00276Y-12242D01*
X00283Y-12235D01*
X00291Y-12231D01*
X00301Y-12228D01*
X00310Y-12227D01*
X00319Y-12227D01*
X00329Y-12230D01*
X00337Y-12234D01*
X00345Y-12240D01*
X00351Y-12248D01*
X00356Y-12256D01*
X00359Y-12265D01*
X00360Y-12275D01*
X00361Y-12276D01*
X00761Y-12276D02*
X00361Y-12276D01*
X00361Y-12276D02*
X00361Y-11676D01*
X00361Y-11676D02*
X00761Y-11676D01*
X01161Y-11676D02*
X01561Y-11676D01*
X01561Y-11676D02*
X01561Y-12276D01*
X01561Y-12276D02*
X01161Y-12276D01*
X15902Y-41398D02*
X15901Y-41407D01*
X15898Y-41417D01*
X15893Y-41425D01*
X15887Y-41433D01*
X15879Y-41439D01*
X15871Y-41444D01*
X15862Y-41446D01*
X15852Y-41447D01*
X15843Y-41447D01*
X15834Y-41444D01*
X15825Y-41439D01*
X15818Y-41433D01*
X15811Y-41426D01*
X15807Y-41417D01*
X15804Y-41408D01*
X15803Y-41398D01*
X15803Y-41389D01*
X15806Y-41380D01*
X15810Y-41371D01*
X15817Y-41364D01*
X15824Y-41357D01*
X15832Y-41353D01*
X15842Y-41350D01*
X15851Y-41349D01*
X15860Y-41349D01*
X15870Y-41352D01*
X15878Y-41356D01*
X15886Y-41362D01*
X15892Y-41370D01*
X15897Y-41378D01*
X15900Y-41387D01*
X15901Y-41397D01*
X15902Y-41398D01*
X15852Y-40948D02*
X15852Y-41348D01*
X15852Y-41348D02*
X15252Y-41348D01*
X15252Y-41348D02*
X15252Y-40948D01*
X15252Y-40548D02*
X15252Y-40148D01*
X15252Y-40148D02*
X15852Y-40148D01*
X15852Y-40148D02*
X15852Y-40548D01*
X23539Y-45886D02*
X23538Y-45895D01*
X23535Y-45905D01*
X23530Y-45913D01*
X23524Y-45921D01*
X23516Y-45927D01*
X23508Y-45932D01*
X23499Y-45934D01*
X23489Y-45935D01*
X23480Y-45935D01*
X23471Y-45932D01*
X23462Y-45927D01*
X23455Y-45921D01*
X23448Y-45914D01*
X23444Y-45905D01*
X23441Y-45896D01*
X23440Y-45886D01*
X23440Y-45877D01*
X23443Y-45868D01*
X23447Y-45859D01*
X23454Y-45852D01*
X23461Y-45845D01*
X23469Y-45841D01*
X23479Y-45838D01*
X23488Y-45837D01*
X23497Y-45837D01*
X23507Y-45840D01*
X23515Y-45844D01*
X23523Y-45850D01*
X23529Y-45858D01*
X23534Y-45866D01*
X23537Y-45875D01*
X23538Y-45885D01*
X23539Y-45886D01*
X23489Y-45436D02*
X23489Y-45836D01*
X23489Y-45836D02*
X22889Y-45836D01*
X22889Y-45836D02*
X22889Y-45436D01*
X22889Y-45036D02*
X22889Y-44636D01*
X22889Y-44636D02*
X23489Y-44636D01*
X23489Y-44636D02*
X23489Y-45036D01*
X11605Y-13233D02*
X11604Y-13242D01*
X11601Y-13252D01*
X11596Y-13260D01*
X11590Y-13268D01*
X11582Y-13274D01*
X11574Y-13279D01*
X11565Y-13281D01*
X11555Y-13282D01*
X11546Y-13282D01*
X11537Y-13279D01*
X11528Y-13274D01*
X11521Y-13268D01*
X11514Y-13261D01*
X11510Y-13252D01*
X11507Y-13243D01*
X11506Y-13233D01*
X11506Y-13224D01*
X11509Y-13215D01*
X11513Y-13206D01*
X11520Y-13199D01*
X11527Y-13192D01*
X11535Y-13188D01*
X11545Y-13185D01*
X11554Y-13184D01*
X11563Y-13184D01*
X11573Y-13187D01*
X11581Y-13191D01*
X11589Y-13197D01*
X11595Y-13205D01*
X11600Y-13213D01*
X11603Y-13222D01*
X11604Y-13232D01*
X11605Y-13233D01*
X12005Y-13233D02*
X11605Y-13233D01*
X11605Y-13233D02*
X11605Y-12633D01*
X11605Y-12633D02*
X12005Y-12633D01*
X12405Y-12633D02*
X12805Y-12633D01*
X12805Y-12633D02*
X12805Y-13233D01*
X12805Y-13233D02*
X12405Y-13233D01*
X11605Y-14040D02*
X11604Y-14049D01*
X11601Y-14059D01*
X11596Y-14067D01*
X11590Y-14075D01*
X11582Y-14081D01*
X11574Y-14086D01*
X11565Y-14088D01*
X11555Y-14089D01*
X11546Y-14089D01*
X11537Y-14086D01*
X11528Y-14081D01*
X11521Y-14075D01*
X11514Y-14068D01*
X11510Y-14059D01*
X11507Y-14050D01*
X11506Y-14040D01*
X11506Y-14031D01*
X11509Y-14022D01*
X11513Y-14013D01*
X11520Y-14006D01*
X11527Y-13999D01*
X11535Y-13995D01*
X11545Y-13992D01*
X11554Y-13991D01*
X11563Y-13991D01*
X11573Y-13994D01*
X11581Y-13998D01*
X11589Y-14004D01*
X11595Y-14012D01*
X11600Y-14020D01*
X11603Y-14029D01*
X11604Y-14039D01*
X11605Y-14040D01*
X12005Y-14040D02*
X11605Y-14040D01*
X11605Y-14040D02*
X11605Y-13440D01*
X11605Y-13440D02*
X12005Y-13440D01*
X12405Y-13440D02*
X12805Y-13440D01*
X12805Y-13440D02*
X12805Y-14040D01*
X12805Y-14040D02*
X12405Y-14040D01*
X10030Y-13233D02*
X10029Y-13242D01*
X10026Y-13252D01*
X10021Y-13260D01*
X10015Y-13268D01*
X10007Y-13274D01*
X09999Y-13279D01*
X09990Y-13281D01*
X09980Y-13282D01*
X09971Y-13282D01*
X09962Y-13279D01*
X09953Y-13274D01*
X09946Y-13268D01*
X09939Y-13261D01*
X09935Y-13252D01*
X09932Y-13243D01*
X09931Y-13233D01*
X09931Y-13224D01*
X09934Y-13215D01*
X09938Y-13206D01*
X09945Y-13199D01*
X09952Y-13192D01*
X09960Y-13188D01*
X09970Y-13185D01*
X09979Y-13184D01*
X09988Y-13184D01*
X09998Y-13187D01*
X10006Y-13191D01*
X10014Y-13197D01*
X10020Y-13205D01*
X10025Y-13213D01*
X10028Y-13222D01*
X10029Y-13232D01*
X10030Y-13233D01*
X10430Y-13233D02*
X10030Y-13233D01*
X10030Y-13233D02*
X10030Y-12633D01*
X10030Y-12633D02*
X10430Y-12633D01*
X10830Y-12633D02*
X11230Y-12633D01*
X11230Y-12633D02*
X11230Y-13233D01*
X11230Y-13233D02*
X10830Y-13233D01*
X10030Y-14040D02*
X10029Y-14049D01*
X10026Y-14059D01*
X10021Y-14067D01*
X10015Y-14075D01*
X10007Y-14081D01*
X09999Y-14086D01*
X09990Y-14088D01*
X09980Y-14089D01*
X09971Y-14089D01*
X09962Y-14086D01*
X09953Y-14081D01*
X09946Y-14075D01*
X09939Y-14068D01*
X09935Y-14059D01*
X09932Y-14050D01*
X09931Y-14040D01*
X09931Y-14031D01*
X09934Y-14022D01*
X09938Y-14013D01*
X09945Y-14006D01*
X09952Y-13999D01*
X09960Y-13995D01*
X09970Y-13992D01*
X09979Y-13991D01*
X09988Y-13991D01*
X09998Y-13994D01*
X10006Y-13998D01*
X10014Y-14004D01*
X10020Y-14012D01*
X10025Y-14020D01*
X10028Y-14029D01*
X10029Y-14039D01*
X10030Y-14040D01*
X10430Y-14040D02*
X10030Y-14040D01*
X10030Y-14040D02*
X10030Y-13440D01*
X10030Y-13440D02*
X10430Y-13440D01*
X10830Y-13440D02*
X11230Y-13440D01*
X11230Y-13440D02*
X11230Y-14040D01*
X11230Y-14040D02*
X10830Y-14040D01*
X11605Y-14847D02*
X11604Y-14856D01*
X11601Y-14866D01*
X11596Y-14874D01*
X11590Y-14882D01*
X11582Y-14888D01*
X11574Y-14893D01*
X11565Y-14895D01*
X11555Y-14896D01*
X11546Y-14896D01*
X11537Y-14893D01*
X11528Y-14888D01*
X11521Y-14882D01*
X11514Y-14875D01*
X11510Y-14866D01*
X11507Y-14857D01*
X11506Y-14847D01*
X11506Y-14838D01*
X11509Y-14829D01*
X11513Y-14820D01*
X11520Y-14813D01*
X11527Y-14806D01*
X11535Y-14802D01*
X11545Y-14799D01*
X11554Y-14798D01*
X11563Y-14798D01*
X11573Y-14801D01*
X11581Y-14805D01*
X11589Y-14811D01*
X11595Y-14819D01*
X11600Y-14827D01*
X11603Y-14836D01*
X11604Y-14846D01*
X11605Y-14847D01*
X12005Y-14847D02*
X11605Y-14847D01*
X11605Y-14847D02*
X11605Y-14247D01*
X11605Y-14247D02*
X12005Y-14247D01*
X12405Y-14247D02*
X12805Y-14247D01*
X12805Y-14247D02*
X12805Y-14847D01*
X12805Y-14847D02*
X12405Y-14847D01*
X11604Y-15653D02*
X11603Y-15662D01*
X11600Y-15672D01*
X11595Y-15680D01*
X11589Y-15688D01*
X11581Y-15694D01*
X11573Y-15699D01*
X11564Y-15701D01*
X11554Y-15702D01*
X11545Y-15702D01*
X11536Y-15699D01*
X11527Y-15694D01*
X11520Y-15688D01*
X11513Y-15681D01*
X11509Y-15672D01*
X11506Y-15663D01*
X11505Y-15653D01*
X11505Y-15644D01*
X11508Y-15635D01*
X11512Y-15626D01*
X11519Y-15619D01*
X11526Y-15612D01*
X11534Y-15608D01*
X11544Y-15605D01*
X11553Y-15604D01*
X11562Y-15604D01*
X11572Y-15607D01*
X11580Y-15611D01*
X11588Y-15617D01*
X11594Y-15625D01*
X11599Y-15633D01*
X11602Y-15642D01*
X11603Y-15652D01*
X11604Y-15653D01*
X12004Y-15653D02*
X11604Y-15653D01*
X11604Y-15653D02*
X11604Y-15053D01*
X11604Y-15053D02*
X12004Y-15053D01*
X12404Y-15053D02*
X12804Y-15053D01*
X12804Y-15053D02*
X12804Y-15653D01*
X12804Y-15653D02*
X12404Y-15653D01*
X10030Y-14847D02*
X10029Y-14856D01*
X10026Y-14866D01*
X10021Y-14874D01*
X10015Y-14882D01*
X10007Y-14888D01*
X09999Y-14893D01*
X09990Y-14895D01*
X09980Y-14896D01*
X09971Y-14896D01*
X09962Y-14893D01*
X09953Y-14888D01*
X09946Y-14882D01*
X09939Y-14875D01*
X09935Y-14866D01*
X09932Y-14857D01*
X09931Y-14847D01*
X09931Y-14838D01*
X09934Y-14829D01*
X09938Y-14820D01*
X09945Y-14813D01*
X09952Y-14806D01*
X09960Y-14802D01*
X09970Y-14799D01*
X09979Y-14798D01*
X09988Y-14798D01*
X09998Y-14801D01*
X10006Y-14805D01*
X10014Y-14811D01*
X10020Y-14819D01*
X10025Y-14827D01*
X10028Y-14836D01*
X10029Y-14846D01*
X10030Y-14847D01*
X10430Y-14847D02*
X10030Y-14847D01*
X10030Y-14847D02*
X10030Y-14247D01*
X10030Y-14247D02*
X10430Y-14247D01*
X10830Y-14247D02*
X11230Y-14247D01*
X11230Y-14247D02*
X11230Y-14847D01*
X11230Y-14847D02*
X10830Y-14847D01*
X10030Y-15653D02*
X10029Y-15662D01*
X10026Y-15672D01*
X10021Y-15680D01*
X10015Y-15688D01*
X10007Y-15694D01*
X09999Y-15699D01*
X09990Y-15701D01*
X09980Y-15702D01*
X09971Y-15702D01*
X09962Y-15699D01*
X09953Y-15694D01*
X09946Y-15688D01*
X09939Y-15681D01*
X09935Y-15672D01*
X09932Y-15663D01*
X09931Y-15653D01*
X09931Y-15644D01*
X09934Y-15635D01*
X09938Y-15626D01*
X09945Y-15619D01*
X09952Y-15612D01*
X09960Y-15608D01*
X09970Y-15605D01*
X09979Y-15604D01*
X09988Y-15604D01*
X09998Y-15607D01*
X10006Y-15611D01*
X10014Y-15617D01*
X10020Y-15625D01*
X10025Y-15633D01*
X10028Y-15642D01*
X10029Y-15652D01*
X10030Y-15653D01*
X10430Y-15653D02*
X10030Y-15653D01*
X10030Y-15653D02*
X10030Y-15053D01*
X10030Y-15053D02*
X10430Y-15053D01*
X10830Y-15053D02*
X11230Y-15053D01*
X11230Y-15053D02*
X11230Y-15653D01*
X11230Y-15653D02*
X10830Y-15653D01*
X20311Y-17626D02*
X20310Y-17635D01*
X20307Y-17645D01*
X20302Y-17653D01*
X20296Y-17661D01*
X20288Y-17667D01*
X20280Y-17672D01*
X20271Y-17674D01*
X20261Y-17675D01*
X20252Y-17675D01*
X20243Y-17672D01*
X20234Y-17667D01*
X20227Y-17661D01*
X20220Y-17654D01*
X20216Y-17645D01*
X20213Y-17636D01*
X20212Y-17626D01*
X20212Y-17617D01*
X20215Y-17608D01*
X20219Y-17599D01*
X20226Y-17592D01*
X20233Y-17585D01*
X20241Y-17581D01*
X20251Y-17578D01*
X20260Y-17577D01*
X20269Y-17577D01*
X20279Y-17580D01*
X20287Y-17584D01*
X20295Y-17590D01*
X20301Y-17598D01*
X20306Y-17606D01*
X20309Y-17615D01*
X20310Y-17625D01*
X20311Y-17626D01*
X20261Y-17176D02*
X20261Y-17576D01*
X20261Y-17576D02*
X19661Y-17576D01*
X19661Y-17576D02*
X19661Y-17176D01*
X19661Y-16776D02*
X19661Y-16376D01*
X19661Y-16376D02*
X20261Y-16376D01*
X20261Y-16376D02*
X20261Y-16776D01*
X19311Y-17626D02*
X19310Y-17635D01*
X19307Y-17645D01*
X19302Y-17653D01*
X19296Y-17661D01*
X19288Y-17667D01*
X19280Y-17672D01*
X19271Y-17674D01*
X19261Y-17675D01*
X19252Y-17675D01*
X19243Y-17672D01*
X19234Y-17667D01*
X19227Y-17661D01*
X19220Y-17654D01*
X19216Y-17645D01*
X19213Y-17636D01*
X19212Y-17626D01*
X19212Y-17617D01*
X19215Y-17608D01*
X19219Y-17599D01*
X19226Y-17592D01*
X19233Y-17585D01*
X19241Y-17581D01*
X19251Y-17578D01*
X19260Y-17577D01*
X19269Y-17577D01*
X19279Y-17580D01*
X19287Y-17584D01*
X19295Y-17590D01*
X19301Y-17598D01*
X19306Y-17606D01*
X19309Y-17615D01*
X19310Y-17625D01*
X19311Y-17626D01*
X19261Y-17176D02*
X19261Y-17576D01*
X19261Y-17576D02*
X18661Y-17576D01*
X18661Y-17576D02*
X18661Y-17176D01*
X18661Y-16776D02*
X18661Y-16376D01*
X18661Y-16376D02*
X19261Y-16376D01*
X19261Y-16376D02*
X19261Y-16776D01*
X18311Y-17626D02*
X18310Y-17635D01*
X18307Y-17645D01*
X18302Y-17653D01*
X18296Y-17661D01*
X18288Y-17667D01*
X18280Y-17672D01*
X18271Y-17674D01*
X18261Y-17675D01*
X18252Y-17675D01*
X18243Y-17672D01*
X18234Y-17667D01*
X18227Y-17661D01*
X18220Y-17654D01*
X18216Y-17645D01*
X18213Y-17636D01*
X18212Y-17626D01*
X18212Y-17617D01*
X18215Y-17608D01*
X18219Y-17599D01*
X18226Y-17592D01*
X18233Y-17585D01*
X18241Y-17581D01*
X18251Y-17578D01*
X18260Y-17577D01*
X18269Y-17577D01*
X18279Y-17580D01*
X18287Y-17584D01*
X18295Y-17590D01*
X18301Y-17598D01*
X18306Y-17606D01*
X18309Y-17615D01*
X18310Y-17625D01*
X18311Y-17626D01*
X18261Y-17176D02*
X18261Y-17576D01*
X18261Y-17576D02*
X17661Y-17576D01*
X17661Y-17576D02*
X17661Y-17176D01*
X17661Y-16776D02*
X17661Y-16376D01*
X17661Y-16376D02*
X18261Y-16376D01*
X18261Y-16376D02*
X18261Y-16776D01*
X17311Y-17626D02*
X17310Y-17635D01*
X17307Y-17645D01*
X17302Y-17653D01*
X17296Y-17661D01*
X17288Y-17667D01*
X17280Y-17672D01*
X17271Y-17674D01*
X17261Y-17675D01*
X17252Y-17675D01*
X17243Y-17672D01*
X17234Y-17667D01*
X17227Y-17661D01*
X17220Y-17654D01*
X17216Y-17645D01*
X17213Y-17636D01*
X17212Y-17626D01*
X17212Y-17617D01*
X17215Y-17608D01*
X17219Y-17599D01*
X17226Y-17592D01*
X17233Y-17585D01*
X17241Y-17581D01*
X17251Y-17578D01*
X17260Y-17577D01*
X17269Y-17577D01*
X17279Y-17580D01*
X17287Y-17584D01*
X17295Y-17590D01*
X17301Y-17598D01*
X17306Y-17606D01*
X17309Y-17615D01*
X17310Y-17625D01*
X17311Y-17626D01*
X17261Y-17176D02*
X17261Y-17576D01*
X17261Y-17576D02*
X16661Y-17576D01*
X16661Y-17576D02*
X16661Y-17176D01*
X16661Y-16776D02*
X16661Y-16376D01*
X16661Y-16376D02*
X17261Y-16376D01*
X17261Y-16376D02*
X17261Y-16776D01*
X16311Y-17626D02*
X16310Y-17635D01*
X16307Y-17645D01*
X16302Y-17653D01*
X16296Y-17661D01*
X16288Y-17667D01*
X16280Y-17672D01*
X16271Y-17674D01*
X16261Y-17675D01*
X16252Y-17675D01*
X16243Y-17672D01*
X16234Y-17667D01*
X16227Y-17661D01*
X16220Y-17654D01*
X16216Y-17645D01*
X16213Y-17636D01*
X16212Y-17626D01*
X16212Y-17617D01*
X16215Y-17608D01*
X16219Y-17599D01*
X16226Y-17592D01*
X16233Y-17585D01*
X16241Y-17581D01*
X16251Y-17578D01*
X16260Y-17577D01*
X16269Y-17577D01*
X16279Y-17580D01*
X16287Y-17584D01*
X16295Y-17590D01*
X16301Y-17598D01*
X16306Y-17606D01*
X16309Y-17615D01*
X16310Y-17625D01*
X16311Y-17626D01*
X16261Y-17176D02*
X16261Y-17576D01*
X16261Y-17576D02*
X15661Y-17576D01*
X15661Y-17576D02*
X15661Y-17176D01*
X15661Y-16776D02*
X15661Y-16376D01*
X15661Y-16376D02*
X16261Y-16376D01*
X16261Y-16376D02*
X16261Y-16776D01*
X15311Y-17626D02*
X15310Y-17635D01*
X15307Y-17645D01*
X15302Y-17653D01*
X15296Y-17661D01*
X15288Y-17667D01*
X15280Y-17672D01*
X15271Y-17674D01*
X15261Y-17675D01*
X15252Y-17675D01*
X15243Y-17672D01*
X15234Y-17667D01*
X15227Y-17661D01*
X15220Y-17654D01*
X15216Y-17645D01*
X15213Y-17636D01*
X15212Y-17626D01*
X15212Y-17617D01*
X15215Y-17608D01*
X15219Y-17599D01*
X15226Y-17592D01*
X15233Y-17585D01*
X15241Y-17581D01*
X15251Y-17578D01*
X15260Y-17577D01*
X15269Y-17577D01*
X15279Y-17580D01*
X15287Y-17584D01*
X15295Y-17590D01*
X15301Y-17598D01*
X15306Y-17606D01*
X15309Y-17615D01*
X15310Y-17625D01*
X15311Y-17626D01*
X15261Y-17176D02*
X15261Y-17576D01*
X15261Y-17576D02*
X14661Y-17576D01*
X14661Y-17576D02*
X14661Y-17176D01*
X14661Y-16776D02*
X14661Y-16376D01*
X14661Y-16376D02*
X15261Y-16376D01*
X15261Y-16376D02*
X15261Y-16776D01*
X14311Y-17626D02*
X14310Y-17635D01*
X14307Y-17645D01*
X14302Y-17653D01*
X14296Y-17661D01*
X14288Y-17667D01*
X14280Y-17672D01*
X14271Y-17674D01*
X14261Y-17675D01*
X14252Y-17675D01*
X14243Y-17672D01*
X14234Y-17667D01*
X14227Y-17661D01*
X14220Y-17654D01*
X14216Y-17645D01*
X14213Y-17636D01*
X14212Y-17626D01*
X14212Y-17617D01*
X14215Y-17608D01*
X14219Y-17599D01*
X14226Y-17592D01*
X14233Y-17585D01*
X14241Y-17581D01*
X14251Y-17578D01*
X14260Y-17577D01*
X14269Y-17577D01*
X14279Y-17580D01*
X14287Y-17584D01*
X14295Y-17590D01*
X14301Y-17598D01*
X14306Y-17606D01*
X14309Y-17615D01*
X14310Y-17625D01*
X14311Y-17626D01*
X14261Y-17176D02*
X14261Y-17576D01*
X14261Y-17576D02*
X13661Y-17576D01*
X13661Y-17576D02*
X13661Y-17176D01*
X13661Y-16776D02*
X13661Y-16376D01*
X13661Y-16376D02*
X14261Y-16376D01*
X14261Y-16376D02*
X14261Y-16776D01*
X13311Y-17626D02*
X13310Y-17635D01*
X13307Y-17645D01*
X13302Y-17653D01*
X13296Y-17661D01*
X13288Y-17667D01*
X13280Y-17672D01*
X13271Y-17674D01*
X13261Y-17675D01*
X13252Y-17675D01*
X13243Y-17672D01*
X13234Y-17667D01*
X13227Y-17661D01*
X13220Y-17654D01*
X13216Y-17645D01*
X13213Y-17636D01*
X13212Y-17626D01*
X13212Y-17617D01*
X13215Y-17608D01*
X13219Y-17599D01*
X13226Y-17592D01*
X13233Y-17585D01*
X13241Y-17581D01*
X13251Y-17578D01*
X13260Y-17577D01*
X13269Y-17577D01*
X13279Y-17580D01*
X13287Y-17584D01*
X13295Y-17590D01*
X13301Y-17598D01*
X13306Y-17606D01*
X13309Y-17615D01*
X13310Y-17625D01*
X13311Y-17626D01*
X13261Y-17176D02*
X13261Y-17576D01*
X13261Y-17576D02*
X12661Y-17576D01*
X12661Y-17576D02*
X12661Y-17176D01*
X12661Y-16776D02*
X12661Y-16376D01*
X12661Y-16376D02*
X13261Y-16376D01*
X13261Y-16376D02*
X13261Y-16776D01*
X05311Y-27626D02*
X05310Y-27635D01*
X05307Y-27645D01*
X05302Y-27653D01*
X05296Y-27661D01*
X05288Y-27667D01*
X05280Y-27672D01*
X05271Y-27674D01*
X05261Y-27675D01*
X05252Y-27675D01*
X05243Y-27672D01*
X05234Y-27667D01*
X05227Y-27661D01*
X05220Y-27654D01*
X05216Y-27645D01*
X05213Y-27636D01*
X05212Y-27626D01*
X05212Y-27617D01*
X05215Y-27608D01*
X05219Y-27599D01*
X05226Y-27592D01*
X05233Y-27585D01*
X05241Y-27581D01*
X05251Y-27578D01*
X05260Y-27577D01*
X05269Y-27577D01*
X05279Y-27580D01*
X05287Y-27584D01*
X05295Y-27590D01*
X05301Y-27598D01*
X05306Y-27606D01*
X05309Y-27615D01*
X05310Y-27625D01*
X05311Y-27626D01*
X05261Y-27176D02*
X05261Y-27576D01*
X05261Y-27576D02*
X04661Y-27576D01*
X04661Y-27576D02*
X04661Y-27176D01*
X04661Y-26776D02*
X04661Y-26376D01*
X04661Y-26376D02*
X05261Y-26376D01*
X05261Y-26376D02*
X05261Y-26776D01*
X04311Y-27626D02*
X04310Y-27635D01*
X04307Y-27645D01*
X04302Y-27653D01*
X04296Y-27661D01*
X04288Y-27667D01*
X04280Y-27672D01*
X04271Y-27674D01*
X04261Y-27675D01*
X04252Y-27675D01*
X04243Y-27672D01*
X04234Y-27667D01*
X04227Y-27661D01*
X04220Y-27654D01*
X04216Y-27645D01*
X04213Y-27636D01*
X04212Y-27626D01*
X04212Y-27617D01*
X04215Y-27608D01*
X04219Y-27599D01*
X04226Y-27592D01*
X04233Y-27585D01*
X04241Y-27581D01*
X04251Y-27578D01*
X04260Y-27577D01*
X04269Y-27577D01*
X04279Y-27580D01*
X04287Y-27584D01*
X04295Y-27590D01*
X04301Y-27598D01*
X04306Y-27606D01*
X04309Y-27615D01*
X04310Y-27625D01*
X04311Y-27626D01*
X04261Y-27176D02*
X04261Y-27576D01*
X04261Y-27576D02*
X03661Y-27576D01*
X03661Y-27576D02*
X03661Y-27176D01*
X03661Y-26776D02*
X03661Y-26376D01*
X03661Y-26376D02*
X04261Y-26376D01*
X04261Y-26376D02*
X04261Y-26776D01*
X03311Y-27626D02*
X03310Y-27635D01*
X03307Y-27645D01*
X03302Y-27653D01*
X03296Y-27661D01*
X03288Y-27667D01*
X03280Y-27672D01*
X03271Y-27674D01*
X03261Y-27675D01*
X03252Y-27675D01*
X03243Y-27672D01*
X03234Y-27667D01*
X03227Y-27661D01*
X03220Y-27654D01*
X03216Y-27645D01*
X03213Y-27636D01*
X03212Y-27626D01*
X03212Y-27617D01*
X03215Y-27608D01*
X03219Y-27599D01*
X03226Y-27592D01*
X03233Y-27585D01*
X03241Y-27581D01*
X03251Y-27578D01*
X03260Y-27577D01*
X03269Y-27577D01*
X03279Y-27580D01*
X03287Y-27584D01*
X03295Y-27590D01*
X03301Y-27598D01*
X03306Y-27606D01*
X03309Y-27615D01*
X03310Y-27625D01*
X03311Y-27626D01*
X03261Y-27176D02*
X03261Y-27576D01*
X03261Y-27576D02*
X02661Y-27576D01*
X02661Y-27576D02*
X02661Y-27176D01*
X02661Y-26776D02*
X02661Y-26376D01*
X02661Y-26376D02*
X03261Y-26376D01*
X03261Y-26376D02*
X03261Y-26776D01*
X15114Y-41398D02*
X15113Y-41407D01*
X15110Y-41417D01*
X15105Y-41425D01*
X15099Y-41433D01*
X15091Y-41439D01*
X15083Y-41444D01*
X15074Y-41446D01*
X15064Y-41447D01*
X15055Y-41447D01*
X15046Y-41444D01*
X15037Y-41439D01*
X15030Y-41433D01*
X15023Y-41426D01*
X15019Y-41417D01*
X15016Y-41408D01*
X15015Y-41398D01*
X15015Y-41389D01*
X15018Y-41380D01*
X15022Y-41371D01*
X15029Y-41364D01*
X15036Y-41357D01*
X15044Y-41353D01*
X15054Y-41350D01*
X15063Y-41349D01*
X15072Y-41349D01*
X15082Y-41352D01*
X15090Y-41356D01*
X15098Y-41362D01*
X15104Y-41370D01*
X15109Y-41378D01*
X15112Y-41387D01*
X15113Y-41397D01*
X15114Y-41398D01*
X15064Y-40948D02*
X15064Y-41348D01*
X15064Y-41348D02*
X14464Y-41348D01*
X14464Y-41348D02*
X14464Y-40948D01*
X14464Y-40548D02*
X14464Y-40148D01*
X14464Y-40148D02*
X15064Y-40148D01*
X15064Y-40148D02*
X15064Y-40548D01*
X22791Y-45886D02*
X22790Y-45895D01*
X22787Y-45905D01*
X22782Y-45913D01*
X22776Y-45921D01*
X22768Y-45927D01*
X22760Y-45932D01*
X22751Y-45934D01*
X22741Y-45935D01*
X22732Y-45935D01*
X22723Y-45932D01*
X22714Y-45927D01*
X22707Y-45921D01*
X22700Y-45914D01*
X22696Y-45905D01*
X22693Y-45896D01*
X22692Y-45886D01*
X22692Y-45877D01*
X22695Y-45868D01*
X22699Y-45859D01*
X22706Y-45852D01*
X22713Y-45845D01*
X22721Y-45841D01*
X22731Y-45838D01*
X22740Y-45837D01*
X22749Y-45837D01*
X22759Y-45840D01*
X22767Y-45844D01*
X22775Y-45850D01*
X22781Y-45858D01*
X22786Y-45866D01*
X22789Y-45875D01*
X22790Y-45885D01*
X22791Y-45886D01*
X22741Y-45436D02*
X22741Y-45836D01*
X22741Y-45836D02*
X22141Y-45836D01*
X22141Y-45836D02*
X22141Y-45436D01*
X22141Y-45036D02*
X22141Y-44636D01*
X22141Y-44636D02*
X22741Y-44636D01*
X22741Y-44636D02*
X22741Y-45036D01*
X11566Y-40102D02*
X11565Y-40111D01*
X11562Y-40121D01*
X11557Y-40129D01*
X11551Y-40137D01*
X11543Y-40143D01*
X11535Y-40148D01*
X11526Y-40150D01*
X11516Y-40151D01*
X11507Y-40151D01*
X11498Y-40148D01*
X11489Y-40143D01*
X11482Y-40137D01*
X11475Y-40130D01*
X11471Y-40121D01*
X11468Y-40112D01*
X11467Y-40102D01*
X11467Y-40093D01*
X11470Y-40084D01*
X11474Y-40075D01*
X11481Y-40068D01*
X11488Y-40061D01*
X11496Y-40057D01*
X11506Y-40054D01*
X11515Y-40053D01*
X11524Y-40053D01*
X11534Y-40056D01*
X11542Y-40060D01*
X11550Y-40066D01*
X11556Y-40074D01*
X11561Y-40082D01*
X11564Y-40091D01*
X11565Y-40101D01*
X11566Y-40102D01*
X11966Y-40102D02*
X11566Y-40102D01*
X11566Y-40102D02*
X11566Y-39502D01*
X11566Y-39502D02*
X11966Y-39502D01*
X12366Y-39502D02*
X12766Y-39502D01*
X12766Y-39502D02*
X12766Y-40102D01*
X12766Y-40102D02*
X12366Y-40102D01*
X14826Y-49622D02*
X15726Y-49622D01*
X15726Y-49622D02*
X15726Y-48972D01*
X14826Y-48272D02*
X14826Y-47622D01*
X14826Y-47622D02*
X15726Y-47622D01*
X15726Y-47622D02*
X15726Y-48272D01*
X14826Y-48972D02*
X14826Y-49622D01*
X10299Y-40173D02*
X11199Y-40173D01*
X11199Y-40173D02*
X11199Y-39523D01*
X10299Y-38823D02*
X10299Y-38173D01*
X10299Y-38173D02*
X11199Y-38173D01*
X11199Y-38173D02*
X11199Y-38823D01*
X10299Y-39523D02*
X10299Y-40173D01*
X03229Y-15320D02*
X03227Y-15333D01*
X03223Y-15346D01*
X03217Y-15358D01*
X03208Y-15369D01*
X03198Y-15378D01*
X03186Y-15384D01*
X03173Y-15388D01*
X03159Y-15389D01*
X03146Y-15388D01*
X03133Y-15384D01*
X03121Y-15378D01*
X03111Y-15370D01*
X03102Y-15359D01*
X03095Y-15347D01*
X03091Y-15334D01*
X03090Y-15320D01*
X03091Y-15308D01*
X03094Y-15295D01*
X03101Y-15283D01*
X03109Y-15272D01*
X03120Y-15263D01*
X03131Y-15256D01*
X03144Y-15252D01*
X03158Y-15251D01*
X03171Y-15252D01*
X03184Y-15255D01*
X03196Y-15261D01*
X03207Y-15270D01*
X03216Y-15280D01*
X03222Y-15292D01*
X03227Y-15305D01*
X03228Y-15319D01*
X03229Y-15320D01*
X02009Y-14670D02*
X02009Y-15270D01*
X02009Y-15270D02*
X03109Y-15270D01*
X03109Y-15270D02*
X03109Y-14670D01*
X03109Y-14070D02*
X03109Y-13470D01*
X03109Y-13470D02*
X02009Y-13470D01*
X02009Y-13470D02*
X02009Y-14070D01*
X01851Y-15320D02*
X01849Y-15333D01*
X01845Y-15346D01*
X01839Y-15358D01*
X01830Y-15369D01*
X01820Y-15378D01*
X01808Y-15384D01*
X01795Y-15388D01*
X01781Y-15389D01*
X01768Y-15388D01*
X01755Y-15384D01*
X01743Y-15378D01*
X01733Y-15370D01*
X01724Y-15359D01*
X01717Y-15347D01*
X01713Y-15334D01*
X01712Y-15320D01*
X01713Y-15308D01*
X01716Y-15295D01*
X01723Y-15283D01*
X01731Y-15272D01*
X01742Y-15263D01*
X01753Y-15256D01*
X01766Y-15252D01*
X01780Y-15251D01*
X01793Y-15252D01*
X01806Y-15255D01*
X01818Y-15261D01*
X01829Y-15270D01*
X01838Y-15280D01*
X01844Y-15292D01*
X01849Y-15305D01*
X01850Y-15319D01*
X01851Y-15320D01*
X00631Y-14670D02*
X00631Y-15270D01*
X00631Y-15270D02*
X01731Y-15270D01*
X01731Y-15270D02*
X01731Y-14670D01*
X01731Y-14070D02*
X01731Y-13470D01*
X01731Y-13470D02*
X00631Y-13470D01*
X00631Y-13470D02*
X00631Y-14070D01*
G54D16*
X26779Y-43932D02*
X26779Y-42032D01*
X26779Y-42032D02*
X30779Y-42032D01*
X30779Y-42032D02*
X30779Y-43932D01*
X30779Y-43932D02*
X26779Y-43932D01*
X30779Y-43232D02*
X30529Y-43232D01*
X30529Y-43232D02*
X30529Y-42732D01*
X30529Y-42732D02*
X30779Y-42732D01*
X08827Y-43163D02*
X08827Y-41263D01*
X08827Y-41263D02*
X12827Y-41263D01*
X12827Y-41263D02*
X12827Y-43163D01*
X12827Y-43163D02*
X08827Y-43163D01*
X12827Y-42463D02*
X12577Y-42463D01*
X12577Y-42463D02*
X12577Y-41963D01*
X12577Y-41963D02*
X12827Y-41963D01*
X26759Y-14633D02*
X28659Y-14633D01*
X28659Y-14633D02*
X28659Y-18633D01*
X28659Y-18633D02*
X26759Y-18633D01*
X26759Y-18633D02*
X26759Y-14633D01*
X27459Y-18633D02*
X27459Y-18383D01*
X27459Y-18383D02*
X27959Y-18383D01*
X27959Y-18383D02*
X27959Y-18633D01*
X12752Y-34316D02*
X12452Y-34316D01*
X12452Y-34316D02*
X12452Y-33716D01*
X12452Y-33716D02*
X12752Y-33716D01*
X08352Y-34916D02*
X08352Y-33116D01*
X08352Y-33116D02*
X12752Y-33116D01*
X12752Y-33116D02*
X12752Y-34916D01*
X12752Y-34916D02*
X08352Y-34916D01*
G54D15*
X19986Y-37367D02*
X21986Y-37367D01*
X21986Y-37367D02*
X21986Y-39167D01*
X21986Y-39167D02*
X19986Y-39167D01*
X19986Y-39167D02*
X19986Y-37367D01*
X19986Y-37967D02*
X20186Y-37967D01*
X20186Y-37967D02*
X20186Y-38467D01*
X20186Y-38467D02*
X19986Y-38467D01*
X31352Y-14852D02*
X31352Y-16052D01*
X31352Y-16052D02*
X31052Y-16052D01*
X31052Y-16052D02*
X31052Y-14852D01*
X31052Y-14852D02*
X31352Y-14852D01*
X31352Y-18002D02*
X31352Y-19202D01*
X31352Y-19202D02*
X31052Y-19202D01*
X31052Y-19202D02*
X31052Y-18002D01*
X31052Y-18002D02*
X31352Y-18002D01*
X30644Y-32935D02*
X30644Y-33835D01*
X30644Y-33835D02*
X30144Y-33835D01*
X30144Y-33835D02*
X30144Y-32935D01*
X30144Y-32935D02*
X30644Y-32935D01*
X25468Y-36476D02*
X25467Y-36485D01*
X25464Y-36495D01*
X25459Y-36503D01*
X25453Y-36511D01*
X25445Y-36517D01*
X25437Y-36522D01*
X25428Y-36524D01*
X25418Y-36525D01*
X25409Y-36525D01*
X25400Y-36522D01*
X25391Y-36517D01*
X25384Y-36511D01*
X25377Y-36504D01*
X25373Y-36495D01*
X25370Y-36486D01*
X25369Y-36476D01*
X25369Y-36467D01*
X25372Y-36458D01*
X25376Y-36449D01*
X25383Y-36442D01*
X25390Y-36435D01*
X25398Y-36431D01*
X25408Y-36428D01*
X25417Y-36427D01*
X25426Y-36427D01*
X25436Y-36430D01*
X25444Y-36434D01*
X25452Y-36440D01*
X25458Y-36448D01*
X25463Y-36456D01*
X25466Y-36465D01*
X25467Y-36475D01*
X25468Y-36476D01*
X25418Y-36026D02*
X25418Y-36426D01*
X25418Y-36426D02*
X24818Y-36426D01*
X24818Y-36426D02*
X24818Y-36026D01*
X24818Y-35626D02*
X24818Y-35226D01*
X24818Y-35226D02*
X25418Y-35226D01*
X25418Y-35226D02*
X25418Y-35626D01*
G54D16*
X27929Y-37042D02*
X27929Y-36742D01*
X27929Y-36742D02*
X28529Y-36742D01*
X28529Y-36742D02*
X28529Y-37042D01*
X27329Y-32642D02*
X29129Y-32642D01*
X29129Y-32642D02*
X29129Y-37042D01*
X29129Y-37042D02*
X27329Y-37042D01*
X27329Y-37042D02*
X27329Y-32642D01*
G54D15*
X33423Y-06445D02*
X34323Y-06445D01*
X34323Y-06445D02*
X34323Y-06945D01*
X34323Y-06945D02*
X33423Y-06945D01*
X33423Y-06945D02*
X33423Y-06445D01*
X31623Y-06845D02*
X30723Y-06845D01*
X30723Y-06845D02*
X30723Y-06345D01*
X30723Y-06345D02*
X31623Y-06345D01*
X31623Y-06345D02*
X31623Y-06845D01*
X27504Y-08678D02*
X28404Y-08678D01*
X28404Y-08678D02*
X28404Y-08028D01*
X27504Y-07328D02*
X27504Y-06678D01*
X27504Y-06678D02*
X28404Y-06678D01*
X28404Y-06678D02*
X28404Y-07328D01*
X27504Y-08028D02*
X27504Y-08678D01*
X33073Y-01545D02*
X33073Y-02445D01*
X33073Y-02445D02*
X33723Y-02445D01*
X34423Y-01545D02*
X35073Y-01545D01*
X35073Y-01545D02*
X35073Y-02445D01*
X35073Y-02445D02*
X34423Y-02445D01*
X33723Y-01545D02*
X33073Y-01545D01*
X29348Y-02616D02*
X29348Y-01716D01*
X29348Y-01716D02*
X28698Y-01716D01*
X27998Y-02616D02*
X27348Y-02616D01*
X27348Y-02616D02*
X27348Y-01716D01*
X27348Y-01716D02*
X27998Y-01716D01*
X28698Y-02616D02*
X29348Y-02616D01*
G54D16*
X27773Y-04395D02*
X28073Y-04395D01*
X28073Y-04395D02*
X28073Y-04995D01*
X28073Y-04995D02*
X27773Y-04995D01*
X32173Y-03795D02*
X32173Y-05595D01*
X32173Y-05595D02*
X27773Y-05595D01*
X27773Y-05595D02*
X27773Y-03795D01*
X27773Y-03795D02*
X32173Y-03795D01*
G54D15*
X34473Y-05595D02*
X32473Y-05595D01*
X32473Y-05595D02*
X32473Y-03795D01*
X32473Y-03795D02*
X34473Y-03795D01*
X34473Y-03795D02*
X34473Y-05595D01*
X34473Y-04995D02*
X34273Y-04995D01*
X34273Y-04995D02*
X34273Y-04495D01*
X34273Y-04495D02*
X34473Y-04495D01*
G54D12*
X35088Y-50087D02*
X35088Y-45905D01*
X35088Y-45905D02*
X28906Y-45905D01*
X28906Y-45905D02*
X28906Y-50087D01*
X28906Y-50087D02*
X35088Y-50087D01*
X28088Y-50087D02*
X28088Y-45905D01*
X28088Y-45905D02*
X21906Y-45905D01*
X21906Y-45905D02*
X21906Y-50087D01*
X21906Y-50087D02*
X28088Y-50087D01*
X26656Y-05358D02*
X26652Y-05394D01*
X26641Y-05429D01*
X26624Y-05462D01*
X26601Y-05490D01*
X26573Y-05513D01*
X26540Y-05531D01*
X26505Y-05542D01*
X26469Y-05545D01*
X26433Y-05542D01*
X26398Y-05532D01*
X26366Y-05515D01*
X26337Y-05492D01*
X26313Y-05464D01*
X26296Y-05432D01*
X26285Y-05397D01*
X26281Y-05360D01*
X26284Y-05325D01*
X26294Y-05289D01*
X26310Y-05257D01*
X26333Y-05228D01*
X26361Y-05204D01*
X26393Y-05186D01*
X26428Y-05175D01*
X26465Y-05171D01*
X26500Y-05173D01*
X26535Y-05183D01*
X26568Y-05200D01*
X26597Y-05222D01*
X26621Y-05250D01*
X26639Y-05282D01*
X26651Y-05317D01*
X26655Y-05353D01*
X26656Y-05358D01*
X27008Y-03755D02*
X26998Y-03856D01*
X26968Y-03954D01*
X26920Y-04044D01*
X26856Y-04123D01*
X26777Y-04188D01*
X26687Y-04237D01*
X26590Y-04267D01*
X26488Y-04277D01*
X26387Y-04268D01*
X26290Y-04239D01*
X26199Y-04192D01*
X26120Y-04128D01*
X26054Y-04050D01*
X26005Y-03961D01*
X25974Y-03863D01*
X25963Y-03762D01*
X25971Y-03661D01*
X25999Y-03563D01*
X26046Y-03472D01*
X26109Y-03392D01*
X26187Y-03326D01*
X26276Y-03276D01*
X26373Y-03245D01*
X26475Y-03233D01*
X26575Y-03240D01*
X26674Y-03268D01*
X26765Y-03314D01*
X26845Y-03377D01*
X26912Y-03454D01*
X26962Y-03543D01*
X26995Y-03640D01*
X27007Y-03741D01*
X27008Y-03755D01*
X25666Y-02803D02*
X25666Y-06173D01*
X27300Y-02799D02*
X27300Y-06181D01*
X25661Y-06178D02*
X27307Y-06178D01*
X25661Y-06178D02*
X27307Y-06178D01*
X25661Y-06178D02*
X27307Y-06178D01*
X25661Y-06178D02*
X27307Y-06178D01*
X25658Y-02803D02*
X27304Y-02803D01*
X25658Y-02803D02*
X27304Y-02803D01*
X25658Y-02803D02*
X27304Y-02803D01*
X25658Y-02803D02*
X27304Y-02803D01*
X13781Y-33562D02*
X13781Y-35137D01*
X13781Y-35137D02*
X24017Y-35137D01*
X24017Y-35137D02*
X24017Y-33562D01*
X13781Y-43011D02*
X13781Y-41436D01*
X13781Y-41436D02*
X24017Y-41436D01*
X24017Y-41436D02*
X24017Y-43011D01*
X13781Y-33562D02*
X24017Y-33562D01*
X24017Y-43011D02*
X13781Y-43011D01*
X13781Y-43011D02*
X13978Y-43011D01*
X22456Y-25117D02*
X22456Y-25617D01*
X22456Y-25617D02*
X05456Y-25617D01*
X05456Y-25617D02*
X05456Y-25117D01*
X05456Y-22617D02*
X05456Y-22117D01*
X05456Y-22117D02*
X22456Y-22117D01*
X22456Y-22117D02*
X22456Y-22617D01*
G54D11*
X33792Y-15990D02*
X33192Y-15990D01*
X33192Y-15762D01*
X33220Y-15704D01*
X33249Y-15676D01*
X33306Y-15647D01*
X33392Y-15647D01*
X33449Y-15676D01*
X33478Y-15704D01*
X33506Y-15762D01*
X33506Y-15990D01*
X33192Y-15104D02*
X33192Y-15390D01*
X33478Y-15419D01*
X33449Y-15390D01*
X33420Y-15333D01*
X33420Y-15190D01*
X33449Y-15133D01*
X33478Y-15104D01*
X33535Y-15076D01*
X33678Y-15076D01*
X33735Y-15104D01*
X33763Y-15133D01*
X33792Y-15190D01*
X33792Y-15333D01*
X33763Y-15390D01*
X33735Y-15419D01*
X33792Y-19336D02*
X33192Y-19336D01*
X33192Y-19108D01*
X33220Y-19050D01*
X33249Y-19022D01*
X33306Y-18993D01*
X33392Y-18993D01*
X33449Y-19022D01*
X33478Y-19050D01*
X33506Y-19108D01*
X33506Y-19336D01*
X33792Y-18422D02*
X33792Y-18765D01*
X33792Y-18593D02*
X33192Y-18593D01*
X33278Y-18650D01*
X33335Y-18708D01*
X33363Y-18765D01*
X21219Y-52219D02*
X21219Y-51619D01*
X21562Y-52219D02*
X21305Y-51876D01*
X21562Y-51619D02*
X21219Y-51962D01*
X21790Y-51676D02*
X21819Y-51647D01*
X21876Y-51619D01*
X22019Y-51619D01*
X22076Y-51647D01*
X22105Y-51676D01*
X22133Y-51733D01*
X22133Y-51790D01*
X22105Y-51876D01*
X21762Y-52219D01*
X22133Y-52219D01*
X28219Y-52219D02*
X28219Y-51619D01*
X28562Y-52219D02*
X28305Y-51876D01*
X28562Y-51619D02*
X28219Y-51962D01*
X29133Y-52219D02*
X28790Y-52219D01*
X28962Y-52219D02*
X28962Y-51619D01*
X28905Y-51705D01*
X28847Y-51762D01*
X28790Y-51790D01*
G54D17*
X18985Y-37430D02*
X18998Y-37439D01*
X19011Y-37465D01*
X19011Y-37482D01*
X18998Y-37507D01*
X18971Y-37525D01*
X18945Y-37533D01*
X18891Y-37542D01*
X18851Y-37542D01*
X18798Y-37533D01*
X18771Y-37525D01*
X18745Y-37507D01*
X18731Y-37482D01*
X18731Y-37465D01*
X18745Y-37439D01*
X18758Y-37430D01*
X18731Y-37267D02*
X18731Y-37353D01*
X18865Y-37362D01*
X18851Y-37353D01*
X18838Y-37336D01*
X18838Y-37293D01*
X18851Y-37276D01*
X18865Y-37267D01*
X18891Y-37259D01*
X18958Y-37259D01*
X18985Y-37267D01*
X18998Y-37276D01*
X19011Y-37293D01*
X19011Y-37336D01*
X18998Y-37353D01*
X18985Y-37362D01*
X12176Y-45362D02*
X12167Y-45375D01*
X12141Y-45388D01*
X12124Y-45388D01*
X12099Y-45375D01*
X12081Y-45348D01*
X12073Y-45322D01*
X12064Y-45268D01*
X12064Y-45228D01*
X12073Y-45175D01*
X12081Y-45148D01*
X12099Y-45122D01*
X12124Y-45108D01*
X12141Y-45108D01*
X12167Y-45122D01*
X12176Y-45135D01*
X12236Y-45108D02*
X12347Y-45108D01*
X12287Y-45215D01*
X12313Y-45215D01*
X12330Y-45228D01*
X12339Y-45242D01*
X12347Y-45268D01*
X12347Y-45335D01*
X12339Y-45362D01*
X12330Y-45375D01*
X12313Y-45388D01*
X12261Y-45388D01*
X12244Y-45375D01*
X12236Y-45362D01*
X25777Y-17843D02*
X25790Y-17852D01*
X25803Y-17878D01*
X25803Y-17895D01*
X25790Y-17920D01*
X25763Y-17938D01*
X25737Y-17946D01*
X25683Y-17955D01*
X25643Y-17955D01*
X25590Y-17946D01*
X25563Y-17938D01*
X25537Y-17920D01*
X25523Y-17895D01*
X25523Y-17878D01*
X25537Y-17852D01*
X25550Y-17843D01*
X25550Y-17775D02*
X25537Y-17766D01*
X25523Y-17749D01*
X25523Y-17706D01*
X25537Y-17689D01*
X25550Y-17680D01*
X25577Y-17672D01*
X25603Y-17672D01*
X25643Y-17680D01*
X25803Y-17783D01*
X25803Y-17672D01*
X11980Y-36229D02*
X11971Y-36242D01*
X11945Y-36255D01*
X11928Y-36255D01*
X11903Y-36242D01*
X11885Y-36215D01*
X11877Y-36189D01*
X11868Y-36135D01*
X11868Y-36095D01*
X11877Y-36042D01*
X11885Y-36015D01*
X11903Y-35989D01*
X11928Y-35975D01*
X11945Y-35975D01*
X11971Y-35989D01*
X11980Y-36002D01*
X12151Y-36255D02*
X12048Y-36255D01*
X12100Y-36255D02*
X12100Y-35975D01*
X12083Y-36015D01*
X12065Y-36042D01*
X12048Y-36055D01*
G54D15*
X30023Y-16893D02*
X29904Y-16976D01*
X30023Y-17035D02*
X29773Y-17035D01*
X29773Y-16940D01*
X29785Y-16916D01*
X29797Y-16905D01*
X29821Y-16893D01*
X29857Y-16893D01*
X29880Y-16905D01*
X29892Y-16916D01*
X29904Y-16940D01*
X29904Y-17035D01*
X29797Y-16797D02*
X29785Y-16785D01*
X29773Y-16762D01*
X29773Y-16702D01*
X29785Y-16678D01*
X29797Y-16666D01*
X29821Y-16655D01*
X29845Y-16655D01*
X29880Y-16666D01*
X30023Y-16809D01*
X30023Y-16655D01*
X30023Y-16536D02*
X30023Y-16488D01*
X30011Y-16464D01*
X29999Y-16452D01*
X29964Y-16428D01*
X29916Y-16417D01*
X29821Y-16417D01*
X29797Y-16428D01*
X29785Y-16440D01*
X29773Y-16464D01*
X29773Y-16512D01*
X29785Y-16536D01*
X29797Y-16547D01*
X29821Y-16559D01*
X29880Y-16559D01*
X29904Y-16547D01*
X29916Y-16536D01*
X29928Y-16512D01*
X29928Y-16464D01*
X29916Y-16440D01*
X29904Y-16428D01*
X29880Y-16417D01*
X31926Y-17227D02*
X31843Y-17108D01*
X31784Y-17227D02*
X31784Y-16977D01*
X31879Y-16977D01*
X31903Y-16989D01*
X31914Y-17001D01*
X31926Y-17025D01*
X31926Y-17061D01*
X31914Y-17084D01*
X31903Y-17096D01*
X31879Y-17108D01*
X31784Y-17108D01*
X32022Y-17001D02*
X32034Y-16989D01*
X32057Y-16977D01*
X32117Y-16977D01*
X32141Y-16989D01*
X32153Y-17001D01*
X32164Y-17025D01*
X32164Y-17049D01*
X32153Y-17084D01*
X32010Y-17227D01*
X32164Y-17227D01*
X32307Y-17084D02*
X32283Y-17072D01*
X32272Y-17061D01*
X32260Y-17037D01*
X32260Y-17025D01*
X32272Y-17001D01*
X32283Y-16989D01*
X32307Y-16977D01*
X32355Y-16977D01*
X32379Y-16989D01*
X32391Y-17001D01*
X32402Y-17025D01*
X32402Y-17037D01*
X32391Y-17061D01*
X32379Y-17072D01*
X32355Y-17084D01*
X32307Y-17084D01*
X32283Y-17096D01*
X32272Y-17108D01*
X32260Y-17132D01*
X32260Y-17180D01*
X32272Y-17203D01*
X32283Y-17215D01*
X32307Y-17227D01*
X32355Y-17227D01*
X32379Y-17215D01*
X32391Y-17203D01*
X32402Y-17180D01*
X32402Y-17132D01*
X32391Y-17108D01*
X32379Y-17096D01*
X32355Y-17084D01*
X32975Y-15515D02*
X32856Y-15598D01*
X32975Y-15657D02*
X32725Y-15657D01*
X32725Y-15562D01*
X32737Y-15538D01*
X32749Y-15527D01*
X32773Y-15515D01*
X32809Y-15515D01*
X32832Y-15527D01*
X32844Y-15538D01*
X32856Y-15562D01*
X32856Y-15657D01*
X32749Y-15419D02*
X32737Y-15407D01*
X32725Y-15384D01*
X32725Y-15324D01*
X32737Y-15300D01*
X32749Y-15288D01*
X32773Y-15277D01*
X32797Y-15277D01*
X32832Y-15288D01*
X32975Y-15431D01*
X32975Y-15277D01*
X32725Y-15193D02*
X32725Y-15027D01*
X32975Y-15134D01*
X30023Y-20043D02*
X29904Y-20126D01*
X30023Y-20185D02*
X29773Y-20185D01*
X29773Y-20090D01*
X29785Y-20066D01*
X29797Y-20055D01*
X29821Y-20043D01*
X29857Y-20043D01*
X29880Y-20055D01*
X29892Y-20066D01*
X29904Y-20090D01*
X29904Y-20185D01*
X29797Y-19947D02*
X29785Y-19935D01*
X29773Y-19912D01*
X29773Y-19852D01*
X29785Y-19828D01*
X29797Y-19816D01*
X29821Y-19805D01*
X29845Y-19805D01*
X29880Y-19816D01*
X30023Y-19959D01*
X30023Y-19805D01*
X29773Y-19590D02*
X29773Y-19638D01*
X29785Y-19662D01*
X29797Y-19674D01*
X29833Y-19697D01*
X29880Y-19709D01*
X29976Y-19709D01*
X29999Y-19697D01*
X30011Y-19686D01*
X30023Y-19662D01*
X30023Y-19614D01*
X30011Y-19590D01*
X29999Y-19578D01*
X29976Y-19567D01*
X29916Y-19567D01*
X29892Y-19578D01*
X29880Y-19590D01*
X29868Y-19614D01*
X29868Y-19662D01*
X29880Y-19686D01*
X29892Y-19697D01*
X29916Y-19709D01*
X31926Y-20376D02*
X31843Y-20257D01*
X31784Y-20376D02*
X31784Y-20126D01*
X31879Y-20126D01*
X31903Y-20138D01*
X31914Y-20150D01*
X31926Y-20174D01*
X31926Y-20210D01*
X31914Y-20233D01*
X31903Y-20245D01*
X31879Y-20257D01*
X31784Y-20257D01*
X32022Y-20150D02*
X32034Y-20138D01*
X32057Y-20126D01*
X32117Y-20126D01*
X32141Y-20138D01*
X32153Y-20150D01*
X32164Y-20174D01*
X32164Y-20198D01*
X32153Y-20233D01*
X32010Y-20376D01*
X32164Y-20376D01*
X32391Y-20126D02*
X32272Y-20126D01*
X32260Y-20245D01*
X32272Y-20233D01*
X32295Y-20221D01*
X32355Y-20221D01*
X32379Y-20233D01*
X32391Y-20245D01*
X32402Y-20269D01*
X32402Y-20329D01*
X32391Y-20352D01*
X32379Y-20364D01*
X32355Y-20376D01*
X32295Y-20376D01*
X32272Y-20364D01*
X32260Y-20352D01*
X32975Y-18861D02*
X32856Y-18944D01*
X32975Y-19003D02*
X32725Y-19003D01*
X32725Y-18908D01*
X32737Y-18884D01*
X32749Y-18873D01*
X32773Y-18861D01*
X32809Y-18861D01*
X32832Y-18873D01*
X32844Y-18884D01*
X32856Y-18908D01*
X32856Y-19003D01*
X32749Y-18765D02*
X32737Y-18753D01*
X32725Y-18730D01*
X32725Y-18670D01*
X32737Y-18646D01*
X32749Y-18634D01*
X32773Y-18623D01*
X32797Y-18623D01*
X32832Y-18634D01*
X32975Y-18777D01*
X32975Y-18623D01*
X32809Y-18408D02*
X32975Y-18408D01*
X32713Y-18468D02*
X32892Y-18527D01*
X32892Y-18373D01*
X02792Y-11518D02*
X02709Y-11399D01*
X02650Y-11518D02*
X02650Y-11268D01*
X02745Y-11268D01*
X02769Y-11280D01*
X02780Y-11292D01*
X02792Y-11316D01*
X02792Y-11352D01*
X02780Y-11375D01*
X02769Y-11387D01*
X02745Y-11399D01*
X02650Y-11399D01*
X02888Y-11292D02*
X02900Y-11280D01*
X02923Y-11268D01*
X02983Y-11268D01*
X03007Y-11280D01*
X03019Y-11292D01*
X03030Y-11316D01*
X03030Y-11340D01*
X03019Y-11375D01*
X02876Y-11518D01*
X03030Y-11518D01*
X03114Y-11268D02*
X03268Y-11268D01*
X03185Y-11363D01*
X03221Y-11363D01*
X03245Y-11375D01*
X03257Y-11387D01*
X03268Y-11411D01*
X03268Y-11471D01*
X03257Y-11494D01*
X03245Y-11506D01*
X03221Y-11518D01*
X03149Y-11518D01*
X03126Y-11506D01*
X03114Y-11494D01*
X00824Y-11518D02*
X00741Y-11399D01*
X00682Y-11518D02*
X00682Y-11268D01*
X00777Y-11268D01*
X00801Y-11280D01*
X00812Y-11292D01*
X00824Y-11316D01*
X00824Y-11352D01*
X00812Y-11375D01*
X00801Y-11387D01*
X00777Y-11399D01*
X00682Y-11399D01*
X00920Y-11292D02*
X00932Y-11280D01*
X00955Y-11268D01*
X01015Y-11268D01*
X01039Y-11280D01*
X01051Y-11292D01*
X01062Y-11316D01*
X01062Y-11340D01*
X01051Y-11375D01*
X00908Y-11518D01*
X01062Y-11518D01*
X01158Y-11292D02*
X01170Y-11280D01*
X01193Y-11268D01*
X01253Y-11268D01*
X01277Y-11280D01*
X01289Y-11292D01*
X01300Y-11316D01*
X01300Y-11340D01*
X01289Y-11375D01*
X01146Y-11518D01*
X01300Y-11518D01*
X16243Y-41106D02*
X16124Y-41189D01*
X16243Y-41248D02*
X15993Y-41248D01*
X15993Y-41153D01*
X16005Y-41129D01*
X16017Y-41118D01*
X16041Y-41106D01*
X16077Y-41106D01*
X16100Y-41118D01*
X16112Y-41129D01*
X16124Y-41153D01*
X16124Y-41248D01*
X16017Y-41010D02*
X16005Y-40998D01*
X15993Y-40975D01*
X15993Y-40915D01*
X16005Y-40891D01*
X16017Y-40879D01*
X16041Y-40868D01*
X16065Y-40868D01*
X16100Y-40879D01*
X16243Y-41022D01*
X16243Y-40868D01*
X16243Y-40630D02*
X16243Y-40772D01*
X16243Y-40701D02*
X15993Y-40701D01*
X16029Y-40725D01*
X16053Y-40749D01*
X16065Y-40772D01*
X23028Y-45337D02*
X22945Y-45218D01*
X22886Y-45337D02*
X22886Y-45087D01*
X22981Y-45087D01*
X23005Y-45099D01*
X23016Y-45111D01*
X23028Y-45135D01*
X23028Y-45171D01*
X23016Y-45194D01*
X23005Y-45206D01*
X22981Y-45218D01*
X22886Y-45218D01*
X23124Y-45111D02*
X23136Y-45099D01*
X23159Y-45087D01*
X23219Y-45087D01*
X23243Y-45099D01*
X23255Y-45111D01*
X23266Y-45135D01*
X23266Y-45159D01*
X23255Y-45194D01*
X23112Y-45337D01*
X23266Y-45337D01*
X23421Y-45087D02*
X23445Y-45087D01*
X23469Y-45099D01*
X23481Y-45111D01*
X23493Y-45135D01*
X23504Y-45182D01*
X23504Y-45242D01*
X23493Y-45290D01*
X23481Y-45313D01*
X23469Y-45325D01*
X23445Y-45337D01*
X23421Y-45337D01*
X23397Y-45325D01*
X23385Y-45313D01*
X23374Y-45290D01*
X23362Y-45242D01*
X23362Y-45182D01*
X23374Y-45135D01*
X23385Y-45111D01*
X23397Y-45099D01*
X23421Y-45087D01*
X12306Y-13094D02*
X12187Y-13177D01*
X12306Y-13236D02*
X12056Y-13236D01*
X12056Y-13141D01*
X12068Y-13117D01*
X12080Y-13106D01*
X12104Y-13094D01*
X12140Y-13094D01*
X12163Y-13106D01*
X12175Y-13117D01*
X12187Y-13141D01*
X12187Y-13236D01*
X12306Y-12856D02*
X12306Y-12998D01*
X12306Y-12927D02*
X12056Y-12927D01*
X12092Y-12951D01*
X12116Y-12975D01*
X12128Y-12998D01*
X12306Y-12737D02*
X12306Y-12689D01*
X12294Y-12665D01*
X12282Y-12653D01*
X12247Y-12629D01*
X12199Y-12618D01*
X12104Y-12618D01*
X12080Y-12629D01*
X12068Y-12641D01*
X12056Y-12665D01*
X12056Y-12713D01*
X12068Y-12737D01*
X12080Y-12748D01*
X12104Y-12760D01*
X12163Y-12760D01*
X12187Y-12748D01*
X12199Y-12737D01*
X12211Y-12713D01*
X12211Y-12665D01*
X12199Y-12641D01*
X12187Y-12629D01*
X12163Y-12618D01*
X12306Y-13901D02*
X12187Y-13984D01*
X12306Y-14043D02*
X12056Y-14043D01*
X12056Y-13948D01*
X12068Y-13924D01*
X12080Y-13913D01*
X12104Y-13901D01*
X12140Y-13901D01*
X12163Y-13913D01*
X12175Y-13924D01*
X12187Y-13948D01*
X12187Y-14043D01*
X12306Y-13663D02*
X12306Y-13805D01*
X12306Y-13734D02*
X12056Y-13734D01*
X12092Y-13758D01*
X12116Y-13782D01*
X12128Y-13805D01*
X12163Y-13520D02*
X12151Y-13544D01*
X12140Y-13555D01*
X12116Y-13567D01*
X12104Y-13567D01*
X12080Y-13555D01*
X12068Y-13544D01*
X12056Y-13520D01*
X12056Y-13472D01*
X12068Y-13448D01*
X12080Y-13436D01*
X12104Y-13425D01*
X12116Y-13425D01*
X12140Y-13436D01*
X12151Y-13448D01*
X12163Y-13472D01*
X12163Y-13520D01*
X12175Y-13544D01*
X12187Y-13555D01*
X12211Y-13567D01*
X12259Y-13567D01*
X12282Y-13555D01*
X12294Y-13544D01*
X12306Y-13520D01*
X12306Y-13472D01*
X12294Y-13448D01*
X12282Y-13436D01*
X12259Y-13425D01*
X12211Y-13425D01*
X12187Y-13436D01*
X12175Y-13448D01*
X12163Y-13472D01*
X10731Y-13094D02*
X10612Y-13177D01*
X10731Y-13236D02*
X10481Y-13236D01*
X10481Y-13141D01*
X10493Y-13117D01*
X10505Y-13106D01*
X10529Y-13094D01*
X10565Y-13094D01*
X10588Y-13106D01*
X10600Y-13117D01*
X10612Y-13141D01*
X10612Y-13236D01*
X10731Y-12856D02*
X10731Y-12998D01*
X10731Y-12927D02*
X10481Y-12927D01*
X10517Y-12951D01*
X10541Y-12975D01*
X10553Y-12998D01*
X10481Y-12772D02*
X10481Y-12606D01*
X10731Y-12713D01*
X10731Y-13901D02*
X10612Y-13984D01*
X10731Y-14043D02*
X10481Y-14043D01*
X10481Y-13948D01*
X10493Y-13924D01*
X10505Y-13913D01*
X10529Y-13901D01*
X10565Y-13901D01*
X10588Y-13913D01*
X10600Y-13924D01*
X10612Y-13948D01*
X10612Y-14043D01*
X10731Y-13663D02*
X10731Y-13805D01*
X10731Y-13734D02*
X10481Y-13734D01*
X10517Y-13758D01*
X10541Y-13782D01*
X10553Y-13805D01*
X10481Y-13448D02*
X10481Y-13496D01*
X10493Y-13520D01*
X10505Y-13532D01*
X10541Y-13555D01*
X10588Y-13567D01*
X10684Y-13567D01*
X10707Y-13555D01*
X10719Y-13544D01*
X10731Y-13520D01*
X10731Y-13472D01*
X10719Y-13448D01*
X10707Y-13436D01*
X10684Y-13425D01*
X10624Y-13425D01*
X10600Y-13436D01*
X10588Y-13448D01*
X10576Y-13472D01*
X10576Y-13520D01*
X10588Y-13544D01*
X10600Y-13555D01*
X10624Y-13567D01*
X12306Y-14708D02*
X12187Y-14791D01*
X12306Y-14850D02*
X12056Y-14850D01*
X12056Y-14755D01*
X12068Y-14731D01*
X12080Y-14720D01*
X12104Y-14708D01*
X12140Y-14708D01*
X12163Y-14720D01*
X12175Y-14731D01*
X12187Y-14755D01*
X12187Y-14850D01*
X12306Y-14470D02*
X12306Y-14612D01*
X12306Y-14541D02*
X12056Y-14541D01*
X12092Y-14565D01*
X12116Y-14589D01*
X12128Y-14612D01*
X12056Y-14243D02*
X12056Y-14362D01*
X12175Y-14374D01*
X12163Y-14362D01*
X12151Y-14339D01*
X12151Y-14279D01*
X12163Y-14255D01*
X12175Y-14243D01*
X12199Y-14232D01*
X12259Y-14232D01*
X12282Y-14243D01*
X12294Y-14255D01*
X12306Y-14279D01*
X12306Y-14339D01*
X12294Y-14362D01*
X12282Y-14374D01*
X12305Y-15514D02*
X12186Y-15597D01*
X12305Y-15656D02*
X12055Y-15656D01*
X12055Y-15561D01*
X12067Y-15537D01*
X12079Y-15526D01*
X12103Y-15514D01*
X12139Y-15514D01*
X12162Y-15526D01*
X12174Y-15537D01*
X12186Y-15561D01*
X12186Y-15656D01*
X12305Y-15276D02*
X12305Y-15418D01*
X12305Y-15347D02*
X12055Y-15347D01*
X12091Y-15371D01*
X12115Y-15395D01*
X12127Y-15418D01*
X12139Y-15061D02*
X12305Y-15061D01*
X12043Y-15121D02*
X12222Y-15180D01*
X12222Y-15026D01*
X10731Y-14708D02*
X10612Y-14791D01*
X10731Y-14850D02*
X10481Y-14850D01*
X10481Y-14755D01*
X10493Y-14731D01*
X10505Y-14720D01*
X10529Y-14708D01*
X10565Y-14708D01*
X10588Y-14720D01*
X10600Y-14731D01*
X10612Y-14755D01*
X10612Y-14850D01*
X10731Y-14470D02*
X10731Y-14612D01*
X10731Y-14541D02*
X10481Y-14541D01*
X10517Y-14565D01*
X10541Y-14589D01*
X10553Y-14612D01*
X10481Y-14386D02*
X10481Y-14232D01*
X10576Y-14315D01*
X10576Y-14279D01*
X10588Y-14255D01*
X10600Y-14243D01*
X10624Y-14232D01*
X10684Y-14232D01*
X10707Y-14243D01*
X10719Y-14255D01*
X10731Y-14279D01*
X10731Y-14351D01*
X10719Y-14374D01*
X10707Y-14386D01*
X10731Y-15514D02*
X10612Y-15597D01*
X10731Y-15656D02*
X10481Y-15656D01*
X10481Y-15561D01*
X10493Y-15537D01*
X10505Y-15526D01*
X10529Y-15514D01*
X10565Y-15514D01*
X10588Y-15526D01*
X10600Y-15537D01*
X10612Y-15561D01*
X10612Y-15656D01*
X10731Y-15276D02*
X10731Y-15418D01*
X10731Y-15347D02*
X10481Y-15347D01*
X10517Y-15371D01*
X10541Y-15395D01*
X10553Y-15418D01*
X10505Y-15180D02*
X10493Y-15168D01*
X10481Y-15145D01*
X10481Y-15085D01*
X10493Y-15061D01*
X10505Y-15049D01*
X10529Y-15038D01*
X10553Y-15038D01*
X10588Y-15049D01*
X10731Y-15192D01*
X10731Y-15038D01*
X19983Y-18271D02*
X19864Y-18354D01*
X19983Y-18413D02*
X19733Y-18413D01*
X19733Y-18318D01*
X19745Y-18294D01*
X19757Y-18283D01*
X19781Y-18271D01*
X19817Y-18271D01*
X19840Y-18283D01*
X19852Y-18294D01*
X19864Y-18318D01*
X19864Y-18413D01*
X19983Y-18033D02*
X19983Y-18175D01*
X19983Y-18104D02*
X19733Y-18104D01*
X19769Y-18128D01*
X19793Y-18152D01*
X19805Y-18175D01*
X19983Y-17795D02*
X19983Y-17937D01*
X19983Y-17866D02*
X19733Y-17866D01*
X19769Y-17890D01*
X19793Y-17914D01*
X19805Y-17937D01*
X18999Y-18271D02*
X18880Y-18354D01*
X18999Y-18413D02*
X18749Y-18413D01*
X18749Y-18318D01*
X18761Y-18294D01*
X18773Y-18283D01*
X18797Y-18271D01*
X18833Y-18271D01*
X18856Y-18283D01*
X18868Y-18294D01*
X18880Y-18318D01*
X18880Y-18413D01*
X18999Y-18033D02*
X18999Y-18175D01*
X18999Y-18104D02*
X18749Y-18104D01*
X18785Y-18128D01*
X18809Y-18152D01*
X18821Y-18175D01*
X18749Y-17878D02*
X18749Y-17854D01*
X18761Y-17830D01*
X18773Y-17818D01*
X18797Y-17806D01*
X18844Y-17795D01*
X18904Y-17795D01*
X18952Y-17806D01*
X18975Y-17818D01*
X18987Y-17830D01*
X18999Y-17854D01*
X18999Y-17878D01*
X18987Y-17902D01*
X18975Y-17914D01*
X18952Y-17925D01*
X18904Y-17937D01*
X18844Y-17937D01*
X18797Y-17925D01*
X18773Y-17914D01*
X18761Y-17902D01*
X18749Y-17878D01*
X18015Y-18152D02*
X17896Y-18235D01*
X18015Y-18294D02*
X17765Y-18294D01*
X17765Y-18199D01*
X17777Y-18175D01*
X17789Y-18164D01*
X17813Y-18152D01*
X17849Y-18152D01*
X17872Y-18164D01*
X17884Y-18175D01*
X17896Y-18199D01*
X17896Y-18294D01*
X18015Y-18033D02*
X18015Y-17985D01*
X18003Y-17961D01*
X17991Y-17949D01*
X17956Y-17925D01*
X17908Y-17914D01*
X17813Y-17914D01*
X17789Y-17925D01*
X17777Y-17937D01*
X17765Y-17961D01*
X17765Y-18009D01*
X17777Y-18033D01*
X17789Y-18044D01*
X17813Y-18056D01*
X17872Y-18056D01*
X17896Y-18044D01*
X17908Y-18033D01*
X17920Y-18009D01*
X17920Y-17961D01*
X17908Y-17937D01*
X17896Y-17925D01*
X17872Y-17914D01*
X17031Y-18152D02*
X16912Y-18235D01*
X17031Y-18294D02*
X16781Y-18294D01*
X16781Y-18199D01*
X16793Y-18175D01*
X16805Y-18164D01*
X16829Y-18152D01*
X16865Y-18152D01*
X16888Y-18164D01*
X16900Y-18175D01*
X16912Y-18199D01*
X16912Y-18294D01*
X16888Y-18009D02*
X16876Y-18033D01*
X16865Y-18044D01*
X16841Y-18056D01*
X16829Y-18056D01*
X16805Y-18044D01*
X16793Y-18033D01*
X16781Y-18009D01*
X16781Y-17961D01*
X16793Y-17937D01*
X16805Y-17925D01*
X16829Y-17914D01*
X16841Y-17914D01*
X16865Y-17925D01*
X16876Y-17937D01*
X16888Y-17961D01*
X16888Y-18009D01*
X16900Y-18033D01*
X16912Y-18044D01*
X16936Y-18056D01*
X16984Y-18056D01*
X17007Y-18044D01*
X17019Y-18033D01*
X17031Y-18009D01*
X17031Y-17961D01*
X17019Y-17937D01*
X17007Y-17925D01*
X16984Y-17914D01*
X16936Y-17914D01*
X16912Y-17925D01*
X16900Y-17937D01*
X16888Y-17961D01*
X16046Y-18152D02*
X15927Y-18235D01*
X16046Y-18294D02*
X15796Y-18294D01*
X15796Y-18199D01*
X15808Y-18175D01*
X15820Y-18164D01*
X15844Y-18152D01*
X15880Y-18152D01*
X15903Y-18164D01*
X15915Y-18175D01*
X15927Y-18199D01*
X15927Y-18294D01*
X15796Y-18068D02*
X15796Y-17902D01*
X16046Y-18009D01*
X15062Y-18152D02*
X14943Y-18235D01*
X15062Y-18294D02*
X14812Y-18294D01*
X14812Y-18199D01*
X14824Y-18175D01*
X14836Y-18164D01*
X14860Y-18152D01*
X14896Y-18152D01*
X14919Y-18164D01*
X14931Y-18175D01*
X14943Y-18199D01*
X14943Y-18294D01*
X14812Y-17937D02*
X14812Y-17985D01*
X14824Y-18009D01*
X14836Y-18021D01*
X14872Y-18044D01*
X14919Y-18056D01*
X15015Y-18056D01*
X15038Y-18044D01*
X15050Y-18033D01*
X15062Y-18009D01*
X15062Y-17961D01*
X15050Y-17937D01*
X15038Y-17925D01*
X15015Y-17914D01*
X14955Y-17914D01*
X14931Y-17925D01*
X14919Y-17937D01*
X14907Y-17961D01*
X14907Y-18009D01*
X14919Y-18033D01*
X14931Y-18044D01*
X14955Y-18056D01*
X14078Y-18152D02*
X13959Y-18235D01*
X14078Y-18294D02*
X13828Y-18294D01*
X13828Y-18199D01*
X13840Y-18175D01*
X13852Y-18164D01*
X13876Y-18152D01*
X13912Y-18152D01*
X13935Y-18164D01*
X13947Y-18175D01*
X13959Y-18199D01*
X13959Y-18294D01*
X13828Y-17925D02*
X13828Y-18044D01*
X13947Y-18056D01*
X13935Y-18044D01*
X13923Y-18021D01*
X13923Y-17961D01*
X13935Y-17937D01*
X13947Y-17925D01*
X13971Y-17914D01*
X14031Y-17914D01*
X14054Y-17925D01*
X14066Y-17937D01*
X14078Y-17961D01*
X14078Y-18021D01*
X14066Y-18044D01*
X14054Y-18056D01*
X13093Y-18152D02*
X12974Y-18235D01*
X13093Y-18294D02*
X12843Y-18294D01*
X12843Y-18199D01*
X12855Y-18175D01*
X12867Y-18164D01*
X12891Y-18152D01*
X12927Y-18152D01*
X12950Y-18164D01*
X12962Y-18175D01*
X12974Y-18199D01*
X12974Y-18294D01*
X12927Y-17937D02*
X13093Y-17937D01*
X12831Y-17997D02*
X13010Y-18056D01*
X13010Y-17902D01*
X05023Y-26026D02*
X04904Y-26109D01*
X05023Y-26168D02*
X04773Y-26168D01*
X04773Y-26073D01*
X04785Y-26049D01*
X04797Y-26038D01*
X04821Y-26026D01*
X04857Y-26026D01*
X04880Y-26038D01*
X04892Y-26049D01*
X04904Y-26073D01*
X04904Y-26168D01*
X04773Y-25942D02*
X04773Y-25788D01*
X04868Y-25871D01*
X04868Y-25835D01*
X04880Y-25811D01*
X04892Y-25799D01*
X04916Y-25788D01*
X04976Y-25788D01*
X04999Y-25799D01*
X05011Y-25811D01*
X05023Y-25835D01*
X05023Y-25907D01*
X05011Y-25930D01*
X04999Y-25942D01*
X04038Y-26026D02*
X03919Y-26109D01*
X04038Y-26168D02*
X03788Y-26168D01*
X03788Y-26073D01*
X03800Y-26049D01*
X03812Y-26038D01*
X03836Y-26026D01*
X03872Y-26026D01*
X03895Y-26038D01*
X03907Y-26049D01*
X03919Y-26073D01*
X03919Y-26168D01*
X03812Y-25930D02*
X03800Y-25918D01*
X03788Y-25895D01*
X03788Y-25835D01*
X03800Y-25811D01*
X03812Y-25799D01*
X03836Y-25788D01*
X03860Y-25788D01*
X03895Y-25799D01*
X04038Y-25942D01*
X04038Y-25788D01*
X03093Y-26026D02*
X02974Y-26109D01*
X03093Y-26168D02*
X02843Y-26168D01*
X02843Y-26073D01*
X02855Y-26049D01*
X02867Y-26038D01*
X02891Y-26026D01*
X02927Y-26026D01*
X02950Y-26038D01*
X02962Y-26049D01*
X02974Y-26073D01*
X02974Y-26168D01*
X03093Y-25788D02*
X03093Y-25930D01*
X03093Y-25859D02*
X02843Y-25859D01*
X02879Y-25883D01*
X02903Y-25907D01*
X02915Y-25930D01*
X14275Y-40986D02*
X14275Y-41105D01*
X14025Y-41105D01*
X14049Y-40915D02*
X14037Y-40903D01*
X14025Y-40880D01*
X14025Y-40820D01*
X14037Y-40796D01*
X14049Y-40784D01*
X14073Y-40773D01*
X14097Y-40773D01*
X14132Y-40784D01*
X14275Y-40927D01*
X14275Y-40773D01*
X22400Y-45337D02*
X22281Y-45337D01*
X22281Y-45087D01*
X22613Y-45337D02*
X22471Y-45337D01*
X22542Y-45337D02*
X22542Y-45087D01*
X22518Y-45123D01*
X22494Y-45147D01*
X22471Y-45159D01*
X12163Y-39447D02*
X12151Y-39459D01*
X12116Y-39471D01*
X12092Y-39471D01*
X12056Y-39459D01*
X12032Y-39435D01*
X12021Y-39412D01*
X12009Y-39364D01*
X12009Y-39328D01*
X12021Y-39281D01*
X12032Y-39257D01*
X12056Y-39233D01*
X12092Y-39221D01*
X12116Y-39221D01*
X12151Y-39233D01*
X12163Y-39245D01*
X12378Y-39305D02*
X12378Y-39471D01*
X12318Y-39209D02*
X12259Y-39388D01*
X12413Y-39388D01*
X16263Y-48618D02*
X16121Y-48718D01*
X16263Y-48790D02*
X15963Y-48790D01*
X15963Y-48675D01*
X15978Y-48647D01*
X15992Y-48632D01*
X16021Y-48618D01*
X16063Y-48618D01*
X16092Y-48632D01*
X16106Y-48647D01*
X16121Y-48675D01*
X16121Y-48790D01*
X15963Y-48518D02*
X15963Y-48332D01*
X16078Y-48432D01*
X16078Y-48390D01*
X16092Y-48361D01*
X16106Y-48347D01*
X16135Y-48332D01*
X16206Y-48332D01*
X16235Y-48347D01*
X16249Y-48361D01*
X16263Y-48390D01*
X16263Y-48475D01*
X16249Y-48504D01*
X16235Y-48518D01*
X16263Y-48046D02*
X16263Y-48218D01*
X16263Y-48132D02*
X15963Y-48132D01*
X16006Y-48161D01*
X16035Y-48189D01*
X16049Y-48218D01*
X09964Y-39169D02*
X09822Y-39269D01*
X09964Y-39341D02*
X09664Y-39341D01*
X09664Y-39226D01*
X09679Y-39198D01*
X09693Y-39183D01*
X09722Y-39169D01*
X09764Y-39169D01*
X09793Y-39183D01*
X09807Y-39198D01*
X09822Y-39226D01*
X09822Y-39341D01*
X09664Y-39069D02*
X09664Y-38883D01*
X09779Y-38983D01*
X09779Y-38941D01*
X09793Y-38912D01*
X09807Y-38898D01*
X09836Y-38883D01*
X09907Y-38883D01*
X09936Y-38898D01*
X09950Y-38912D01*
X09964Y-38941D01*
X09964Y-39026D01*
X09950Y-39055D01*
X09936Y-39069D01*
X09664Y-38697D02*
X09664Y-38669D01*
X09679Y-38640D01*
X09693Y-38626D01*
X09722Y-38612D01*
X09779Y-38597D01*
X09850Y-38597D01*
X09907Y-38612D01*
X09936Y-38626D01*
X09950Y-38640D01*
X09964Y-38669D01*
X09964Y-38697D01*
X09950Y-38726D01*
X09936Y-38740D01*
X09907Y-38755D01*
X09850Y-38769D01*
X09779Y-38769D01*
X09722Y-38755D01*
X09693Y-38740D01*
X09679Y-38726D01*
X09664Y-38697D01*
X02480Y-14592D02*
X02180Y-14592D01*
X02180Y-14520D01*
X02195Y-14477D01*
X02223Y-14449D01*
X02252Y-14434D01*
X02309Y-14420D01*
X02352Y-14420D01*
X02409Y-14434D01*
X02438Y-14449D01*
X02466Y-14477D01*
X02480Y-14520D01*
X02480Y-14592D01*
X02209Y-14306D02*
X02195Y-14292D01*
X02180Y-14263D01*
X02180Y-14192D01*
X02195Y-14163D01*
X02209Y-14149D01*
X02238Y-14134D01*
X02266Y-14134D01*
X02309Y-14149D01*
X02480Y-14320D01*
X02480Y-14134D01*
X01102Y-14592D02*
X00802Y-14592D01*
X00802Y-14520D01*
X00817Y-14477D01*
X00845Y-14449D01*
X00874Y-14434D01*
X00931Y-14420D01*
X00974Y-14420D01*
X01031Y-14434D01*
X01060Y-14449D01*
X01088Y-14477D01*
X01102Y-14520D01*
X01102Y-14592D01*
X01102Y-14134D02*
X01102Y-14306D01*
X01102Y-14220D02*
X00802Y-14220D01*
X00845Y-14249D01*
X00874Y-14277D01*
X00888Y-14306D01*
X28436Y-43294D02*
X28436Y-43618D01*
X28458Y-43656D01*
X28479Y-43675D01*
X28522Y-43694D01*
X28608Y-43694D01*
X28650Y-43675D01*
X28672Y-43656D01*
X28693Y-43618D01*
X28693Y-43294D01*
X29100Y-43294D02*
X29014Y-43294D01*
X28971Y-43313D01*
X28950Y-43332D01*
X28907Y-43389D01*
X28886Y-43465D01*
X28886Y-43618D01*
X28907Y-43656D01*
X28929Y-43675D01*
X28971Y-43694D01*
X29057Y-43694D01*
X29100Y-43675D01*
X29121Y-43656D01*
X29143Y-43618D01*
X29143Y-43522D01*
X29121Y-43484D01*
X29100Y-43465D01*
X29057Y-43446D01*
X28971Y-43446D01*
X28929Y-43465D01*
X28907Y-43484D01*
X28886Y-43522D01*
X10484Y-42525D02*
X10484Y-42849D01*
X10506Y-42887D01*
X10527Y-42906D01*
X10570Y-42925D01*
X10656Y-42925D01*
X10698Y-42906D01*
X10720Y-42887D01*
X10741Y-42849D01*
X10741Y-42525D01*
X10912Y-42525D02*
X11191Y-42525D01*
X11041Y-42677D01*
X11105Y-42677D01*
X11148Y-42696D01*
X11169Y-42715D01*
X11191Y-42753D01*
X11191Y-42849D01*
X11169Y-42887D01*
X11148Y-42906D01*
X11105Y-42925D01*
X10977Y-42925D01*
X10934Y-42906D01*
X10912Y-42887D01*
X26921Y-16976D02*
X27245Y-16976D01*
X27283Y-16954D01*
X27302Y-16933D01*
X27321Y-16890D01*
X27321Y-16804D01*
X27302Y-16762D01*
X27283Y-16740D01*
X27245Y-16719D01*
X26921Y-16719D01*
X26959Y-16526D02*
X26940Y-16505D01*
X26921Y-16462D01*
X26921Y-16355D01*
X26940Y-16312D01*
X26959Y-16291D01*
X26997Y-16269D01*
X27035Y-16269D01*
X27092Y-16291D01*
X27321Y-16548D01*
X27321Y-16269D01*
G54D16*
X10197Y-34278D02*
X10197Y-34602D01*
X10216Y-34640D01*
X10235Y-34659D01*
X10273Y-34678D01*
X10350Y-34678D01*
X10388Y-34659D01*
X10407Y-34640D01*
X10426Y-34602D01*
X10426Y-34278D01*
X10826Y-34678D02*
X10597Y-34678D01*
X10711Y-34678D02*
X10711Y-34278D01*
X10673Y-34335D01*
X10635Y-34373D01*
X10597Y-34392D01*
G54D15*
X20681Y-37499D02*
X20681Y-37863D01*
X20700Y-37906D01*
X20719Y-37928D01*
X20757Y-37949D01*
X20834Y-37949D01*
X20872Y-37928D01*
X20891Y-37906D01*
X20910Y-37863D01*
X20910Y-37499D01*
X21272Y-37649D02*
X21272Y-37949D01*
X21176Y-37478D02*
X21081Y-37799D01*
X21329Y-37799D01*
G54D18*
X31056Y-14989D02*
X31042Y-15017D01*
X31013Y-15046D01*
X30970Y-15089D01*
X30956Y-15117D01*
X30956Y-15146D01*
X31027Y-15131D02*
X31013Y-15160D01*
X30985Y-15189D01*
X30927Y-15203D01*
X30827Y-15203D01*
X30770Y-15189D01*
X30742Y-15160D01*
X30727Y-15131D01*
X30727Y-15074D01*
X30742Y-15046D01*
X30770Y-15017D01*
X30827Y-15003D01*
X30927Y-15003D01*
X30985Y-15017D01*
X31013Y-15046D01*
X31027Y-15074D01*
X31027Y-15131D01*
X30756Y-14889D02*
X30742Y-14875D01*
X30727Y-14846D01*
X30727Y-14775D01*
X30742Y-14746D01*
X30756Y-14732D01*
X30785Y-14717D01*
X30813Y-14717D01*
X30856Y-14732D01*
X31027Y-14903D01*
X31027Y-14717D01*
X31056Y-18139D02*
X31042Y-18167D01*
X31013Y-18196D01*
X30970Y-18239D01*
X30956Y-18267D01*
X30956Y-18296D01*
X31027Y-18281D02*
X31013Y-18310D01*
X30985Y-18339D01*
X30927Y-18353D01*
X30827Y-18353D01*
X30770Y-18339D01*
X30742Y-18310D01*
X30727Y-18281D01*
X30727Y-18224D01*
X30742Y-18196D01*
X30770Y-18167D01*
X30827Y-18153D01*
X30927Y-18153D01*
X30985Y-18167D01*
X31013Y-18196D01*
X31027Y-18224D01*
X31027Y-18281D01*
X31027Y-17867D02*
X31027Y-18039D01*
X31027Y-17953D02*
X30727Y-17953D01*
X30770Y-17982D01*
X30799Y-18010D01*
X30813Y-18039D01*
G54D17*
X31190Y-33493D02*
X31203Y-33502D01*
X31216Y-33528D01*
X31216Y-33545D01*
X31203Y-33570D01*
X31176Y-33588D01*
X31150Y-33596D01*
X31096Y-33605D01*
X31056Y-33605D01*
X31003Y-33596D01*
X30976Y-33588D01*
X30950Y-33570D01*
X30936Y-33545D01*
X30936Y-33528D01*
X30950Y-33502D01*
X30963Y-33493D01*
X30936Y-33339D02*
X30936Y-33373D01*
X30950Y-33390D01*
X30963Y-33399D01*
X31003Y-33416D01*
X31056Y-33425D01*
X31163Y-33425D01*
X31190Y-33416D01*
X31203Y-33408D01*
X31216Y-33390D01*
X31216Y-33356D01*
X31203Y-33339D01*
X31190Y-33330D01*
X31163Y-33322D01*
X31096Y-33322D01*
X31070Y-33330D01*
X31056Y-33339D01*
X31043Y-33356D01*
X31043Y-33390D01*
X31056Y-33408D01*
X31070Y-33416D01*
X31096Y-33425D01*
G54D15*
X24511Y-35987D02*
X24392Y-36070D01*
X24511Y-36129D02*
X24261Y-36129D01*
X24261Y-36034D01*
X24273Y-36010D01*
X24285Y-35999D01*
X24309Y-35987D01*
X24345Y-35987D01*
X24368Y-35999D01*
X24380Y-36010D01*
X24392Y-36034D01*
X24392Y-36129D01*
X24261Y-35903D02*
X24261Y-35749D01*
X24356Y-35832D01*
X24356Y-35796D01*
X24368Y-35772D01*
X24380Y-35760D01*
X24404Y-35749D01*
X24464Y-35749D01*
X24487Y-35760D01*
X24499Y-35772D01*
X24511Y-35796D01*
X24511Y-35868D01*
X24499Y-35891D01*
X24487Y-35903D01*
X24285Y-35653D02*
X24273Y-35641D01*
X24261Y-35618D01*
X24261Y-35558D01*
X24273Y-35534D01*
X24285Y-35522D01*
X24309Y-35511D01*
X24333Y-35511D01*
X24368Y-35522D01*
X24511Y-35665D01*
X24511Y-35511D01*
G54D16*
X27491Y-35097D02*
X27815Y-35097D01*
X27853Y-35078D01*
X27872Y-35059D01*
X27891Y-35021D01*
X27891Y-34944D01*
X27872Y-34906D01*
X27853Y-34887D01*
X27815Y-34868D01*
X27491Y-34868D01*
X27491Y-34487D02*
X27491Y-34678D01*
X27681Y-34697D01*
X27662Y-34678D01*
X27643Y-34640D01*
X27643Y-34544D01*
X27662Y-34506D01*
X27681Y-34487D01*
X27719Y-34468D01*
X27815Y-34468D01*
X27853Y-34487D01*
X27872Y-34506D01*
X27891Y-34544D01*
X27891Y-34640D01*
X27872Y-34678D01*
X27853Y-34697D01*
G54D17*
X33960Y-06724D02*
X33973Y-06733D01*
X33986Y-06759D01*
X33986Y-06776D01*
X33973Y-06801D01*
X33946Y-06819D01*
X33920Y-06827D01*
X33866Y-06836D01*
X33826Y-06836D01*
X33773Y-06827D01*
X33746Y-06819D01*
X33720Y-06801D01*
X33706Y-06776D01*
X33706Y-06759D01*
X33720Y-06733D01*
X33733Y-06724D01*
X33826Y-06621D02*
X33813Y-06639D01*
X33800Y-06647D01*
X33773Y-06656D01*
X33760Y-06656D01*
X33733Y-06647D01*
X33720Y-06639D01*
X33706Y-06621D01*
X33706Y-06587D01*
X33720Y-06570D01*
X33733Y-06561D01*
X33760Y-06553D01*
X33773Y-06553D01*
X33800Y-06561D01*
X33813Y-06570D01*
X33826Y-06587D01*
X33826Y-06621D01*
X33840Y-06639D01*
X33853Y-06647D01*
X33880Y-06656D01*
X33933Y-06656D01*
X33960Y-06647D01*
X33973Y-06639D01*
X33986Y-06621D01*
X33986Y-06587D01*
X33973Y-06570D01*
X33960Y-06561D01*
X33933Y-06553D01*
X33880Y-06553D01*
X33853Y-06561D01*
X33840Y-06570D01*
X33826Y-06587D01*
X31260Y-06624D02*
X31273Y-06633D01*
X31286Y-06659D01*
X31286Y-06676D01*
X31273Y-06701D01*
X31246Y-06719D01*
X31220Y-06727D01*
X31166Y-06736D01*
X31126Y-06736D01*
X31073Y-06727D01*
X31046Y-06719D01*
X31020Y-06701D01*
X31006Y-06676D01*
X31006Y-06659D01*
X31020Y-06633D01*
X31033Y-06624D01*
X31006Y-06564D02*
X31006Y-06444D01*
X31286Y-06521D01*
G54D15*
X27761Y-07799D02*
X27661Y-07657D01*
X27589Y-07799D02*
X27589Y-07499D01*
X27704Y-07499D01*
X27732Y-07514D01*
X27747Y-07528D01*
X27761Y-07557D01*
X27761Y-07599D01*
X27747Y-07628D01*
X27732Y-07642D01*
X27704Y-07657D01*
X27589Y-07657D01*
X27861Y-07499D02*
X28047Y-07499D01*
X27947Y-07614D01*
X27989Y-07614D01*
X28018Y-07628D01*
X28032Y-07642D01*
X28047Y-07671D01*
X28047Y-07742D01*
X28032Y-07771D01*
X28018Y-07785D01*
X27989Y-07799D01*
X27904Y-07799D01*
X27875Y-07785D01*
X27861Y-07771D01*
X28318Y-07499D02*
X28175Y-07499D01*
X28161Y-07642D01*
X28175Y-07628D01*
X28204Y-07614D01*
X28275Y-07614D01*
X28304Y-07628D01*
X28318Y-07642D01*
X28333Y-07671D01*
X28333Y-07742D01*
X28318Y-07771D01*
X28304Y-07785D01*
X28275Y-07799D01*
X28204Y-07799D01*
X28175Y-07785D01*
X28161Y-07771D01*
X33666Y-01302D02*
X33566Y-01160D01*
X33494Y-01302D02*
X33494Y-01002D01*
X33609Y-01002D01*
X33637Y-01017D01*
X33652Y-01031D01*
X33666Y-01060D01*
X33666Y-01102D01*
X33652Y-01131D01*
X33637Y-01145D01*
X33609Y-01160D01*
X33494Y-01160D01*
X33766Y-01002D02*
X33952Y-01002D01*
X33852Y-01117D01*
X33894Y-01117D01*
X33923Y-01131D01*
X33937Y-01145D01*
X33952Y-01174D01*
X33952Y-01245D01*
X33937Y-01274D01*
X33923Y-01288D01*
X33894Y-01302D01*
X33809Y-01302D01*
X33780Y-01288D01*
X33766Y-01274D01*
X34209Y-01102D02*
X34209Y-01302D01*
X34138Y-00988D02*
X34066Y-01202D01*
X34252Y-01202D01*
X28154Y-01695D02*
X28054Y-01553D01*
X27982Y-01695D02*
X27982Y-01395D01*
X28097Y-01395D01*
X28125Y-01410D01*
X28140Y-01424D01*
X28154Y-01453D01*
X28154Y-01495D01*
X28140Y-01524D01*
X28125Y-01538D01*
X28097Y-01553D01*
X27982Y-01553D01*
X28254Y-01395D02*
X28440Y-01395D01*
X28340Y-01510D01*
X28382Y-01510D01*
X28411Y-01524D01*
X28425Y-01538D01*
X28440Y-01567D01*
X28440Y-01638D01*
X28425Y-01667D01*
X28411Y-01681D01*
X28382Y-01695D01*
X28297Y-01695D01*
X28268Y-01681D01*
X28254Y-01667D01*
X28540Y-01395D02*
X28726Y-01395D01*
X28626Y-01510D01*
X28668Y-01510D01*
X28697Y-01524D01*
X28711Y-01538D01*
X28726Y-01567D01*
X28726Y-01638D01*
X28711Y-01667D01*
X28697Y-01681D01*
X28668Y-01695D01*
X28583Y-01695D01*
X28554Y-01681D01*
X28540Y-01667D01*
G54D16*
X29718Y-03957D02*
X29718Y-04281D01*
X29737Y-04319D01*
X29756Y-04338D01*
X29794Y-04357D01*
X29871Y-04357D01*
X29909Y-04338D01*
X29928Y-04319D01*
X29947Y-04281D01*
X29947Y-03957D01*
X30194Y-04128D02*
X30156Y-04109D01*
X30137Y-04090D01*
X30118Y-04052D01*
X30118Y-04033D01*
X30137Y-03995D01*
X30156Y-03976D01*
X30194Y-03957D01*
X30271Y-03957D01*
X30309Y-03976D01*
X30328Y-03995D01*
X30347Y-04033D01*
X30347Y-04052D01*
X30328Y-04090D01*
X30309Y-04109D01*
X30271Y-04128D01*
X30194Y-04128D01*
X30156Y-04147D01*
X30137Y-04166D01*
X30118Y-04205D01*
X30118Y-04281D01*
X30137Y-04319D01*
X30156Y-04338D01*
X30194Y-04357D01*
X30271Y-04357D01*
X30309Y-04338D01*
X30328Y-04319D01*
X30347Y-04281D01*
X30347Y-04205D01*
X30328Y-04166D01*
X30309Y-04147D01*
X30271Y-04128D01*
G54D15*
X33168Y-04927D02*
X33168Y-05291D01*
X33187Y-05334D01*
X33206Y-05356D01*
X33244Y-05377D01*
X33321Y-05377D01*
X33359Y-05356D01*
X33378Y-05334D01*
X33397Y-05291D01*
X33397Y-04927D01*
X33549Y-04927D02*
X33816Y-04927D01*
X33644Y-05377D01*
G54D11*
X32007Y-48512D02*
X31407Y-48512D01*
X32007Y-48169D02*
X31664Y-48426D01*
X31407Y-48169D02*
X31750Y-48512D01*
X31407Y-47969D02*
X31407Y-47598D01*
X31635Y-47798D01*
X31635Y-47712D01*
X31664Y-47655D01*
X31693Y-47626D01*
X31750Y-47598D01*
X31893Y-47598D01*
X31950Y-47626D01*
X31978Y-47655D01*
X32007Y-47712D01*
X32007Y-47884D01*
X31978Y-47941D01*
X31950Y-47969D01*
X25007Y-48512D02*
X24407Y-48512D01*
X25007Y-48169D02*
X24664Y-48426D01*
X24407Y-48169D02*
X24750Y-48512D01*
X24607Y-47655D02*
X25007Y-47655D01*
X24378Y-47798D02*
X24807Y-47941D01*
X24807Y-47569D01*
X25921Y-04564D02*
X25921Y-05050D01*
X25949Y-05107D01*
X25978Y-05135D01*
X26035Y-05164D01*
X26149Y-05164D01*
X26207Y-05135D01*
X26235Y-05107D01*
X26264Y-05050D01*
X26264Y-04564D01*
X26578Y-05164D02*
X26693Y-05164D01*
X26750Y-05135D01*
X26778Y-05107D01*
X26836Y-05021D01*
X26864Y-04907D01*
X26864Y-04678D01*
X26836Y-04621D01*
X26807Y-04592D01*
X26750Y-04564D01*
X26636Y-04564D01*
X26578Y-04592D01*
X26550Y-04621D01*
X26521Y-04678D01*
X26521Y-04821D01*
X26550Y-04878D01*
X26578Y-04907D01*
X26636Y-04935D01*
X26750Y-04935D01*
X26807Y-04907D01*
X26836Y-04878D01*
X26864Y-04821D01*
X12055Y-42905D02*
X11455Y-42905D01*
X11883Y-42705D01*
X11455Y-42505D01*
X12055Y-42505D01*
X12055Y-41905D02*
X12055Y-42248D01*
X12055Y-42076D02*
X11455Y-42076D01*
X11541Y-42133D01*
X11598Y-42191D01*
X11626Y-42248D01*
X15667Y-24263D02*
X15643Y-24301D01*
X15572Y-24339D01*
X15524Y-24339D01*
X15452Y-24301D01*
X15405Y-24225D01*
X15381Y-24148D01*
X15357Y-23996D01*
X15357Y-23882D01*
X15381Y-23729D01*
X15405Y-23653D01*
X15452Y-23577D01*
X15524Y-23539D01*
X15572Y-23539D01*
X15643Y-23577D01*
X15667Y-23615D01*
X15976Y-23539D02*
X16072Y-23539D01*
X16119Y-23577D01*
X16167Y-23653D01*
X16191Y-23805D01*
X16191Y-24072D01*
X16167Y-24225D01*
X16119Y-24301D01*
X16072Y-24339D01*
X15976Y-24339D01*
X15929Y-24301D01*
X15881Y-24225D01*
X15857Y-24072D01*
X15857Y-23805D01*
X15881Y-23653D01*
X15929Y-23577D01*
X15976Y-23539D01*
X16405Y-24339D02*
X16405Y-23539D01*
X16691Y-24339D01*
X16691Y-23539D01*
X16929Y-24339D02*
X16929Y-23539D01*
X17215Y-24339D01*
X17215Y-23539D01*
X17715Y-24339D02*
X17429Y-24339D01*
X17572Y-24339D02*
X17572Y-23539D01*
X17524Y-23653D01*
X17477Y-23729D01*
X17429Y-23767D01*
M02*
