M48
;DRILL file {PCBnew (2010-05-05 BZR 2356)-stable} date 15/03/2012 14:58:28
;FORMAT={-.-/ absolute / metric / decimal}
R,T
VER,1
FMAT,2
METRIC,TZ
TCST,OFF
ICI,OFF
ATC,ON
T1C0.599
T2C0.635
T3C0.800
T4C0.813
T5C1.199
T6C1.600
T7C2.350
T8C3.000
%
M47
G05
M71
T1
X47.907Y-15.055
X47.907Y-17.595
X47.907Y-20.135
X47.907Y-22.675
X50.447Y-16.325
X50.447Y-18.865
X50.447Y-21.405
X50.447Y-23.945
T2
X36.800Y-55.860
X40.300Y-54.859
X43.736Y-71.808
X60.297Y-46.360
X61.897Y-25.359
X63.797Y10.140
X66.797Y-3.360
X74.298Y-77.859
X75.997Y-22.758
X77.198Y-70.160
X77.798Y-71.859
X79.797Y-75.860
X83.858Y-27.940
X92.296Y-20.858
X92.796Y-23.360
X92.796Y-25.359
X98.796Y-63.360
X100.297Y-74.859
X101.298Y-81.859
X101.798Y-28.359
X102.796Y-16.861
X103.297Y-12.860
X103.797Y-30.858
X103.797Y-61.359
X103.797Y-68.859
X104.297Y-86.360
X105.298Y-55.860
X106.797Y-61.359
X110.297Y-51.859
X110.297Y-69.860
X111.298Y-55.860
X113.797Y-57.358
X113.797Y-68.859
X116.296Y-75.860
X116.296Y-81.859
X117.297Y-20.858
X117.556Y-9.830
X119.797Y-56.860
X120.297Y-47.859
X120.297Y-50.858
X120.297Y-53.858
X124.767Y-47.379
X127.798Y-37.358
X128.298Y-57.859
X133.297Y-57.859
X133.797Y-49.360
X135.298Y-16.861
T3
X73.998Y11.242
X73.998Y1.082
X73.998Y-1.458
X75.217Y14.961
X77.757Y14.961
X80.297Y14.961
X81.618Y1.082
X81.618Y-1.458
X86.698Y11.242
X86.698Y1.082
X86.698Y-1.458
X87.917Y14.961
X90.457Y14.961
X92.997Y14.961
X94.318Y1.082
X94.318Y-1.458
X96.807Y-88.925
X99.347Y-88.925
X99.398Y11.242
X99.398Y1.082
X99.398Y-1.458
X100.617Y14.961
X103.157Y14.961
X105.697Y14.961
X107.018Y1.082
X107.018Y-1.458
X112.047Y-88.925
X112.098Y11.242
X112.098Y1.082
X112.098Y-1.458
X113.317Y14.961
X114.587Y-88.925
X115.857Y14.961
X118.397Y14.961
X119.718Y1.082
X119.718Y-1.458
X141.503Y-59.761
X141.503Y-62.301
X141.544Y-51.590
X141.544Y-54.130
T4
X39.296Y-59.360
X49.797Y-57.358
X58.301Y5.641
X58.301Y3.139
X58.301Y0.640
X58.301Y-1.859
X61.206Y-57.699
X70.058Y8.280
X82.296Y-32.860
X84.298Y-30.858
X86.297Y-28.859
X88.298Y-26.861
X126.017Y-23.139
X128.557Y-20.599
X128.557Y-25.679
T5
X65.517Y-67.180
X65.517Y-87.180
X72.517Y-67.180
X72.517Y-87.180
X73.337Y-11.138
X73.337Y-37.140
X77.338Y-11.138
X77.338Y-37.140
X79.517Y-67.180
X79.517Y-87.180
X81.336Y-11.138
X81.336Y-37.140
X85.336Y-11.138
X85.336Y-37.140
X86.517Y-67.180
X86.517Y-87.180
X89.337Y-11.138
X89.337Y-37.140
X93.337Y-11.138
X93.337Y-37.140
T6
X38.486Y-11.854
X38.486Y-27.145
T7
X41.237Y-13.785
X41.237Y-25.215
T8
X41.519Y-49.159
X44.521Y-53.858
X47.719Y-49.159
T0
M30
